<?xml version="1.0" encoding="UTF-8" standalone="no"?>
<!-- Created with Inkscape (http://www.inkscape.org/) -->

<svg
   xmlns:dc="http://purl.org/dc/elements/1.1/"
   xmlns:cc="http://creativecommons.org/ns#"
   xmlns:rdf="http://www.w3.org/1999/02/22-rdf-syntax-ns#"
   xmlns:svg="http://www.w3.org/2000/svg"
   xmlns="http://www.w3.org/2000/svg"
   xmlns:sodipodi="http://sodipodi.sourceforge.net/DTD/sodipodi-0.dtd"
   xmlns:inkscape="http://www.inkscape.org/namespaces/inkscape"
   width="297mm"
   height="210mm"
   viewBox="0 0 1122.5197 793.70081"
   version="1.1"
   id="svg14039"
   sodipodi:docname="kcnc-paste.svg"
   inkscape:version="0.92.1 r15371">
  <defs
     id="defs14033" />
  <sodipodi:namedview
     id="base"
     pagecolor="#ffffff"
     bordercolor="#666666"
     borderopacity="1.0"
     inkscape:pageopacity="0.0"
     inkscape:pageshadow="2"
     inkscape:zoom="1.2561409"
     inkscape:cx="560.06571"
     inkscape:cy="396.85039"
     inkscape:document-units="in"
     inkscape:current-layer="layer1"
     showgrid="false"
     inkscape:window-width="1920"
     inkscape:window-height="1147"
     inkscape:window-x="-8"
     inkscape:window-y="-8"
     inkscape:window-maximized="1"
     scale-x="1"
     units="mm" />
  <metadata
     id="metadata14036">
    <rdf:RDF>
      <cc:Work
         rdf:about="">
        <dc:format>image/svg+xml</dc:format>
        <dc:type
           rdf:resource="http://purl.org/dc/dcmitype/StillImage" />
        <dc:title></dc:title>
      </cc:Work>
    </rdf:RDF>
  </metadata>
  <g
     inkscape:label="Calque 1"
     inkscape:groupmode="layer"
     id="layer1"
     transform="translate(0,-8351.9999)">
    <polyline
       transform="matrix(0.00959999,0,0,0.00959999,-322.78302,8646.8287)"
       id="polyline458"
       points="73709,42346 73709,41853 74103,41853 74103,42346 73709,42346 "
       style="display:inline;fill:none;fill-opacity:1;fill-rule:evenodd;stroke:#000000;stroke-width:10.23622894;stroke-linecap:round;stroke-linejoin:round;stroke-miterlimit:4;stroke-dasharray:none;stroke-opacity:1" />
    <polyline
       transform="matrix(0.00959999,0,0,0.00959999,-322.78302,8646.8287)"
       id="polyline460"
       points="74496,42346 74496,41853 74890,41853 74890,42346 74496,42346 "
       style="display:inline;fill:none;fill-opacity:1;fill-rule:evenodd;stroke:#000000;stroke-width:10.23622894;stroke-linecap:round;stroke-linejoin:round;stroke-miterlimit:4;stroke-dasharray:none;stroke-opacity:1" />
    <polyline
       transform="matrix(0.00959999,0,0,0.00959999,-322.78302,8646.8287)"
       id="polyline462"
       points="41097,45497 41097,45202 41412,45202 41412,45497 41097,45497 "
       style="display:inline;fill:none;fill-opacity:1;fill-rule:evenodd;stroke:#000000;stroke-width:10.23622894;stroke-linecap:round;stroke-linejoin:round;stroke-miterlimit:4;stroke-dasharray:none;stroke-opacity:1" />
    <polyline
       transform="matrix(0.00959999,0,0,0.00959999,-322.78302,8646.8287)"
       id="polyline464"
       points="41687,45497 41687,45202 42002,45202 42002,45497 41687,45497 "
       style="display:inline;fill:none;fill-opacity:1;fill-rule:evenodd;stroke:#000000;stroke-width:10.23622894;stroke-linecap:round;stroke-linejoin:round;stroke-miterlimit:4;stroke-dasharray:none;stroke-opacity:1" />
    <polyline
       transform="matrix(0.00959999,0,0,0.00959999,-322.78302,8646.8287)"
       id="polyline466"
       points="43847,45497 43847,45202 44162,45202 44162,45497 43847,45497 "
       style="display:inline;fill:none;fill-opacity:1;fill-rule:evenodd;stroke:#000000;stroke-width:10.23622894;stroke-linecap:round;stroke-linejoin:round;stroke-miterlimit:4;stroke-dasharray:none;stroke-opacity:1" />
    <polyline
       transform="matrix(0.00959999,0,0,0.00959999,-322.78302,8646.8287)"
       id="polyline468"
       points="44437,45497 44437,45202 44752,45202 44752,45497 44437,45497 "
       style="display:inline;fill:none;fill-opacity:1;fill-rule:evenodd;stroke:#000000;stroke-width:10.23622894;stroke-linecap:round;stroke-linejoin:round;stroke-miterlimit:4;stroke-dasharray:none;stroke-opacity:1" />
    <polyline
       transform="matrix(0.00959999,0,0,0.00959999,-322.78302,8646.8287)"
       id="polyline470"
       points="69753,33909 70246,33909 70246,34303 69753,34303 69753,33909 "
       style="display:inline;fill:none;fill-opacity:1;fill-rule:evenodd;stroke:#000000;stroke-width:10.23622894;stroke-linecap:round;stroke-linejoin:round;stroke-miterlimit:4;stroke-dasharray:none;stroke-opacity:1" />
    <polyline
       transform="matrix(0.00959999,0,0,0.00959999,-322.78302,8646.8287)"
       id="polyline472"
       points="69753,34696 70246,34696 70246,35090 69753,35090 69753,34696 "
       style="display:inline;fill:none;fill-opacity:1;fill-rule:evenodd;stroke:#000000;stroke-width:10.23622894;stroke-linecap:round;stroke-linejoin:round;stroke-miterlimit:4;stroke-dasharray:none;stroke-opacity:1" />
    <polyline
       transform="matrix(0.00959999,0,0,0.00959999,-322.78302,8646.8287)"
       id="polyline474"
       points="46597,45497 46597,45202 46912,45202 46912,45497 46597,45497 "
       style="display:inline;fill:none;fill-opacity:1;fill-rule:evenodd;stroke:#000000;stroke-width:10.23622894;stroke-linecap:round;stroke-linejoin:round;stroke-miterlimit:4;stroke-dasharray:none;stroke-opacity:1" />
    <polyline
       transform="matrix(0.00959999,0,0,0.00959999,-322.78302,8646.8287)"
       id="polyline476"
       points="47187,45497 47187,45202 47502,45202 47502,45497 47187,45497 "
       style="display:inline;fill:none;fill-opacity:1;fill-rule:evenodd;stroke:#000000;stroke-width:10.23622894;stroke-linecap:round;stroke-linejoin:round;stroke-miterlimit:4;stroke-dasharray:none;stroke-opacity:1" />
    <polyline
       transform="matrix(0.00959999,0,0,0.00959999,-322.78302,8646.8287)"
       id="polyline478"
       points="49347,45497 49347,45202 49662,45202 49662,45497 49347,45497 "
       style="display:inline;fill:none;fill-opacity:1;fill-rule:evenodd;stroke:#000000;stroke-width:10.23622894;stroke-linecap:round;stroke-linejoin:round;stroke-miterlimit:4;stroke-dasharray:none;stroke-opacity:1" />
    <polyline
       transform="matrix(0.00959999,0,0,0.00959999,-322.78302,8646.8287)"
       id="polyline480"
       points="49937,45497 49937,45202 50252,45202 50252,45497 49937,45497 "
       style="display:inline;fill:none;fill-opacity:1;fill-rule:evenodd;stroke:#000000;stroke-width:10.23622894;stroke-linecap:round;stroke-linejoin:round;stroke-miterlimit:4;stroke-dasharray:none;stroke-opacity:1" />
    <polyline
       transform="matrix(0.00959999,0,0,0.00959999,-322.78302,8646.8287)"
       id="polyline482"
       points="70752,33947 71047,33947 71047,34262 70752,34262 70752,33947 "
       style="display:inline;fill:none;fill-opacity:1;fill-rule:evenodd;stroke:#000000;stroke-width:10.23622894;stroke-linecap:round;stroke-linejoin:round;stroke-miterlimit:4;stroke-dasharray:none;stroke-opacity:1" />
    <polyline
       transform="matrix(0.00959999,0,0,0.00959999,-322.78302,8646.8287)"
       id="polyline484"
       points="70752,34537 71047,34537 71047,34852 70752,34852 70752,34537 "
       style="display:inline;fill:none;fill-opacity:1;fill-rule:evenodd;stroke:#000000;stroke-width:10.23622894;stroke-linecap:round;stroke-linejoin:round;stroke-miterlimit:4;stroke-dasharray:none;stroke-opacity:1" />
    <polyline
       transform="matrix(0.00959999,0,0,0.00959999,-322.78302,8646.8287)"
       id="polyline486"
       points="52097,45497 52097,45202 52412,45202 52412,45497 52097,45497 "
       style="display:inline;fill:none;fill-opacity:1;fill-rule:evenodd;stroke:#000000;stroke-width:10.23622894;stroke-linecap:round;stroke-linejoin:round;stroke-miterlimit:4;stroke-dasharray:none;stroke-opacity:1" />
    <polyline
       transform="matrix(0.00959999,0,0,0.00959999,-322.78302,8646.8287)"
       id="polyline488"
       points="52687,45497 52687,45202 53002,45202 53002,45497 52687,45497 "
       style="display:inline;fill:none;fill-opacity:1;fill-rule:evenodd;stroke:#000000;stroke-width:10.23622894;stroke-linecap:round;stroke-linejoin:round;stroke-miterlimit:4;stroke-dasharray:none;stroke-opacity:1" />
    <polyline
       transform="matrix(0.00959999,0,0,0.00959999,-322.78302,8646.8287)"
       id="polyline490"
       points="71552,33947 71847,33947 71847,34262 71552,34262 71552,33947 "
       style="display:inline;fill:none;fill-opacity:1;fill-rule:evenodd;stroke:#000000;stroke-width:10.23622894;stroke-linecap:round;stroke-linejoin:round;stroke-miterlimit:4;stroke-dasharray:none;stroke-opacity:1" />
    <polyline
       transform="matrix(0.00959999,0,0,0.00959999,-322.78302,8646.8287)"
       id="polyline492"
       points="71552,34537 71847,34537 71847,34852 71552,34852 71552,34537 "
       style="display:inline;fill:none;fill-opacity:1;fill-rule:evenodd;stroke:#000000;stroke-width:10.23622894;stroke-linecap:round;stroke-linejoin:round;stroke-miterlimit:4;stroke-dasharray:none;stroke-opacity:1" />
    <polyline
       transform="matrix(0.00959999,0,0,0.00959999,-322.78302,8646.8287)"
       id="polyline494"
       points="54847,45497 54847,45202 55162,45202 55162,45497 54847,45497 "
       style="display:inline;fill:none;fill-opacity:1;fill-rule:evenodd;stroke:#000000;stroke-width:10.23622894;stroke-linecap:round;stroke-linejoin:round;stroke-miterlimit:4;stroke-dasharray:none;stroke-opacity:1" />
    <polyline
       transform="matrix(0.00959999,0,0,0.00959999,-322.78302,8646.8287)"
       id="polyline496"
       points="55437,45497 55437,45202 55752,45202 55752,45497 55437,45497 "
       style="display:inline;fill:none;fill-opacity:1;fill-rule:evenodd;stroke:#000000;stroke-width:10.23622894;stroke-linecap:round;stroke-linejoin:round;stroke-miterlimit:4;stroke-dasharray:none;stroke-opacity:1" />
    <polyline
       transform="matrix(0.00959999,0,0,0.00959999,-322.78302,8646.8287)"
       id="polyline498"
       points="57847,45497 57847,45202 58162,45202 58162,45497 57847,45497 "
       style="display:inline;fill:none;fill-opacity:1;fill-rule:evenodd;stroke:#000000;stroke-width:10.23622894;stroke-linecap:round;stroke-linejoin:round;stroke-miterlimit:4;stroke-dasharray:none;stroke-opacity:1" />
    <polyline
       transform="matrix(0.00959999,0,0,0.00959999,-322.78302,8646.8287)"
       id="polyline500"
       points="58437,45497 58437,45202 58752,45202 58752,45497 58437,45497 "
       style="display:inline;fill:none;fill-opacity:1;fill-rule:evenodd;stroke:#000000;stroke-width:10.23622894;stroke-linecap:round;stroke-linejoin:round;stroke-miterlimit:4;stroke-dasharray:none;stroke-opacity:1" />
    <polyline
       transform="matrix(0.00959999,0,0,0.00959999,-322.78302,8646.8287)"
       id="polyline502"
       points="40122,41706 40477,41706 40477,41903 40122,41903 40122,41706 "
       style="display:inline;fill:none;fill-opacity:1;fill-rule:evenodd;stroke:#000000;stroke-width:10.23622894;stroke-linecap:round;stroke-linejoin:round;stroke-miterlimit:4;stroke-dasharray:none;stroke-opacity:1" />
    <polyline
       transform="matrix(0.00959999,0,0,0.00959999,-322.78302,8646.8287)"
       id="polyline504"
       points="40122,42296 40477,42296 40477,42493 40122,42493 40122,42296 "
       style="display:inline;fill:none;fill-opacity:1;fill-rule:evenodd;stroke:#000000;stroke-width:10.23622894;stroke-linecap:round;stroke-linejoin:round;stroke-miterlimit:4;stroke-dasharray:none;stroke-opacity:1" />
    <polyline
       transform="matrix(0.00959999,0,0,0.00959999,-322.78302,8646.8287)"
       id="polyline506"
       points="43122,41706 43477,41706 43477,41903 43122,41903 43122,41706 "
       style="display:inline;fill:none;fill-opacity:1;fill-rule:evenodd;stroke:#000000;stroke-width:10.23622894;stroke-linecap:round;stroke-linejoin:round;stroke-miterlimit:4;stroke-dasharray:none;stroke-opacity:1" />
    <polyline
       transform="matrix(0.00959999,0,0,0.00959999,-322.78302,8646.8287)"
       id="polyline508"
       points="43122,42296 43477,42296 43477,42493 43122,42493 43122,42296 "
       style="display:inline;fill:none;fill-opacity:1;fill-rule:evenodd;stroke:#000000;stroke-width:10.23622894;stroke-linecap:round;stroke-linejoin:round;stroke-miterlimit:4;stroke-dasharray:none;stroke-opacity:1" />
    <polyline
       transform="matrix(0.00959999,0,0,0.00959999,-322.78302,8646.8287)"
       id="polyline510"
       points="45872,41706 46227,41706 46227,41903 45872,41903 45872,41706 "
       style="display:inline;fill:none;fill-opacity:1;fill-rule:evenodd;stroke:#000000;stroke-width:10.23622894;stroke-linecap:round;stroke-linejoin:round;stroke-miterlimit:4;stroke-dasharray:none;stroke-opacity:1" />
    <polyline
       transform="matrix(0.00959999,0,0,0.00959999,-322.78302,8646.8287)"
       id="polyline512"
       points="45872,42296 46227,42296 46227,42493 45872,42493 45872,42296 "
       style="display:inline;fill:none;fill-opacity:1;fill-rule:evenodd;stroke:#000000;stroke-width:10.23622894;stroke-linecap:round;stroke-linejoin:round;stroke-miterlimit:4;stroke-dasharray:none;stroke-opacity:1" />
    <polyline
       transform="matrix(0.00959999,0,0,0.00959999,-322.78302,8646.8287)"
       id="polyline514"
       points="48622,41706 48977,41706 48977,41903 48622,41903 48622,41706 "
       style="display:inline;fill:none;fill-opacity:1;fill-rule:evenodd;stroke:#000000;stroke-width:10.23622894;stroke-linecap:round;stroke-linejoin:round;stroke-miterlimit:4;stroke-dasharray:none;stroke-opacity:1" />
    <polyline
       transform="matrix(0.00959999,0,0,0.00959999,-322.78302,8646.8287)"
       id="polyline516"
       points="48622,42296 48977,42296 48977,42493 48622,42493 48622,42296 "
       style="display:inline;fill:none;fill-opacity:1;fill-rule:evenodd;stroke:#000000;stroke-width:10.23622894;stroke-linecap:round;stroke-linejoin:round;stroke-miterlimit:4;stroke-dasharray:none;stroke-opacity:1" />
    <polyline
       transform="matrix(0.00959999,0,0,0.00959999,-322.78302,8646.8287)"
       id="polyline518"
       points="51372,41706 51727,41706 51727,41903 51372,41903 51372,41706 "
       style="display:inline;fill:none;fill-opacity:1;fill-rule:evenodd;stroke:#000000;stroke-width:10.23622894;stroke-linecap:round;stroke-linejoin:round;stroke-miterlimit:4;stroke-dasharray:none;stroke-opacity:1" />
    <polyline
       transform="matrix(0.00959999,0,0,0.00959999,-322.78302,8646.8287)"
       id="polyline520"
       points="51372,42296 51727,42296 51727,42493 51372,42493 51372,42296 "
       style="display:inline;fill:none;fill-opacity:1;fill-rule:evenodd;stroke:#000000;stroke-width:10.23622894;stroke-linecap:round;stroke-linejoin:round;stroke-miterlimit:4;stroke-dasharray:none;stroke-opacity:1" />
    <polyline
       transform="matrix(0.00959999,0,0,0.00959999,-322.78302,8646.8287)"
       id="polyline522"
       points="54122,41706 54477,41706 54477,41903 54122,41903 54122,41706 "
       style="display:inline;fill:none;fill-opacity:1;fill-rule:evenodd;stroke:#000000;stroke-width:10.23622894;stroke-linecap:round;stroke-linejoin:round;stroke-miterlimit:4;stroke-dasharray:none;stroke-opacity:1" />
    <polyline
       transform="matrix(0.00959999,0,0,0.00959999,-322.78302,8646.8287)"
       id="polyline524"
       points="54122,42296 54477,42296 54477,42493 54122,42493 54122,42296 "
       style="display:inline;fill:none;fill-opacity:1;fill-rule:evenodd;stroke:#000000;stroke-width:10.23622894;stroke-linecap:round;stroke-linejoin:round;stroke-miterlimit:4;stroke-dasharray:none;stroke-opacity:1" />
    <polyline
       transform="matrix(0.00959999,0,0,0.00959999,-322.78302,8646.8287)"
       id="polyline526"
       points="56872,41706 57227,41706 57227,41903 56872,41903 56872,41706 "
       style="display:inline;fill:none;fill-opacity:1;fill-rule:evenodd;stroke:#000000;stroke-width:10.23622894;stroke-linecap:round;stroke-linejoin:round;stroke-miterlimit:4;stroke-dasharray:none;stroke-opacity:1" />
    <polyline
       transform="matrix(0.00959999,0,0,0.00959999,-322.78302,8646.8287)"
       id="polyline528"
       points="56872,42296 57227,42296 57227,42493 56872,42493 56872,42296 "
       style="display:inline;fill:none;fill-opacity:1;fill-rule:evenodd;stroke:#000000;stroke-width:10.23622894;stroke-linecap:round;stroke-linejoin:round;stroke-miterlimit:4;stroke-dasharray:none;stroke-opacity:1" />
    <polyline
       transform="matrix(0.00959999,0,0,0.00959999,-322.78302,8646.8287)"
       id="polyline530"
       points="40122,43706 40477,43706 40477,43903 40122,43903 40122,43706 "
       style="display:inline;fill:none;fill-opacity:1;fill-rule:evenodd;stroke:#000000;stroke-width:10.23622894;stroke-linecap:round;stroke-linejoin:round;stroke-miterlimit:4;stroke-dasharray:none;stroke-opacity:1" />
    <polyline
       transform="matrix(0.00959999,0,0,0.00959999,-322.78302,8646.8287)"
       id="polyline532"
       points="40122,44296 40477,44296 40477,44493 40122,44493 40122,44296 "
       style="display:inline;fill:none;fill-opacity:1;fill-rule:evenodd;stroke:#000000;stroke-width:10.23622894;stroke-linecap:round;stroke-linejoin:round;stroke-miterlimit:4;stroke-dasharray:none;stroke-opacity:1" />
    <polyline
       transform="matrix(0.00959999,0,0,0.00959999,-322.78302,8646.8287)"
       id="polyline534"
       points="43122,43706 43477,43706 43477,43903 43122,43903 43122,43706 "
       style="display:inline;fill:none;fill-opacity:1;fill-rule:evenodd;stroke:#000000;stroke-width:10.23622894;stroke-linecap:round;stroke-linejoin:round;stroke-miterlimit:4;stroke-dasharray:none;stroke-opacity:1" />
    <polyline
       transform="matrix(0.00959999,0,0,0.00959999,-322.78302,8646.8287)"
       id="polyline536"
       points="43122,44296 43477,44296 43477,44493 43122,44493 43122,44296 "
       style="display:inline;fill:none;fill-opacity:1;fill-rule:evenodd;stroke:#000000;stroke-width:10.23622894;stroke-linecap:round;stroke-linejoin:round;stroke-miterlimit:4;stroke-dasharray:none;stroke-opacity:1" />
    <polyline
       transform="matrix(0.00959999,0,0,0.00959999,-322.78302,8646.8287)"
       id="polyline538"
       points="45872,43706 46227,43706 46227,43903 45872,43903 45872,43706 "
       style="display:inline;fill:none;fill-opacity:1;fill-rule:evenodd;stroke:#000000;stroke-width:10.23622894;stroke-linecap:round;stroke-linejoin:round;stroke-miterlimit:4;stroke-dasharray:none;stroke-opacity:1" />
    <polyline
       transform="matrix(0.00959999,0,0,0.00959999,-322.78302,8646.8287)"
       id="polyline540"
       points="45872,44296 46227,44296 46227,44493 45872,44493 45872,44296 "
       style="display:inline;fill:none;fill-opacity:1;fill-rule:evenodd;stroke:#000000;stroke-width:10.23622894;stroke-linecap:round;stroke-linejoin:round;stroke-miterlimit:4;stroke-dasharray:none;stroke-opacity:1" />
    <polyline
       transform="matrix(0.00959999,0,0,0.00959999,-322.78302,8646.8287)"
       id="polyline542"
       points="48622,43706 48977,43706 48977,43903 48622,43903 48622,43706 "
       style="display:inline;fill:none;fill-opacity:1;fill-rule:evenodd;stroke:#000000;stroke-width:10.23622894;stroke-linecap:round;stroke-linejoin:round;stroke-miterlimit:4;stroke-dasharray:none;stroke-opacity:1" />
    <polyline
       transform="matrix(0.00959999,0,0,0.00959999,-322.78302,8646.8287)"
       id="polyline544"
       points="48622,44296 48977,44296 48977,44493 48622,44493 48622,44296 "
       style="display:inline;fill:none;fill-opacity:1;fill-rule:evenodd;stroke:#000000;stroke-width:10.23622894;stroke-linecap:round;stroke-linejoin:round;stroke-miterlimit:4;stroke-dasharray:none;stroke-opacity:1" />
    <polyline
       transform="matrix(0.00959999,0,0,0.00959999,-322.78302,8646.8287)"
       id="polyline546"
       points="51372,43706 51727,43706 51727,43903 51372,43903 51372,43706 "
       style="display:inline;fill:none;fill-opacity:1;fill-rule:evenodd;stroke:#000000;stroke-width:10.23622894;stroke-linecap:round;stroke-linejoin:round;stroke-miterlimit:4;stroke-dasharray:none;stroke-opacity:1" />
    <polyline
       transform="matrix(0.00959999,0,0,0.00959999,-322.78302,8646.8287)"
       id="polyline548"
       points="51372,44296 51727,44296 51727,44493 51372,44493 51372,44296 "
       style="display:inline;fill:none;fill-opacity:1;fill-rule:evenodd;stroke:#000000;stroke-width:10.23622894;stroke-linecap:round;stroke-linejoin:round;stroke-miterlimit:4;stroke-dasharray:none;stroke-opacity:1" />
    <polyline
       transform="matrix(0.00959999,0,0,0.00959999,-322.78302,8646.8287)"
       id="polyline550"
       points="54122,43706 54477,43706 54477,43903 54122,43903 54122,43706 "
       style="display:inline;fill:none;fill-opacity:1;fill-rule:evenodd;stroke:#000000;stroke-width:10.23622894;stroke-linecap:round;stroke-linejoin:round;stroke-miterlimit:4;stroke-dasharray:none;stroke-opacity:1" />
    <polyline
       transform="matrix(0.00959999,0,0,0.00959999,-322.78302,8646.8287)"
       id="polyline552"
       points="54122,44296 54477,44296 54477,44493 54122,44493 54122,44296 "
       style="display:inline;fill:none;fill-opacity:1;fill-rule:evenodd;stroke:#000000;stroke-width:10.23622894;stroke-linecap:round;stroke-linejoin:round;stroke-miterlimit:4;stroke-dasharray:none;stroke-opacity:1" />
    <polyline
       transform="matrix(0.00959999,0,0,0.00959999,-322.78302,8646.8287)"
       id="polyline554"
       points="56872,43706 57227,43706 57227,43903 56872,43903 56872,43706 "
       style="display:inline;fill:none;fill-opacity:1;fill-rule:evenodd;stroke:#000000;stroke-width:10.23622894;stroke-linecap:round;stroke-linejoin:round;stroke-miterlimit:4;stroke-dasharray:none;stroke-opacity:1" />
    <polyline
       transform="matrix(0.00959999,0,0,0.00959999,-322.78302,8646.8287)"
       id="polyline556"
       points="56872,44296 57227,44296 57227,44493 56872,44493 56872,44296 "
       style="display:inline;fill:none;fill-opacity:1;fill-rule:evenodd;stroke:#000000;stroke-width:10.23622894;stroke-linecap:round;stroke-linejoin:round;stroke-miterlimit:4;stroke-dasharray:none;stroke-opacity:1" />
    <polyline
       transform="matrix(0.00959999,0,0,0.00959999,-322.78302,8646.8287)"
       id="polyline558"
       points="47722,47106 48077,47106 48077,47303 47722,47303 47722,47106 "
       style="display:inline;fill:none;fill-opacity:1;fill-rule:evenodd;stroke:#000000;stroke-width:10.23622894;stroke-linecap:round;stroke-linejoin:round;stroke-miterlimit:4;stroke-dasharray:none;stroke-opacity:1" />
    <polyline
       transform="matrix(0.00959999,0,0,0.00959999,-322.78302,8646.8287)"
       id="polyline560"
       points="47722,47696 48077,47696 48077,47893 47722,47893 47722,47696 "
       style="display:inline;fill:none;fill-opacity:1;fill-rule:evenodd;stroke:#000000;stroke-width:10.23622894;stroke-linecap:round;stroke-linejoin:round;stroke-miterlimit:4;stroke-dasharray:none;stroke-opacity:1" />
    <polyline
       transform="matrix(0.00959999,0,0,0.00959999,-322.78302,8646.8287)"
       id="polyline562"
       points="41162,44123 41437,44123 41437,44674 41162,44674 41162,44123 "
       style="display:inline;fill:none;fill-opacity:1;fill-rule:evenodd;stroke:#000000;stroke-width:10.23622894;stroke-linecap:round;stroke-linejoin:round;stroke-miterlimit:4;stroke-dasharray:none;stroke-opacity:1" />
    <polyline
       transform="matrix(0.00959999,0,0,0.00959999,-322.78302,8646.8287)"
       id="polyline564"
       points="42162,41525 42437,41525 42437,42076 42162,42076 42162,41525 "
       style="display:inline;fill:none;fill-opacity:1;fill-rule:evenodd;stroke:#000000;stroke-width:10.23622894;stroke-linecap:round;stroke-linejoin:round;stroke-miterlimit:4;stroke-dasharray:none;stroke-opacity:1" />
    <polyline
       transform="matrix(0.00959999,0,0,0.00959999,-322.78302,8646.8287)"
       id="polyline566"
       points="42162,44123 42437,44123 42437,44674 42162,44674 42162,44123 "
       style="display:inline;fill:none;fill-opacity:1;fill-rule:evenodd;stroke:#000000;stroke-width:10.23622894;stroke-linecap:round;stroke-linejoin:round;stroke-miterlimit:4;stroke-dasharray:none;stroke-opacity:1" />
    <polyline
       transform="matrix(0.00959999,0,0,0.00959999,-322.78302,8646.8287)"
       id="polyline568"
       points="41162,41525 41437,41525 41437,42076 41162,42076 41162,41525 "
       style="display:inline;fill:none;fill-opacity:1;fill-rule:evenodd;stroke:#000000;stroke-width:10.23622894;stroke-linecap:round;stroke-linejoin:round;stroke-miterlimit:4;stroke-dasharray:none;stroke-opacity:1" />
    <polyline
       transform="matrix(0.00959999,0,0,0.00959999,-322.78302,8646.8287)"
       id="polyline570"
       points="43912,44123 44187,44123 44187,44674 43912,44674 43912,44123 "
       style="display:inline;fill:none;fill-opacity:1;fill-rule:evenodd;stroke:#000000;stroke-width:10.23622894;stroke-linecap:round;stroke-linejoin:round;stroke-miterlimit:4;stroke-dasharray:none;stroke-opacity:1" />
    <polyline
       transform="matrix(0.00959999,0,0,0.00959999,-322.78302,8646.8287)"
       id="polyline572"
       points="44912,41525 45187,41525 45187,42076 44912,42076 44912,41525 "
       style="display:inline;fill:none;fill-opacity:1;fill-rule:evenodd;stroke:#000000;stroke-width:10.23622894;stroke-linecap:round;stroke-linejoin:round;stroke-miterlimit:4;stroke-dasharray:none;stroke-opacity:1" />
    <polyline
       transform="matrix(0.00959999,0,0,0.00959999,-322.78302,8646.8287)"
       id="polyline574"
       points="44912,44123 45187,44123 45187,44674 44912,44674 44912,44123 "
       style="display:inline;fill:none;fill-opacity:1;fill-rule:evenodd;stroke:#000000;stroke-width:10.23622894;stroke-linecap:round;stroke-linejoin:round;stroke-miterlimit:4;stroke-dasharray:none;stroke-opacity:1" />
    <polyline
       transform="matrix(0.00959999,0,0,0.00959999,-322.78302,8646.8287)"
       id="polyline576"
       points="43912,41525 44187,41525 44187,42076 43912,42076 43912,41525 "
       style="display:inline;fill:none;fill-opacity:1;fill-rule:evenodd;stroke:#000000;stroke-width:10.23622894;stroke-linecap:round;stroke-linejoin:round;stroke-miterlimit:4;stroke-dasharray:none;stroke-opacity:1" />
    <polyline
       transform="matrix(0.00959999,0,0,0.00959999,-322.78302,8646.8287)"
       id="polyline578"
       points="46662,44123 46937,44123 46937,44674 46662,44674 46662,44123 "
       style="display:inline;fill:none;fill-opacity:1;fill-rule:evenodd;stroke:#000000;stroke-width:10.23622894;stroke-linecap:round;stroke-linejoin:round;stroke-miterlimit:4;stroke-dasharray:none;stroke-opacity:1" />
    <polyline
       transform="matrix(0.00959999,0,0,0.00959999,-322.78302,8646.8287)"
       id="polyline580"
       points="47662,41525 47937,41525 47937,42076 47662,42076 47662,41525 "
       style="display:inline;fill:none;fill-opacity:1;fill-rule:evenodd;stroke:#000000;stroke-width:10.23622894;stroke-linecap:round;stroke-linejoin:round;stroke-miterlimit:4;stroke-dasharray:none;stroke-opacity:1" />
    <polyline
       transform="matrix(0.00959999,0,0,0.00959999,-322.78302,8646.8287)"
       id="polyline582"
       points="47662,44123 47937,44123 47937,44674 47662,44674 47662,44123 "
       style="display:inline;fill:none;fill-opacity:1;fill-rule:evenodd;stroke:#000000;stroke-width:10.23622894;stroke-linecap:round;stroke-linejoin:round;stroke-miterlimit:4;stroke-dasharray:none;stroke-opacity:1" />
    <polyline
       transform="matrix(0.00959999,0,0,0.00959999,-322.78302,8646.8287)"
       id="polyline584"
       points="46662,41525 46937,41525 46937,42076 46662,42076 46662,41525 "
       style="display:inline;fill:none;fill-opacity:1;fill-rule:evenodd;stroke:#000000;stroke-width:10.23622894;stroke-linecap:round;stroke-linejoin:round;stroke-miterlimit:4;stroke-dasharray:none;stroke-opacity:1" />
    <polyline
       transform="matrix(0.00959999,0,0,0.00959999,-322.78302,8646.8287)"
       id="polyline586"
       points="49412,44123 49687,44123 49687,44674 49412,44674 49412,44123 "
       style="display:inline;fill:none;fill-opacity:1;fill-rule:evenodd;stroke:#000000;stroke-width:10.23622894;stroke-linecap:round;stroke-linejoin:round;stroke-miterlimit:4;stroke-dasharray:none;stroke-opacity:1" />
    <polyline
       transform="matrix(0.00959999,0,0,0.00959999,-322.78302,8646.8287)"
       id="polyline588"
       points="50412,41525 50687,41525 50687,42076 50412,42076 50412,41525 "
       style="display:inline;fill:none;fill-opacity:1;fill-rule:evenodd;stroke:#000000;stroke-width:10.23622894;stroke-linecap:round;stroke-linejoin:round;stroke-miterlimit:4;stroke-dasharray:none;stroke-opacity:1" />
    <polyline
       transform="matrix(0.00959999,0,0,0.00959999,-322.78302,8646.8287)"
       id="polyline590"
       points="50412,44123 50687,44123 50687,44674 50412,44674 50412,44123 "
       style="display:inline;fill:none;fill-opacity:1;fill-rule:evenodd;stroke:#000000;stroke-width:10.23622894;stroke-linecap:round;stroke-linejoin:round;stroke-miterlimit:4;stroke-dasharray:none;stroke-opacity:1" />
    <polyline
       transform="matrix(0.00959999,0,0,0.00959999,-322.78302,8646.8287)"
       id="polyline592"
       points="49412,41525 49687,41525 49687,42076 49412,42076 49412,41525 "
       style="display:inline;fill:none;fill-opacity:1;fill-rule:evenodd;stroke:#000000;stroke-width:10.23622894;stroke-linecap:round;stroke-linejoin:round;stroke-miterlimit:4;stroke-dasharray:none;stroke-opacity:1" />
    <polyline
       transform="matrix(0.00959999,0,0,0.00959999,-322.78302,8646.8287)"
       id="polyline594"
       points="52162,44123 52437,44123 52437,44674 52162,44674 52162,44123 "
       style="display:inline;fill:none;fill-opacity:1;fill-rule:evenodd;stroke:#000000;stroke-width:10.23622894;stroke-linecap:round;stroke-linejoin:round;stroke-miterlimit:4;stroke-dasharray:none;stroke-opacity:1" />
    <polyline
       transform="matrix(0.00959999,0,0,0.00959999,-322.78302,8646.8287)"
       id="polyline596"
       points="53162,41525 53437,41525 53437,42076 53162,42076 53162,41525 "
       style="display:inline;fill:none;fill-opacity:1;fill-rule:evenodd;stroke:#000000;stroke-width:10.23622894;stroke-linecap:round;stroke-linejoin:round;stroke-miterlimit:4;stroke-dasharray:none;stroke-opacity:1" />
    <polyline
       transform="matrix(0.00959999,0,0,0.00959999,-322.78302,8646.8287)"
       id="polyline598"
       points="53162,44123 53437,44123 53437,44674 53162,44674 53162,44123 "
       style="display:inline;fill:none;fill-opacity:1;fill-rule:evenodd;stroke:#000000;stroke-width:10.23622894;stroke-linecap:round;stroke-linejoin:round;stroke-miterlimit:4;stroke-dasharray:none;stroke-opacity:1" />
    <polyline
       transform="matrix(0.00959999,0,0,0.00959999,-322.78302,8646.8287)"
       id="polyline600"
       points="52162,41525 52437,41525 52437,42076 52162,42076 52162,41525 "
       style="display:inline;fill:none;fill-opacity:1;fill-rule:evenodd;stroke:#000000;stroke-width:10.23622894;stroke-linecap:round;stroke-linejoin:round;stroke-miterlimit:4;stroke-dasharray:none;stroke-opacity:1" />
    <polyline
       transform="matrix(0.00959999,0,0,0.00959999,-322.78302,8646.8287)"
       id="polyline602"
       points="54912,44123 55187,44123 55187,44674 54912,44674 54912,44123 "
       style="display:inline;fill:none;fill-opacity:1;fill-rule:evenodd;stroke:#000000;stroke-width:10.23622894;stroke-linecap:round;stroke-linejoin:round;stroke-miterlimit:4;stroke-dasharray:none;stroke-opacity:1" />
    <polyline
       transform="matrix(0.00959999,0,0,0.00959999,-322.78302,8646.8287)"
       id="polyline604"
       points="55912,41525 56187,41525 56187,42076 55912,42076 55912,41525 "
       style="display:inline;fill:none;fill-opacity:1;fill-rule:evenodd;stroke:#000000;stroke-width:10.23622894;stroke-linecap:round;stroke-linejoin:round;stroke-miterlimit:4;stroke-dasharray:none;stroke-opacity:1" />
    <polyline
       transform="matrix(0.00959999,0,0,0.00959999,-322.78302,8646.8287)"
       id="polyline606"
       points="55912,44123 56187,44123 56187,44674 55912,44674 55912,44123 "
       style="display:inline;fill:none;fill-opacity:1;fill-rule:evenodd;stroke:#000000;stroke-width:10.23622894;stroke-linecap:round;stroke-linejoin:round;stroke-miterlimit:4;stroke-dasharray:none;stroke-opacity:1" />
    <polyline
       transform="matrix(0.00959999,0,0,0.00959999,-322.78302,8646.8287)"
       id="polyline608"
       points="54912,41525 55187,41525 55187,42076 54912,42076 54912,41525 "
       style="display:inline;fill:none;fill-opacity:1;fill-rule:evenodd;stroke:#000000;stroke-width:10.23622894;stroke-linecap:round;stroke-linejoin:round;stroke-miterlimit:4;stroke-dasharray:none;stroke-opacity:1" />
    <polyline
       transform="matrix(0.00959999,0,0,0.00959999,-322.78302,8646.8287)"
       id="polyline610"
       points="57912,44123 58187,44123 58187,44674 57912,44674 57912,44123 "
       style="display:inline;fill:none;fill-opacity:1;fill-rule:evenodd;stroke:#000000;stroke-width:10.23622894;stroke-linecap:round;stroke-linejoin:round;stroke-miterlimit:4;stroke-dasharray:none;stroke-opacity:1" />
    <polyline
       transform="matrix(0.00959999,0,0,0.00959999,-322.78302,8646.8287)"
       id="polyline612"
       points="58912,41525 59187,41525 59187,42076 58912,42076 58912,41525 "
       style="display:inline;fill:none;fill-opacity:1;fill-rule:evenodd;stroke:#000000;stroke-width:10.23622894;stroke-linecap:round;stroke-linejoin:round;stroke-miterlimit:4;stroke-dasharray:none;stroke-opacity:1" />
    <polyline
       transform="matrix(0.00959999,0,0,0.00959999,-322.78302,8646.8287)"
       id="polyline614"
       points="58912,44123 59187,44123 59187,44674 58912,44674 58912,44123 "
       style="display:inline;fill:none;fill-opacity:1;fill-rule:evenodd;stroke:#000000;stroke-width:10.23622894;stroke-linecap:round;stroke-linejoin:round;stroke-miterlimit:4;stroke-dasharray:none;stroke-opacity:1" />
    <polyline
       transform="matrix(0.00959999,0,0,0.00959999,-322.78302,8646.8287)"
       id="polyline616"
       points="57912,41525 58187,41525 58187,42076 57912,42076 57912,41525 "
       style="display:inline;fill:none;fill-opacity:1;fill-rule:evenodd;stroke:#000000;stroke-width:10.23622894;stroke-linecap:round;stroke-linejoin:round;stroke-miterlimit:4;stroke-dasharray:none;stroke-opacity:1" />
    <polyline
       transform="matrix(0.00959999,0,0,0.00959999,-322.78302,8646.8287)"
       id="polyline618"
       points="56220,31200 56220,30700 56380,30700 56380,31200 56220,31200 "
       style="display:inline;fill:none;fill-opacity:1;fill-rule:evenodd;stroke:#000000;stroke-width:10.23622894;stroke-linecap:round;stroke-linejoin:round;stroke-miterlimit:4;stroke-dasharray:none;stroke-opacity:1" />
    <polyline
       transform="matrix(0.00959999,0,0,0.00959999,-322.78302,8646.8287)"
       id="polyline620"
       points="56470,31200 56470,30700 56630,30700 56630,31200 56470,31200 "
       style="display:inline;fill:none;fill-opacity:1;fill-rule:evenodd;stroke:#000000;stroke-width:10.23622894;stroke-linecap:round;stroke-linejoin:round;stroke-miterlimit:4;stroke-dasharray:none;stroke-opacity:1" />
    <polyline
       transform="matrix(0.00959999,0,0,0.00959999,-322.78302,8646.8287)"
       id="polyline622"
       points="56730,31200 56730,30700 56890,30700 56890,31200 56730,31200 "
       style="display:inline;fill:none;fill-opacity:1;fill-rule:evenodd;stroke:#000000;stroke-width:10.23622894;stroke-linecap:round;stroke-linejoin:round;stroke-miterlimit:4;stroke-dasharray:none;stroke-opacity:1" />
    <polyline
       transform="matrix(0.00959999,0,0,0.00959999,-322.78302,8646.8287)"
       id="polyline624"
       points="56990,31200 56990,30700 57150,30700 57150,31200 56990,31200 "
       style="display:inline;fill:none;fill-opacity:1;fill-rule:evenodd;stroke:#000000;stroke-width:10.23622894;stroke-linecap:round;stroke-linejoin:round;stroke-miterlimit:4;stroke-dasharray:none;stroke-opacity:1" />
    <polyline
       transform="matrix(0.00959999,0,0,0.00959999,-322.78302,8646.8287)"
       id="polyline626"
       points="57240,31200 57240,30700 57400,30700 57400,31200 57240,31200 "
       style="display:inline;fill:none;fill-opacity:1;fill-rule:evenodd;stroke:#000000;stroke-width:10.23622894;stroke-linecap:round;stroke-linejoin:round;stroke-miterlimit:4;stroke-dasharray:none;stroke-opacity:1" />
    <polyline
       transform="matrix(0.00959999,0,0,0.00959999,-322.78302,8646.8287)"
       id="polyline628"
       points="57500,31200 57500,30700 57660,30700 57660,31200 57500,31200 "
       style="display:inline;fill:none;fill-opacity:1;fill-rule:evenodd;stroke:#000000;stroke-width:10.23622894;stroke-linecap:round;stroke-linejoin:round;stroke-miterlimit:4;stroke-dasharray:none;stroke-opacity:1" />
    <polyline
       transform="matrix(0.00959999,0,0,0.00959999,-322.78302,8646.8287)"
       id="polyline630"
       points="57760,31200 57760,30700 57920,30700 57920,31200 57760,31200 "
       style="display:inline;fill:none;fill-opacity:1;fill-rule:evenodd;stroke:#000000;stroke-width:10.23622894;stroke-linecap:round;stroke-linejoin:round;stroke-miterlimit:4;stroke-dasharray:none;stroke-opacity:1" />
    <polyline
       transform="matrix(0.00959999,0,0,0.00959999,-322.78302,8646.8287)"
       id="polyline632"
       points="58010,31200 58010,30700 58170,30700 58170,31200 58010,31200 "
       style="display:inline;fill:none;fill-opacity:1;fill-rule:evenodd;stroke:#000000;stroke-width:10.23622894;stroke-linecap:round;stroke-linejoin:round;stroke-miterlimit:4;stroke-dasharray:none;stroke-opacity:1" />
    <polyline
       transform="matrix(0.00959999,0,0,0.00959999,-322.78302,8646.8287)"
       id="polyline634"
       points="58270,31200 58270,30700 58430,30700 58430,31200 58270,31200 "
       style="display:inline;fill:none;fill-opacity:1;fill-rule:evenodd;stroke:#000000;stroke-width:10.23622894;stroke-linecap:round;stroke-linejoin:round;stroke-miterlimit:4;stroke-dasharray:none;stroke-opacity:1" />
    <polyline
       transform="matrix(0.00959999,0,0,0.00959999,-322.78302,8646.8287)"
       id="polyline636"
       points="58520,31200 58520,30700 58680,30700 58680,31200 58520,31200 "
       style="display:inline;fill:none;fill-opacity:1;fill-rule:evenodd;stroke:#000000;stroke-width:10.23622894;stroke-linecap:round;stroke-linejoin:round;stroke-miterlimit:4;stroke-dasharray:none;stroke-opacity:1" />
    <polyline
       transform="matrix(0.00959999,0,0,0.00959999,-322.78302,8646.8287)"
       id="polyline638"
       points="58520,33300 58520,32800 58680,32800 58680,33300 58520,33300 "
       style="display:inline;fill:none;fill-opacity:1;fill-rule:evenodd;stroke:#000000;stroke-width:10.23622894;stroke-linecap:round;stroke-linejoin:round;stroke-miterlimit:4;stroke-dasharray:none;stroke-opacity:1" />
    <polyline
       transform="matrix(0.00959999,0,0,0.00959999,-322.78302,8646.8287)"
       id="polyline640"
       points="58270,33300 58270,32800 58430,32800 58430,33300 58270,33300 "
       style="display:inline;fill:none;fill-opacity:1;fill-rule:evenodd;stroke:#000000;stroke-width:10.23622894;stroke-linecap:round;stroke-linejoin:round;stroke-miterlimit:4;stroke-dasharray:none;stroke-opacity:1" />
    <polyline
       transform="matrix(0.00959999,0,0,0.00959999,-322.78302,8646.8287)"
       id="polyline642"
       points="58010,33300 58010,32800 58170,32800 58170,33300 58010,33300 "
       style="display:inline;fill:none;fill-opacity:1;fill-rule:evenodd;stroke:#000000;stroke-width:10.23622894;stroke-linecap:round;stroke-linejoin:round;stroke-miterlimit:4;stroke-dasharray:none;stroke-opacity:1" />
    <polyline
       transform="matrix(0.00959999,0,0,0.00959999,-322.78302,8646.8287)"
       id="polyline644"
       points="57760,33300 57760,32800 57920,32800 57920,33300 57760,33300 "
       style="display:inline;fill:none;fill-opacity:1;fill-rule:evenodd;stroke:#000000;stroke-width:10.23622894;stroke-linecap:round;stroke-linejoin:round;stroke-miterlimit:4;stroke-dasharray:none;stroke-opacity:1" />
    <polyline
       transform="matrix(0.00959999,0,0,0.00959999,-322.78302,8646.8287)"
       id="polyline646"
       points="57500,33300 57500,32800 57660,32800 57660,33300 57500,33300 "
       style="display:inline;fill:none;fill-opacity:1;fill-rule:evenodd;stroke:#000000;stroke-width:10.23622894;stroke-linecap:round;stroke-linejoin:round;stroke-miterlimit:4;stroke-dasharray:none;stroke-opacity:1" />
    <polyline
       transform="matrix(0.00959999,0,0,0.00959999,-322.78302,8646.8287)"
       id="polyline648"
       points="57240,33300 57240,32800 57400,32800 57400,33300 57240,33300 "
       style="display:inline;fill:none;fill-opacity:1;fill-rule:evenodd;stroke:#000000;stroke-width:10.23622894;stroke-linecap:round;stroke-linejoin:round;stroke-miterlimit:4;stroke-dasharray:none;stroke-opacity:1" />
    <polyline
       transform="matrix(0.00959999,0,0,0.00959999,-322.78302,8646.8287)"
       id="polyline650"
       points="56990,33300 56990,32800 57150,32800 57150,33300 56990,33300 "
       style="display:inline;fill:none;fill-opacity:1;fill-rule:evenodd;stroke:#000000;stroke-width:10.23622894;stroke-linecap:round;stroke-linejoin:round;stroke-miterlimit:4;stroke-dasharray:none;stroke-opacity:1" />
    <polyline
       transform="matrix(0.00959999,0,0,0.00959999,-322.78302,8646.8287)"
       id="polyline652"
       points="56730,33300 56730,32800 56890,32800 56890,33300 56730,33300 "
       style="display:inline;fill:none;fill-opacity:1;fill-rule:evenodd;stroke:#000000;stroke-width:10.23622894;stroke-linecap:round;stroke-linejoin:round;stroke-miterlimit:4;stroke-dasharray:none;stroke-opacity:1" />
    <polyline
       transform="matrix(0.00959999,0,0,0.00959999,-322.78302,8646.8287)"
       id="polyline654"
       points="56470,33300 56470,32800 56630,32800 56630,33300 56470,33300 "
       style="display:inline;fill:none;fill-opacity:1;fill-rule:evenodd;stroke:#000000;stroke-width:10.23622894;stroke-linecap:round;stroke-linejoin:round;stroke-miterlimit:4;stroke-dasharray:none;stroke-opacity:1" />
    <polyline
       transform="matrix(0.00959999,0,0,0.00959999,-322.78302,8646.8287)"
       id="polyline656"
       points="56220,33300 56220,32800 56380,32800 56380,33300 56220,33300 "
       style="display:inline;fill:none;fill-opacity:1;fill-rule:evenodd;stroke:#000000;stroke-width:10.23622894;stroke-linecap:round;stroke-linejoin:round;stroke-miterlimit:4;stroke-dasharray:none;stroke-opacity:1" />
    <polyline
       transform="matrix(0.00959999,0,0,0.00959999,-322.78302,8646.8287)"
       id="polyline658"
       points="41525,33200 41075,33200 41075,33000 41525,33000 41525,33200 "
       style="display:inline;fill:none;fill-opacity:1;fill-rule:evenodd;stroke:#000000;stroke-width:10.23622894;stroke-linecap:round;stroke-linejoin:round;stroke-miterlimit:4;stroke-dasharray:none;stroke-opacity:1" />
    <polyline
       transform="matrix(0.00959999,0,0,0.00959999,-322.78302,8646.8287)"
       id="polyline660"
       points="41525,32700 41075,32700 41075,32500 41525,32500 41525,32700 "
       style="display:inline;fill:none;fill-opacity:1;fill-rule:evenodd;stroke:#000000;stroke-width:10.23622894;stroke-linecap:round;stroke-linejoin:round;stroke-miterlimit:4;stroke-dasharray:none;stroke-opacity:1" />
    <polyline
       transform="matrix(0.00959999,0,0,0.00959999,-322.78302,8646.8287)"
       id="polyline662"
       points="41525,32200 41075,32200 41075,32000 41525,32000 41525,32200 "
       style="display:inline;fill:none;fill-opacity:1;fill-rule:evenodd;stroke:#000000;stroke-width:10.23622894;stroke-linecap:round;stroke-linejoin:round;stroke-miterlimit:4;stroke-dasharray:none;stroke-opacity:1" />
    <polyline
       transform="matrix(0.00959999,0,0,0.00959999,-322.78302,8646.8287)"
       id="polyline664"
       points="41525,31700 41075,31700 41075,31500 41525,31500 41525,31700 "
       style="display:inline;fill:none;fill-opacity:1;fill-rule:evenodd;stroke:#000000;stroke-width:10.23622894;stroke-linecap:round;stroke-linejoin:round;stroke-miterlimit:4;stroke-dasharray:none;stroke-opacity:1" />
    <polyline
       transform="matrix(0.00959999,0,0,0.00959999,-322.78302,8646.8287)"
       id="polyline666"
       points="41525,31200 41075,31200 41075,31000 41525,31000 41525,31200 "
       style="display:inline;fill:none;fill-opacity:1;fill-rule:evenodd;stroke:#000000;stroke-width:10.23622894;stroke-linecap:round;stroke-linejoin:round;stroke-miterlimit:4;stroke-dasharray:none;stroke-opacity:1" />
    <polyline
       transform="matrix(0.00959999,0,0,0.00959999,-322.78302,8646.8287)"
       id="polyline668"
       points="41525,30700 41075,30700 41075,30500 41525,30500 41525,30700 "
       style="display:inline;fill:none;fill-opacity:1;fill-rule:evenodd;stroke:#000000;stroke-width:10.23622894;stroke-linecap:round;stroke-linejoin:round;stroke-miterlimit:4;stroke-dasharray:none;stroke-opacity:1" />
    <polyline
       transform="matrix(0.00959999,0,0,0.00959999,-322.78302,8646.8287)"
       id="polyline670"
       points="41525,30200 41075,30200 41075,30000 41525,30000 41525,30200 "
       style="display:inline;fill:none;fill-opacity:1;fill-rule:evenodd;stroke:#000000;stroke-width:10.23622894;stroke-linecap:round;stroke-linejoin:round;stroke-miterlimit:4;stroke-dasharray:none;stroke-opacity:1" />
    <polyline
       transform="matrix(0.00959999,0,0,0.00959999,-322.78302,8646.8287)"
       id="polyline672"
       points="44025,30200 43575,30200 43575,30000 44025,30000 44025,30200 "
       style="display:inline;fill:none;fill-opacity:1;fill-rule:evenodd;stroke:#000000;stroke-width:10.23622894;stroke-linecap:round;stroke-linejoin:round;stroke-miterlimit:4;stroke-dasharray:none;stroke-opacity:1" />
    <polyline
       transform="matrix(0.00959999,0,0,0.00959999,-322.78302,8646.8287)"
       id="polyline674"
       points="44025,30700 43575,30700 43575,30500 44025,30500 44025,30700 "
       style="display:inline;fill:none;fill-opacity:1;fill-rule:evenodd;stroke:#000000;stroke-width:10.23622894;stroke-linecap:round;stroke-linejoin:round;stroke-miterlimit:4;stroke-dasharray:none;stroke-opacity:1" />
    <polyline
       transform="matrix(0.00959999,0,0,0.00959999,-322.78302,8646.8287)"
       id="polyline676"
       points="44025,31700 43575,31700 43575,31500 44025,31500 44025,31700 "
       style="display:inline;fill:none;fill-opacity:1;fill-rule:evenodd;stroke:#000000;stroke-width:10.23622894;stroke-linecap:round;stroke-linejoin:round;stroke-miterlimit:4;stroke-dasharray:none;stroke-opacity:1" />
    <polyline
       transform="matrix(0.00959999,0,0,0.00959999,-322.78302,8646.8287)"
       id="polyline678"
       points="44025,32200 43575,32200 43575,32000 44025,32000 44025,32200 "
       style="display:inline;fill:none;fill-opacity:1;fill-rule:evenodd;stroke:#000000;stroke-width:10.23622894;stroke-linecap:round;stroke-linejoin:round;stroke-miterlimit:4;stroke-dasharray:none;stroke-opacity:1" />
    <polyline
       transform="matrix(0.00959999,0,0,0.00959999,-322.78302,8646.8287)"
       id="polyline680"
       points="44025,32700 43575,32700 43575,32500 44025,32500 44025,32700 "
       style="display:inline;fill:none;fill-opacity:1;fill-rule:evenodd;stroke:#000000;stroke-width:10.23622894;stroke-linecap:round;stroke-linejoin:round;stroke-miterlimit:4;stroke-dasharray:none;stroke-opacity:1" />
    <polyline
       transform="matrix(0.00959999,0,0,0.00959999,-322.78302,8646.8287)"
       id="polyline682"
       points="44025,33200 43575,33200 43575,33000 44025,33000 44025,33200 "
       style="display:inline;fill:none;fill-opacity:1;fill-rule:evenodd;stroke:#000000;stroke-width:10.23622894;stroke-linecap:round;stroke-linejoin:round;stroke-miterlimit:4;stroke-dasharray:none;stroke-opacity:1" />
    <polyline
       transform="matrix(0.00959999,0,0,0.00959999,-322.78302,8646.8287)"
       id="polyline684"
       points="44025,31200 43575,31200 43575,31000 44025,31000 44025,31200 "
       style="display:inline;fill:none;fill-opacity:1;fill-rule:evenodd;stroke:#000000;stroke-width:10.23622894;stroke-linecap:round;stroke-linejoin:round;stroke-miterlimit:4;stroke-dasharray:none;stroke-opacity:1" />
  </g>
</svg>
