<?xml version="1.0" standalone="no"?>
 <!DOCTYPE svg PUBLIC "-//W3C//DTD SVG 1.1//EN" 
 "http://www.w3.org/Graphics/SVG/1.1/DTD/svg11.dtd"> 
<svg xmlns="http://www.w3.org/2000/svg" version="1.1" 
    width="29.7002cm" height="21.0007cm" viewBox="0 0 116930 82680 ">
<title>SVG Picture created as arduino_uno_grbl_shield-B.Adhes.svg date 2017/06/17 01:31:58 </title>
  <desc>Picture generated by PCBNEW </desc>
<g style="fill:#000000; fill-opacity:1;stroke:#000000; stroke-opacity:1;
stroke-linecap:round; stroke-linejoin:round; "
 transform="translate(0 0) scale(1 1)">
</g>
<g style="fill:#000000; fill-opacity:0.0; 
stroke:#000000; stroke-width:-0.000393701; stroke-opacity:1; 
stroke-linecap:round; stroke-linejoin:round;">
</g>
<g style="fill:#000000; fill-opacity:0.0; 
stroke:#000000; stroke-width:59.0551; stroke-opacity:1; 
stroke-linecap:round; stroke-linejoin:round;">
<rect x="69685.9" y="65357.2" width="42519.7" height="12598.4" rx="0" />
<rect x="3937.01" y="3937.01" width="109056" height="74806" rx="0" />
<rect x="4724.41" y="4724.41" width="107481" height="73231.2" rx="0" />
<path d="M23622 4724
L23622 3937
" />
<path d="M43307 4724
L43307 3937
" />
<path d="M62992 4724
L62992 3937
" />
<path d="M82677 4724
L82677 3937
" />
<path d="M102362 4724
L102362 3937
" />
<path d="M14169 4562
L13877 4562
" />
<path d="M14023 4562
L14023 4050
L13974 4123
L13925 4172
L13877 4196
" />
<path d="M33562 4099
L33586 4074
L33635 4050
L33757 4050
L33805 4074
L33830 4099
L33854 4147
L33854 4196
L33830 4269
L33537 4562
L33854 4562
" />
<path d="M53222 4050
L53539 4050
L53368 4245
L53442 4245
L53490 4269
L53515 4294
L53539 4342
L53539 4464
L53515 4513
L53490 4537
L53442 4562
L53295 4562
L53247 4537
L53222 4513
" />
<path d="M73175 4221
L73175 4562
" />
<path d="M73053 4026
L72932 4391
L73248 4391
" />
<path d="M92885 4050
L92641 4050
L92617 4294
L92641 4269
L92690 4245
L92812 4245
L92860 4269
L92885 4294
L92909 4342
L92909 4464
L92885 4513
L92860 4537
L92812 4562
L92690 4562
L92641 4537
L92617 4513
" />
<path d="M112545 4050
L112448 4050
L112399 4074
L112375 4099
L112326 4172
L112302 4269
L112302 4464
L112326 4513
L112350 4537
L112399 4562
L112497 4562
L112545 4537
L112570 4513
L112594 4464
L112594 4342
L112570 4294
L112545 4269
L112497 4245
L112399 4245
L112350 4269
L112326 4294
L112302 4342
" />
<path d="M23622 77955
L23622 78742
" />
<path d="M43307 77955
L43307 78742
" />
<path d="M62992 77955
L62992 78742
" />
<path d="M82677 77955
L82677 78742
" />
<path d="M102362 77955
L102362 78742
" />
<path d="M14169 78580
L13877 78580
" />
<path d="M14023 78580
L14023 78069
L13974 78142
L13925 78190
L13877 78215
" />
<path d="M33562 78117
L33586 78093
L33635 78069
L33757 78069
L33805 78093
L33830 78117
L33854 78166
L33854 78215
L33830 78288
L33537 78580
L33854 78580
" />
<path d="M53222 78069
L53539 78069
L53368 78263
L53442 78263
L53490 78288
L53515 78312
L53539 78361
L53539 78483
L53515 78532
L53490 78556
L53442 78580
L53295 78580
L53247 78556
L53222 78532
" />
<path d="M73175 78239
L73175 78580
" />
<path d="M73053 78044
L72932 78410
L73248 78410
" />
<path d="M92885 78069
L92641 78069
L92617 78312
L92641 78288
L92690 78263
L92812 78263
L92860 78288
L92885 78312
L92909 78361
L92909 78483
L92885 78532
L92860 78556
L92812 78580
L92690 78580
L92641 78556
L92617 78532
" />
<path d="M112545 78069
L112448 78069
L112399 78093
L112375 78117
L112326 78190
L112302 78288
L112302 78483
L112326 78532
L112350 78556
L112399 78580
L112497 78580
L112545 78556
L112570 78532
L112594 78483
L112594 78361
L112570 78312
L112545 78288
L112497 78263
L112399 78263
L112350 78288
L112326 78312
L112302 78361
" />
<path d="M3937 23622
L4724 23622
" />
<path d="M3937 43307
L4724 43307
" />
<path d="M3937 62992
L4724 62992
" />
<path d="M4208 13864
L4452 13864
" />
<path d="M4160 14011
L4330 13499
L4501 14011
" />
<path d="M4367 33428
L4440 33452
L4464 33476
L4489 33525
L4489 33598
L4464 33647
L4440 33671
L4391 33696
L4196 33696
L4196 33184
L4367 33184
L4416 33208
L4440 33233
L4464 33281
L4464 33330
L4440 33379
L4416 33403
L4367 33428
L4196 33428
" />
<path d="M4489 53332
L4464 53356
L4391 53381
L4342 53381
L4269 53356
L4221 53308
L4196 53259
L4172 53161
L4172 53088
L4196 52991
L4221 52942
L4269 52893
L4342 52869
L4391 52869
L4464 52893
L4489 52918
" />
<path d="M4196 73066
L4196 72554
L4318 72554
L4391 72578
L4440 72627
L4464 72676
L4489 72773
L4489 72846
L4464 72944
L4440 72993
L4391 73041
L4318 73066
L4196 73066
" />
<path d="M112992 23622
L112205 23622
" />
<path d="M112992 43307
L112205 43307
" />
<path d="M112992 62992
L112205 62992
" />
<path d="M112477 13864
L112721 13864
" />
<path d="M112428 14011
L112599 13499
L112769 14011
" />
<path d="M112635 33428
L112708 33452
L112733 33476
L112757 33525
L112757 33598
L112733 33647
L112708 33671
L112660 33696
L112465 33696
L112465 33184
L112635 33184
L112684 33208
L112708 33233
L112733 33281
L112733 33330
L112708 33379
L112684 33403
L112635 33428
L112465 33428
" />
<path d="M112757 53332
L112733 53356
L112660 53381
L112611 53381
L112538 53356
L112489 53308
L112465 53259
L112440 53161
L112440 53088
L112465 52991
L112489 52942
L112538 52893
L112611 52869
L112660 52869
L112733 52893
L112757 52918
" />
<path d="M112465 73066
L112465 72554
L112587 72554
L112660 72578
L112708 72627
L112733 72676
L112757 72773
L112757 72846
L112733 72944
L112708 72993
L112660 73041
L112587 73066
L112465 73066
" />
<path d="M78881 76293
L78881 75703
L79022 75703
L79106 75731
L79162 75787
L79190 75843
L79219 75956
L79219 76040
L79190 76153
L79162 76209
L79106 76265
L79022 76293
L78881 76293
" />
<path d="M79725 76293
L79725 75984
L79697 75928
L79640 75899
L79528 75899
L79472 75928
" />
<path d="M79725 76265
L79669 76293
L79528 76293
L79472 76265
L79444 76209
L79444 76153
L79472 76096
L79528 76068
L79669 76068
L79725 76040
" />
<path d="M79922 75899
L80147 75899
" />
<path d="M80006 75703
L80006 76209
L80034 76265
L80090 76293
L80147 76293
" />
<path d="M80568 76265
L80512 76293
L80400 76293
L80343 76265
L80315 76209
L80315 75984
L80343 75928
L80400 75899
L80512 75899
L80568 75928
L80597 75984
L80597 76040
L80315 76096
" />
<path d="M80850 76237
L80878 76265
L80850 76293
L80822 76265
L80850 76237
L80850 76293
" />
<path d="M80850 75928
L80878 75956
L80850 75984
L80822 75956
L80850 75928
L80850 75984
" />
<path d="M81553 75759
L81581 75731
L81637 75703
L81778 75703
L81834 75731
L81862 75759
L81890 75815
L81890 75871
L81862 75956
L81525 76293
L81890 76293
" />
<path d="M82256 75703
L82312 75703
L82368 75731
L82396 75759
L82424 75815
L82453 75928
L82453 76068
L82424 76181
L82396 76237
L82368 76265
L82312 76293
L82256 76293
L82199 76265
L82171 76237
L82143 76181
L82115 76068
L82115 75928
L82143 75815
L82171 75759
L82199 75731
L82256 75703
" />
<path d="M83015 76293
L82678 76293
" />
<path d="M82846 76293
L82846 75703
L82790 75787
L82734 75843
L82678 75871
" />
<path d="M83212 75703
L83606 75703
L83352 76293
" />
<path d="M83831 76068
L84280 76068
" />
<path d="M84674 75703
L84730 75703
L84787 75731
L84815 75759
L84843 75815
L84871 75928
L84871 76068
L84843 76181
L84815 76237
L84787 76265
L84730 76293
L84674 76293
L84618 76265
L84590 76237
L84562 76181
L84534 76068
L84534 75928
L84562 75815
L84590 75759
L84618 75731
L84674 75703
" />
<path d="M85377 75703
L85265 75703
L85208 75731
L85180 75759
L85124 75843
L85096 75956
L85096 76181
L85124 76237
L85152 76265
L85208 76293
L85321 76293
L85377 76265
L85405 76237
L85433 76181
L85433 76040
L85405 75984
L85377 75956
L85321 75928
L85208 75928
L85152 75956
L85124 75984
L85096 76040
" />
<path d="M85687 76068
L86136 76068
" />
<path d="M86727 76293
L86390 76293
" />
<path d="M86558 76293
L86558 75703
L86502 75787
L86446 75843
L86390 75871
" />
<path d="M87233 75703
L87121 75703
L87064 75731
L87036 75759
L86980 75843
L86952 75956
L86952 76181
L86980 76237
L87008 76265
L87064 76293
L87177 76293
L87233 76265
L87261 76237
L87289 76181
L87289 76040
L87261 75984
L87233 75956
L87177 75928
L87064 75928
L87008 75956
L86980 75984
L86952 76040
" />
<path d="M69685 76577
L112205 76577
" />
<path d="M70220 77395
L70220 76805
" />
<path d="M70557 77395
L70304 77058
" />
<path d="M70557 76805
L70220 77142
" />
<path d="M70810 77395
L70810 77002
" />
<path d="M70810 76805
L70782 76833
L70810 76861
L70838 76833
L70810 76805
L70810 76861
" />
<path d="M71429 77339
L71401 77367
L71316 77395
L71260 77395
L71176 77367
L71120 77311
L71091 77255
L71063 77142
L71063 77058
L71091 76946
L71120 76889
L71176 76833
L71260 76805
L71316 76805
L71401 76833
L71429 76861
" />
<path d="M71935 77395
L71935 77086
L71907 77030
L71851 77002
L71738 77002
L71682 77030
" />
<path d="M71935 77367
L71879 77395
L71738 77395
L71682 77367
L71654 77311
L71654 77255
L71682 77199
L71738 77171
L71879 77171
L71935 77142
" />
<path d="M72469 77395
L72469 76805
" />
<path d="M72469 77367
L72413 77395
L72301 77395
L72244 77367
L72216 77339
L72188 77283
L72188 77114
L72216 77058
L72244 77030
L72301 77002
L72413 77002
L72469 77030
" />
<path d="M73201 77086
L73397 77086
" />
<path d="M73482 77395
L73201 77395
L73201 76805
L73482 76805
" />
<path d="M73735 77339
L73763 77367
L73735 77395
L73707 77367
L73735 77339
L73735 77395
" />
<path d="M74016 77395
L74016 76805
L74157 76805
L74241 76833
L74297 76889
L74325 76946
L74354 77058
L74354 77142
L74325 77255
L74297 77311
L74241 77367
L74157 77395
L74016 77395
" />
<path d="M74607 77339
L74635 77367
L74607 77395
L74579 77367
L74607 77339
L74607 77395
" />
<path d="M74860 77227
L75141 77227
" />
<path d="M74804 77395
L75000 76805
L75197 77395
" />
<path d="M75394 77339
L75422 77367
L75394 77395
L75366 77367
L75394 77339
L75394 77395
" />
<path d="M76575 77395
L76575 76805
" />
<path d="M76631 77171
L76800 77395
" />
<path d="M76800 77002
L76575 77227
" />
<path d="M77053 77395
L77053 77002
" />
<path d="M77053 76805
L77025 76833
L77053 76861
L77081 76833
L77053 76805
L77053 76861
" />
<path d="M77588 77367
L77531 77395
L77419 77395
L77363 77367
L77334 77339
L77306 77283
L77306 77114
L77334 77058
L77363 77030
L77419 77002
L77531 77002
L77588 77030
" />
<path d="M78094 77395
L78094 77086
L78066 77030
L78009 77002
L77897 77002
L77841 77030
" />
<path d="M78094 77367
L78037 77395
L77897 77395
L77841 77367
L77813 77311
L77813 77255
L77841 77199
L77897 77171
L78037 77171
L78094 77142
" />
<path d="M78628 77395
L78628 76805
" />
<path d="M78628 77367
L78572 77395
L78459 77395
L78403 77367
L78375 77339
L78347 77283
L78347 77114
L78375 77058
L78403 77030
L78459 77002
L78572 77002
L78628 77030
" />
<path d="M79612 77002
L79612 77395
" />
<path d="M79472 76777
L79331 77199
L79697 77199
" />
<path d="M79922 77339
L79950 77367
L79922 77395
L79894 77367
L79922 77339
L79922 77395
" />
<path d="M80315 76805
L80372 76805
L80428 76833
L80456 76861
L80484 76917
L80512 77030
L80512 77171
L80484 77283
L80456 77339
L80428 77367
L80372 77395
L80315 77395
L80259 77367
L80231 77339
L80203 77283
L80175 77171
L80175 77030
L80203 76917
L80231 76861
L80259 76833
L80315 76805
" />
<path d="M80765 77339
L80793 77367
L80765 77395
L80737 77367
L80765 77339
L80765 77395
" />
<path d="M81300 77002
L81300 77395
" />
<path d="M81159 76777
L81018 77199
L81384 77199
" />
<path d="M81609 77171
L82059 77171
" />
<path d="M82312 77367
L82368 77395
L82481 77395
L82537 77367
L82565 77311
L82565 77283
L82537 77227
L82481 77199
L82396 77199
L82340 77171
L82312 77114
L82312 77086
L82340 77030
L82396 77002
L82481 77002
L82537 77030
" />
<path d="M82734 77002
L82959 77002
" />
<path d="M82818 76805
L82818 77311
L82846 77367
L82903 77395
L82959 77395
" />
<path d="M83409 77395
L83409 77086
L83381 77030
L83324 77002
L83212 77002
L83156 77030
" />
<path d="M83409 77367
L83352 77395
L83212 77395
L83156 77367
L83127 77311
L83127 77255
L83156 77199
L83212 77171
L83352 77171
L83409 77142
" />
<path d="M83690 77395
L83690 76805
" />
<path d="M83690 77030
L83746 77002
L83859 77002
L83915 77030
L83943 77058
L83971 77114
L83971 77283
L83943 77339
L83915 77367
L83859 77395
L83746 77395
L83690 77367
" />
<path d="M84309 77395
L84252 77367
L84224 77311
L84224 76805
" />
<path d="M84759 77367
L84702 77395
L84590 77395
L84534 77367
L84505 77311
L84505 77086
L84534 77030
L84590 77002
L84702 77002
L84759 77030
L84787 77086
L84787 77142
L84505 77199
" />
<path d="M69685 75396
L112205 75396
" />
</g>
<g style="fill:#000000; fill-opacity:0.0; 
stroke:#000000; stroke-width:118.11; stroke-opacity:1; 
stroke-linecap:round; stroke-linejoin:round;">
<path d="M104022 76293
L103825 76012
" />
<path d="M103684 76293
L103684 75703
L103909 75703
L103965 75731
L103994 75759
L104022 75815
L104022 75899
L103994 75956
L103965 75984
L103909 76012
L103684 76012
" />
<path d="M104500 76265
L104444 76293
L104331 76293
L104275 76265
L104247 76209
L104247 75984
L104275 75928
L104331 75899
L104444 75899
L104500 75928
L104528 75984
L104528 76040
L104247 76096
" />
<path d="M104725 75899
L104865 76293
L105006 75899
" />
<path d="M105231 76237
L105259 76265
L105231 76293
L105203 76265
L105231 76237
L105231 76293
" />
<path d="M105231 75928
L105259 75956
L105231 75984
L105203 75956
L105231 75928
L105231 75984
" />
</g>
<g style="fill:#000000; fill-opacity:0.0; 
stroke:#000000; stroke-width:59.0551; stroke-opacity:1; 
stroke-linecap:round; stroke-linejoin:round;">
<path d="M70192 76265
L70276 76293
L70417 76293
L70473 76265
L70501 76237
L70529 76181
L70529 76124
L70501 76068
L70473 76040
L70417 76012
L70304 75984
L70248 75956
L70220 75928
L70192 75871
L70192 75815
L70220 75759
L70248 75731
L70304 75703
L70445 75703
L70529 75731
" />
<path d="M70782 76293
L70782 75899
" />
<path d="M70782 75703
L70754 75731
L70782 75759
L70810 75731
L70782 75703
L70782 75759
" />
<path d="M71007 75899
L71316 75899
L71007 76293
L71316 76293
" />
<path d="M71766 76265
L71710 76293
L71598 76293
L71541 76265
L71513 76209
L71513 75984
L71541 75928
L71598 75899
L71710 75899
L71766 75928
L71795 75984
L71795 76040
L71513 76096
" />
<path d="M72048 76237
L72076 76265
L72048 76293
L72019 76265
L72048 76237
L72048 76293
" />
<path d="M72048 75928
L72076 75956
L72048 75984
L72019 75956
L72048 75928
L72048 75984
" />
<path d="M72751 76124
L73032 76124
" />
<path d="M72694 76293
L72891 75703
L73088 76293
" />
<path d="M73538 75899
L73538 76293
" />
<path d="M73397 75674
L73257 76096
L73622 76096
" />
<path d="M103684 77395
L103684 76805
" />
<path d="M104219 77395
L104219 76805
" />
<path d="M104219 77367
L104162 77395
L104050 77395
L103994 77367
L103965 77339
L103937 77283
L103937 77114
L103965 77058
L103994 77030
L104050 77002
L104162 77002
L104219 77030
" />
<path d="M104500 77339
L104528 77367
L104500 77395
L104472 77367
L104500 77339
L104500 77395
" />
<path d="M104500 77030
L104528 77058
L104500 77086
L104472 77058
L104500 77030
L104500 77086
" />
<path d="M105540 77395
L105203 77395
" />
<path d="M105372 77395
L105372 76805
L105315 76889
L105259 76946
L105203 76974
" />
<path d="M106215 76777
L105709 77536
" />
<path d="M106721 77395
L106384 77395
" />
<path d="M106553 77395
L106553 76805
L106496 76889
L106440 76946
L106384 76974
" />
<path d="M69685 73821
L112205 73821
" />
</g>
<g style="fill:#000000; fill-opacity:0.0; 
stroke:#000000; stroke-width:157.48; stroke-opacity:1; 
stroke-linecap:round; stroke-linejoin:round;">
<path d="M70257 74099
L70707 74099
" />
<path d="M70384 74886
L70482 74099
" />
<path d="M70871 74886
L70937 74361
" />
<path d="M70970 74099
L70927 74136
L70960 74174
L71002 74136
L70970 74099
L70960 74174
" />
<path d="M71199 74361
L71499 74361
" />
<path d="M71345 74099
L71260 74774
L71288 74849
L71359 74886
L71434 74886
" />
<path d="M71809 74886
L71738 74849
L71710 74774
L71795 74099
" />
<path d="M72413 74849
L72334 74886
L72184 74886
L72113 74849
L72085 74774
L72123 74474
L72169 74399
L72249 74361
L72399 74361
L72469 74399
L72498 74474
L72488 74549
L72104 74624
" />
<path d="M72793 74811
L72826 74849
L72783 74886
L72751 74849
L72793 74811
L72783 74886
" />
<path d="M72844 74399
L72877 74436
L72835 74474
L72802 74436
L72844 74399
L72835 74474
" />
<path d="M73749 74661
L74124 74661
" />
<path d="M73646 74886
L74007 74099
L74171 74886
" />
<path d="M74433 74886
L74499 74361
" />
<path d="M74480 74511
L74527 74436
L74569 74399
L74649 74361
L74724 74361
" />
<path d="M75258 74886
L75357 74099
" />
<path d="M75263 74849
L75183 74886
L75033 74886
L74963 74849
L74930 74811
L74902 74736
L74930 74511
L74977 74436
L75019 74399
L75099 74361
L75249 74361
L75319 74399
" />
<path d="M76036 74361
L75971 74886
" />
<path d="M75699 74361
L75647 74774
L75675 74849
L75746 74886
L75858 74886
L75938 74849
L75980 74811
" />
<path d="M76346 74886
L76411 74361
" />
<path d="M76444 74099
L76402 74136
L76435 74174
L76477 74136
L76444 74099
L76435 74174
" />
<path d="M76786 74361
L76720 74886
" />
<path d="M76777 74436
L76819 74399
L76899 74361
L77011 74361
L77081 74399
L77109 74474
L77058 74886
" />
<path d="M77545 74886
L77475 74849
L77442 74811
L77414 74736
L77442 74511
L77489 74436
L77531 74399
L77611 74361
L77723 74361
L77794 74399
L77827 74436
L77855 74511
L77827 74736
L77780 74811
L77738 74849
L77658 74886
L77545 74886
" />
<path d="M79148 74361
L79083 74886
" />
<path d="M78811 74361
L78759 74774
L78787 74849
L78858 74886
L78970 74886
L79050 74849
L79092 74811
" />
<path d="M79523 74361
L79458 74886
" />
<path d="M79514 74436
L79556 74399
L79636 74361
L79748 74361
L79819 74399
L79847 74474
L79795 74886
" />
<path d="M80283 74886
L80212 74849
L80179 74811
L80151 74736
L80179 74511
L80226 74436
L80268 74399
L80348 74361
L80461 74361
L80531 74399
L80564 74436
L80592 74511
L80564 74736
L80517 74811
L80475 74849
L80395 74886
L80283 74886
" />
<path d="M81482 74886
L81548 74361
" />
<path d="M81529 74511
L81576 74436
L81618 74399
L81698 74361
L81773 74361
" />
<path d="M82274 74849
L82195 74886
L82045 74886
L81974 74849
L81946 74774
L81984 74474
L82031 74399
L82110 74361
L82260 74361
L82331 74399
L82359 74474
L82349 74549
L81965 74624
" />
<path d="M82635 74361
L82757 74886
L83010 74361
" />
<path d="M83868 74099
L84355 74099
L84055 74399
L84168 74399
L84238 74436
L84271 74474
L84299 74549
L84276 74736
L84229 74811
L84187 74849
L84107 74886
L83882 74886
L83812 74849
L83779 74811
" />
<path d="M85701 74136
L85630 74099
L85518 74099
L85401 74136
L85316 74211
L85269 74286
L85213 74436
L85199 74549
L85218 74699
L85246 74774
L85312 74849
L85419 74886
L85494 74886
L85612 74849
L85654 74811
L85687 74549
L85537 74549
" />
<path d="M86432 74886
L86216 74511
" />
<path d="M85982 74886
L86080 74099
L86380 74099
L86450 74136
L86483 74174
L86511 74249
L86497 74361
L86450 74436
L86408 74474
L86329 74511
L86029 74511
" />
<path d="M87083 74474
L87191 74511
L87224 74549
L87252 74624
L87238 74736
L87191 74811
L87149 74849
L87069 74886
L86769 74886
L86868 74099
L87130 74099
L87200 74136
L87233 74174
L87261 74249
L87252 74324
L87205 74399
L87163 74436
L87083 74474
L86821 74474
" />
<path d="M87932 74886
L87557 74886
L87655 74099
" />
<path d="M88761 74849
L88831 74886
L88981 74886
L89061 74849
L89108 74774
L89113 74736
L89085 74661
L89014 74624
L88902 74624
L88831 74586
L88803 74511
L88808 74474
L88855 74399
L88935 74361
L89047 74361
L89117 74399
" />
<path d="M89431 74886
L89530 74099
" />
<path d="M89769 74886
L89820 74474
L89792 74399
L89722 74361
L89609 74361
L89530 74399
L89488 74436
" />
<path d="M90144 74886
L90209 74361
" />
<path d="M90242 74099
L90200 74136
L90233 74174
L90275 74136
L90242 74099
L90233 74174
" />
<path d="M90823 74849
L90744 74886
L90594 74886
L90523 74849
L90495 74774
L90533 74474
L90580 74399
L90659 74361
L90809 74361
L90880 74399
L90908 74474
L90898 74549
L90514 74624
" />
<path d="M91306 74886
L91236 74849
L91208 74774
L91292 74099
" />
<path d="M91944 74886
L92042 74099
" />
<path d="M91948 74849
L91869 74886
L91719 74886
L91648 74849
L91615 74811
L91587 74736
L91615 74511
L91662 74436
L91705 74399
L91784 74361
L91934 74361
L92004 74399
" />
</g>
<g style="fill:#000000; fill-opacity:0.0; 
stroke:#000000; stroke-width:59.0551; stroke-opacity:1; 
stroke-linecap:round; stroke-linejoin:round;">
<path d="M70417 73070
L70220 73070
" />
<path d="M70220 73380
L70220 72789
L70501 72789
" />
<path d="M70726 73380
L70726 72986
" />
<path d="M70726 72789
L70698 72817
L70726 72845
L70754 72817
L70726 72789
L70726 72845
" />
<path d="M71091 73380
L71035 73352
L71007 73295
L71007 72789
" />
<path d="M71541 73352
L71485 73380
L71373 73380
L71316 73352
L71288 73295
L71288 73070
L71316 73014
L71373 72986
L71485 72986
L71541 73014
L71570 73070
L71570 73127
L71288 73183
" />
<path d="M71823 73323
L71851 73352
L71823 73380
L71795 73352
L71823 73323
L71823 73380
" />
<path d="M71823 73014
L71851 73042
L71823 73070
L71795 73042
L71823 73014
L71823 73070
" />
<path d="M72807 73380
L72807 73070
L72779 73014
L72723 72986
L72610 72986
L72554 73014
" />
<path d="M72807 73352
L72751 73380
L72610 73380
L72554 73352
L72526 73295
L72526 73239
L72554 73183
L72610 73155
L72751 73155
L72807 73127
" />
<path d="M73088 73380
L73088 72986
" />
<path d="M73088 73099
L73116 73042
L73144 73014
L73201 72986
L73257 72986
" />
<path d="M73707 73380
L73707 72789
" />
<path d="M73707 73352
L73651 73380
L73538 73380
L73482 73352
L73454 73323
L73426 73267
L73426 73099
L73454 73042
L73482 73014
L73538 72986
L73651 72986
L73707 73014
" />
<path d="M74241 72986
L74241 73380
" />
<path d="M73988 72986
L73988 73295
L74016 73352
L74072 73380
L74157 73380
L74213 73352
L74241 73323
" />
<path d="M74522 73380
L74522 72986
" />
<path d="M74522 72789
L74494 72817
L74522 72845
L74550 72817
L74522 72789
L74522 72845
" />
<path d="M74804 72986
L74804 73380
" />
<path d="M74804 73042
L74832 73014
L74888 72986
L74972 72986
L75028 73014
L75057 73070
L75057 73380
" />
<path d="M75422 73380
L75366 73352
L75338 73323
L75310 73267
L75310 73099
L75338 73042
L75366 73014
L75422 72986
L75507 72986
L75563 73014
L75591 73042
L75619 73099
L75619 73267
L75591 73323
L75563 73352
L75507 73380
L75422 73380
" />
<path d="M75732 73436
L76181 73436
" />
<path d="M76575 72986
L76575 73380
" />
<path d="M76322 72986
L76322 73295
L76350 73352
L76406 73380
L76491 73380
L76547 73352
L76575 73323
" />
<path d="M76856 72986
L76856 73380
" />
<path d="M76856 73042
L76885 73014
L76941 72986
L77025 72986
L77081 73014
L77109 73070
L77109 73380
" />
<path d="M77475 73380
L77419 73352
L77391 73323
L77363 73267
L77363 73099
L77391 73042
L77419 73014
L77475 72986
L77559 72986
L77616 73014
L77644 73042
L77672 73099
L77672 73267
L77644 73323
L77616 73352
L77559 73380
L77475 73380
" />
<path d="M77784 73436
L78234 73436
" />
<path d="M78628 72986
L78628 73464
L78600 73520
L78572 73548
L78516 73577
L78431 73577
L78375 73548
" />
<path d="M78628 73352
L78572 73380
L78459 73380
L78403 73352
L78375 73323
L78347 73267
L78347 73099
L78375 73042
L78403 73014
L78459 72986
L78572 72986
L78628 73014
" />
<path d="M78909 73380
L78909 72986
" />
<path d="M78909 73099
L78937 73042
L78965 73014
L79022 72986
L79078 72986
" />
<path d="M79275 73380
L79275 72789
" />
<path d="M79275 73014
L79331 72986
L79444 72986
L79500 73014
L79528 73042
L79556 73099
L79556 73267
L79528 73323
L79500 73352
L79444 73380
L79331 73380
L79275 73352
" />
<path d="M79894 73380
L79837 73352
L79809 73295
L79809 72789
" />
<path d="M79978 73436
L80428 73436
" />
<path d="M80540 73352
L80597 73380
L80709 73380
L80765 73352
L80793 73295
L80793 73267
L80765 73211
L80709 73183
L80625 73183
L80568 73155
L80540 73099
L80540 73070
L80568 73014
L80625 72986
L80709 72986
L80765 73014
" />
<path d="M81046 73380
L81046 72789
" />
<path d="M81300 73380
L81300 73070
L81271 73014
L81215 72986
L81131 72986
L81075 73014
L81046 73042
" />
<path d="M81581 73380
L81581 72986
" />
<path d="M81581 72789
L81553 72817
L81581 72845
L81609 72817
L81581 72789
L81581 72845
" />
<path d="M82087 73352
L82031 73380
L81918 73380
L81862 73352
L81834 73295
L81834 73070
L81862 73014
L81918 72986
L82031 72986
L82087 73014
L82115 73070
L82115 73127
L81834 73183
" />
<path d="M82453 73380
L82396 73352
L82368 73295
L82368 72789
" />
<path d="M82931 73380
L82931 72789
" />
<path d="M82931 73352
L82874 73380
L82762 73380
L82706 73352
L82678 73323
L82649 73267
L82649 73099
L82678 73042
L82706 73014
L82762 72986
L82874 72986
L82931 73014
" />
<path d="M83212 73323
L83240 73352
L83212 73380
L83184 73352
L83212 73323
L83212 73380
" />
<path d="M83493 73380
L83493 72789
" />
<path d="M83549 73155
L83718 73380
" />
<path d="M83718 72986
L83493 73211
" />
<path d="M83971 73380
L83971 72986
" />
<path d="M83971 72789
L83943 72817
L83971 72845
L83999 72817
L83971 72789
L83971 72845
" />
<path d="M84505 73352
L84449 73380
L84337 73380
L84280 73352
L84252 73323
L84224 73267
L84224 73099
L84252 73042
L84280 73014
L84337 72986
L84449 72986
L84505 73014
" />
<path d="M85012 73380
L85012 73070
L84983 73014
L84927 72986
L84815 72986
L84759 73014
" />
<path d="M85012 73352
L84955 73380
L84815 73380
L84759 73352
L84730 73295
L84730 73239
L84759 73183
L84815 73155
L84955 73155
L85012 73127
" />
<path d="M85546 73380
L85546 72789
" />
<path d="M85546 73352
L85490 73380
L85377 73380
L85321 73352
L85293 73323
L85265 73267
L85265 73099
L85293 73042
L85321 73014
L85377 72986
L85490 72986
L85546 73014
" />
<path d="M85687 73436
L86136 73436
" />
<path d="M86277 72986
L86277 73577
" />
<path d="M86277 73014
L86333 72986
L86446 72986
L86502 73014
L86530 73042
L86558 73099
L86558 73267
L86530 73323
L86502 73352
L86446 73380
L86333 73380
L86277 73352
" />
<path d="M87064 73352
L87008 73380
L86896 73380
L86840 73352
L86811 73323
L86783 73267
L86783 73099
L86811 73042
L86840 73014
L86896 72986
L87008 72986
L87064 73014
" />
<path d="M87318 73380
L87318 72789
" />
<path d="M87318 73014
L87374 72986
L87486 72986
L87543 73014
L87571 73042
L87599 73099
L87599 73267
L87571 73323
L87543 73352
L87486 73380
L87374 73380
L87318 73352
" />
<path d="M69685 71459
L112205 71459
" />
<path d="M70192 72289
L70276 72317
L70417 72317
L70473 72289
L70501 72260
L70529 72204
L70529 72148
L70501 72092
L70473 72064
L70417 72036
L70304 72007
L70248 71979
L70220 71951
L70192 71895
L70192 71839
L70220 71782
L70248 71754
L70304 71726
L70445 71726
L70529 71754
" />
<path d="M70782 72317
L70782 71726
" />
<path d="M71035 72317
L71035 72007
L71007 71951
L70951 71923
L70867 71923
L70810 71951
L70782 71979
" />
<path d="M71541 72289
L71485 72317
L71373 72317
L71316 72289
L71288 72232
L71288 72007
L71316 71951
L71373 71923
L71485 71923
L71541 71951
L71570 72007
L71570 72064
L71288 72120
" />
<path d="M72048 72289
L71991 72317
L71879 72317
L71823 72289
L71795 72232
L71795 72007
L71823 71951
L71879 71923
L71991 71923
L72048 71951
L72076 72007
L72076 72064
L71795 72120
" />
<path d="M72244 71923
L72469 71923
" />
<path d="M72329 71726
L72329 72232
L72357 72289
L72413 72317
L72469 72317
" />
<path d="M72666 72260
L72694 72289
L72666 72317
L72638 72289
L72666 72260
L72666 72317
" />
<path d="M72666 71951
L72694 71979
L72666 72007
L72638 71979
L72666 71951
L72666 72007
" />
</g>
<g style="fill:#000000; fill-opacity:0.0; 
stroke:#000000; stroke-width:118.11; stroke-opacity:1; 
stroke-linecap:round; stroke-linejoin:round;">
<path d="M70388 70545
L70388 70967
L70360 71051
L70304 71108
L70220 71136
L70163 71136
" />
<path d="M70754 71136
L70698 71108
L70670 71079
L70642 71023
L70642 70854
L70670 70798
L70698 70770
L70754 70742
L70838 70742
L70895 70770
L70923 70798
L70951 70854
L70951 71023
L70923 71079
L70895 71108
L70838 71136
L70754 71136
" />
<path d="M71204 71136
L71204 70545
" />
<path d="M71457 71136
L71457 70826
L71429 70770
L71373 70742
L71288 70742
L71232 70770
L71204 70798
" />
<path d="M71991 71136
L71991 70826
L71963 70770
L71907 70742
L71795 70742
L71738 70770
" />
<path d="M71991 71108
L71935 71136
L71795 71136
L71738 71108
L71710 71051
L71710 70995
L71738 70939
L71795 70911
L71935 70911
L71991 70883
" />
<path d="M72273 70742
L72273 71136
" />
<path d="M72273 70798
L72301 70770
L72357 70742
L72441 70742
L72498 70770
L72526 70826
L72526 71136
" />
<path d="M72807 70742
L72807 71136
" />
<path d="M72807 70798
L72835 70770
L72891 70742
L72976 70742
L73032 70770
L73060 70826
L73060 71136
" />
<path d="M73791 71136
L73791 70545
L73932 70545
L74016 70573
L74072 70629
L74100 70686
L74129 70798
L74129 70883
L74100 70995
L74072 71051
L74016 71108
L73932 71136
L73791 71136
" />
<path d="M74607 71108
L74550 71136
L74438 71136
L74382 71108
L74354 71051
L74354 70826
L74382 70770
L74438 70742
L74550 70742
L74607 70770
L74635 70826
L74635 70883
L74354 70939
" />
<path d="M74972 71136
L74916 71108
L74888 71051
L74888 70545
" />
<path d="M75450 71136
L75450 70826
L75422 70770
L75366 70742
L75253 70742
L75197 70770
" />
<path d="M75450 71108
L75394 71136
L75253 71136
L75197 71108
L75169 71051
L75169 70995
L75197 70939
L75253 70911
L75394 70911
L75450 70883
" />
<path d="M75732 71136
L75732 70545
" />
<path d="M75985 71136
L75985 70826
L75956 70770
L75900 70742
L75816 70742
L75760 70770
L75732 70798
" />
<path d="M76519 71136
L76519 70826
L76491 70770
L76435 70742
L76322 70742
L76266 70770
" />
<path d="M76519 71108
L76463 71136
L76322 71136
L76266 71108
L76238 71051
L76238 70995
L76266 70939
L76322 70911
L76463 70911
L76519 70883
" />
<path d="M76744 70742
L76885 71136
" />
<path d="M77025 70742
L76885 71136
L76828 71276
L76800 71304
L76744 71332
" />
<path d="M77475 71108
L77419 71136
L77306 71136
L77250 71108
L77222 71051
L77222 70826
L77250 70770
L77306 70742
L77419 70742
L77475 70770
L77503 70826
L77503 70883
L77222 70939
" />
<path d="M77728 71108
L77784 71136
L77897 71136
L77953 71108
L77981 71051
L77981 71023
L77953 70967
L77897 70939
L77813 70939
L77756 70911
L77728 70854
L77728 70826
L77756 70770
L77813 70742
L77897 70742
L77953 70770
" />
</g>
<g style="fill:#000000; fill-opacity:0.0; 
stroke:#000000; stroke-width:59.0551; stroke-opacity:1; 
stroke-linecap:round; stroke-linejoin:round;">
<path d="M77559 75396
L77559 76577
" />
<path d="M102756 75396
L102756 77955
" />
</g> 
</svg>
