<?xml version="1.0" standalone="no"?>
 <!DOCTYPE svg PUBLIC "-//W3C//DTD SVG 1.1//EN" 
 "http://www.w3.org/Graphics/SVG/1.1/DTD/svg11.dtd"> 
<svg xmlns="http://www.w3.org/2000/svg" version="1.1" 
    width="29.7002cm" height="21.0007cm" viewBox="0 0 116930 82680 ">
<title>SVG Picture created as arduino_uno_grbl_shield-Edge.Cuts.svg date 2017/06/16 22:26:17 </title>
  <desc>Picture generated by PCBNEW </desc>
<g style="fill:#000000; fill-opacity:1;stroke:#000000; stroke-opacity:1;
stroke-linecap:round; stroke-linejoin:round; "
 transform="translate(0 0) scale(1 1)">
</g>
<g style="fill:#000000; fill-opacity:0.0; 
stroke:#000000; stroke-width:-0.000393701; stroke-opacity:1; 
stroke-linecap:round; stroke-linejoin:round;">
</g>
<g style="fill:#000000; fill-opacity:0.0; 
stroke:#000000; stroke-width:59.0551; stroke-opacity:1; 
stroke-linecap:round; stroke-linejoin:round;">
<circle cx="74409.4" cy="50787.4" r="656.168" /> 
<path d="M73425 50787
L75393 50787
" />
<path d="M74409 49803
L74409 51771
" />
<circle cx="24015.7" cy="50787.4" r="656.168" /> 
<path d="M23031 50787
L25000 50787
" />
<path d="M24015 49803
L24015 51771
" />
<circle cx="24015.7" cy="26378" r="656.168" /> 
<path d="M23031 26377
L25000 26377
" />
<path d="M24015 25393
L24015 27362
" />
<circle cx="74409.4" cy="26378" r="656.168" /> 
<path d="M73425 26377
L75393 26377
" />
<path d="M74409 25393
L74409 27362
" />
<path d="M25196 49606
L25196 27559
" />
<path d="M73228 49606
L25196 49606
" />
<path d="M73228 27559
L73228 49606
" />
<path d="M25196 27559
L73228 27559
" />
</g> 
</svg>
