<?xml version="1.0" standalone="no"?>
 <!DOCTYPE svg PUBLIC "-//W3C//DTD SVG 1.1//EN" 
 "http://www.w3.org/Graphics/SVG/1.1/DTD/svg11.dtd"> 
<svg xmlns="http://www.w3.org/2000/svg" version="1.1" 
    width="29.7002cm" height="21.0007cm" viewBox="0 0 116930 82680 ">
<title>SVG Picture created as arduino_uno_grbl_shield-drl_map.svg date 2017/06/16 13:04:23 </title>
  <desc>Picture generated by PCBNEW </desc>
<g style="fill:#000000; fill-opacity:1;stroke:#000000; stroke-opacity:1;
stroke-linecap:round; stroke-linejoin:round; "
 transform="translate(0 0) scale(1 1)">
</g>
<g style="fill:#000000; fill-opacity:0.0; 
stroke:#000000; stroke-width:78.7402; stroke-opacity:1; 
stroke-linecap:round; stroke-linejoin:round;">
<path d="M36042 31842
L36357 32157
" />
<path d="M36357 31842
L36042 32157
" />
<path d="M36042 32826
L36357 33141
" />
<path d="M36357 32826
L36042 33141
" />
<path d="M36042 35458
L36357 35773
" />
<path d="M36357 35458
L36042 35773
" />
<path d="M36042 36442
L36357 36757
" />
<path d="M36357 36442
L36042 36757
" />
<circle cx="46300" cy="29000" r="160" /> 
<circle cx="47300" cy="29000" r="160" /> 
<circle cx="48300" cy="29000" r="160" /> 
<circle cx="49300" cy="29000" r="160" /> 
<circle cx="49900" cy="48000" r="160" /> 
<circle cx="50300" cy="29000" r="160" /> 
<circle cx="50900" cy="48000" r="160" /> 
<circle cx="51300" cy="29000" r="160" /> 
<circle cx="51900" cy="48000" r="160" /> 
<circle cx="52300" cy="29000" r="160" /> 
<circle cx="52900" cy="48000" r="160" /> 
<circle cx="53300" cy="29000" r="160" /> 
<circle cx="53900" cy="48000" r="160" /> 
<circle cx="54300" cy="29000" r="160" /> 
<circle cx="54900" cy="48000" r="160" /> 
<circle cx="55300" cy="29000" r="160" /> 
<circle cx="55900" cy="48000" r="160" /> 
<circle cx="56900" cy="29000" r="160" /> 
<circle cx="56900" cy="48000" r="160" /> 
<circle cx="57900" cy="29000" r="160" /> 
<circle cx="58900" cy="29000" r="160" /> 
<circle cx="58900" cy="48000" r="160" /> 
<circle cx="59900" cy="29000" r="160" /> 
<circle cx="59900" cy="48000" r="160" /> 
<circle cx="60900" cy="29000" r="160" /> 
<circle cx="60900" cy="48000" r="160" /> 
<circle cx="61900" cy="29000" r="160" /> 
<circle cx="61900" cy="48000" r="160" /> 
<circle cx="62900" cy="29000" r="160" /> 
<circle cx="62900" cy="48000" r="160" /> 
<circle cx="63900" cy="29000" r="160" /> 
<circle cx="63900" cy="48000" r="160" /> 
<path d="M28600 47803
L28600 48196
" />
<path d="M28403 48000
L28796 48000
" />
<path d="M29600 47803
L29600 48196
" />
<path d="M29403 48000
L29796 48000
" />
<path d="M43350 30803
L43350 31196
" />
<path d="M43153 31000
L43546 31000
" />
<path d="M44350 31403
L44350 31796
" />
<path d="M44153 31600
L44546 31600
" />
<path d="M49150 32903
L49150 33296
" />
<path d="M48953 33100
L49346 33100
" />
<path d="M53300 31403
L53300 31796
" />
<path d="M53103 31600
L53496 31600
" />
<path d="M53400 45653
L53400 46046
" />
<path d="M53203 45850
L53596 45850
" />
<path d="M55800 31253
L55800 31646
" />
<path d="M55603 31450
L55996 31450
" />
<path d="M57350 33353
L57350 33746
" />
<path d="M57153 33550
L57546 33550
" />
<path d="M57500 34153
L57500 34546
" />
<path d="M57303 34350
L57696 34350
" />
<path d="M61450 46203
L61450 46596
" />
<path d="M61253 46400
L61646 46400
" />
<path d="M66950 28803
L66950 29196
" />
<path d="M66753 29000
L67146 29000
" />
<path d="M67950 28803
L67950 29196
" />
<path d="M67753 29000
L68146 29000
" />
<path d="M68850 42403
L68850 42796
" />
<path d="M68653 42600
L69046 42600
" />
<path d="M68950 28803
L68950 29196
" />
<path d="M68753 29000
L69146 29000
" />
<path d="M69950 28803
L69950 29196
" />
<path d="M69753 29000
L70146 29000
" />
<polyline fill="none;"
points="32959,33659
32959,33340
32640,33340
32640,33659
32959,33659
" /> 
<polyline fill="none;"
points="32959,34659
32959,34340
32640,34340
32640,34659
32959,34659
" /> 
<polyline fill="none;"
points="32959,35659
32959,35340
32640,35340
32640,35659
32959,35659
" /> 
<polyline fill="none;"
points="29300,31799
29599,31500
29300,31200
29000,31500
29300,31799
" /> 
<polyline fill="none;"
points="29300,33799
29599,33500
29300,33200
29000,33500
29300,33799
" /> 
<polyline fill="none;"
points="29300,36299
29599,36000
29300,35700
29000,36000
29300,36299
" /> 
<polyline fill="none;"
points="29300,38299
29599,38000
29300,37700
29000,38000
29300,38299
" /> 
<polyline fill="none;"
points="29300,41299
29599,41000
29300,40700
29000,41000
29300,41299
" /> 
<polyline fill="none;"
points="29300,43299
29599,43000
29300,42700
29000,43000
29300,43299
" /> 
<polyline fill="none;"
points="32300,41299
32599,41000
32300,40700
32000,41000
32300,41299
" /> 
<polyline fill="none;"
points="34300,41299
34599,41000
34300,40700
34000,41000
34300,41299
" /> 
<polyline fill="none;"
points="36500,41299
36799,41000
36500,40700
36200,41000
36500,41299
" /> 
<polyline fill="none;"
points="38500,41299
38799,41000
38500,40700
38200,41000
38500,41299
" /> 
<polyline fill="none;"
points="40700,41299
40999,41000
40700,40700
40400,41000
40700,41299
" /> 
<polyline fill="none;"
points="40900,37699
41199,37400
40900,37100
40600,37400
40900,37699
" /> 
<polyline fill="none;"
points="42700,41299
42999,41000
42700,40700
42400,41000
42700,41299
" /> 
<polyline fill="none;"
points="42900,37699
43199,37400
42900,37100
42600,37400
42900,37699
" /> 
<polyline fill="none;"
points="44900,37699
45199,37400
44900,37100
44600,37400
44900,37699
" /> 
<polyline fill="none;"
points="44900,41299
45199,41000
44900,40700
44600,41000
44900,41299
" /> 
<polyline fill="none;"
points="46900,41299
47199,41000
46900,40700
46600,41000
46900,41299
" /> 
<polyline fill="none;"
points="47100,37699
47399,37400
47100,37100
46800,37400
47100,37699
" /> 
<polyline fill="none;"
points="49100,37699
49399,37400
49100,37100
48800,37400
49100,37699
" /> 
<polyline fill="none;"
points="49100,41299
49399,41000
49100,40700
48800,41000
49100,41299
" /> 
<polyline fill="none;"
points="51100,41299
51399,41000
51100,40700
50800,41000
51100,41299
" /> 
<polyline fill="none;"
points="51300,37699
51599,37400
51300,37100
51000,37400
51300,37699
" /> 
<polyline fill="none;"
points="53300,37699
53599,37400
53300,37100
53000,37400
53300,37699
" /> 
<polyline fill="none;"
points="53300,41299
53599,41000
53300,40700
53000,41000
53300,41299
" /> 
<polyline fill="none;"
points="55300,37699
55599,37400
55300,37100
55000,37400
55300,37699
" /> 
<polyline fill="none;"
points="55300,41299
55599,41000
55300,40700
55000,41000
55300,41299
" /> 
<polyline fill="none;"
points="57500,37699
57799,37400
57500,37100
57200,37400
57500,37699
" /> 
<polyline fill="none;"
points="57500,41299
57799,41000
57500,40700
57200,41000
57500,41299
" /> 
<polyline fill="none;"
points="59500,37699
59799,37400
59500,37100
59200,37400
59500,37699
" /> 
<polyline fill="none;"
points="59500,41299
59799,41000
59500,40700
59200,41000
59500,41299
" /> 
<polyline fill="none;"
points="61500,41299
61799,41000
61500,40700
61200,41000
61500,41299
" /> 
<polyline fill="none;"
points="61700,37699
61999,37400
61700,37100
61400,37400
61700,37699
" /> 
<polyline fill="none;"
points="63700,37699
63999,37400
63700,37100
63400,37400
63700,37699
" /> 
<polyline fill="none;"
points="63700,41299
63999,41000
63700,40700
63400,41000
63700,41299
" /> 
<polyline fill="none;"
points="65700,37699
65999,37400
65700,37100
65400,37400
65700,37699
" /> 
<polyline fill="none;"
points="65700,41299
65999,41000
65700,40700
65400,41000
65700,41299
" /> 
<polyline fill="none;"
points="67900,37699
68199,37400
67900,37100
67600,37400
67900,37699
" /> 
<polyline fill="none;"
points="67900,41299
68199,41000
67900,40700
67600,41000
67900,41299
" /> 
<polyline fill="none;"
points="69900,37699
70199,37400
69900,37100
69600,37400
69900,37699
" /> 
<polyline fill="none;"
points="69900,41299
70199,41000
69900,40700
69600,41000
69900,41299
" /> 
</g>
<g style="fill:#000000; fill-opacity:0.0; 
stroke:#000000; stroke-width:118.11; stroke-opacity:1; 
stroke-linecap:round; stroke-linejoin:round;">
<path d="M1068 1833
L1068 652
L1349 652
L1518 708
L1631 821
L1687 933
L1743 1158
L1743 1327
L1687 1552
L1631 1664
L1518 1777
L1349 1833
L1068 1833
" />
<path d="M2249 1833
L2249 1046
" />
<path d="M2249 1271
L2305 1158
L2362 1102
L2474 1046
L2587 1046
" />
<path d="M2980 1833
L2980 1046
" />
<path d="M2980 652
L2924 708
L2980 764
L3037 708
L2980 652
L2980 764
" />
<path d="M3712 1833
L3599 1777
L3543 1664
L3543 652
" />
<path d="M4330 1833
L4218 1777
L4161 1664
L4161 652
" />
<path d="M5680 1833
L5680 652
L6074 1496
L6467 652
L6467 1833
" />
<path d="M7536 1833
L7536 1214
L7480 1102
L7367 1046
L7142 1046
L7030 1102
" />
<path d="M7536 1777
L7424 1833
L7142 1833
L7030 1777
L6974 1664
L6974 1552
L7030 1439
L7142 1383
L7424 1383
L7536 1327
" />
<path d="M8098 1046
L8098 2227
" />
<path d="M8098 1102
L8211 1046
L8436 1046
L8548 1102
L8605 1158
L8661 1271
L8661 1608
L8605 1721
L8548 1777
L8436 1833
L8211 1833
L8098 1777
" />
<path d="M9167 1721
L9223 1777
L9167 1833
L9111 1777
L9167 1721
L9167 1833
" />
<path d="M9167 1102
L9223 1158
L9167 1214
L9111 1158
L9167 1102
L9167 1214
" />
<path d="M-314 3622
L0 3937
" />
<path d="M0 3622
L-314 3937
" />
<path d="M1293 3132
L1406 3132
L1518 3188
L1574 3245
L1631 3357
L1687 3582
L1687 3863
L1631 4088
L1574 4201
L1518 4257
L1406 4313
L1293 4313
L1181 4257
L1124 4201
L1068 4088
L1012 3863
L1012 3582
L1068 3357
L1124 3245
L1181 3188
L1293 3132
" />
<path d="M2193 4201
L2249 4257
L2193 4313
L2137 4257
L2193 4201
L2193 4313
" />
<path d="M2924 3638
L2812 3582
L2755 3526
L2699 3413
L2699 3357
L2755 3245
L2812 3188
L2924 3132
L3149 3132
L3262 3188
L3318 3245
L3374 3357
L3374 3413
L3318 3526
L3262 3582
L3149 3638
L2924 3638
L2812 3695
L2755 3751
L2699 3863
L2699 4088
L2755 4201
L2812 4257
L2924 4313
L3149 4313
L3262 4257
L3318 4201
L3374 4088
L3374 3863
L3318 3751
L3262 3695
L3149 3638
" />
<path d="M4105 3132
L4218 3132
L4330 3188
L4386 3245
L4443 3357
L4499 3582
L4499 3863
L4443 4088
L4386 4201
L4330 4257
L4218 4313
L4105 4313
L3993 4257
L3937 4201
L3880 4088
L3824 3863
L3824 3582
L3880 3357
L3937 3245
L3993 3188
L4105 3132
" />
<path d="M5005 4313
L5005 3526
" />
<path d="M5005 3638
L5061 3582
L5174 3526
L5343 3526
L5455 3582
L5511 3695
L5511 4313
" />
<path d="M5511 3695
L5568 3582
L5680 3526
L5849 3526
L5961 3582
L6017 3695
L6017 4313
" />
<path d="M6580 4313
L6580 3526
" />
<path d="M6580 3638
L6636 3582
L6749 3526
L6917 3526
L7030 3582
L7086 3695
L7086 4313
" />
<path d="M7086 3695
L7142 3582
L7255 3526
L7424 3526
L7536 3582
L7592 3695
L7592 4313
" />
<path d="M9898 3076
L8886 4595
" />
<path d="M11417 3132
L11529 3132
L11642 3188
L11698 3245
L11754 3357
L11811 3582
L11811 3863
L11754 4088
L11698 4201
L11642 4257
L11529 4313
L11417 4313
L11304 4257
L11248 4201
L11192 4088
L11136 3863
L11136 3582
L11192 3357
L11248 3245
L11304 3188
L11417 3132
" />
<path d="M12317 4201
L12373 4257
L12317 4313
L12260 4257
L12317 4201
L12317 4313
" />
<path d="M13104 3132
L13217 3132
L13329 3188
L13385 3245
L13442 3357
L13498 3582
L13498 3863
L13442 4088
L13385 4201
L13329 4257
L13217 4313
L13104 4313
L12992 4257
L12935 4201
L12879 4088
L12823 3863
L12823 3582
L12879 3357
L12935 3245
L12992 3188
L13104 3132
" />
<path d="M13892 3132
L14623 3132
L14229 3582
L14398 3582
L14510 3638
L14566 3695
L14623 3807
L14623 4088
L14566 4201
L14510 4257
L14398 4313
L14060 4313
L13948 4257
L13892 4201
" />
<path d="M15748 4313
L15073 4313
" />
<path d="M15410 4313
L15410 3132
L15298 3301
L15185 3413
L15073 3470
" />
<path d="M16197 3132
L16197 3357
" />
<path d="M16647 3132
L16647 3357
" />
<path d="M18391 4763
L18335 4707
L18222 4538
L18166 4426
L18110 4257
L18053 3976
L18053 3751
L18110 3470
L18166 3301
L18222 3188
L18335 3020
L18391 2964
" />
<path d="M19347 3526
L19347 4313
" />
<path d="M19066 3076
L18785 3920
L19516 3920
" />
<path d="M20866 4313
L20866 3132
" />
<path d="M21372 4313
L21372 3695
L21316 3582
L21203 3526
L21034 3526
L20922 3582
L20866 3638
" />
<path d="M22103 4313
L21991 4257
L21934 4201
L21878 4088
L21878 3751
L21934 3638
L21991 3582
L22103 3526
L22272 3526
L22384 3582
L22440 3638
L22497 3751
L22497 4088
L22440 4201
L22384 4257
L22272 4313
L22103 4313
" />
<path d="M23172 4313
L23059 4257
L23003 4145
L23003 3132
" />
<path d="M24071 4257
L23959 4313
L23734 4313
L23622 4257
L23565 4145
L23565 3695
L23622 3582
L23734 3526
L23959 3526
L24071 3582
L24128 3695
L24128 3807
L23565 3920
" />
<path d="M24578 4257
L24690 4313
L24915 4313
L25028 4257
L25084 4145
L25084 4088
L25028 3976
L24915 3920
L24746 3920
L24634 3863
L24578 3751
L24578 3695
L24634 3582
L24746 3526
L24915 3526
L25028 3582
" />
<path d="M25478 4763
L25534 4707
L25646 4538
L25703 4426
L25759 4257
L25815 3976
L25815 3751
L25759 3470
L25703 3301
L25646 3188
L25534 3020
L25478 2964
" />
<circle cx="-160" cy="5338.58" r="160" /> 
<path d="M1293 4691
L1406 4691
L1518 4748
L1574 4804
L1631 4916
L1687 5141
L1687 5422
L1631 5647
L1574 5760
L1518 5816
L1406 5872
L1293 5872
L1181 5816
L1124 5760
L1068 5647
L1012 5422
L1012 5141
L1068 4916
L1124 4804
L1181 4748
L1293 4691
" />
<path d="M2193 5760
L2249 5816
L2193 5872
L2137 5816
L2193 5760
L2193 5872
" />
<path d="M2924 5197
L2812 5141
L2755 5085
L2699 4973
L2699 4916
L2755 4804
L2812 4748
L2924 4691
L3149 4691
L3262 4748
L3318 4804
L3374 4916
L3374 4973
L3318 5085
L3262 5141
L3149 5197
L2924 5197
L2812 5254
L2755 5310
L2699 5422
L2699 5647
L2755 5760
L2812 5816
L2924 5872
L3149 5872
L3262 5816
L3318 5760
L3374 5647
L3374 5422
L3318 5310
L3262 5254
L3149 5197
" />
<path d="M4499 5872
L3824 5872
" />
<path d="M4161 5872
L4161 4691
L4049 4860
L3937 4973
L3824 5029
" />
<path d="M5005 5872
L5005 5085
" />
<path d="M5005 5197
L5061 5141
L5174 5085
L5343 5085
L5455 5141
L5511 5254
L5511 5872
" />
<path d="M5511 5254
L5568 5141
L5680 5085
L5849 5085
L5961 5141
L6017 5254
L6017 5872
" />
<path d="M6580 5872
L6580 5085
" />
<path d="M6580 5197
L6636 5141
L6749 5085
L6917 5085
L7030 5141
L7086 5254
L7086 5872
" />
<path d="M7086 5254
L7142 5141
L7255 5085
L7424 5085
L7536 5141
L7592 5254
L7592 5872
" />
<path d="M9898 4635
L8886 6154
" />
<path d="M11417 4691
L11529 4691
L11642 4748
L11698 4804
L11754 4916
L11811 5141
L11811 5422
L11754 5647
L11698 5760
L11642 5816
L11529 5872
L11417 5872
L11304 5816
L11248 5760
L11192 5647
L11136 5422
L11136 5141
L11192 4916
L11248 4804
L11304 4748
L11417 4691
" />
<path d="M12317 5760
L12373 5816
L12317 5872
L12260 5816
L12317 5760
L12317 5872
" />
<path d="M13104 4691
L13217 4691
L13329 4748
L13385 4804
L13442 4916
L13498 5141
L13498 5422
L13442 5647
L13385 5760
L13329 5816
L13217 5872
L13104 5872
L12992 5816
L12935 5760
L12879 5647
L12823 5422
L12823 5141
L12879 4916
L12935 4804
L12992 4748
L13104 4691
" />
<path d="M13892 4691
L14623 4691
L14229 5141
L14398 5141
L14510 5197
L14566 5254
L14623 5366
L14623 5647
L14566 5760
L14510 5816
L14398 5872
L14060 5872
L13948 5816
L13892 5760
" />
<path d="M15073 4804
L15129 4748
L15241 4691
L15523 4691
L15635 4748
L15691 4804
L15748 4916
L15748 5029
L15691 5197
L15016 5872
L15748 5872
" />
<path d="M16197 4691
L16197 4916
" />
<path d="M16647 4691
L16647 4916
" />
<path d="M18391 6322
L18335 6266
L18222 6097
L18166 5985
L18110 5816
L18053 5535
L18053 5310
L18110 5029
L18166 4860
L18222 4748
L18335 4579
L18391 4523
" />
<path d="M18728 4691
L19460 4691
L19066 5141
L19235 5141
L19347 5197
L19403 5254
L19460 5366
L19460 5647
L19403 5760
L19347 5816
L19235 5872
L18897 5872
L18785 5816
L18728 5760
" />
<path d="M19910 4804
L19966 4748
L20078 4691
L20359 4691
L20472 4748
L20528 4804
L20584 4916
L20584 5029
L20528 5197
L19853 5872
L20584 5872
" />
<path d="M21991 5872
L21991 4691
" />
<path d="M22497 5872
L22497 5254
L22440 5141
L22328 5085
L22159 5085
L22047 5141
L21991 5197
" />
<path d="M23228 5872
L23115 5816
L23059 5760
L23003 5647
L23003 5310
L23059 5197
L23115 5141
L23228 5085
L23397 5085
L23509 5141
L23565 5197
L23622 5310
L23622 5647
L23565 5760
L23509 5816
L23397 5872
L23228 5872
" />
<path d="M24296 5872
L24184 5816
L24128 5704
L24128 4691
" />
<path d="M25196 5816
L25084 5872
L24859 5872
L24746 5816
L24690 5704
L24690 5254
L24746 5141
L24859 5085
L25084 5085
L25196 5141
L25253 5254
L25253 5366
L24690 5479
" />
<path d="M25703 5816
L25815 5872
L26040 5872
L26152 5816
L26209 5704
L26209 5647
L26152 5535
L26040 5479
L25871 5479
L25759 5422
L25703 5310
L25703 5254
L25759 5141
L25871 5085
L26040 5085
L26152 5141
" />
<path d="M26602 6322
L26659 6266
L26771 6097
L26827 5985
L26884 5816
L26940 5535
L26940 5310
L26884 5029
L26827 4860
L26771 4748
L26659 4579
L26602 4523
" />
<path d="M-196 6700
L-196 7094
" />
<path d="M-393 6897
L0 6897
" />
<path d="M1687 7431
L1012 7431
" />
<path d="M1349 7431
L1349 6250
L1237 6419
L1124 6532
L1012 6588
" />
<path d="M2193 7319
L2249 7375
L2193 7431
L2137 7375
L2193 7319
L2193 7431
" />
<path d="M2980 6250
L3093 6250
L3205 6307
L3262 6363
L3318 6475
L3374 6700
L3374 6982
L3318 7206
L3262 7319
L3205 7375
L3093 7431
L2980 7431
L2868 7375
L2812 7319
L2755 7206
L2699 6982
L2699 6700
L2755 6475
L2812 6363
L2868 6307
L2980 6250
" />
<path d="M4105 6250
L4218 6250
L4330 6307
L4386 6363
L4443 6475
L4499 6700
L4499 6982
L4443 7206
L4386 7319
L4330 7375
L4218 7431
L4105 7431
L3993 7375
L3937 7319
L3880 7206
L3824 6982
L3824 6700
L3880 6475
L3937 6363
L3993 6307
L4105 6250
" />
<path d="M5005 7431
L5005 6644
" />
<path d="M5005 6757
L5061 6700
L5174 6644
L5343 6644
L5455 6700
L5511 6813
L5511 7431
" />
<path d="M5511 6813
L5568 6700
L5680 6644
L5849 6644
L5961 6700
L6017 6813
L6017 7431
" />
<path d="M6580 7431
L6580 6644
" />
<path d="M6580 6757
L6636 6700
L6749 6644
L6917 6644
L7030 6700
L7086 6813
L7086 7431
" />
<path d="M7086 6813
L7142 6700
L7255 6644
L7424 6644
L7536 6700
L7592 6813
L7592 7431
" />
<path d="M9898 6194
L8886 7713
" />
<path d="M11417 6250
L11529 6250
L11642 6307
L11698 6363
L11754 6475
L11811 6700
L11811 6982
L11754 7206
L11698 7319
L11642 7375
L11529 7431
L11417 7431
L11304 7375
L11248 7319
L11192 7206
L11136 6982
L11136 6700
L11192 6475
L11248 6363
L11304 6307
L11417 6250
" />
<path d="M12317 7319
L12373 7375
L12317 7431
L12260 7375
L12317 7319
L12317 7431
" />
<path d="M13104 6250
L13217 6250
L13329 6307
L13385 6363
L13442 6475
L13498 6700
L13498 6982
L13442 7206
L13385 7319
L13329 7375
L13217 7431
L13104 7431
L12992 7375
L12935 7319
L12879 7206
L12823 6982
L12823 6700
L12879 6475
L12935 6363
L12992 6307
L13104 6250
" />
<path d="M13892 6250
L14623 6250
L14229 6700
L14398 6700
L14510 6757
L14566 6813
L14623 6925
L14623 7206
L14566 7319
L14510 7375
L14398 7431
L14060 7431
L13948 7375
L13892 7319
" />
<path d="M15185 7431
L15410 7431
L15523 7375
L15579 7319
L15691 7150
L15748 6925
L15748 6475
L15691 6363
L15635 6307
L15523 6250
L15298 6250
L15185 6307
L15129 6363
L15073 6475
L15073 6757
L15129 6869
L15185 6925
L15298 6982
L15523 6982
L15635 6925
L15691 6869
L15748 6757
" />
<path d="M16197 6250
L16197 6475
" />
<path d="M16647 6250
L16647 6475
" />
<path d="M18391 7881
L18335 7825
L18222 7656
L18166 7544
L18110 7375
L18053 7094
L18053 6869
L18110 6588
L18166 6419
L18222 6307
L18335 6138
L18391 6082
" />
<path d="M19460 7431
L18785 7431
" />
<path d="M19122 7431
L19122 6250
L19010 6419
L18897 6532
L18785 6588
" />
<path d="M20472 6250
L20247 6250
L20134 6307
L20078 6363
L19966 6532
L19910 6757
L19910 7206
L19966 7319
L20022 7375
L20134 7431
L20359 7431
L20472 7375
L20528 7319
L20584 7206
L20584 6925
L20528 6813
L20472 6757
L20359 6700
L20134 6700
L20022 6757
L19966 6813
L19910 6925
" />
<path d="M21991 7431
L21991 6250
" />
<path d="M22497 7431
L22497 6813
L22440 6700
L22328 6644
L22159 6644
L22047 6700
L21991 6757
" />
<path d="M23228 7431
L23115 7375
L23059 7319
L23003 7206
L23003 6869
L23059 6757
L23115 6700
L23228 6644
L23397 6644
L23509 6700
L23565 6757
L23622 6869
L23622 7206
L23565 7319
L23509 7375
L23397 7431
L23228 7431
" />
<path d="M24296 7431
L24184 7375
L24128 7263
L24128 6250
" />
<path d="M25196 7375
L25084 7431
L24859 7431
L24746 7375
L24690 7263
L24690 6813
L24746 6700
L24859 6644
L25084 6644
L25196 6700
L25253 6813
L25253 6925
L24690 7038
" />
<path d="M25703 7375
L25815 7431
L26040 7431
L26152 7375
L26209 7263
L26209 7206
L26152 7094
L26040 7038
L25871 7038
L25759 6982
L25703 6869
L25703 6813
L25759 6700
L25871 6644
L26040 6644
L26152 6700
" />
<path d="M26602 7881
L26659 7825
L26771 7656
L26827 7544
L26884 7375
L26940 7094
L26940 6869
L26884 6588
L26827 6419
L26771 6307
L26659 6138
L26602 6082
" />
<polyline fill="none;"
points="-65,8615
-65,8297
-384,8297
-384,8615
-65,8615
" /> 
<path d="M1687 8991
L1012 8991
" />
<path d="M1349 8991
L1349 7809
L1237 7978
L1124 8091
L1012 8147
" />
<path d="M2193 8878
L2249 8934
L2193 8991
L2137 8934
L2193 8878
L2193 8991
" />
<path d="M3374 8991
L2699 8991
" />
<path d="M3037 8991
L3037 7809
L2924 7978
L2812 8091
L2699 8147
" />
<path d="M4386 8203
L4386 8991
" />
<path d="M4105 7753
L3824 8597
L4555 8597
" />
<path d="M5005 8991
L5005 8203
" />
<path d="M5005 8316
L5061 8259
L5174 8203
L5343 8203
L5455 8259
L5511 8372
L5511 8991
" />
<path d="M5511 8372
L5568 8259
L5680 8203
L5849 8203
L5961 8259
L6017 8372
L6017 8991
" />
<path d="M6580 8991
L6580 8203
" />
<path d="M6580 8316
L6636 8259
L6749 8203
L6917 8203
L7030 8259
L7086 8372
L7086 8991
" />
<path d="M7086 8372
L7142 8259
L7255 8203
L7424 8203
L7536 8259
L7592 8372
L7592 8991
" />
<path d="M9898 7753
L8886 9272
" />
<path d="M11417 7809
L11529 7809
L11642 7866
L11698 7922
L11754 8034
L11811 8259
L11811 8541
L11754 8766
L11698 8878
L11642 8934
L11529 8991
L11417 8991
L11304 8934
L11248 8878
L11192 8766
L11136 8541
L11136 8259
L11192 8034
L11248 7922
L11304 7866
L11417 7809
" />
<path d="M12317 8878
L12373 8934
L12317 8991
L12260 8934
L12317 8878
L12317 8991
" />
<path d="M13104 7809
L13217 7809
L13329 7866
L13385 7922
L13442 8034
L13498 8259
L13498 8541
L13442 8766
L13385 8878
L13329 8934
L13217 8991
L13104 8991
L12992 8934
L12935 8878
L12879 8766
L12823 8541
L12823 8259
L12879 8034
L12935 7922
L12992 7866
L13104 7809
" />
<path d="M14510 8203
L14510 8991
" />
<path d="M14229 7753
L13948 8597
L14679 8597
" />
<path d="M15691 7809
L15129 7809
L15073 8372
L15129 8316
L15241 8259
L15523 8259
L15635 8316
L15691 8372
L15748 8484
L15748 8766
L15691 8878
L15635 8934
L15523 8991
L15241 8991
L15129 8934
L15073 8878
" />
<path d="M16197 7809
L16197 8034
" />
<path d="M16647 7809
L16647 8034
" />
<path d="M18391 9440
L18335 9384
L18222 9215
L18166 9103
L18110 8934
L18053 8653
L18053 8428
L18110 8147
L18166 7978
L18222 7866
L18335 7697
L18391 7641
" />
<path d="M18728 7809
L19460 7809
L19066 8259
L19235 8259
L19347 8316
L19403 8372
L19460 8484
L19460 8766
L19403 8878
L19347 8934
L19235 8991
L18897 8991
L18785 8934
L18728 8878
" />
<path d="M20866 8991
L20866 7809
" />
<path d="M21372 8991
L21372 8372
L21316 8259
L21203 8203
L21034 8203
L20922 8259
L20866 8316
" />
<path d="M22103 8991
L21991 8934
L21934 8878
L21878 8766
L21878 8428
L21934 8316
L21991 8259
L22103 8203
L22272 8203
L22384 8259
L22440 8316
L22497 8428
L22497 8766
L22440 8878
L22384 8934
L22272 8991
L22103 8991
" />
<path d="M23172 8991
L23059 8934
L23003 8822
L23003 7809
" />
<path d="M24071 8934
L23959 8991
L23734 8991
L23622 8934
L23565 8822
L23565 8372
L23622 8259
L23734 8203
L23959 8203
L24071 8259
L24128 8372
L24128 8484
L23565 8597
" />
<path d="M24578 8934
L24690 8991
L24915 8991
L25028 8934
L25084 8822
L25084 8766
L25028 8653
L24915 8597
L24746 8597
L24634 8541
L24578 8428
L24578 8372
L24634 8259
L24746 8203
L24915 8203
L25028 8259
" />
<path d="M25478 9440
L25534 9384
L25646 9215
L25703 9103
L25759 8934
L25815 8653
L25815 8428
L25759 8147
L25703 7978
L25646 7866
L25534 7697
L25478 7641
" />
<polyline fill="none;"
points="-299,10314
0,10015
-299,9716
-598,10015
-299,10314
" /> 
<path d="M1687 10550
L1012 10550
" />
<path d="M1349 10550
L1349 9368
L1237 9537
L1124 9650
L1012 9706
" />
<path d="M2193 10437
L2249 10493
L2193 10550
L2137 10493
L2193 10437
L2193 10550
" />
<path d="M3318 9368
L2755 9368
L2699 9931
L2755 9875
L2868 9818
L3149 9818
L3262 9875
L3318 9931
L3374 10043
L3374 10325
L3318 10437
L3262 10493
L3149 10550
L2868 10550
L2755 10493
L2699 10437
" />
<path d="M3824 9481
L3880 9425
L3993 9368
L4274 9368
L4386 9425
L4443 9481
L4499 9593
L4499 9706
L4443 9875
L3768 10550
L4499 10550
" />
<path d="M5005 10550
L5005 9762
" />
<path d="M5005 9875
L5061 9818
L5174 9762
L5343 9762
L5455 9818
L5511 9931
L5511 10550
" />
<path d="M5511 9931
L5568 9818
L5680 9762
L5849 9762
L5961 9818
L6017 9931
L6017 10550
" />
<path d="M6580 10550
L6580 9762
" />
<path d="M6580 9875
L6636 9818
L6749 9762
L6917 9762
L7030 9818
L7086 9931
L7086 10550
" />
<path d="M7086 9931
L7142 9818
L7255 9762
L7424 9762
L7536 9818
L7592 9931
L7592 10550
" />
<path d="M9898 9312
L8886 10831
" />
<path d="M11417 9368
L11529 9368
L11642 9425
L11698 9481
L11754 9593
L11811 9818
L11811 10100
L11754 10325
L11698 10437
L11642 10493
L11529 10550
L11417 10550
L11304 10493
L11248 10437
L11192 10325
L11136 10100
L11136 9818
L11192 9593
L11248 9481
L11304 9425
L11417 9368
" />
<path d="M12317 10437
L12373 10493
L12317 10550
L12260 10493
L12317 10437
L12317 10550
" />
<path d="M13104 9368
L13217 9368
L13329 9425
L13385 9481
L13442 9593
L13498 9818
L13498 10100
L13442 10325
L13385 10437
L13329 10493
L13217 10550
L13104 10550
L12992 10493
L12935 10437
L12879 10325
L12823 10100
L12823 9818
L12879 9593
L12935 9481
L12992 9425
L13104 9368
" />
<path d="M14510 9368
L14285 9368
L14173 9425
L14116 9481
L14004 9650
L13948 9875
L13948 10325
L14004 10437
L14060 10493
L14173 10550
L14398 10550
L14510 10493
L14566 10437
L14623 10325
L14623 10043
L14566 9931
L14510 9875
L14398 9818
L14173 9818
L14060 9875
L14004 9931
L13948 10043
" />
<path d="M15354 9368
L15466 9368
L15579 9425
L15635 9481
L15691 9593
L15748 9818
L15748 10100
L15691 10325
L15635 10437
L15579 10493
L15466 10550
L15354 10550
L15241 10493
L15185 10437
L15129 10325
L15073 10100
L15073 9818
L15129 9593
L15185 9481
L15241 9425
L15354 9368
" />
<path d="M16197 9368
L16197 9593
" />
<path d="M16647 9368
L16647 9593
" />
<path d="M18391 11000
L18335 10943
L18222 10775
L18166 10662
L18110 10493
L18053 10212
L18053 9987
L18110 9706
L18166 9537
L18222 9425
L18335 9256
L18391 9200
" />
<path d="M19347 9762
L19347 10550
" />
<path d="M19066 9312
L18785 10156
L19516 10156
" />
<path d="M20191 9368
L20303 9368
L20416 9425
L20472 9481
L20528 9593
L20584 9818
L20584 10100
L20528 10325
L20472 10437
L20416 10493
L20303 10550
L20191 10550
L20078 10493
L20022 10437
L19966 10325
L19910 10100
L19910 9818
L19966 9593
L20022 9481
L20078 9425
L20191 9368
" />
<path d="M21991 10550
L21991 9368
" />
<path d="M22497 10550
L22497 9931
L22440 9818
L22328 9762
L22159 9762
L22047 9818
L21991 9875
" />
<path d="M23228 10550
L23115 10493
L23059 10437
L23003 10325
L23003 9987
L23059 9875
L23115 9818
L23228 9762
L23397 9762
L23509 9818
L23565 9875
L23622 9987
L23622 10325
L23565 10437
L23509 10493
L23397 10550
L23228 10550
" />
<path d="M24296 10550
L24184 10493
L24128 10381
L24128 9368
" />
<path d="M25196 10493
L25084 10550
L24859 10550
L24746 10493
L24690 10381
L24690 9931
L24746 9818
L24859 9762
L25084 9762
L25196 9818
L25253 9931
L25253 10043
L24690 10156
" />
<path d="M25703 10493
L25815 10550
L26040 10550
L26152 10493
L26209 10381
L26209 10325
L26152 10212
L26040 10156
L25871 10156
L25759 10100
L25703 9987
L25703 9931
L25759 9818
L25871 9762
L26040 9762
L26152 9818
" />
<path d="M26602 11000
L26659 10943
L26771 10775
L26827 10662
L26884 10493
L26940 10212
L26940 9987
L26884 9706
L26827 9537
L26771 9425
L26659 9256
L26602 9200
" />
</g> 
</svg>
