<?xml version="1.0" standalone="no"?>
 <!DOCTYPE svg PUBLIC "-//W3C//DTD SVG 1.1//EN" 
 "http://www.w3.org/Graphics/SVG/1.1/DTD/svg11.dtd"> 
<svg xmlns="http://www.w3.org/2000/svg" version="1.1" 
    width="29.7002cm" height="21.0007cm" viewBox="0 0 116930 82680 ">
<title>SVG Picture created as arduino_uno_grbl_shield-B.Paste.svg date 2017/06/16 22:26:17 </title>
  <desc>Picture generated by PCBNEW </desc>
<g style="fill:#000000; fill-opacity:1;stroke:#000000; stroke-opacity:1;
stroke-linecap:round; stroke-linejoin:round; "
 transform="translate(0 0) scale(1 1)">
</g>
<g style="fill:#000000; fill-opacity:0.0; 
stroke:#000000; stroke-width:-0.000393701; stroke-opacity:1; 
stroke-linecap:round; stroke-linejoin:round;">
</g>
<g style="fill:#000000; fill-opacity:0.0; 
stroke:#000000; stroke-width:0; stroke-opacity:1; 
stroke-linecap:round; stroke-linejoin:round;">
</g>
<g style="fill:#000000; fill-opacity:1.0; 
stroke:#000000; stroke-width:0; stroke-opacity:1; 
stroke-linecap:round; stroke-linejoin:round;">
<polyline style="fill-rule:evenodd;"
points="38646,36740
38153,36740
38153,36346
38646,36346
38646,36740
" /> 
<polyline style="fill-rule:evenodd;"
points="38646,35953
38153,35953
38153,35559
38646,35559
38646,35953
" /> 
<polyline style="fill-rule:evenodd;"
points="55552,45752
55552,46047
55237,46047
55237,45752
55552,45752
" /> 
<polyline style="fill-rule:evenodd;"
points="54962,45752
54962,46047
54647,46047
54647,45752
54962,45752
" /> 
<polyline style="fill-rule:evenodd;"
points="51352,45852
51352,46147
51037,46147
51037,45852
51352,45852
" /> 
<polyline style="fill-rule:evenodd;"
points="50762,45852
50762,46147
50447,46147
50447,45852
50762,45852
" /> 
<polyline style="fill-rule:evenodd;"
points="38103,31909
38596,31909
38596,32303
38103,32303
38103,31909
" /> 
<polyline style="fill-rule:evenodd;"
points="38103,32696
38596,32696
38596,33090
38103,33090
38103,32696
" /> 
<polyline style="fill-rule:evenodd;"
points="47352,45047
47647,45047
47647,45362
47352,45362
47352,45047
" /> 
<polyline style="fill-rule:evenodd;"
points="47352,45637
47647,45637
47647,45952
47352,45952
47352,45637
" /> 
<polyline style="fill-rule:evenodd;"
points="34552,45852
34552,46147
34237,46147
34237,45852
34552,45852
" /> 
<polyline style="fill-rule:evenodd;"
points="33962,45852
33962,46147
33647,46147
33647,45852
33962,45852
" /> 
<polyline style="fill-rule:evenodd;"
points="39502,31947
39797,31947
39797,32262
39502,32262
39502,31947
" /> 
<polyline style="fill-rule:evenodd;"
points="39502,32537
39797,32537
39797,32852
39502,32852
39502,32537
" /> 
<polyline style="fill-rule:evenodd;"
points="38752,45852
38752,46147
38437,46147
38437,45852
38752,45852
" /> 
<polyline style="fill-rule:evenodd;"
points="38162,45852
38162,46147
37847,46147
37847,45852
38162,45852
" /> 
<polyline style="fill-rule:evenodd;"
points="38902,31947
39197,31947
39197,32262
38902,32262
38902,31947
" /> 
<polyline style="fill-rule:evenodd;"
points="38902,32537
39197,32537
39197,32852
38902,32852
38902,32537
" /> 
<polyline style="fill-rule:evenodd;"
points="42752,45852
42752,46147
42437,46147
42437,45852
42752,45852
" /> 
<polyline style="fill-rule:evenodd;"
points="42162,45852
42162,46147
41847,46147
41847,45852
42162,45852
" /> 
<polyline style="fill-rule:evenodd;"
points="70152,45852
70152,46147
69837,46147
69837,45852
70152,45852
" /> 
<polyline style="fill-rule:evenodd;"
points="69562,45852
69562,46147
69247,46147
69247,45852
69562,45852
" /> 
<polyline style="fill-rule:evenodd;"
points="52706,45227
52706,44872
52903,44872
52903,45227
52706,45227
" /> 
<polyline style="fill-rule:evenodd;"
points="53296,45227
53296,44872
53493,44872
53493,45227
53296,45227
" /> 
<polyline style="fill-rule:evenodd;"
points="48506,45377
48506,45022
48703,45022
48703,45377
48506,45377
" /> 
<polyline style="fill-rule:evenodd;"
points="49096,45377
49096,45022
49293,45022
49293,45377
49096,45377
" /> 
<polyline style="fill-rule:evenodd;"
points="44306,45377
44306,45022
44503,45022
44503,45377
44306,45377
" /> 
<polyline style="fill-rule:evenodd;"
points="44896,45377
44896,45022
45093,45022
45093,45377
44896,45377
" /> 
<polyline style="fill-rule:evenodd;"
points="31706,45377
31706,45022
31903,45022
31903,45377
31706,45377
" /> 
<polyline style="fill-rule:evenodd;"
points="32296,45377
32296,45022
32493,45022
32493,45377
32296,45377
" /> 
<polyline style="fill-rule:evenodd;"
points="35906,45377
35906,45022
36103,45022
36103,45377
35906,45377
" /> 
<polyline style="fill-rule:evenodd;"
points="36496,45377
36496,45022
36693,45022
36693,45377
36496,45377
" /> 
<polyline style="fill-rule:evenodd;"
points="39906,45377
39906,45022
40103,45022
40103,45377
39906,45377
" /> 
<polyline style="fill-rule:evenodd;"
points="40496,45377
40496,45022
40693,45022
40693,45377
40496,45377
" /> 
<polyline style="fill-rule:evenodd;"
points="67306,45377
67306,45022
67503,45022
67503,45377
67306,45377
" /> 
<polyline style="fill-rule:evenodd;"
points="67896,45377
67896,45022
68093,45022
68093,45377
67896,45377
" /> 
<polyline style="fill-rule:evenodd;"
points="54706,45227
54706,44872
54903,44872
54903,45227
54706,45227
" /> 
<polyline style="fill-rule:evenodd;"
points="55296,45227
55296,44872
55493,44872
55493,45227
55296,45227
" /> 
<polyline style="fill-rule:evenodd;"
points="50506,45377
50506,45022
50703,45022
50703,45377
50506,45377
" /> 
<polyline style="fill-rule:evenodd;"
points="51096,45377
51096,45022
51293,45022
51293,45377
51096,45377
" /> 
<polyline style="fill-rule:evenodd;"
points="46306,45377
46306,45022
46503,45022
46503,45377
46306,45377
" /> 
<polyline style="fill-rule:evenodd;"
points="46896,45377
46896,45022
47093,45022
47093,45377
46896,45377
" /> 
<polyline style="fill-rule:evenodd;"
points="33706,45377
33706,45022
33903,45022
33903,45377
33706,45377
" /> 
<polyline style="fill-rule:evenodd;"
points="34296,45377
34296,45022
34493,45022
34493,45377
34296,45377
" /> 
<polyline style="fill-rule:evenodd;"
points="37906,45377
37906,45022
38103,45022
38103,45377
37906,45377
" /> 
<polyline style="fill-rule:evenodd;"
points="38496,45377
38496,45022
38693,45022
38693,45377
38496,45377
" /> 
<polyline style="fill-rule:evenodd;"
points="41906,45377
41906,45022
42103,45022
42103,45377
41906,45377
" /> 
<polyline style="fill-rule:evenodd;"
points="42496,45377
42496,45022
42693,45022
42693,45377
42496,45377
" /> 
<polyline style="fill-rule:evenodd;"
points="69306,45377
69306,45022
69503,45022
69503,45377
69306,45377
" /> 
<polyline style="fill-rule:evenodd;"
points="69896,45377
69896,45022
70093,45022
70093,45377
69896,45377
" /> 
<polyline style="fill-rule:evenodd;"
points="33272,47306
33627,47306
33627,47503
33272,47503
33272,47306
" /> 
<polyline style="fill-rule:evenodd;"
points="33272,47896
33627,47896
33627,48093
33272,48093
33272,47896
" /> 
<polyline style="fill-rule:evenodd;"
points="55123,44287
55123,44012
55674,44012
55674,44287
55123,44287
" /> 
<polyline style="fill-rule:evenodd;"
points="52525,43287
52525,43012
53076,43012
53076,43287
52525,43287
" /> 
<polyline style="fill-rule:evenodd;"
points="55123,43287
55123,43012
55674,43012
55674,43287
55123,43287
" /> 
<polyline style="fill-rule:evenodd;"
points="52525,44287
52525,44012
53076,44012
53076,44287
52525,44287
" /> 
<polyline style="fill-rule:evenodd;"
points="50923,44437
50923,44162
51474,44162
51474,44437
50923,44437
" /> 
<polyline style="fill-rule:evenodd;"
points="48325,43437
48325,43162
48876,43162
48876,43437
48325,43437
" /> 
<polyline style="fill-rule:evenodd;"
points="50923,43437
50923,43162
51474,43162
51474,43437
50923,43437
" /> 
<polyline style="fill-rule:evenodd;"
points="48325,44437
48325,44162
48876,44162
48876,44437
48325,44437
" /> 
<polyline style="fill-rule:evenodd;"
points="46723,44437
46723,44162
47274,44162
47274,44437
46723,44437
" /> 
<polyline style="fill-rule:evenodd;"
points="44125,43437
44125,43162
44676,43162
44676,43437
44125,43437
" /> 
<polyline style="fill-rule:evenodd;"
points="46723,43437
46723,43162
47274,43162
47274,43437
46723,43437
" /> 
<polyline style="fill-rule:evenodd;"
points="44125,44437
44125,44162
44676,44162
44676,44437
44125,44437
" /> 
<polyline style="fill-rule:evenodd;"
points="34123,44437
34123,44162
34674,44162
34674,44437
34123,44437
" /> 
<polyline style="fill-rule:evenodd;"
points="31525,43437
31525,43162
32076,43162
32076,43437
31525,43437
" /> 
<polyline style="fill-rule:evenodd;"
points="34123,43437
34123,43162
34674,43162
34674,43437
34123,43437
" /> 
<polyline style="fill-rule:evenodd;"
points="31525,44437
31525,44162
32076,44162
32076,44437
31525,44437
" /> 
<polyline style="fill-rule:evenodd;"
points="38323,44437
38323,44162
38874,44162
38874,44437
38323,44437
" /> 
<polyline style="fill-rule:evenodd;"
points="35725,43437
35725,43162
36276,43162
36276,43437
35725,43437
" /> 
<polyline style="fill-rule:evenodd;"
points="38323,43437
38323,43162
38874,43162
38874,43437
38323,43437
" /> 
<polyline style="fill-rule:evenodd;"
points="35725,44437
35725,44162
36276,44162
36276,44437
35725,44437
" /> 
<polyline style="fill-rule:evenodd;"
points="42323,44437
42323,44162
42874,44162
42874,44437
42323,44437
" /> 
<polyline style="fill-rule:evenodd;"
points="39725,43437
39725,43162
40276,43162
40276,43437
39725,43437
" /> 
<polyline style="fill-rule:evenodd;"
points="42323,43437
42323,43162
42874,43162
42874,43437
42323,43437
" /> 
<polyline style="fill-rule:evenodd;"
points="39725,44437
39725,44162
40276,44162
40276,44437
39725,44437
" /> 
<polyline style="fill-rule:evenodd;"
points="69723,44437
69723,44162
70274,44162
70274,44437
69723,44437
" /> 
<polyline style="fill-rule:evenodd;"
points="67125,43437
67125,43162
67676,43162
67676,43437
67125,43437
" /> 
<polyline style="fill-rule:evenodd;"
points="69723,43437
69723,43162
70274,43162
70274,43437
69723,43437
" /> 
<polyline style="fill-rule:evenodd;"
points="67125,44437
67125,44162
67676,44162
67676,44437
67125,44437
" /> 
<polyline style="fill-rule:evenodd;"
points="58270,31700
58270,31200
58430,31200
58430,31700
58270,31700
" /> 
<polyline style="fill-rule:evenodd;"
points="58520,31700
58520,31200
58680,31200
58680,31700
58520,31700
" /> 
<polyline style="fill-rule:evenodd;"
points="58780,31700
58780,31200
58940,31200
58940,31700
58780,31700
" /> 
<polyline style="fill-rule:evenodd;"
points="59040,31700
59040,31200
59200,31200
59200,31700
59040,31700
" /> 
<polyline style="fill-rule:evenodd;"
points="59290,31700
59290,31200
59450,31200
59450,31700
59290,31700
" /> 
<polyline style="fill-rule:evenodd;"
points="59550,31700
59550,31200
59710,31200
59710,31700
59550,31700
" /> 
<polyline style="fill-rule:evenodd;"
points="59810,31700
59810,31200
59970,31200
59970,31700
59810,31700
" /> 
<polyline style="fill-rule:evenodd;"
points="60060,31700
60060,31200
60220,31200
60220,31700
60060,31700
" /> 
<polyline style="fill-rule:evenodd;"
points="60320,31700
60320,31200
60480,31200
60480,31700
60320,31700
" /> 
<polyline style="fill-rule:evenodd;"
points="60570,31700
60570,31200
60730,31200
60730,31700
60570,31700
" /> 
<polyline style="fill-rule:evenodd;"
points="60570,33800
60570,33300
60730,33300
60730,33800
60570,33800
" /> 
<polyline style="fill-rule:evenodd;"
points="60320,33800
60320,33300
60480,33300
60480,33800
60320,33800
" /> 
<polyline style="fill-rule:evenodd;"
points="60060,33800
60060,33300
60220,33300
60220,33800
60060,33800
" /> 
<polyline style="fill-rule:evenodd;"
points="59810,33800
59810,33300
59970,33300
59970,33800
59810,33800
" /> 
<polyline style="fill-rule:evenodd;"
points="59550,33800
59550,33300
59710,33300
59710,33800
59550,33800
" /> 
<polyline style="fill-rule:evenodd;"
points="59290,33800
59290,33300
59450,33300
59450,33800
59290,33800
" /> 
<polyline style="fill-rule:evenodd;"
points="59040,33800
59040,33300
59200,33300
59200,33800
59040,33800
" /> 
<polyline style="fill-rule:evenodd;"
points="58780,33800
58780,33300
58940,33300
58940,33800
58780,33800
" /> 
<polyline style="fill-rule:evenodd;"
points="58520,33800
58520,33300
58680,33300
58680,33800
58520,33800
" /> 
<polyline style="fill-rule:evenodd;"
points="58270,33800
58270,33300
58430,33300
58430,33800
58270,33800
" /> 
<polyline style="fill-rule:evenodd;"
points="62400,44125
62400,43675
62600,43675
62600,44125
62400,44125
" /> 
<polyline style="fill-rule:evenodd;"
points="62900,44125
62900,43675
63100,43675
63100,44125
62900,44125
" /> 
<polyline style="fill-rule:evenodd;"
points="63400,44125
63400,43675
63600,43675
63600,44125
63400,44125
" /> 
<polyline style="fill-rule:evenodd;"
points="63900,44125
63900,43675
64100,43675
64100,44125
63900,44125
" /> 
<polyline style="fill-rule:evenodd;"
points="64400,44125
64400,43675
64600,43675
64600,44125
64400,44125
" /> 
<polyline style="fill-rule:evenodd;"
points="64900,44125
64900,43675
65100,43675
65100,44125
64900,44125
" /> 
<polyline style="fill-rule:evenodd;"
points="65400,44125
65400,43675
65600,43675
65600,44125
65400,44125
" /> 
<polyline style="fill-rule:evenodd;"
points="65400,46625
65400,46175
65600,46175
65600,46625
65400,46625
" /> 
<polyline style="fill-rule:evenodd;"
points="64900,46625
64900,46175
65100,46175
65100,46625
64900,46625
" /> 
<polyline style="fill-rule:evenodd;"
points="63900,46625
63900,46175
64100,46175
64100,46625
63900,46625
" /> 
<polyline style="fill-rule:evenodd;"
points="63400,46625
63400,46175
63600,46175
63600,46625
63400,46625
" /> 
<polyline style="fill-rule:evenodd;"
points="62900,46625
62900,46175
63100,46175
63100,46625
62900,46625
" /> 
<polyline style="fill-rule:evenodd;"
points="62400,46625
62400,46175
62600,46175
62600,46625
62400,46625
" /> 
<polyline style="fill-rule:evenodd;"
points="64400,46625
64400,46175
64600,46175
64600,46625
64400,46625
" /> 
</g> 
</svg>
