<?xml version="1.0" standalone="no"?>
 <!DOCTYPE svg PUBLIC "-//W3C//DTD SVG 1.1//EN" 
 "http://www.w3.org/Graphics/SVG/1.1/DTD/svg11.dtd"> 
<svg xmlns="http://www.w3.org/2000/svg" version="1.1" 
    width="29.7002cm" height="21.0007cm" viewBox="0 0 116930 82680 ">
<title>SVG Picture created as arduino_uno_grbl_shield-B.Mask.svg date 2017/06/16 22:26:17 </title>
  <desc>Picture generated by PCBNEW </desc>
<g style="fill:#000000; fill-opacity:1;stroke:#000000; stroke-opacity:1;
stroke-linecap:round; stroke-linejoin:round; "
 transform="translate(0 0) scale(1 1)">
</g>
<g style="fill:#000000; fill-opacity:0.0; 
stroke:#000000; stroke-width:-0.000393701; stroke-opacity:1; 
stroke-linecap:round; stroke-linejoin:round;">
</g>
<g style="fill:#000000; fill-opacity:1.0; 
stroke:#000000; stroke-width:0; stroke-opacity:1; 
stroke-linecap:round; stroke-linejoin:round;">
<circle cx="71653.5" cy="29133.9" r="708.661" /> 
</g>
<g style="fill:#000000; fill-opacity:1.0; 
stroke:#000000; stroke-width:59.0551; stroke-opacity:1; 
stroke-linecap:round; stroke-linejoin:round;">
</g>
<g style="fill:#000000; fill-opacity:1.0; 
stroke:#000000; stroke-width:0; stroke-opacity:1; 
stroke-linecap:round; stroke-linejoin:round;">
<circle cx="71653.5" cy="48031.5" r="708.661" /> 
</g>
<g style="fill:#000000; fill-opacity:1.0; 
stroke:#000000; stroke-width:59.0551; stroke-opacity:1; 
stroke-linecap:round; stroke-linejoin:round;">
</g>
<g style="fill:#000000; fill-opacity:1.0; 
stroke:#000000; stroke-width:0; stroke-opacity:1; 
stroke-linecap:round; stroke-linejoin:round;">
<circle cx="26771.7" cy="48031.5" r="708.661" /> 
</g>
<g style="fill:#000000; fill-opacity:1.0; 
stroke:#000000; stroke-width:59.0551; stroke-opacity:1; 
stroke-linecap:round; stroke-linejoin:round;">
</g>
<g style="fill:#000000; fill-opacity:1.0; 
stroke:#000000; stroke-width:0; stroke-opacity:1; 
stroke-linecap:round; stroke-linejoin:round;">
<polyline style="fill-rule:evenodd;"
points="38724,36819
38075,36819
38075,36268
38724,36268
38724,36819
" /> 
<polyline style="fill-rule:evenodd;"
points="38724,36031
38075,36031
38075,35480
38724,35480
38724,36031
" /> 
<polyline style="fill-rule:evenodd;"
points="36593,36993
35806,36993
35806,36206
36593,36206
36593,36993
" /> 
<circle cx="36200" cy="35615.7" r="393.701" /> 
</g>
<g style="fill:#000000; fill-opacity:1.0; 
stroke:#000000; stroke-width:59.0551; stroke-opacity:1; 
stroke-linecap:round; stroke-linejoin:round;">
</g>
<g style="fill:#000000; fill-opacity:1.0; 
stroke:#000000; stroke-width:0; stroke-opacity:1; 
stroke-linecap:round; stroke-linejoin:round;">
<polyline style="fill-rule:evenodd;"
points="55631,45673
55631,46126
55159,46126
55159,45673
55631,45673
" /> 
<polyline style="fill-rule:evenodd;"
points="55040,45673
55040,46126
54568,46126
54568,45673
55040,45673
" /> 
<polyline style="fill-rule:evenodd;"
points="51431,45773
51431,46226
50959,46226
50959,45773
51431,45773
" /> 
<polyline style="fill-rule:evenodd;"
points="50840,45773
50840,46226
50368,46226
50368,45773
50840,45773
" /> 
<polyline style="fill-rule:evenodd;"
points="38025,31830
38674,31830
38674,32381
38025,32381
38025,31830
" /> 
<polyline style="fill-rule:evenodd;"
points="38025,32618
38674,32618
38674,33169
38025,33169
38025,32618
" /> 
<polyline style="fill-rule:evenodd;"
points="47273,44968
47726,44968
47726,45440
47273,45440
47273,44968
" /> 
<polyline style="fill-rule:evenodd;"
points="47273,45559
47726,45559
47726,46031
47273,46031
47273,45559
" /> 
<polyline style="fill-rule:evenodd;"
points="35806,31606
36593,31606
36593,32393
35806,32393
35806,31606
" /> 
<circle cx="36200" cy="32984.3" r="393.701" /> 
</g>
<g style="fill:#000000; fill-opacity:1.0; 
stroke:#000000; stroke-width:59.0551; stroke-opacity:1; 
stroke-linecap:round; stroke-linejoin:round;">
</g>
<g style="fill:#000000; fill-opacity:1.0; 
stroke:#000000; stroke-width:0; stroke-opacity:1; 
stroke-linecap:round; stroke-linejoin:round;">
<polyline style="fill-rule:evenodd;"
points="34631,45773
34631,46226
34159,46226
34159,45773
34631,45773
" /> 
<polyline style="fill-rule:evenodd;"
points="34040,45773
34040,46226
33568,46226
33568,45773
34040,45773
" /> 
<polyline style="fill-rule:evenodd;"
points="39423,31868
39876,31868
39876,32340
39423,32340
39423,31868
" /> 
<polyline style="fill-rule:evenodd;"
points="39423,32459
39876,32459
39876,32931
39423,32931
39423,32459
" /> 
<polyline style="fill-rule:evenodd;"
points="38831,45773
38831,46226
38359,46226
38359,45773
38831,45773
" /> 
<polyline style="fill-rule:evenodd;"
points="38240,45773
38240,46226
37768,46226
37768,45773
38240,45773
" /> 
<polyline style="fill-rule:evenodd;"
points="38823,31868
39276,31868
39276,32340
38823,32340
38823,31868
" /> 
<polyline style="fill-rule:evenodd;"
points="38823,32459
39276,32459
39276,32931
38823,32931
38823,32459
" /> 
<polyline style="fill-rule:evenodd;"
points="42831,45773
42831,46226
42359,46226
42359,45773
42831,45773
" /> 
<polyline style="fill-rule:evenodd;"
points="42240,45773
42240,46226
41768,46226
41768,45773
42240,45773
" /> 
<polyline style="fill-rule:evenodd;"
points="70231,45773
70231,46226
69759,46226
69759,45773
70231,45773
" /> 
<polyline style="fill-rule:evenodd;"
points="69640,45773
69640,46226
69168,46226
69168,45773
69640,45773
" /> 
<polyline style="fill-rule:evenodd;"
points="31886,47586
32713,47586
32713,48413
31886,48413
31886,47586
" /> 
</g>
<g style="fill:#000000; fill-opacity:1.0; 
stroke:#000000; stroke-width:826.772; stroke-opacity:1; 
stroke-linecap:round; stroke-linejoin:round;">
</g>
<g style="fill:#000000; fill-opacity:0.0; 
stroke:#000000; stroke-width:826.772; stroke-opacity:1; 
stroke-linecap:round; stroke-linejoin:round;">
<path d="M31300 48000
L31300 48000
" />
</g>
<g style="fill:#000000; fill-opacity:0.0; 
stroke:#000000; stroke-width:0; stroke-opacity:1; 
stroke-linecap:round; stroke-linejoin:round;">
</g>
<g style="fill:#000000; fill-opacity:1.0; 
stroke:#000000; stroke-width:0; stroke-opacity:1; 
stroke-linecap:round; stroke-linejoin:round;">
<polyline style="fill-rule:evenodd;"
points="66263,29413
65436,29413
65436,28586
66263,28586
66263,29413
" /> 
</g>
<g style="fill:#000000; fill-opacity:1.0; 
stroke:#000000; stroke-width:826.772; stroke-opacity:1; 
stroke-linecap:round; stroke-linejoin:round;">
</g>
<g style="fill:#000000; fill-opacity:0.0; 
stroke:#000000; stroke-width:826.772; stroke-opacity:1; 
stroke-linecap:round; stroke-linejoin:round;">
<path d="M66850 29000
L66850 29000
" />
<path d="M67850 29000
L67850 29000
" />
<path d="M68850 29000
L68850 29000
" />
</g>
<g style="fill:#000000; fill-opacity:0.0; 
stroke:#000000; stroke-width:0; stroke-opacity:1; 
stroke-linecap:round; stroke-linejoin:round;">
</g>
<g style="fill:#000000; fill-opacity:1.0; 
stroke:#000000; stroke-width:0; stroke-opacity:1; 
stroke-linecap:round; stroke-linejoin:round;">
<polyline style="fill-rule:evenodd;"
points="52627,45305
52627,44794
52981,44794
52981,45305
52627,45305
" /> 
<polyline style="fill-rule:evenodd;"
points="53218,45305
53218,44794
53572,44794
53572,45305
53218,45305
" /> 
<polyline style="fill-rule:evenodd;"
points="48427,45455
48427,44944
48781,44944
48781,45455
48427,45455
" /> 
<polyline style="fill-rule:evenodd;"
points="49018,45455
49018,44944
49372,44944
49372,45455
49018,45455
" /> 
<polyline style="fill-rule:evenodd;"
points="44227,45455
44227,44944
44581,44944
44581,45455
44227,45455
" /> 
<polyline style="fill-rule:evenodd;"
points="44818,45455
44818,44944
45172,44944
45172,45455
44818,45455
" /> 
<polyline style="fill-rule:evenodd;"
points="31627,45455
31627,44944
31981,44944
31981,45455
31627,45455
" /> 
<polyline style="fill-rule:evenodd;"
points="32218,45455
32218,44944
32572,44944
32572,45455
32218,45455
" /> 
<polyline style="fill-rule:evenodd;"
points="35827,45455
35827,44944
36181,44944
36181,45455
35827,45455
" /> 
<polyline style="fill-rule:evenodd;"
points="36418,45455
36418,44944
36772,44944
36772,45455
36418,45455
" /> 
<polyline style="fill-rule:evenodd;"
points="39827,45455
39827,44944
40181,44944
40181,45455
39827,45455
" /> 
<polyline style="fill-rule:evenodd;"
points="40418,45455
40418,44944
40772,44944
40772,45455
40418,45455
" /> 
<polyline style="fill-rule:evenodd;"
points="67227,45455
67227,44944
67581,44944
67581,45455
67227,45455
" /> 
<polyline style="fill-rule:evenodd;"
points="67818,45455
67818,44944
68172,44944
68172,45455
67818,45455
" /> 
<polyline style="fill-rule:evenodd;"
points="54627,45305
54627,44794
54981,44794
54981,45305
54627,45305
" /> 
<polyline style="fill-rule:evenodd;"
points="55218,45305
55218,44794
55572,44794
55572,45305
55218,45305
" /> 
<polyline style="fill-rule:evenodd;"
points="50427,45455
50427,44944
50781,44944
50781,45455
50427,45455
" /> 
<polyline style="fill-rule:evenodd;"
points="51018,45455
51018,44944
51372,44944
51372,45455
51018,45455
" /> 
<polyline style="fill-rule:evenodd;"
points="46227,45455
46227,44944
46581,44944
46581,45455
46227,45455
" /> 
<polyline style="fill-rule:evenodd;"
points="46818,45455
46818,44944
47172,44944
47172,45455
46818,45455
" /> 
<polyline style="fill-rule:evenodd;"
points="33627,45455
33627,44944
33981,44944
33981,45455
33627,45455
" /> 
<polyline style="fill-rule:evenodd;"
points="34218,45455
34218,44944
34572,44944
34572,45455
34218,45455
" /> 
<polyline style="fill-rule:evenodd;"
points="37827,45455
37827,44944
38181,44944
38181,45455
37827,45455
" /> 
<polyline style="fill-rule:evenodd;"
points="38418,45455
38418,44944
38772,44944
38772,45455
38418,45455
" /> 
<polyline style="fill-rule:evenodd;"
points="41827,45455
41827,44944
42181,44944
42181,45455
41827,45455
" /> 
<polyline style="fill-rule:evenodd;"
points="42418,45455
42418,44944
42772,44944
42772,45455
42418,45455
" /> 
<polyline style="fill-rule:evenodd;"
points="69227,45455
69227,44944
69581,44944
69581,45455
69227,45455
" /> 
<polyline style="fill-rule:evenodd;"
points="69818,45455
69818,44944
70172,44944
70172,45455
69818,45455
" /> 
<polyline style="fill-rule:evenodd;"
points="33194,47227
33705,47227
33705,47581
33194,47581
33194,47227
" /> 
<polyline style="fill-rule:evenodd;"
points="33194,47818
33705,47818
33705,48172
33194,48172
33194,47818
" /> 
<polyline style="fill-rule:evenodd;"
points="55044,44366
55044,43933
55753,43933
55753,44366
55044,44366
" /> 
<polyline style="fill-rule:evenodd;"
points="52446,43366
52446,42933
53155,42933
53155,43366
52446,43366
" /> 
<polyline style="fill-rule:evenodd;"
points="55044,43366
55044,42933
55753,42933
55753,43366
55044,43366
" /> 
<polyline style="fill-rule:evenodd;"
points="52446,44366
52446,43933
53155,43933
53155,44366
52446,44366
" /> 
<polyline style="fill-rule:evenodd;"
points="50844,44516
50844,44083
51553,44083
51553,44516
50844,44516
" /> 
<polyline style="fill-rule:evenodd;"
points="48246,43516
48246,43083
48955,43083
48955,43516
48246,43516
" /> 
<polyline style="fill-rule:evenodd;"
points="50844,43516
50844,43083
51553,43083
51553,43516
50844,43516
" /> 
<polyline style="fill-rule:evenodd;"
points="48246,44516
48246,44083
48955,44083
48955,44516
48246,44516
" /> 
<polyline style="fill-rule:evenodd;"
points="46644,44516
46644,44083
47353,44083
47353,44516
46644,44516
" /> 
<polyline style="fill-rule:evenodd;"
points="44046,43516
44046,43083
44755,43083
44755,43516
44046,43516
" /> 
<polyline style="fill-rule:evenodd;"
points="46644,43516
46644,43083
47353,43083
47353,43516
46644,43516
" /> 
<polyline style="fill-rule:evenodd;"
points="44046,44516
44046,44083
44755,44083
44755,44516
44046,44516
" /> 
<polyline style="fill-rule:evenodd;"
points="34044,44516
34044,44083
34753,44083
34753,44516
34044,44516
" /> 
<polyline style="fill-rule:evenodd;"
points="31446,43516
31446,43083
32155,43083
32155,43516
31446,43516
" /> 
<polyline style="fill-rule:evenodd;"
points="34044,43516
34044,43083
34753,43083
34753,43516
34044,43516
" /> 
<polyline style="fill-rule:evenodd;"
points="31446,44516
31446,44083
32155,44083
32155,44516
31446,44516
" /> 
<polyline style="fill-rule:evenodd;"
points="38244,44516
38244,44083
38953,44083
38953,44516
38244,44516
" /> 
<polyline style="fill-rule:evenodd;"
points="35646,43516
35646,43083
36355,43083
36355,43516
35646,43516
" /> 
<polyline style="fill-rule:evenodd;"
points="38244,43516
38244,43083
38953,43083
38953,43516
38244,43516
" /> 
<polyline style="fill-rule:evenodd;"
points="35646,44516
35646,44083
36355,44083
36355,44516
35646,44516
" /> 
<polyline style="fill-rule:evenodd;"
points="42244,44516
42244,44083
42953,44083
42953,44516
42244,44516
" /> 
<polyline style="fill-rule:evenodd;"
points="39646,43516
39646,43083
40355,43083
40355,43516
39646,43516
" /> 
<polyline style="fill-rule:evenodd;"
points="42244,43516
42244,43083
42953,43083
42953,43516
42244,43516
" /> 
<polyline style="fill-rule:evenodd;"
points="39646,44516
39646,44083
40355,44083
40355,44516
39646,44516
" /> 
<polyline style="fill-rule:evenodd;"
points="69644,44516
69644,44083
70353,44083
70353,44516
69644,44516
" /> 
<polyline style="fill-rule:evenodd;"
points="67046,43516
67046,43083
67755,43083
67755,43516
67046,43516
" /> 
<polyline style="fill-rule:evenodd;"
points="69644,43516
69644,43083
70353,43083
70353,43516
69644,43516
" /> 
<polyline style="fill-rule:evenodd;"
points="67046,44516
67046,44083
67755,44083
67755,44516
67046,44516
" /> 
</g>
<g style="fill:#000000; fill-opacity:1.0; 
stroke:#000000; stroke-width:957.48; stroke-opacity:1; 
stroke-linecap:round; stroke-linejoin:round;">
</g>
<g style="fill:#000000; fill-opacity:0.0; 
stroke:#000000; stroke-width:957.48; stroke-opacity:1; 
stroke-linecap:round; stroke-linejoin:round;">
<path d="M32700 34500
L32900 34500
" />
<path d="M32700 33500
L32900 33500
" />
<path d="M32700 35500
L32900 35500
" />
</g>
<g style="fill:#000000; fill-opacity:0.0; 
stroke:#000000; stroke-width:0; stroke-opacity:1; 
stroke-linecap:round; stroke-linejoin:round;">
</g>
<g style="fill:#000000; fill-opacity:1.0; 
stroke:#000000; stroke-width:0; stroke-opacity:1; 
stroke-linecap:round; stroke-linejoin:round;">
<polyline style="fill-rule:evenodd;"
points="58191,31778
58191,31121
58508,31121
58508,31778
58191,31778
" /> 
<polyline style="fill-rule:evenodd;"
points="58441,31778
58441,31121
58758,31121
58758,31778
58441,31778
" /> 
<polyline style="fill-rule:evenodd;"
points="58701,31778
58701,31121
59018,31121
59018,31778
58701,31778
" /> 
<polyline style="fill-rule:evenodd;"
points="58961,31778
58961,31121
59278,31121
59278,31778
58961,31778
" /> 
<polyline style="fill-rule:evenodd;"
points="59211,31778
59211,31121
59528,31121
59528,31778
59211,31778
" /> 
<polyline style="fill-rule:evenodd;"
points="59471,31778
59471,31121
59788,31121
59788,31778
59471,31778
" /> 
<polyline style="fill-rule:evenodd;"
points="59731,31778
59731,31121
60048,31121
60048,31778
59731,31778
" /> 
<polyline style="fill-rule:evenodd;"
points="59981,31778
59981,31121
60298,31121
60298,31778
59981,31778
" /> 
<polyline style="fill-rule:evenodd;"
points="60241,31778
60241,31121
60558,31121
60558,31778
60241,31778
" /> 
<polyline style="fill-rule:evenodd;"
points="60491,31778
60491,31121
60808,31121
60808,31778
60491,31778
" /> 
<polyline style="fill-rule:evenodd;"
points="60491,33878
60491,33221
60808,33221
60808,33878
60491,33878
" /> 
<polyline style="fill-rule:evenodd;"
points="60241,33878
60241,33221
60558,33221
60558,33878
60241,33878
" /> 
<polyline style="fill-rule:evenodd;"
points="59981,33878
59981,33221
60298,33221
60298,33878
59981,33878
" /> 
<polyline style="fill-rule:evenodd;"
points="59731,33878
59731,33221
60048,33221
60048,33878
59731,33878
" /> 
<polyline style="fill-rule:evenodd;"
points="59471,33878
59471,33221
59788,33221
59788,33878
59471,33878
" /> 
<polyline style="fill-rule:evenodd;"
points="59211,33878
59211,33221
59528,33221
59528,33878
59211,33878
" /> 
<polyline style="fill-rule:evenodd;"
points="58961,33878
58961,33221
59278,33221
59278,33878
58961,33878
" /> 
<polyline style="fill-rule:evenodd;"
points="58701,33878
58701,33221
59018,33221
59018,33878
58701,33878
" /> 
<polyline style="fill-rule:evenodd;"
points="58441,33878
58441,33221
58758,33221
58758,33878
58441,33878
" /> 
<polyline style="fill-rule:evenodd;"
points="58191,33878
58191,33221
58508,33221
58508,33878
58191,33878
" /> 
<polyline style="fill-rule:evenodd;"
points="62321,44203
62321,43596
62678,43596
62678,44203
62321,44203
" /> 
<polyline style="fill-rule:evenodd;"
points="62821,44203
62821,43596
63178,43596
63178,44203
62821,44203
" /> 
<polyline style="fill-rule:evenodd;"
points="63321,44203
63321,43596
63678,43596
63678,44203
63321,44203
" /> 
<polyline style="fill-rule:evenodd;"
points="63821,44203
63821,43596
64178,43596
64178,44203
63821,44203
" /> 
<polyline style="fill-rule:evenodd;"
points="64321,44203
64321,43596
64678,43596
64678,44203
64321,44203
" /> 
<polyline style="fill-rule:evenodd;"
points="64821,44203
64821,43596
65178,43596
65178,44203
64821,44203
" /> 
<polyline style="fill-rule:evenodd;"
points="65321,44203
65321,43596
65678,43596
65678,44203
65321,44203
" /> 
<polyline style="fill-rule:evenodd;"
points="65321,46703
65321,46096
65678,46096
65678,46703
65321,46703
" /> 
<polyline style="fill-rule:evenodd;"
points="64821,46703
64821,46096
65178,46096
65178,46703
64821,46703
" /> 
<polyline style="fill-rule:evenodd;"
points="63821,46703
63821,46096
64178,46096
64178,46703
63821,46703
" /> 
<polyline style="fill-rule:evenodd;"
points="63321,46703
63321,46096
63678,46096
63678,46703
63321,46703
" /> 
<polyline style="fill-rule:evenodd;"
points="62821,46703
62821,46096
63178,46096
63178,46703
62821,46703
" /> 
<polyline style="fill-rule:evenodd;"
points="62321,46703
62321,46096
62678,46096
62678,46703
62321,46703
" /> 
<polyline style="fill-rule:evenodd;"
points="64321,46703
64321,46096
64678,46096
64678,46703
64321,46703
" /> 
<polyline style="fill-rule:evenodd;"
points="28630,41530
29969,41530
29969,42869
28630,42869
28630,41530
" /> 
<circle cx="29300" cy="44200" r="669.291" /> 
</g>
<g style="fill:#000000; fill-opacity:1.0; 
stroke:#000000; stroke-width:59.0551; stroke-opacity:1; 
stroke-linecap:round; stroke-linejoin:round;">
</g>
<g style="fill:#000000; fill-opacity:1.0; 
stroke:#000000; stroke-width:0; stroke-opacity:1; 
stroke-linecap:round; stroke-linejoin:round;">
<polyline style="fill-rule:evenodd;"
points="70569,36730
70569,38069
69230,38069
69230,36730
70569,36730
" /> 
<circle cx="67900" cy="37400" r="669.291" /> 
</g>
<g style="fill:#000000; fill-opacity:1.0; 
stroke:#000000; stroke-width:59.0551; stroke-opacity:1; 
stroke-linecap:round; stroke-linejoin:round;">
</g>
<g style="fill:#000000; fill-opacity:1.0; 
stroke:#000000; stroke-width:0; stroke-opacity:1; 
stroke-linecap:round; stroke-linejoin:round;">
<polyline style="fill-rule:evenodd;"
points="60169,36730
60169,38069
58830,38069
58830,36730
60169,36730
" /> 
<circle cx="57500" cy="37400" r="669.291" /> 
</g>
<g style="fill:#000000; fill-opacity:1.0; 
stroke:#000000; stroke-width:59.0551; stroke-opacity:1; 
stroke-linecap:round; stroke-linejoin:round;">
</g>
<g style="fill:#000000; fill-opacity:1.0; 
stroke:#000000; stroke-width:0; stroke-opacity:1; 
stroke-linecap:round; stroke-linejoin:round;">
<polyline style="fill-rule:evenodd;"
points="49769,36730
49769,38069
48430,38069
48430,36730
49769,36730
" /> 
<circle cx="47100" cy="37400" r="669.291" /> 
</g>
<g style="fill:#000000; fill-opacity:1.0; 
stroke:#000000; stroke-width:59.0551; stroke-opacity:1; 
stroke-linecap:round; stroke-linejoin:round;">
</g>
<g style="fill:#000000; fill-opacity:1.0; 
stroke:#000000; stroke-width:0; stroke-opacity:1; 
stroke-linecap:round; stroke-linejoin:round;">
<polyline style="fill-rule:evenodd;"
points="63030,41669
63030,40330
64369,40330
64369,41669
63030,41669
" /> 
<circle cx="65700" cy="41000" r="669.291" /> 
</g>
<g style="fill:#000000; fill-opacity:1.0; 
stroke:#000000; stroke-width:59.0551; stroke-opacity:1; 
stroke-linecap:round; stroke-linejoin:round;">
</g>
<g style="fill:#000000; fill-opacity:1.0; 
stroke:#000000; stroke-width:0; stroke-opacity:1; 
stroke-linecap:round; stroke-linejoin:round;">
<polyline style="fill-rule:evenodd;"
points="29969,35119
28630,35119
28630,33780
29969,33780
29969,35119
" /> 
<circle cx="29300" cy="32450" r="669.291" /> 
</g>
<g style="fill:#000000; fill-opacity:1.0; 
stroke:#000000; stroke-width:59.0551; stroke-opacity:1; 
stroke-linecap:round; stroke-linejoin:round;">
</g>
<g style="fill:#000000; fill-opacity:1.0; 
stroke:#000000; stroke-width:0; stroke-opacity:1; 
stroke-linecap:round; stroke-linejoin:round;">
<polyline style="fill-rule:evenodd;"
points="29969,39969
28630,39969
28630,38630
29969,38630
29969,39969
" /> 
<circle cx="29300" cy="37300" r="669.291" /> 
</g>
<g style="fill:#000000; fill-opacity:1.0; 
stroke:#000000; stroke-width:59.0551; stroke-opacity:1; 
stroke-linecap:round; stroke-linejoin:round;">
</g>
<g style="fill:#000000; fill-opacity:1.0; 
stroke:#000000; stroke-width:0; stroke-opacity:1; 
stroke-linecap:round; stroke-linejoin:round;">
<polyline style="fill-rule:evenodd;"
points="67230,41669
67230,40330
68569,40330
68569,41669
67230,41669
" /> 
<circle cx="69900" cy="41000" r="669.291" /> 
</g>
<g style="fill:#000000; fill-opacity:1.0; 
stroke:#000000; stroke-width:59.0551; stroke-opacity:1; 
stroke-linecap:round; stroke-linejoin:round;">
</g>
<g style="fill:#000000; fill-opacity:1.0; 
stroke:#000000; stroke-width:0; stroke-opacity:1; 
stroke-linecap:round; stroke-linejoin:round;">
<polyline style="fill-rule:evenodd;"
points="40030,41669
40030,40330
41369,40330
41369,41669
40030,41669
" /> 
<circle cx="42700" cy="41000" r="669.291" /> 
</g>
<g style="fill:#000000; fill-opacity:1.0; 
stroke:#000000; stroke-width:59.0551; stroke-opacity:1; 
stroke-linecap:round; stroke-linejoin:round;">
</g>
<g style="fill:#000000; fill-opacity:1.0; 
stroke:#000000; stroke-width:0; stroke-opacity:1; 
stroke-linecap:round; stroke-linejoin:round;">
<polyline style="fill-rule:evenodd;"
points="35830,41669
35830,40330
37169,40330
37169,41669
35830,41669
" /> 
<circle cx="38500" cy="41000" r="669.291" /> 
</g>
<g style="fill:#000000; fill-opacity:1.0; 
stroke:#000000; stroke-width:59.0551; stroke-opacity:1; 
stroke-linecap:round; stroke-linejoin:round;">
</g>
<g style="fill:#000000; fill-opacity:1.0; 
stroke:#000000; stroke-width:0; stroke-opacity:1; 
stroke-linecap:round; stroke-linejoin:round;">
<polyline style="fill-rule:evenodd;"
points="31630,41669
31630,40330
32969,40330
32969,41669
31630,41669
" /> 
<circle cx="34300" cy="41000" r="669.291" /> 
</g>
<g style="fill:#000000; fill-opacity:1.0; 
stroke:#000000; stroke-width:59.0551; stroke-opacity:1; 
stroke-linecap:round; stroke-linejoin:round;">
</g>
<g style="fill:#000000; fill-opacity:1.0; 
stroke:#000000; stroke-width:0; stroke-opacity:1; 
stroke-linecap:round; stroke-linejoin:round;">
<polyline style="fill-rule:evenodd;"
points="44230,41669
44230,40330
45569,40330
45569,41669
44230,41669
" /> 
<circle cx="46900" cy="41000" r="669.291" /> 
</g>
<g style="fill:#000000; fill-opacity:1.0; 
stroke:#000000; stroke-width:59.0551; stroke-opacity:1; 
stroke-linecap:round; stroke-linejoin:round;">
</g>
<g style="fill:#000000; fill-opacity:1.0; 
stroke:#000000; stroke-width:0; stroke-opacity:1; 
stroke-linecap:round; stroke-linejoin:round;">
<polyline style="fill-rule:evenodd;"
points="48430,41669
48430,40330
49769,40330
49769,41669
48430,41669
" /> 
<circle cx="51100" cy="41000" r="669.291" /> 
</g>
<g style="fill:#000000; fill-opacity:1.0; 
stroke:#000000; stroke-width:59.0551; stroke-opacity:1; 
stroke-linecap:round; stroke-linejoin:round;">
</g>
<g style="fill:#000000; fill-opacity:1.0; 
stroke:#000000; stroke-width:0; stroke-opacity:1; 
stroke-linecap:round; stroke-linejoin:round;">
<polyline style="fill-rule:evenodd;"
points="52630,41669
52630,40330
53969,40330
53969,41669
52630,41669
" /> 
<circle cx="55300" cy="41000" r="669.291" /> 
</g>
<g style="fill:#000000; fill-opacity:1.0; 
stroke:#000000; stroke-width:59.0551; stroke-opacity:1; 
stroke-linecap:round; stroke-linejoin:round;">
</g>
<g style="fill:#000000; fill-opacity:1.0; 
stroke:#000000; stroke-width:0; stroke-opacity:1; 
stroke-linecap:round; stroke-linejoin:round;">
<polyline style="fill-rule:evenodd;"
points="66369,36730
66369,38069
65030,38069
65030,36730
66369,36730
" /> 
<circle cx="63700" cy="37400" r="669.291" /> 
</g>
<g style="fill:#000000; fill-opacity:1.0; 
stroke:#000000; stroke-width:59.0551; stroke-opacity:1; 
stroke-linecap:round; stroke-linejoin:round;">
</g>
<g style="fill:#000000; fill-opacity:1.0; 
stroke:#000000; stroke-width:0; stroke-opacity:1; 
stroke-linecap:round; stroke-linejoin:round;">
<circle cx="61700" cy="37400" r="669.291" /> 
</g>
<g style="fill:#000000; fill-opacity:1.0; 
stroke:#000000; stroke-width:59.0551; stroke-opacity:1; 
stroke-linecap:round; stroke-linejoin:round;">
</g>
<g style="fill:#000000; fill-opacity:1.0; 
stroke:#000000; stroke-width:0; stroke-opacity:1; 
stroke-linecap:round; stroke-linejoin:round;">
<polyline style="fill-rule:evenodd;"
points="55969,36730
55969,38069
54630,38069
54630,36730
55969,36730
" /> 
<circle cx="53300" cy="37400" r="669.291" /> 
</g>
<g style="fill:#000000; fill-opacity:1.0; 
stroke:#000000; stroke-width:59.0551; stroke-opacity:1; 
stroke-linecap:round; stroke-linejoin:round;">
</g>
<g style="fill:#000000; fill-opacity:1.0; 
stroke:#000000; stroke-width:0; stroke-opacity:1; 
stroke-linecap:round; stroke-linejoin:round;">
<circle cx="51300" cy="37400" r="669.291" /> 
</g>
<g style="fill:#000000; fill-opacity:1.0; 
stroke:#000000; stroke-width:59.0551; stroke-opacity:1; 
stroke-linecap:round; stroke-linejoin:round;">
</g>
<g style="fill:#000000; fill-opacity:1.0; 
stroke:#000000; stroke-width:0; stroke-opacity:1; 
stroke-linecap:round; stroke-linejoin:round;">
<polyline style="fill-rule:evenodd;"
points="45569,36730
45569,38069
44230,38069
44230,36730
45569,36730
" /> 
<circle cx="42900" cy="37400" r="669.291" /> 
</g>
<g style="fill:#000000; fill-opacity:1.0; 
stroke:#000000; stroke-width:59.0551; stroke-opacity:1; 
stroke-linecap:round; stroke-linejoin:round;">
</g>
<g style="fill:#000000; fill-opacity:1.0; 
stroke:#000000; stroke-width:0; stroke-opacity:1; 
stroke-linecap:round; stroke-linejoin:round;">
<circle cx="40900" cy="37400" r="669.291" /> 
</g>
<g style="fill:#000000; fill-opacity:1.0; 
stroke:#000000; stroke-width:59.0551; stroke-opacity:1; 
stroke-linecap:round; stroke-linejoin:round;">
</g>
<g style="fill:#000000; fill-opacity:1.0; 
stroke:#000000; stroke-width:0; stroke-opacity:1; 
stroke-linecap:round; stroke-linejoin:round;">
<polyline style="fill-rule:evenodd;"
points="56830,41669
56830,40330
58169,40330
58169,41669
56830,41669
" /> 
<circle cx="59500" cy="41000" r="669.291" /> 
</g>
<g style="fill:#000000; fill-opacity:1.0; 
stroke:#000000; stroke-width:59.0551; stroke-opacity:1; 
stroke-linecap:round; stroke-linejoin:round;">
</g>
<g style="fill:#000000; fill-opacity:1.0; 
stroke:#000000; stroke-width:0; stroke-opacity:1; 
stroke-linecap:round; stroke-linejoin:round;">
<circle cx="61500" cy="41000" r="669.291" /> 
</g>
<g style="fill:#000000; fill-opacity:1.0; 
stroke:#000000; stroke-width:59.0551; stroke-opacity:1; 
stroke-linecap:round; stroke-linejoin:round;">
</g>
<g style="fill:#000000; fill-opacity:1.0; 
stroke:#000000; stroke-width:944.882; stroke-opacity:1; 
stroke-linecap:round; stroke-linejoin:round;">
</g>
<g style="fill:#000000; fill-opacity:0.0; 
stroke:#000000; stroke-width:944.882; stroke-opacity:1; 
stroke-linecap:round; stroke-linejoin:round;">
<path d="M46300 29106
L46300 28893
" />
<path d="M47300 29106
L47300 28893
" />
<path d="M49900 48106
L49900 47893
" />
<path d="M50900 48106
L50900 47893
" />
<path d="M63900 48106
L63900 47893
" />
<path d="M62900 48106
L62900 47893
" />
<path d="M61900 48106
L61900 47893
" />
<path d="M58900 48106
L58900 47893
" />
<path d="M59900 48106
L59900 47893
" />
<path d="M60900 48106
L60900 47893
" />
<path d="M56900 48106
L56900 47893
" />
<path d="M55900 48106
L55900 47893
" />
<path d="M54900 48106
L54900 47893
" />
<path d="M52900 48106
L52900 47893
" />
<path d="M51900 48106
L51900 47893
" />
<path d="M63900 29106
L63900 28893
" />
<path d="M62900 29106
L62900 28893
" />
<path d="M61900 29106
L61900 28893
" />
<path d="M60900 29106
L60900 28893
" />
<path d="M59900 29106
L59900 28893
" />
<path d="M58900 29106
L58900 28893
" />
<path d="M57900 29106
L57900 28893
" />
<path d="M56900 29106
L56900 28893
" />
<path d="M55300 29106
L55300 28893
" />
<path d="M54300 29106
L54300 28893
" />
<path d="M53300 29106
L53300 28893
" />
<path d="M52300 29106
L52300 28893
" />
<path d="M51300 29106
L51300 28893
" />
<path d="M50300 29106
L50300 28893
" />
<path d="M49300 29106
L49300 28893
" />
<path d="M48300 29106
L48300 28893
" />
<path d="M53900 48106
L53900 47893
" />
</g>
<g style="fill:#000000; fill-opacity:1.0; 
stroke:#000000; stroke-width:0; stroke-opacity:1; 
stroke-linecap:round; stroke-linejoin:round;">
<circle cx="26771.7" cy="29133.9" r="708.661" /> 
</g>
<g style="fill:#000000; fill-opacity:1.0; 
stroke:#000000; stroke-width:59.0551; stroke-opacity:1; 
stroke-linecap:round; stroke-linejoin:round;">
</g> 
</svg>
