<?xml version="1.0" standalone="no"?>
 <!DOCTYPE svg PUBLIC "-//W3C//DTD SVG 1.1//EN" 
 "http://www.w3.org/Graphics/SVG/1.1/DTD/svg11.dtd"> 
<svg xmlns="http://www.w3.org/2000/svg" version="1.1" 
    width="29.7002cm" height="21.0007cm" viewBox="0 0 116930 82680 ">
<title>SVG Picture created as arduino_uno_grbl_shield-B.CrtYd.svg date 2017/06/16 22:26:17 </title>
  <desc>Picture generated by PCBNEW </desc>
<g style="fill:#000000; fill-opacity:1;stroke:#000000; stroke-opacity:1;
stroke-linecap:round; stroke-linejoin:round; "
 transform="translate(0 0) scale(1 1)">
</g>
<g style="fill:#000000; fill-opacity:0.0; 
stroke:#000000; stroke-width:-0.000393701; stroke-opacity:1; 
stroke-linecap:round; stroke-linejoin:round;">
</g>
<g style="fill:#000000; fill-opacity:0.0; 
stroke:#000000; stroke-width:19.685; stroke-opacity:1; 
stroke-linecap:round; stroke-linejoin:round;">
<path d="M38746 36838
L38746 35461
" />
<path d="M38746 36838
L38057 36838
" />
<path d="M38057 35461
L38746 35461
" />
<path d="M38057 35461
L38057 36838
" />
<path d="M55651 45644
L54548 45644
" />
<path d="M55651 45644
L55651 46155
" />
<path d="M54548 46155
L54548 45644
" />
<path d="M54548 46155
L55651 46155
" />
<path d="M51451 45744
L50348 45744
" />
<path d="M51451 45744
L51451 46255
" />
<path d="M50348 46255
L50348 45744
" />
<path d="M50348 46255
L51451 46255
" />
<path d="M38003 31811
L38003 33188
" />
<path d="M38003 31811
L38692 31811
" />
<path d="M38692 33188
L38003 33188
" />
<path d="M38692 33188
L38692 31811
" />
<path d="M47244 44948
L47244 46051
" />
<path d="M47244 44948
L47755 44948
" />
<path d="M47755 46051
L47244 46051
" />
<path d="M47755 46051
L47755 44948
" />
<path d="M34651 45744
L33548 45744
" />
<path d="M34651 45744
L34651 46255
" />
<path d="M33548 46255
L33548 45744
" />
<path d="M33548 46255
L34651 46255
" />
<path d="M39394 31848
L39394 32951
" />
<path d="M39394 31848
L39905 31848
" />
<path d="M39905 32951
L39394 32951
" />
<path d="M39905 32951
L39905 31848
" />
<path d="M38851 45744
L37748 45744
" />
<path d="M38851 45744
L38851 46255
" />
<path d="M37748 46255
L37748 45744
" />
<path d="M37748 46255
L38851 46255
" />
<path d="M38794 31848
L38794 32951
" />
<path d="M38794 31848
L39305 31848
" />
<path d="M39305 32951
L38794 32951
" />
<path d="M39305 32951
L39305 31848
" />
<path d="M42851 45744
L41748 45744
" />
<path d="M42851 45744
L42851 46255
" />
<path d="M41748 46255
L41748 45744
" />
<path d="M41748 46255
L42851 46255
" />
<path d="M70251 45744
L69148 45744
" />
<path d="M70251 45744
L70251 46255
" />
<path d="M69148 46255
L69148 45744
" />
<path d="M69148 46255
L70251 46255
" />
<path d="M52607 45325
L53592 45325
" />
<path d="M52607 45325
L52607 44774
" />
<path d="M53592 44774
L53592 45325
" />
<path d="M53592 44774
L52607 44774
" />
<path d="M48407 45475
L49392 45475
" />
<path d="M48407 45475
L48407 44924
" />
<path d="M49392 44924
L49392 45475
" />
<path d="M49392 44924
L48407 44924
" />
<path d="M44207 45475
L45192 45475
" />
<path d="M44207 45475
L44207 44924
" />
<path d="M45192 44924
L45192 45475
" />
<path d="M45192 44924
L44207 44924
" />
<path d="M31607 45475
L32592 45475
" />
<path d="M31607 45475
L31607 44924
" />
<path d="M32592 44924
L32592 45475
" />
<path d="M32592 44924
L31607 44924
" />
<path d="M35807 45475
L36792 45475
" />
<path d="M35807 45475
L35807 44924
" />
<path d="M36792 44924
L36792 45475
" />
<path d="M36792 44924
L35807 44924
" />
<path d="M39807 45475
L40792 45475
" />
<path d="M39807 45475
L39807 44924
" />
<path d="M40792 44924
L40792 45475
" />
<path d="M40792 44924
L39807 44924
" />
<path d="M67207 45475
L68192 45475
" />
<path d="M67207 45475
L67207 44924
" />
<path d="M68192 44924
L68192 45475
" />
<path d="M68192 44924
L67207 44924
" />
<path d="M54607 45325
L55592 45325
" />
<path d="M54607 45325
L54607 44774
" />
<path d="M55592 44774
L55592 45325
" />
<path d="M55592 44774
L54607 44774
" />
<path d="M50407 45475
L51392 45475
" />
<path d="M50407 45475
L50407 44924
" />
<path d="M51392 44924
L51392 45475
" />
<path d="M51392 44924
L50407 44924
" />
<path d="M46207 45475
L47192 45475
" />
<path d="M46207 45475
L46207 44924
" />
<path d="M47192 44924
L47192 45475
" />
<path d="M47192 44924
L46207 44924
" />
<path d="M33607 45475
L34592 45475
" />
<path d="M33607 45475
L33607 44924
" />
<path d="M34592 44924
L34592 45475
" />
<path d="M34592 44924
L33607 44924
" />
<path d="M37807 45475
L38792 45475
" />
<path d="M37807 45475
L37807 44924
" />
<path d="M38792 44924
L38792 45475
" />
<path d="M38792 44924
L37807 44924
" />
<path d="M41807 45475
L42792 45475
" />
<path d="M41807 45475
L41807 44924
" />
<path d="M42792 44924
L42792 45475
" />
<path d="M42792 44924
L41807 44924
" />
<path d="M69207 45475
L70192 45475
" />
<path d="M69207 45475
L69207 44924
" />
<path d="M70192 44924
L70192 45475
" />
<path d="M70192 44924
L69207 44924
" />
<path d="M33174 47207
L33174 48192
" />
<path d="M33174 47207
L33725 47207
" />
<path d="M33725 48192
L33174 48192
" />
<path d="M33725 48192
L33725 47207
" />
<path d="M52426 44457
L55773 44457
" />
<path d="M52426 44457
L52426 42842
" />
<path d="M55773 42842
L55773 44457
" />
<path d="M55773 42842
L52426 42842
" />
<path d="M48226 44607
L51573 44607
" />
<path d="M48226 44607
L48226 42992
" />
<path d="M51573 42992
L51573 44607
" />
<path d="M51573 42992
L48226 42992
" />
<path d="M44026 44607
L47373 44607
" />
<path d="M44026 44607
L44026 42992
" />
<path d="M47373 42992
L47373 44607
" />
<path d="M47373 42992
L44026 42992
" />
<path d="M31426 44607
L34773 44607
" />
<path d="M31426 44607
L31426 42992
" />
<path d="M34773 42992
L34773 44607
" />
<path d="M34773 42992
L31426 42992
" />
<path d="M35626 44607
L38973 44607
" />
<path d="M35626 44607
L35626 42992
" />
<path d="M38973 42992
L38973 44607
" />
<path d="M38973 42992
L35626 42992
" />
<path d="M39626 44607
L42973 44607
" />
<path d="M39626 44607
L39626 42992
" />
<path d="M42973 42992
L42973 44607
" />
<path d="M42973 42992
L39626 42992
" />
<path d="M67026 44607
L70373 44607
" />
<path d="M67026 44607
L67026 42992
" />
<path d="M70373 42992
L70373 44607
" />
<path d="M70373 42992
L67026 42992
" />
</g> 
</svg>
