<?xml version="1.0" standalone="no"?>
 <!DOCTYPE svg PUBLIC "-//W3C//DTD SVG 1.1//EN" 
 "http://www.w3.org/Graphics/SVG/1.1/DTD/svg11.dtd"> 
<svg xmlns="http://www.w3.org/2000/svg" version="1.1" 
    width="29.7002cm" height="21.0007cm" viewBox="0 0 116930 82680 ">
<title>SVG Picture created as arduino_uno_grbl_shield-B.SilkS.svg date 2017/06/16 22:26:17 </title>
  <desc>Picture generated by PCBNEW </desc>
<g style="fill:#000000; fill-opacity:1;stroke:#000000; stroke-opacity:1;
stroke-linecap:round; stroke-linejoin:round; "
 transform="translate(0 0) scale(1 1)">
</g>
<g style="fill:#000000; fill-opacity:0.0; 
stroke:#000000; stroke-width:-0.000393701; stroke-opacity:1; 
stroke-linecap:round; stroke-linejoin:round;">
</g>
<g style="fill:#000000; fill-opacity:0.0; 
stroke:#000000; stroke-width:47.2441; stroke-opacity:1; 
stroke-linecap:round; stroke-linejoin:round;">
<path d="M38734 35953
L38734 36346
" />
<path d="M38065 36346
L38065 35953
" />
<path d="M55237 45663
L54962 45663
" />
<path d="M54962 46136
L55237 46136
" />
<path d="M51037 45763
L50762 45763
" />
<path d="M50762 46236
L51037 46236
" />
<path d="M38015 32696
L38015 32303
" />
<path d="M38684 32303
L38684 32696
" />
<path d="M47263 45362
L47263 45637
" />
<path d="M47736 45637
L47736 45362
" />
<path d="M34237 45763
L33962 45763
" />
<path d="M33962 46236
L34237 46236
" />
<path d="M39413 32262
L39413 32537
" />
<path d="M39886 32537
L39886 32262
" />
<path d="M38437 45763
L38162 45763
" />
<path d="M38162 46236
L38437 46236
" />
<path d="M38813 32262
L38813 32537
" />
<path d="M39286 32537
L39286 32262
" />
<path d="M42437 45763
L42162 45763
" />
<path d="M42162 46236
L42437 46236
" />
<path d="M69837 45763
L69562 45763
" />
<path d="M69562 46236
L69837 46236
" />
<path d="M53296 44782
L52903 44782
" />
<path d="M52903 45317
L53296 45317
" />
<path d="M49096 44932
L48703 44932
" />
<path d="M48703 45467
L49096 45467
" />
<path d="M44896 44932
L44503 44932
" />
<path d="M44503 45467
L44896 45467
" />
<path d="M32296 44932
L31903 44932
" />
<path d="M31903 45467
L32296 45467
" />
<path d="M36496 44932
L36103 44932
" />
<path d="M36103 45467
L36496 45467
" />
<path d="M40496 44932
L40103 44932
" />
<path d="M40103 45467
L40496 45467
" />
<path d="M67896 44932
L67503 44932
" />
<path d="M67503 45467
L67896 45467
" />
<path d="M55296 44782
L54903 44782
" />
<path d="M54903 45317
L55296 45317
" />
<path d="M51096 44932
L50703 44932
" />
<path d="M50703 45467
L51096 45467
" />
<path d="M46896 44932
L46503 44932
" />
<path d="M46503 45467
L46896 45467
" />
<path d="M34296 44932
L33903 44932
" />
<path d="M33903 45467
L34296 45467
" />
<path d="M38496 44932
L38103 44932
" />
<path d="M38103 45467
L38496 45467
" />
<path d="M42496 44932
L42103 44932
" />
<path d="M42103 45467
L42496 45467
" />
<path d="M69896 44932
L69503 44932
" />
<path d="M69503 45467
L69896 45467
" />
<path d="M33717 47896
L33717 47503
" />
<path d="M33182 47503
L33182 47896
" />
<path d="M53194 44358
L52564 44358
" />
<path d="M54966 42901
L53233 42901
" />
<path d="M53194 44358
L53194 44398
" />
<path d="M53194 44398
L54966 44398
" />
<path d="M48994 44508
L48364 44508
" />
<path d="M50766 43051
L49033 43051
" />
<path d="M48994 44508
L48994 44548
" />
<path d="M48994 44548
L50766 44548
" />
<path d="M44794 44508
L44164 44508
" />
<path d="M46566 43051
L44833 43051
" />
<path d="M44794 44508
L44794 44548
" />
<path d="M44794 44548
L46566 44548
" />
<path d="M32194 44508
L31564 44508
" />
<path d="M33966 43051
L32233 43051
" />
<path d="M32194 44508
L32194 44548
" />
<path d="M32194 44548
L33966 44548
" />
<path d="M36394 44508
L35764 44508
" />
<path d="M38166 43051
L36433 43051
" />
<path d="M36394 44508
L36394 44548
" />
<path d="M36394 44548
L38166 44548
" />
<path d="M40394 44508
L39764 44508
" />
<path d="M42166 43051
L40433 43051
" />
<path d="M40394 44508
L40394 44548
" />
<path d="M40394 44548
L42166 44548
" />
<path d="M67794 44508
L67164 44508
" />
<path d="M69566 43051
L67833 43051
" />
<path d="M67794 44508
L67794 44548
" />
<path d="M67794 44548
L69566 44548
" />
</g>
<g style="fill:#000000; fill-opacity:0.0; 
stroke:#000000; stroke-width:59.0551; stroke-opacity:1; 
stroke-linecap:round; stroke-linejoin:round;">
<path d="M61000 33200
L58000 33200
" />
<path d="M58000 31800
L61000 31800
" />
<path d="M61000 33200
L61000 31800
" />
<path d="M58000 31800
L58000 33200
" />
<circle cx="58200" cy="32000" r="141.421" /> 
<path d="M58000 32750
L58300 32750
" />
<path d="M58300 32750
L58300 32250
" />
<path d="M58300 32250
L58000 32250
" />
<path d="M66000 46100
L66000 44200
" />
<path d="M66000 44200
L62000 44200
" />
<path d="M62000 44200
L62000 46100
" />
<path d="M62000 46100
L66000 46100
" />
<path d="M62000 45400
L62250 45400
" />
<path d="M62250 45400
L62250 44900
" />
<path d="M62250 44900
L62000 44900
" />
<path d="M39131 36084
L39149 36065
L39168 36009
L39168 35971
L39149 35915
L39112 35878
L39074 35859
L38999 35840
L38943 35840
L38868 35859
L38831 35878
L38793 35915
L38774 35971
L38774 36009
L38793 36065
L38812 36084
" />
<path d="M39168 36459
L39168 36234
" />
<path d="M39168 36346
L38774 36346
L38831 36309
L38868 36271
L38887 36234
" />
<path d="M55165 45450
L55184 45468
L55240 45487
L55278 45487
L55334 45468
L55371 45431
L55390 45393
L55409 45318
L55409 45262
L55390 45187
L55371 45150
L55334 45112
L55278 45093
L55240 45093
L55184 45112
L55165 45131
" />
<path d="M55034 45093
L54790 45093
L54921 45243
L54865 45243
L54828 45262
L54809 45281
L54790 45318
L54790 45412
L54809 45450
L54828 45468
L54865 45487
L54978 45487
L55015 45468
L55034 45450
" />
<path d="M50965 45550
L50984 45568
L51040 45587
L51078 45587
L51134 45568
L51171 45531
L51190 45493
L51209 45418
L51209 45362
L51190 45287
L51171 45250
L51134 45212
L51078 45193
L51040 45193
L50984 45212
L50965 45231
" />
<path d="M50628 45325
L50628 45587
" />
<path d="M50721 45175
L50815 45456
L50571 45456
" />
<path d="M37900 32434
L37918 32415
L37937 32359
L37937 32321
L37918 32265
L37881 32228
L37843 32209
L37768 32190
L37712 32190
L37637 32209
L37600 32228
L37562 32265
L37543 32321
L37543 32359
L37562 32415
L37581 32434
" />
<path d="M37543 32790
L37543 32603
L37731 32584
L37712 32603
L37693 32640
L37693 32734
L37712 32771
L37731 32790
L37768 32809
L37862 32809
L37900 32790
L37918 32771
L37937 32734
L37937 32640
L37918 32603
L37900 32584
" />
<path d="M47050 45434
L47068 45415
L47087 45359
L47087 45321
L47068 45265
L47031 45228
L46993 45209
L46918 45190
L46862 45190
L46787 45209
L46750 45228
L46712 45265
L46693 45321
L46693 45359
L46712 45415
L46731 45434
" />
<path d="M46693 45771
L46693 45696
L46712 45659
L46731 45640
L46787 45603
L46862 45584
L47012 45584
L47050 45603
L47068 45621
L47087 45659
L47087 45734
L47068 45771
L47050 45790
L47012 45809
L46918 45809
L46881 45790
L46862 45771
L46843 45734
L46843 45659
L46862 45621
L46881 45603
L46918 45584
" />
<path d="M34165 45550
L34184 45568
L34240 45587
L34278 45587
L34334 45568
L34371 45531
L34390 45493
L34409 45418
L34409 45362
L34390 45287
L34371 45250
L34334 45212
L34278 45193
L34240 45193
L34184 45212
L34165 45231
" />
<path d="M33940 45362
L33978 45343
L33996 45325
L34015 45287
L34015 45268
L33996 45231
L33978 45212
L33940 45193
L33865 45193
L33828 45212
L33809 45231
L33790 45268
L33790 45287
L33809 45325
L33828 45343
L33865 45362
L33940 45362
L33978 45381
L33996 45400
L34015 45437
L34015 45512
L33996 45550
L33978 45568
L33940 45587
L33865 45587
L33828 45568
L33809 45550
L33790 45512
L33790 45437
L33809 45400
L33828 45381
L33865 45362
" />
<path d="M39200 32334
L39218 32315
L39237 32259
L39237 32221
L39218 32165
L39181 32128
L39143 32109
L39068 32090
L39012 32090
L38937 32109
L38900 32128
L38862 32165
L38843 32221
L38843 32259
L38862 32315
L38881 32334
" />
<path d="M39237 32521
L39237 32596
L39218 32634
L39200 32653
L39143 32690
L39068 32709
L38918 32709
L38881 32690
L38862 32671
L38843 32634
L38843 32559
L38862 32521
L38881 32503
L38918 32484
L39012 32484
L39050 32503
L39068 32521
L39087 32559
L39087 32634
L39068 32671
L39050 32690
L39012 32709
" />
<path d="M38553 45550
L38571 45568
L38628 45587
L38665 45587
L38721 45568
L38759 45531
L38778 45493
L38796 45418
L38796 45362
L38778 45287
L38759 45250
L38721 45212
L38665 45193
L38628 45193
L38571 45212
L38553 45231
" />
<path d="M38178 45587
L38403 45587
" />
<path d="M38290 45587
L38290 45193
L38328 45250
L38365 45287
L38403 45306
" />
<path d="M37934 45193
L37896 45193
L37859 45212
L37840 45231
L37821 45268
L37803 45343
L37803 45437
L37821 45512
L37840 45550
L37859 45568
L37896 45587
L37934 45587
L37971 45568
L37990 45550
L38009 45512
L38028 45437
L38028 45343
L38009 45268
L37990 45231
L37971 45212
L37934 45193
" />
<path d="M38600 32146
L38618 32128
L38637 32071
L38637 32034
L38618 31978
L38581 31940
L38543 31921
L38468 31903
L38412 31903
L38337 31921
L38300 31940
L38262 31978
L38243 32034
L38243 32071
L38262 32128
L38281 32146
" />
<path d="M38637 32521
L38637 32296
" />
<path d="M38637 32409
L38243 32409
L38300 32371
L38337 32334
L38356 32296
" />
<path d="M38637 32896
L38637 32671
" />
<path d="M38637 32784
L38243 32784
L38300 32746
L38337 32709
L38356 32671
" />
<path d="M42553 45550
L42571 45568
L42628 45587
L42665 45587
L42721 45568
L42759 45531
L42778 45493
L42796 45418
L42796 45362
L42778 45287
L42759 45250
L42721 45212
L42665 45193
L42628 45193
L42571 45212
L42553 45231
" />
<path d="M42178 45587
L42403 45587
" />
<path d="M42290 45587
L42290 45193
L42328 45250
L42365 45287
L42403 45306
" />
<path d="M42028 45231
L42009 45212
L41971 45193
L41878 45193
L41840 45212
L41821 45231
L41803 45268
L41803 45306
L41821 45362
L42046 45587
L41803 45587
" />
<path d="M69953 45550
L69971 45568
L70028 45587
L70065 45587
L70121 45568
L70159 45531
L70178 45493
L70196 45418
L70196 45362
L70178 45287
L70159 45250
L70121 45212
L70065 45193
L70028 45193
L69971 45212
L69953 45231
" />
<path d="M69578 45587
L69803 45587
" />
<path d="M69690 45587
L69690 45193
L69728 45250
L69765 45287
L69803 45306
" />
<path d="M69446 45193
L69203 45193
L69334 45343
L69278 45343
L69240 45362
L69221 45381
L69203 45418
L69203 45512
L69221 45550
L69240 45568
L69278 45587
L69390 45587
L69428 45568
L69446 45550
" />
<path d="M53165 45798
L53296 45611
" />
<path d="M53390 45798
L53390 45405
L53240 45405
L53203 45424
L53184 45442
L53165 45480
L53165 45536
L53184 45573
L53203 45592
L53240 45611
L53390 45611
" />
<path d="M52790 45798
L53015 45798
" />
<path d="M52903 45798
L52903 45405
L52940 45461
L52978 45499
L53015 45517
" />
<path d="M48965 45948
L49096 45761
" />
<path d="M49190 45948
L49190 45555
L49040 45555
L49003 45574
L48984 45592
L48965 45630
L48965 45686
L48984 45723
L49003 45742
L49040 45761
L49190 45761
" />
<path d="M48815 45592
L48796 45574
L48759 45555
L48665 45555
L48628 45574
L48609 45592
L48590 45630
L48590 45667
L48609 45723
L48834 45948
L48590 45948
" />
<path d="M44765 45948
L44896 45761
" />
<path d="M44990 45948
L44990 45555
L44840 45555
L44803 45574
L44784 45592
L44765 45630
L44765 45686
L44784 45723
L44803 45742
L44840 45761
L44990 45761
" />
<path d="M44634 45555
L44390 45555
L44521 45705
L44465 45705
L44428 45723
L44409 45742
L44390 45780
L44390 45873
L44409 45911
L44428 45930
L44465 45948
L44578 45948
L44615 45930
L44634 45911
" />
<path d="M32165 45948
L32296 45761
" />
<path d="M32390 45948
L32390 45555
L32240 45555
L32203 45574
L32184 45592
L32165 45630
L32165 45686
L32184 45723
L32203 45742
L32240 45761
L32390 45761
" />
<path d="M31828 45686
L31828 45948
" />
<path d="M31921 45536
L32015 45817
L31771 45817
" />
<path d="M36365 45948
L36496 45761
" />
<path d="M36590 45948
L36590 45555
L36440 45555
L36403 45574
L36384 45592
L36365 45630
L36365 45686
L36384 45723
L36403 45742
L36440 45761
L36590 45761
" />
<path d="M36009 45555
L36196 45555
L36215 45742
L36196 45723
L36159 45705
L36065 45705
L36028 45723
L36009 45742
L35990 45780
L35990 45873
L36009 45911
L36028 45930
L36065 45948
L36159 45948
L36196 45930
L36215 45911
" />
<path d="M40365 45948
L40496 45761
" />
<path d="M40590 45948
L40590 45555
L40440 45555
L40403 45574
L40384 45592
L40365 45630
L40365 45686
L40384 45723
L40403 45742
L40440 45761
L40590 45761
" />
<path d="M40028 45555
L40103 45555
L40140 45574
L40159 45592
L40196 45649
L40215 45723
L40215 45873
L40196 45911
L40178 45930
L40140 45948
L40065 45948
L40028 45930
L40009 45911
L39990 45873
L39990 45780
L40009 45742
L40028 45723
L40065 45705
L40140 45705
L40178 45723
L40196 45742
L40215 45780
" />
<path d="M67765 45948
L67896 45761
" />
<path d="M67990 45948
L67990 45555
L67840 45555
L67803 45574
L67784 45592
L67765 45630
L67765 45686
L67784 45723
L67803 45742
L67840 45761
L67990 45761
" />
<path d="M67634 45555
L67371 45555
L67540 45948
" />
<path d="M55165 45798
L55296 45611
" />
<path d="M55390 45798
L55390 45405
L55240 45405
L55203 45424
L55184 45442
L55165 45480
L55165 45536
L55184 45573
L55203 45592
L55240 45611
L55390 45611
" />
<path d="M54940 45573
L54978 45555
L54996 45536
L55015 45499
L55015 45480
L54996 45442
L54978 45424
L54940 45405
L54865 45405
L54828 45424
L54809 45442
L54790 45480
L54790 45499
L54809 45536
L54828 45555
L54865 45573
L54940 45573
L54978 45592
L54996 45611
L55015 45648
L55015 45723
L54996 45761
L54978 45780
L54940 45798
L54865 45798
L54828 45780
L54809 45761
L54790 45723
L54790 45648
L54809 45611
L54828 45592
L54865 45573
" />
<path d="M50965 45948
L51096 45761
" />
<path d="M51190 45948
L51190 45555
L51040 45555
L51003 45574
L50984 45592
L50965 45630
L50965 45686
L50984 45723
L51003 45742
L51040 45761
L51190 45761
" />
<path d="M50778 45948
L50703 45948
L50665 45930
L50646 45911
L50609 45855
L50590 45780
L50590 45630
L50609 45592
L50628 45574
L50665 45555
L50740 45555
L50778 45574
L50796 45592
L50815 45630
L50815 45723
L50796 45761
L50778 45780
L50740 45798
L50665 45798
L50628 45780
L50609 45761
L50590 45723
" />
<path d="M46953 45948
L47084 45761
" />
<path d="M47178 45948
L47178 45555
L47028 45555
L46990 45574
L46971 45592
L46953 45630
L46953 45686
L46971 45723
L46990 45742
L47028 45761
L47178 45761
" />
<path d="M46578 45948
L46803 45948
" />
<path d="M46690 45948
L46690 45555
L46728 45611
L46765 45649
L46803 45667
" />
<path d="M46334 45555
L46296 45555
L46259 45574
L46240 45592
L46221 45630
L46203 45705
L46203 45798
L46221 45873
L46240 45911
L46259 45930
L46296 45948
L46334 45948
L46371 45930
L46390 45911
L46409 45873
L46428 45798
L46428 45705
L46409 45630
L46390 45592
L46371 45574
L46334 45555
" />
<path d="M34353 45948
L34484 45761
" />
<path d="M34578 45948
L34578 45555
L34428 45555
L34390 45574
L34371 45592
L34353 45630
L34353 45686
L34371 45723
L34390 45742
L34428 45761
L34578 45761
" />
<path d="M33978 45948
L34203 45948
" />
<path d="M34090 45948
L34090 45555
L34128 45611
L34165 45649
L34203 45667
" />
<path d="M33603 45948
L33828 45948
" />
<path d="M33715 45948
L33715 45555
L33753 45611
L33790 45649
L33828 45667
" />
<path d="M38553 45948
L38684 45761
" />
<path d="M38778 45948
L38778 45555
L38628 45555
L38590 45574
L38571 45592
L38553 45630
L38553 45686
L38571 45723
L38590 45742
L38628 45761
L38778 45761
" />
<path d="M38178 45948
L38403 45948
" />
<path d="M38290 45948
L38290 45555
L38328 45611
L38365 45649
L38403 45667
" />
<path d="M38028 45592
L38009 45574
L37971 45555
L37878 45555
L37840 45574
L37821 45592
L37803 45630
L37803 45667
L37821 45723
L38046 45948
L37803 45948
" />
<path d="M42553 45948
L42684 45761
" />
<path d="M42778 45948
L42778 45555
L42628 45555
L42590 45574
L42571 45592
L42553 45630
L42553 45686
L42571 45723
L42590 45742
L42628 45761
L42778 45761
" />
<path d="M42178 45948
L42403 45948
" />
<path d="M42290 45948
L42290 45555
L42328 45611
L42365 45649
L42403 45667
" />
<path d="M42046 45555
L41803 45555
L41934 45705
L41878 45705
L41840 45723
L41821 45742
L41803 45780
L41803 45873
L41821 45911
L41840 45930
L41878 45948
L41990 45948
L42028 45930
L42046 45911
" />
<path d="M69953 45948
L70084 45761
" />
<path d="M70178 45948
L70178 45555
L70028 45555
L69990 45574
L69971 45592
L69953 45630
L69953 45686
L69971 45723
L69990 45742
L70028 45761
L70178 45761
" />
<path d="M69578 45948
L69803 45948
" />
<path d="M69690 45948
L69690 45555
L69728 45611
L69765 45649
L69803 45667
" />
<path d="M69240 45686
L69240 45948
" />
<path d="M69334 45536
L69428 45817
L69184 45817
" />
<path d="M33057 47446
L32869 47315
" />
<path d="M33057 47221
L32663 47221
L32663 47371
L32682 47409
L32701 47428
L32738 47446
L32794 47446
L32832 47428
L32851 47409
L32869 47371
L32869 47221
" />
<path d="M33057 47821
L33057 47596
" />
<path d="M33057 47709
L32663 47709
L32719 47671
L32757 47634
L32776 47596
" />
<path d="M32663 48178
L32663 47990
L32851 47971
L32832 47990
L32813 48028
L32813 48121
L32832 48159
L32851 48178
L32888 48196
L32982 48196
L33019 48178
L33038 48159
L33057 48121
L33057 48028
L33038 47990
L33019 47971
" />
<path d="M54399 44484
L54399 44803
L54381 44840
L54362 44859
L54324 44878
L54249 44878
L54212 44859
L54193 44840
L54174 44803
L54174 44484
" />
<path d="M53781 44878
L54006 44878
" />
<path d="M53893 44878
L53893 44484
L53931 44540
L53968 44578
L54006 44596
" />
<path d="M50199 44634
L50199 44953
L50181 44990
L50162 45009
L50124 45028
L50049 45028
L50012 45009
L49993 44990
L49974 44953
L49974 44634
" />
<path d="M49806 44671
L49787 44653
L49750 44634
L49656 44634
L49618 44653
L49600 44671
L49581 44709
L49581 44746
L49600 44803
L49825 45028
L49581 45028
" />
<path d="M45999 44634
L45999 44953
L45981 44990
L45962 45009
L45924 45028
L45849 45028
L45812 45009
L45793 44990
L45774 44953
L45774 44634
" />
<path d="M45625 44634
L45381 44634
L45512 44784
L45456 44784
L45418 44803
L45400 44821
L45381 44859
L45381 44953
L45400 44990
L45418 45009
L45456 45028
L45568 45028
L45606 45009
L45625 44990
" />
<path d="M33399 44634
L33399 44953
L33381 44990
L33362 45009
L33324 45028
L33249 45028
L33212 45009
L33193 44990
L33174 44953
L33174 44634
" />
<path d="M32818 44765
L32818 45028
" />
<path d="M32912 44615
L33006 44896
L32762 44896
" />
<path d="M37599 44634
L37599 44953
L37581 44990
L37562 45009
L37524 45028
L37449 45028
L37412 45009
L37393 44990
L37374 44953
L37374 44634
" />
<path d="M37000 44634
L37187 44634
L37206 44821
L37187 44803
L37150 44784
L37056 44784
L37018 44803
L37000 44821
L36981 44859
L36981 44953
L37000 44990
L37018 45009
L37056 45028
L37150 45028
L37187 45009
L37206 44990
" />
<path d="M41599 44634
L41599 44953
L41581 44990
L41562 45009
L41524 45028
L41449 45028
L41412 45009
L41393 44990
L41374 44953
L41374 44634
" />
<path d="M41018 44634
L41093 44634
L41131 44653
L41150 44671
L41187 44728
L41206 44803
L41206 44953
L41187 44990
L41168 45009
L41131 45028
L41056 45028
L41018 45009
L41000 44990
L40981 44953
L40981 44859
L41000 44821
L41018 44803
L41056 44784
L41131 44784
L41168 44803
L41187 44821
L41206 44859
" />
<path d="M68999 44634
L68999 44953
L68981 44990
L68962 45009
L68924 45028
L68849 45028
L68812 45009
L68793 44990
L68774 44953
L68774 44634
" />
<path d="M68625 44634
L68362 44634
L68531 45028
" />
<path d="M59799 32534
L59799 32853
L59781 32890
L59762 32909
L59724 32928
L59649 32928
L59612 32909
L59593 32890
L59574 32853
L59574 32534
" />
<path d="M59368 32928
L59293 32928
L59256 32909
L59237 32890
L59200 32834
L59181 32759
L59181 32609
L59200 32571
L59218 32553
L59256 32534
L59331 32534
L59368 32553
L59387 32571
L59406 32609
L59406 32703
L59387 32740
L59368 32759
L59331 32778
L59256 32778
L59218 32759
L59200 32740
L59181 32703
" />
<path d="M64487 45484
L64487 45803
L64468 45840
L64449 45859
L64412 45878
L64337 45878
L64299 45859
L64281 45840
L64262 45803
L64262 45484
" />
<path d="M63868 45878
L64093 45878
" />
<path d="M63981 45878
L63981 45484
L64018 45540
L64056 45578
L64093 45596
" />
<path d="M63625 45484
L63587 45484
L63550 45503
L63531 45521
L63512 45559
L63493 45634
L63493 45728
L63512 45803
L63531 45840
L63550 45859
L63587 45878
L63625 45878
L63662 45859
L63681 45840
L63700 45803
L63718 45728
L63718 45634
L63700 45559
L63681 45521
L63662 45503
L63625 45484
" />
</g> 
</svg>
