<?xml version="1.0" standalone="no"?>
 <!DOCTYPE svg PUBLIC "-//W3C//DTD SVG 1.1//EN" 
 "http://www.w3.org/Graphics/SVG/1.1/DTD/svg11.dtd"> 
<svg xmlns="http://www.w3.org/2000/svg" version="1.1" 
    width="29.7002cm" height="21.0007cm" viewBox="0 0 116930 82680 ">
<title>SVG Picture created as arduino_uno_grbl_shield-Cmts.User.svg date 2017/06/16 22:26:17 </title>
  <desc>Picture generated by PCBNEW </desc>
<g style="fill:#000000; fill-opacity:1;stroke:#000000; stroke-opacity:1;
stroke-linecap:round; stroke-linejoin:round; "
 transform="translate(0 0) scale(1 1)">
</g>
<g style="fill:#000000; fill-opacity:0.0; 
stroke:#000000; stroke-width:-0.000393701; stroke-opacity:1; 
stroke-linecap:round; stroke-linejoin:round;">
</g>
<g style="fill:#000000; fill-opacity:0.0; 
stroke:#000000; stroke-width:118.11; stroke-opacity:1; 
stroke-linecap:round; stroke-linejoin:round;">
<path d="M24004 36417
L23610 36417
" />
<path d="M24229 36276
L23807 36136
L23807 36501
" />
<path d="M23948 36811
L23976 36754
L24004 36726
L24060 36698
L24088 36698
L24145 36726
L24173 36754
L24201 36811
L24201 36923
L24173 36979
L24145 37007
L24088 37035
L24060 37035
L24004 37007
L23976 36979
L23948 36923
L23948 36811
L23920 36754
L23892 36726
L23835 36698
L23723 36698
L23667 36726
L23638 36754
L23610 36811
L23610 36923
L23638 36979
L23667 37007
L23723 37035
L23835 37035
L23892 37007
L23920 36979
L23948 36923
" />
<path d="M23638 37317
L23610 37317
L23554 37289
L23526 37260
" />
<path d="M24201 37682
L24201 37739
L24173 37795
L24145 37823
L24088 37851
L23976 37879
L23835 37879
L23723 37851
L23667 37823
L23638 37795
L23610 37739
L23610 37682
L23638 37626
L23667 37598
L23723 37570
L23835 37542
L23976 37542
L24088 37570
L24145 37598
L24173 37626
L24201 37682
" />
<path d="M24201 38245
L24201 38301
L24173 38357
L24145 38385
L24088 38413
L23976 38442
L23835 38442
L23723 38413
L23667 38385
L23638 38357
L23610 38301
L23610 38245
L23638 38188
L23667 38160
L23723 38132
L23835 38104
L23976 38104
L24088 38132
L24145 38160
L24173 38188
L24201 38245
" />
<path d="M24201 38807
L24201 38863
L24173 38920
L24145 38948
L24088 38976
L23976 39004
L23835 39004
L23723 38976
L23667 38948
L23638 38920
L23610 38863
L23610 38807
L23638 38751
L23667 38723
L23723 38695
L23835 38667
L23976 38667
L24088 38695
L24145 38723
L24173 38751
L24201 38807
" />
<path d="M23610 39707
L24004 39707
" />
<path d="M23948 39707
L23976 39735
L24004 39791
L24004 39876
L23976 39932
L23920 39960
L23610 39960
" />
<path d="M23920 39960
L23976 39988
L24004 40044
L24004 40129
L23976 40185
L23920 40213
L23610 40213
" />
<path d="M23610 40494
L24004 40494
" />
<path d="M23948 40494
L23976 40523
L24004 40579
L24004 40663
L23976 40719
L23920 40748
L23610 40748
" />
<path d="M23920 40748
L23976 40776
L24004 40832
L24004 40916
L23976 40973
L23920 41001
L23610 41001
" />
<path d="M24409 29133
L24409 48031
" />
<path d="M24803 29133
L23346 29133
" />
<path d="M24803 48031
L23346 48031
" />
<path d="M24409 48031
L24178 47587
" />
<path d="M24409 48031
L24640 47587
" />
<path d="M24409 29133
L24178 29577
" />
<path d="M24409 29133
L24640 29577
" />
<path d="M46822 26113
L46484 26113
" />
<path d="M46653 26113
L46653 25523
L46597 25607
L46541 25663
L46484 25691
" />
<path d="M47384 26113
L47047 26113
" />
<path d="M47215 26113
L47215 25523
L47159 25607
L47103 25663
L47047 25691
" />
<path d="M47890 25719
L47890 26113
" />
<path d="M47750 25494
L47609 25916
L47975 25916
" />
<path d="M48228 26085
L48228 26113
L48200 26169
L48172 26197
" />
<path d="M48593 25523
L48650 25523
L48706 25551
L48734 25579
L48762 25635
L48790 25748
L48790 25888
L48762 26001
L48734 26057
L48706 26085
L48650 26113
L48593 26113
L48537 26085
L48509 26057
L48481 26001
L48453 25888
L48453 25748
L48481 25635
L48509 25579
L48537 25551
L48593 25523
" />
<path d="M49156 25523
L49212 25523
L49268 25551
L49296 25579
L49325 25635
L49353 25748
L49353 25888
L49325 26001
L49296 26057
L49268 26085
L49212 26113
L49156 26113
L49100 26085
L49071 26057
L49043 26001
L49015 25888
L49015 25748
L49043 25635
L49071 25579
L49100 25551
L49156 25523
" />
<path d="M49718 25523
L49775 25523
L49831 25551
L49859 25579
L49887 25635
L49915 25748
L49915 25888
L49887 26001
L49859 26057
L49831 26085
L49775 26113
L49718 26113
L49662 26085
L49634 26057
L49606 26001
L49578 25888
L49578 25748
L49606 25635
L49634 25579
L49662 25551
L49718 25523
" />
<path d="M50618 26113
L50618 25719
" />
<path d="M50618 25776
L50646 25748
L50703 25719
L50787 25719
L50843 25748
L50871 25804
L50871 26113
" />
<path d="M50871 25804
L50899 25748
L50956 25719
L51040 25719
L51096 25748
L51124 25804
L51124 26113
" />
<path d="M51406 26113
L51406 25719
" />
<path d="M51406 25776
L51434 25748
L51490 25719
L51574 25719
L51631 25748
L51659 25804
L51659 26113
" />
<path d="M51659 25804
L51687 25748
L51743 25719
L51827 25719
L51884 25748
L51912 25804
L51912 26113
" />
<path d="M71653 26377
L26771 26377
" />
<path d="M71653 27165
L71653 25314
" />
<path d="M26771 27165
L26771 25314
" />
<path d="M26771 26377
L27215 26147
" />
<path d="M26771 26377
L27215 26608
" />
<path d="M71653 26377
L71210 26147
" />
<path d="M71653 26377
L71210 26608
" />
<path d="M23020 36445
L23020 36164
L22739 36136
L22767 36164
L22795 36220
L22795 36361
L22767 36417
L22739 36445
L22682 36473
L22542 36473
L22485 36445
L22457 36417
L22429 36361
L22429 36220
L22457 36164
L22485 36136
" />
<path d="M23020 36979
L23020 36867
L22992 36811
L22964 36782
L22879 36726
L22767 36698
L22542 36698
L22485 36726
L22457 36754
L22429 36811
L22429 36923
L22457 36979
L22485 37007
L22542 37035
L22682 37035
L22739 37007
L22767 36979
L22795 36923
L22795 36811
L22767 36754
L22739 36726
L22682 36698
" />
<path d="M22457 37317
L22429 37317
L22373 37289
L22345 37260
" />
<path d="M23020 37682
L23020 37739
L22992 37795
L22964 37823
L22907 37851
L22795 37879
L22654 37879
L22542 37851
L22485 37823
L22457 37795
L22429 37739
L22429 37682
L22457 37626
L22485 37598
L22542 37570
L22654 37542
L22795 37542
L22907 37570
L22964 37598
L22992 37626
L23020 37682
" />
<path d="M23020 38245
L23020 38301
L22992 38357
L22964 38385
L22907 38413
L22795 38442
L22654 38442
L22542 38413
L22485 38385
L22457 38357
L22429 38301
L22429 38245
L22457 38188
L22485 38160
L22542 38132
L22654 38104
L22795 38104
L22907 38132
L22964 38160
L22992 38188
L23020 38245
" />
<path d="M23020 38807
L23020 38863
L22992 38920
L22964 38948
L22907 38976
L22795 39004
L22654 39004
L22542 38976
L22485 38948
L22457 38920
L22429 38863
L22429 38807
L22457 38751
L22485 38723
L22542 38695
L22654 38667
L22795 38667
L22907 38695
L22964 38723
L22992 38751
L23020 38807
" />
<path d="M22429 39707
L22823 39707
" />
<path d="M22767 39707
L22795 39735
L22823 39791
L22823 39876
L22795 39932
L22739 39960
L22429 39960
" />
<path d="M22739 39960
L22795 39988
L22823 40044
L22823 40129
L22795 40185
L22739 40213
L22429 40213
" />
<path d="M22429 40494
L22823 40494
" />
<path d="M22767 40494
L22795 40523
L22823 40579
L22823 40663
L22795 40719
L22739 40748
L22429 40748
" />
<path d="M22739 40748
L22795 40776
L22823 40832
L22823 40916
L22795 40973
L22739 41001
L22429 41001
" />
<path d="M23228 27559
L23228 49606
" />
<path d="M25196 27559
L22165 27559
" />
<path d="M25196 49606
L22165 49606
" />
<path d="M23228 49606
L22997 49162
" />
<path d="M23228 49606
L23459 49162
" />
<path d="M23228 27559
L22997 28002
" />
<path d="M23228 27559
L23459 28002
" />
<path d="M46822 24932
L46484 24932
" />
<path d="M46653 24932
L46653 24341
L46597 24426
L46541 24482
L46484 24510
" />
<path d="M47047 24398
L47075 24370
L47131 24341
L47272 24341
L47328 24370
L47356 24398
L47384 24454
L47384 24510
L47356 24595
L47019 24932
L47384 24932
" />
<path d="M47609 24398
L47637 24370
L47694 24341
L47834 24341
L47890 24370
L47919 24398
L47947 24454
L47947 24510
L47919 24595
L47581 24932
L47947 24932
" />
<path d="M48228 24904
L48228 24932
L48200 24988
L48172 25016
" />
<path d="M48593 24341
L48650 24341
L48706 24370
L48734 24398
L48762 24454
L48790 24566
L48790 24707
L48762 24820
L48734 24876
L48706 24904
L48650 24932
L48593 24932
L48537 24904
L48509 24876
L48481 24820
L48453 24707
L48453 24566
L48481 24454
L48509 24398
L48537 24370
L48593 24341
" />
<path d="M49156 24341
L49212 24341
L49268 24370
L49296 24398
L49325 24454
L49353 24566
L49353 24707
L49325 24820
L49296 24876
L49268 24904
L49212 24932
L49156 24932
L49100 24904
L49071 24876
L49043 24820
L49015 24707
L49015 24566
L49043 24454
L49071 24398
L49100 24370
L49156 24341
" />
<path d="M49718 24341
L49775 24341
L49831 24370
L49859 24398
L49887 24454
L49915 24566
L49915 24707
L49887 24820
L49859 24876
L49831 24904
L49775 24932
L49718 24932
L49662 24904
L49634 24876
L49606 24820
L49578 24707
L49578 24566
L49606 24454
L49634 24398
L49662 24370
L49718 24341
" />
<path d="M50618 24932
L50618 24538
" />
<path d="M50618 24595
L50646 24566
L50703 24538
L50787 24538
L50843 24566
L50871 24623
L50871 24932
" />
<path d="M50871 24623
L50899 24566
L50956 24538
L51040 24538
L51096 24566
L51124 24623
L51124 24932
" />
<path d="M51406 24932
L51406 24538
" />
<path d="M51406 24595
L51434 24566
L51490 24538
L51574 24538
L51631 24566
L51659 24623
L51659 24932
" />
<path d="M51659 24623
L51687 24566
L51743 24538
L51827 24538
L51884 24566
L51912 24623
L51912 24932
" />
<path d="M73228 25196
L25196 25196
" />
<path d="M73228 27559
L73228 24133
" />
<path d="M25196 27559
L25196 24133
" />
<path d="M25196 25196
L25640 24965
" />
<path d="M25196 25196
L25640 25427
" />
<path d="M73228 25196
L72784 24965
" />
<path d="M73228 25196
L72784 25427
" />
</g>
<g style="fill:#000000; fill-opacity:0.0; 
stroke:#000000; stroke-width:59.0551; stroke-opacity:1; 
stroke-linecap:round; stroke-linejoin:round;">
<circle cx="71653.5" cy="29133.9" r="1259.84" /> 
<circle cx="71653.5" cy="48031.5" r="1259.84" /> 
<circle cx="26771.7" cy="48031.5" r="1259.84" /> 
<circle cx="26771.7" cy="29133.9" r="1259.84" /> 
</g> 
</svg>
