<?xml version="1.0" standalone="no"?>
 <!DOCTYPE svg PUBLIC "-//W3C//DTD SVG 1.1//EN" 
 "http://www.w3.org/Graphics/SVG/1.1/DTD/svg11.dtd"> 
<svg xmlns="http://www.w3.org/2000/svg" version="1.1" 
    width="29.7002cm" height="21.0007cm" viewBox="0 0 116930 82680 ">
<title>SVG Picture created as arduino_uno_grbl_shield-B.Fab.svg date 2017/06/16 22:26:17 </title>
  <desc>Picture generated by PCBNEW </desc>
<g style="fill:#000000; fill-opacity:1;stroke:#000000; stroke-opacity:1;
stroke-linecap:round; stroke-linejoin:round; "
 transform="translate(0 0) scale(1 1)">
</g>
<g style="fill:#000000; fill-opacity:0.0; 
stroke:#000000; stroke-width:-0.000393701; stroke-opacity:1; 
stroke-linecap:round; stroke-linejoin:round;">
</g>
<g style="fill:#000000; fill-opacity:0.0; 
stroke:#000000; stroke-width:39.3701; stroke-opacity:1; 
stroke-linecap:round; stroke-linejoin:round;">
<path d="M38155 36543
L38644 36543
" />
<path d="M38155 35756
L38155 36543
" />
<path d="M38644 35756
L38155 35756
" />
<path d="M38644 36543
L38644 35756
" />
<path d="M55414 46057
L55414 45742
" />
<path d="M54785 46057
L55414 46057
" />
<path d="M54785 45742
L54785 46057
" />
<path d="M55414 45742
L54785 45742
" />
<path d="M51214 46157
L51214 45842
" />
<path d="M50585 46157
L51214 46157
" />
<path d="M50585 45842
L50585 46157
" />
<path d="M51214 45842
L50585 45842
" />
<path d="M38594 32106
L38105 32106
" />
<path d="M38594 32893
L38594 32106
" />
<path d="M38105 32893
L38594 32893
" />
<path d="M38105 32106
L38105 32893
" />
<path d="M47657 45185
L47342 45185
" />
<path d="M47657 45814
L47657 45185
" />
<path d="M47342 45814
L47657 45814
" />
<path d="M47342 45185
L47342 45814
" />
<path d="M34414 46157
L34414 45842
" />
<path d="M33785 46157
L34414 46157
" />
<path d="M33785 45842
L33785 46157
" />
<path d="M34414 45842
L33785 45842
" />
<path d="M39807 32085
L39492 32085
" />
<path d="M39807 32714
L39807 32085
" />
<path d="M39492 32714
L39807 32714
" />
<path d="M39492 32085
L39492 32714
" />
<path d="M38614 46157
L38614 45842
" />
<path d="M37985 46157
L38614 46157
" />
<path d="M37985 45842
L37985 46157
" />
<path d="M38614 45842
L37985 45842
" />
<path d="M39207 32085
L38892 32085
" />
<path d="M39207 32714
L39207 32085
" />
<path d="M38892 32714
L39207 32714
" />
<path d="M38892 32085
L38892 32714
" />
<path d="M42614 46157
L42614 45842
" />
<path d="M41985 46157
L42614 46157
" />
<path d="M41985 45842
L41985 46157
" />
<path d="M42614 45842
L41985 45842
" />
<path d="M70014 46157
L70014 45842
" />
<path d="M69385 46157
L70014 46157
" />
<path d="M69385 45842
L69385 46157
" />
<path d="M70014 45842
L69385 45842
" />
<path d="M52785 44892
L52785 45207
" />
<path d="M53414 44892
L52785 44892
" />
<path d="M53414 45207
L53414 44892
" />
<path d="M52785 45207
L53414 45207
" />
<path d="M48585 45042
L48585 45357
" />
<path d="M49214 45042
L48585 45042
" />
<path d="M49214 45357
L49214 45042
" />
<path d="M48585 45357
L49214 45357
" />
<path d="M44385 45042
L44385 45357
" />
<path d="M45014 45042
L44385 45042
" />
<path d="M45014 45357
L45014 45042
" />
<path d="M44385 45357
L45014 45357
" />
<path d="M31785 45042
L31785 45357
" />
<path d="M32414 45042
L31785 45042
" />
<path d="M32414 45357
L32414 45042
" />
<path d="M31785 45357
L32414 45357
" />
<path d="M35985 45042
L35985 45357
" />
<path d="M36614 45042
L35985 45042
" />
<path d="M36614 45357
L36614 45042
" />
<path d="M35985 45357
L36614 45357
" />
<path d="M39985 45042
L39985 45357
" />
<path d="M40614 45042
L39985 45042
" />
<path d="M40614 45357
L40614 45042
" />
<path d="M39985 45357
L40614 45357
" />
<path d="M67385 45042
L67385 45357
" />
<path d="M68014 45042
L67385 45042
" />
<path d="M68014 45357
L68014 45042
" />
<path d="M67385 45357
L68014 45357
" />
<path d="M54785 44892
L54785 45207
" />
<path d="M55414 44892
L54785 44892
" />
<path d="M55414 45207
L55414 44892
" />
<path d="M54785 45207
L55414 45207
" />
<path d="M50585 45042
L50585 45357
" />
<path d="M51214 45042
L50585 45042
" />
<path d="M51214 45357
L51214 45042
" />
<path d="M50585 45357
L51214 45357
" />
<path d="M46385 45042
L46385 45357
" />
<path d="M47014 45042
L46385 45042
" />
<path d="M47014 45357
L47014 45042
" />
<path d="M46385 45357
L47014 45357
" />
<path d="M33785 45042
L33785 45357
" />
<path d="M34414 45042
L33785 45042
" />
<path d="M34414 45357
L34414 45042
" />
<path d="M33785 45357
L34414 45357
" />
<path d="M37985 45042
L37985 45357
" />
<path d="M38614 45042
L37985 45042
" />
<path d="M38614 45357
L38614 45042
" />
<path d="M37985 45357
L38614 45357
" />
<path d="M41985 45042
L41985 45357
" />
<path d="M42614 45042
L41985 45042
" />
<path d="M42614 45357
L42614 45042
" />
<path d="M41985 45357
L42614 45357
" />
<path d="M69385 45042
L69385 45357
" />
<path d="M70014 45042
L69385 45042
" />
<path d="M70014 45357
L70014 45042
" />
<path d="M69385 45357
L70014 45357
" />
<path d="M33607 47385
L33292 47385
" />
<path d="M33607 48014
L33607 47385
" />
<path d="M33292 48014
L33607 48014
" />
<path d="M33292 47385
L33292 48014
" />
</g>
<g style="fill:#000000; fill-opacity:0.0; 
stroke:#000000; stroke-width:47.2441; stroke-opacity:1; 
stroke-linecap:round; stroke-linejoin:round;">
<path d="M55000 43150
L55450 43150
" />
<path d="M55000 44150
L55450 44150
" />
<path d="M52750 44150
L53250 44150
" />
<path d="M53200 43150
L52750 43150
" />
<path d="M53233 42941
L54966 42941
" />
<path d="M54966 42941
L54966 44358
" />
<path d="M54966 44358
L53470 44358
" />
<path d="M53470 44358
L53233 44122
" />
<path d="M53233 44122
L53233 42941
" />
<path d="M50800 43300
L51250 43300
" />
<path d="M50800 44300
L51250 44300
" />
<path d="M48550 44300
L49050 44300
" />
<path d="M49000 43300
L48550 43300
" />
<path d="M49033 43091
L50766 43091
" />
<path d="M50766 43091
L50766 44508
" />
<path d="M50766 44508
L49270 44508
" />
<path d="M49270 44508
L49033 44272
" />
<path d="M49033 44272
L49033 43091
" />
<path d="M46600 43300
L47050 43300
" />
<path d="M46600 44300
L47050 44300
" />
<path d="M44350 44300
L44850 44300
" />
<path d="M44800 43300
L44350 43300
" />
<path d="M44833 43091
L46566 43091
" />
<path d="M46566 43091
L46566 44508
" />
<path d="M46566 44508
L45070 44508
" />
<path d="M45070 44508
L44833 44272
" />
<path d="M44833 44272
L44833 43091
" />
<path d="M34000 43300
L34450 43300
" />
<path d="M34000 44300
L34450 44300
" />
<path d="M31750 44300
L32250 44300
" />
<path d="M32200 43300
L31750 43300
" />
<path d="M32233 43091
L33966 43091
" />
<path d="M33966 43091
L33966 44508
" />
<path d="M33966 44508
L32470 44508
" />
<path d="M32470 44508
L32233 44272
" />
<path d="M32233 44272
L32233 43091
" />
<path d="M38200 43300
L38650 43300
" />
<path d="M38200 44300
L38650 44300
" />
<path d="M35950 44300
L36450 44300
" />
<path d="M36400 43300
L35950 43300
" />
<path d="M36433 43091
L38166 43091
" />
<path d="M38166 43091
L38166 44508
" />
<path d="M38166 44508
L36670 44508
" />
<path d="M36670 44508
L36433 44272
" />
<path d="M36433 44272
L36433 43091
" />
<path d="M42200 43300
L42650 43300
" />
<path d="M42200 44300
L42650 44300
" />
<path d="M39950 44300
L40450 44300
" />
<path d="M40400 43300
L39950 43300
" />
<path d="M40433 43091
L42166 43091
" />
<path d="M42166 43091
L42166 44508
" />
<path d="M42166 44508
L40670 44508
" />
<path d="M40670 44508
L40433 44272
" />
<path d="M40433 44272
L40433 43091
" />
<path d="M69600 43300
L70050 43300
" />
<path d="M69600 44300
L70050 44300
" />
<path d="M67350 44300
L67850 44300
" />
<path d="M67800 43300
L67350 43300
" />
<path d="M67833 43091
L69566 43091
" />
<path d="M69566 43091
L69566 44508
" />
<path d="M69566 44508
L68070 44508
" />
<path d="M68070 44508
L67833 44272
" />
<path d="M67833 44272
L67833 43091
" />
</g>
<g style="fill:#000000; fill-opacity:0.0; 
stroke:#000000; stroke-width:59.0551; stroke-opacity:1; 
stroke-linecap:round; stroke-linejoin:round;">
<path d="M37889 35887
L37889 35662
" />
<path d="M37889 35775
L37495 35775
L37551 35737
L37589 35700
L37607 35662
" />
<path d="M37626 36056
L38020 36056
" />
<path d="M37832 36243
L37870 36262
L37889 36299
" />
<path d="M37832 36056
L37870 36075
L37889 36112
L37889 36187
L37870 36224
L37832 36243
L37626 36243
" />
<path d="M37682 36599
L37682 36468
" />
<path d="M37889 36468
L37495 36468
L37495 36656
" />
<path d="M39131 36084
L39149 36065
L39168 36009
L39168 35971
L39149 35915
L39112 35878
L39074 35859
L38999 35840
L38943 35840
L38868 35859
L38831 35878
L38793 35915
L38774 35971
L38774 36009
L38793 36065
L38812 36084
" />
<path d="M39168 36459
L39168 36234
" />
<path d="M39168 36346
L38774 36346
L38831 36309
L38868 36271
L38887 36234
" />
<path d="M55709 46668
L55934 46668
" />
<path d="M55821 46668
L55821 46274
L55859 46331
L55896 46368
L55934 46387
" />
<path d="M55465 46274
L55428 46274
L55390 46293
L55371 46312
L55353 46349
L55334 46424
L55334 46518
L55353 46593
L55371 46631
L55390 46649
L55428 46668
L55465 46668
L55503 46649
L55521 46631
L55540 46593
L55559 46518
L55559 46424
L55540 46349
L55521 46312
L55503 46293
L55465 46274
" />
<path d="M55090 46274
L55053 46274
L55015 46293
L54996 46312
L54978 46349
L54959 46424
L54959 46518
L54978 46593
L54996 46631
L55015 46649
L55053 46668
L55090 46668
L55128 46649
L55146 46631
L55165 46593
L55184 46518
L55184 46424
L55165 46349
L55146 46312
L55128 46293
L55090 46274
" />
<path d="M54790 46406
L54790 46668
" />
<path d="M54790 46443
L54771 46424
L54734 46406
L54678 46406
L54640 46424
L54621 46462
L54621 46668
" />
<path d="M54303 46462
L54434 46462
" />
<path d="M54434 46668
L54434 46274
L54246 46274
" />
<path d="M55165 45450
L55184 45468
L55240 45487
L55278 45487
L55334 45468
L55371 45431
L55390 45393
L55409 45318
L55409 45262
L55390 45187
L55371 45150
L55334 45112
L55278 45093
L55240 45093
L55184 45112
L55165 45131
" />
<path d="M55034 45093
L54790 45093
L54921 45243
L54865 45243
L54828 45262
L54809 45281
L54790 45318
L54790 45412
L54809 45450
L54828 45468
L54865 45487
L54978 45487
L55015 45468
L55034 45450
" />
<path d="M51509 46768
L51734 46768
" />
<path d="M51621 46768
L51621 46374
L51659 46431
L51696 46468
L51734 46487
" />
<path d="M51265 46374
L51228 46374
L51190 46393
L51171 46412
L51153 46449
L51134 46524
L51134 46618
L51153 46693
L51171 46731
L51190 46749
L51228 46768
L51265 46768
L51303 46749
L51321 46731
L51340 46693
L51359 46618
L51359 46524
L51340 46449
L51321 46412
L51303 46393
L51265 46374
" />
<path d="M50890 46374
L50853 46374
L50815 46393
L50796 46412
L50778 46449
L50759 46524
L50759 46618
L50778 46693
L50796 46731
L50815 46749
L50853 46768
L50890 46768
L50928 46749
L50946 46731
L50965 46693
L50984 46618
L50984 46524
L50965 46449
L50946 46412
L50928 46393
L50890 46374
" />
<path d="M50590 46506
L50590 46768
" />
<path d="M50590 46543
L50571 46524
L50534 46506
L50478 46506
L50440 46524
L50421 46562
L50421 46768
" />
<path d="M50103 46562
L50234 46562
" />
<path d="M50234 46768
L50234 46374
L50046 46374
" />
<path d="M50965 45550
L50984 45568
L51040 45587
L51078 45587
L51134 45568
L51171 45531
L51190 45493
L51209 45418
L51209 45362
L51190 45287
L51171 45250
L51134 45212
L51078 45193
L51040 45193
L50984 45212
L50965 45231
" />
<path d="M50628 45325
L50628 45587
" />
<path d="M50721 45175
L50815 45456
L50571 45456
" />
<path d="M39217 32237
L39217 32012
" />
<path d="M39217 32125
L38823 32125
L38879 32087
L38917 32050
L38935 32012
" />
<path d="M38954 32406
L39348 32406
" />
<path d="M39160 32593
L39198 32612
L39217 32649
" />
<path d="M39160 32406
L39198 32425
L39217 32462
L39217 32537
L39198 32574
L39160 32593
L38954 32593
" />
<path d="M39010 32949
L39010 32818
" />
<path d="M39217 32818
L38823 32818
L38823 33006
" />
<path d="M37900 32434
L37918 32415
L37937 32359
L37937 32321
L37918 32265
L37881 32228
L37843 32209
L37768 32190
L37712 32190
L37637 32209
L37600 32228
L37562 32265
L37543 32321
L37543 32359
L37562 32415
L37581 32434
" />
<path d="M37543 32790
L37543 32603
L37731 32584
L37712 32603
L37693 32640
L37693 32734
L37712 32771
L37731 32790
L37768 32809
L37862 32809
L37900 32790
L37918 32771
L37937 32734
L37937 32640
L37918 32603
L37900 32584
" />
<path d="M48268 44890
L48268 44665
" />
<path d="M48268 44778
L47874 44778
L47931 44740
L47968 44703
L47987 44665
" />
<path d="M47874 45134
L47874 45171
L47893 45209
L47912 45228
L47949 45246
L48024 45265
L48118 45265
L48193 45246
L48231 45228
L48249 45209
L48268 45171
L48268 45134
L48249 45096
L48231 45078
L48193 45059
L48118 45040
L48024 45040
L47949 45059
L47912 45078
L47893 45096
L47874 45134
" />
<path d="M47874 45509
L47874 45546
L47893 45584
L47912 45603
L47949 45621
L48024 45640
L48118 45640
L48193 45621
L48231 45603
L48249 45584
L48268 45546
L48268 45509
L48249 45471
L48231 45453
L48193 45434
L48118 45415
L48024 45415
L47949 45434
L47912 45453
L47893 45471
L47874 45509
" />
<path d="M48006 45809
L48268 45809
" />
<path d="M48043 45809
L48024 45828
L48006 45865
L48006 45921
L48024 45959
L48062 45978
L48268 45978
" />
<path d="M48062 46296
L48062 46165
" />
<path d="M48268 46165
L47874 46165
L47874 46353
" />
<path d="M47050 45434
L47068 45415
L47087 45359
L47087 45321
L47068 45265
L47031 45228
L46993 45209
L46918 45190
L46862 45190
L46787 45209
L46750 45228
L46712 45265
L46693 45321
L46693 45359
L46712 45415
L46731 45434
" />
<path d="M46693 45771
L46693 45696
L46712 45659
L46731 45640
L46787 45603
L46862 45584
L47012 45584
L47050 45603
L47068 45621
L47087 45659
L47087 45734
L47068 45771
L47050 45790
L47012 45809
L46918 45809
L46881 45790
L46862 45771
L46843 45734
L46843 45659
L46862 45621
L46881 45603
L46918 45584
" />
<path d="M34709 46768
L34934 46768
" />
<path d="M34821 46768
L34821 46374
L34859 46431
L34896 46468
L34934 46487
" />
<path d="M34465 46374
L34428 46374
L34390 46393
L34371 46412
L34353 46449
L34334 46524
L34334 46618
L34353 46693
L34371 46731
L34390 46749
L34428 46768
L34465 46768
L34503 46749
L34521 46731
L34540 46693
L34559 46618
L34559 46524
L34540 46449
L34521 46412
L34503 46393
L34465 46374
" />
<path d="M34090 46374
L34053 46374
L34015 46393
L33996 46412
L33978 46449
L33959 46524
L33959 46618
L33978 46693
L33996 46731
L34015 46749
L34053 46768
L34090 46768
L34128 46749
L34146 46731
L34165 46693
L34184 46618
L34184 46524
L34165 46449
L34146 46412
L34128 46393
L34090 46374
" />
<path d="M33790 46506
L33790 46768
" />
<path d="M33790 46543
L33771 46524
L33734 46506
L33678 46506
L33640 46524
L33621 46562
L33621 46768
" />
<path d="M33303 46562
L33434 46562
" />
<path d="M33434 46768
L33434 46374
L33246 46374
" />
<path d="M34165 45550
L34184 45568
L34240 45587
L34278 45587
L34334 45568
L34371 45531
L34390 45493
L34409 45418
L34409 45362
L34390 45287
L34371 45250
L34334 45212
L34278 45193
L34240 45193
L34184 45212
L34165 45231
" />
<path d="M33940 45362
L33978 45343
L33996 45325
L34015 45287
L34015 45268
L33996 45231
L33978 45212
L33940 45193
L33865 45193
L33828 45212
L33809 45231
L33790 45268
L33790 45287
L33809 45325
L33828 45343
L33865 45362
L33940 45362
L33978 45381
L33996 45400
L34015 45437
L34015 45512
L33996 45550
L33978 45568
L33940 45587
L33865 45587
L33828 45568
L33809 45550
L33790 45512
L33790 45437
L33809 45400
L33828 45381
L33865 45362
" />
<path d="M40418 32137
L40418 31912
" />
<path d="M40418 32025
L40024 32025
L40081 31987
L40118 31950
L40137 31912
" />
<path d="M40156 32306
L40549 32306
" />
<path d="M40362 32493
L40399 32512
L40418 32549
" />
<path d="M40362 32306
L40399 32325
L40418 32362
L40418 32437
L40399 32474
L40362 32493
L40156 32493
" />
<path d="M40212 32849
L40212 32718
" />
<path d="M40418 32718
L40024 32718
L40024 32906
" />
<path d="M39200 32334
L39218 32315
L39237 32259
L39237 32221
L39218 32165
L39181 32128
L39143 32109
L39068 32090
L39012 32090
L38937 32109
L38900 32128
L38862 32165
L38843 32221
L38843 32259
L38862 32315
L38881 32334
" />
<path d="M39237 32521
L39237 32596
L39218 32634
L39200 32653
L39143 32690
L39068 32709
L38918 32709
L38881 32690
L38862 32671
L38843 32634
L38843 32559
L38862 32521
L38881 32503
L38918 32484
L39012 32484
L39050 32503
L39068 32521
L39087 32559
L39087 32634
L39068 32671
L39050 32690
L39012 32709
" />
<path d="M38909 46768
L39134 46768
" />
<path d="M39021 46768
L39021 46374
L39059 46431
L39096 46468
L39134 46487
" />
<path d="M38665 46374
L38628 46374
L38590 46393
L38571 46412
L38553 46449
L38534 46524
L38534 46618
L38553 46693
L38571 46731
L38590 46749
L38628 46768
L38665 46768
L38703 46749
L38721 46731
L38740 46693
L38759 46618
L38759 46524
L38740 46449
L38721 46412
L38703 46393
L38665 46374
" />
<path d="M38290 46374
L38253 46374
L38215 46393
L38196 46412
L38178 46449
L38159 46524
L38159 46618
L38178 46693
L38196 46731
L38215 46749
L38253 46768
L38290 46768
L38328 46749
L38346 46731
L38365 46693
L38384 46618
L38384 46524
L38365 46449
L38346 46412
L38328 46393
L38290 46374
" />
<path d="M37990 46506
L37990 46768
" />
<path d="M37990 46543
L37971 46524
L37934 46506
L37878 46506
L37840 46524
L37821 46562
L37821 46768
" />
<path d="M37503 46562
L37634 46562
" />
<path d="M37634 46768
L37634 46374
L37446 46374
" />
<path d="M38553 45550
L38571 45568
L38628 45587
L38665 45587
L38721 45568
L38759 45531
L38778 45493
L38796 45418
L38796 45362
L38778 45287
L38759 45250
L38721 45212
L38665 45193
L38628 45193
L38571 45212
L38553 45231
" />
<path d="M38178 45587
L38403 45587
" />
<path d="M38290 45587
L38290 45193
L38328 45250
L38365 45287
L38403 45306
" />
<path d="M37934 45193
L37896 45193
L37859 45212
L37840 45231
L37821 45268
L37803 45343
L37803 45437
L37821 45512
L37840 45550
L37859 45568
L37896 45587
L37934 45587
L37971 45568
L37990 45550
L38009 45512
L38028 45437
L38028 45343
L38009 45268
L37990 45231
L37971 45212
L37934 45193
" />
<path d="M39818 32137
L39818 31912
" />
<path d="M39818 32025
L39424 32025
L39481 31987
L39518 31950
L39537 31912
" />
<path d="M39556 32306
L39949 32306
" />
<path d="M39762 32493
L39799 32512
L39818 32549
" />
<path d="M39762 32306
L39799 32325
L39818 32362
L39818 32437
L39799 32474
L39762 32493
L39556 32493
" />
<path d="M39612 32849
L39612 32718
" />
<path d="M39818 32718
L39424 32718
L39424 32906
" />
<path d="M38600 32146
L38618 32128
L38637 32071
L38637 32034
L38618 31978
L38581 31940
L38543 31921
L38468 31903
L38412 31903
L38337 31921
L38300 31940
L38262 31978
L38243 32034
L38243 32071
L38262 32128
L38281 32146
" />
<path d="M38637 32521
L38637 32296
" />
<path d="M38637 32409
L38243 32409
L38300 32371
L38337 32334
L38356 32296
" />
<path d="M38637 32896
L38637 32671
" />
<path d="M38637 32784
L38243 32784
L38300 32746
L38337 32709
L38356 32671
" />
<path d="M42909 46768
L43134 46768
" />
<path d="M43021 46768
L43021 46374
L43059 46431
L43096 46468
L43134 46487
" />
<path d="M42665 46374
L42628 46374
L42590 46393
L42571 46412
L42553 46449
L42534 46524
L42534 46618
L42553 46693
L42571 46731
L42590 46749
L42628 46768
L42665 46768
L42703 46749
L42721 46731
L42740 46693
L42759 46618
L42759 46524
L42740 46449
L42721 46412
L42703 46393
L42665 46374
" />
<path d="M42290 46374
L42253 46374
L42215 46393
L42196 46412
L42178 46449
L42159 46524
L42159 46618
L42178 46693
L42196 46731
L42215 46749
L42253 46768
L42290 46768
L42328 46749
L42346 46731
L42365 46693
L42384 46618
L42384 46524
L42365 46449
L42346 46412
L42328 46393
L42290 46374
" />
<path d="M41990 46506
L41990 46768
" />
<path d="M41990 46543
L41971 46524
L41934 46506
L41878 46506
L41840 46524
L41821 46562
L41821 46768
" />
<path d="M41503 46562
L41634 46562
" />
<path d="M41634 46768
L41634 46374
L41446 46374
" />
<path d="M42553 45550
L42571 45568
L42628 45587
L42665 45587
L42721 45568
L42759 45531
L42778 45493
L42796 45418
L42796 45362
L42778 45287
L42759 45250
L42721 45212
L42665 45193
L42628 45193
L42571 45212
L42553 45231
" />
<path d="M42178 45587
L42403 45587
" />
<path d="M42290 45587
L42290 45193
L42328 45250
L42365 45287
L42403 45306
" />
<path d="M42028 45231
L42009 45212
L41971 45193
L41878 45193
L41840 45212
L41821 45231
L41803 45268
L41803 45306
L41821 45362
L42046 45587
L41803 45587
" />
<path d="M70309 46768
L70534 46768
" />
<path d="M70421 46768
L70421 46374
L70459 46431
L70496 46468
L70534 46487
" />
<path d="M70065 46374
L70028 46374
L69990 46393
L69971 46412
L69953 46449
L69934 46524
L69934 46618
L69953 46693
L69971 46731
L69990 46749
L70028 46768
L70065 46768
L70103 46749
L70121 46731
L70140 46693
L70159 46618
L70159 46524
L70140 46449
L70121 46412
L70103 46393
L70065 46374
" />
<path d="M69690 46374
L69653 46374
L69615 46393
L69596 46412
L69578 46449
L69559 46524
L69559 46618
L69578 46693
L69596 46731
L69615 46749
L69653 46768
L69690 46768
L69728 46749
L69746 46731
L69765 46693
L69784 46618
L69784 46524
L69765 46449
L69746 46412
L69728 46393
L69690 46374
" />
<path d="M69390 46506
L69390 46768
" />
<path d="M69390 46543
L69371 46524
L69334 46506
L69278 46506
L69240 46524
L69221 46562
L69221 46768
" />
<path d="M68903 46562
L69034 46562
" />
<path d="M69034 46768
L69034 46374
L68846 46374
" />
<path d="M69953 45550
L69971 45568
L70028 45587
L70065 45587
L70121 45568
L70159 45531
L70178 45493
L70196 45418
L70196 45362
L70178 45287
L70159 45250
L70121 45212
L70065 45193
L70028 45193
L69971 45212
L69953 45231
" />
<path d="M69578 45587
L69803 45587
" />
<path d="M69690 45587
L69690 45193
L69728 45250
L69765 45287
L69803 45306
" />
<path d="M69446 45193
L69203 45193
L69334 45343
L69278 45343
L69240 45362
L69221 45381
L69203 45418
L69203 45512
L69221 45550
L69240 45568
L69278 45587
L69390 45587
L69428 45568
L69446 45550
" />
<path d="M53146 44637
L53371 44637
" />
<path d="M53259 44637
L53259 44243
L53296 44300
L53334 44337
L53371 44356
" />
<path d="M52978 44637
L52978 44243
" />
<path d="M52940 44487
L52828 44637
" />
<path d="M52828 44375
L52978 44525
" />
</g>
<g style="fill:#000000; fill-opacity:0.0; 
stroke:#000000; stroke-width:29.5276; stroke-opacity:1; 
stroke-linecap:round; stroke-linejoin:round;">
<path d="M53132 45139
L53198 45045
" />
<path d="M53245 45139
L53245 44942
L53170 44942
L53151 44951
L53142 44960
L53132 44979
L53132 45007
L53142 45026
L53151 45035
L53170 45045
L53245 45045
" />
<path d="M52945 45139
L53057 45139
" />
<path d="M53001 45139
L53001 44942
L53020 44970
L53039 44989
L53057 44998
" />
</g>
<g style="fill:#000000; fill-opacity:0.0; 
stroke:#000000; stroke-width:59.0551; stroke-opacity:1; 
stroke-linecap:round; stroke-linejoin:round;">
<path d="M48946 44787
L49171 44787
" />
<path d="M49059 44787
L49059 44393
L49096 44450
L49134 44487
L49171 44506
" />
<path d="M48778 44787
L48778 44393
" />
<path d="M48740 44637
L48628 44787
" />
<path d="M48628 44525
L48778 44675
" />
</g>
<g style="fill:#000000; fill-opacity:0.0; 
stroke:#000000; stroke-width:29.5276; stroke-opacity:1; 
stroke-linecap:round; stroke-linejoin:round;">
<path d="M48932 45289
L48998 45195
" />
<path d="M49045 45289
L49045 45092
L48970 45092
L48951 45101
L48942 45110
L48932 45129
L48932 45157
L48942 45176
L48951 45185
L48970 45195
L49045 45195
" />
<path d="M48857 45110
L48848 45101
L48829 45092
L48782 45092
L48764 45101
L48754 45110
L48745 45129
L48745 45148
L48754 45176
L48867 45289
L48745 45289
" />
</g>
<g style="fill:#000000; fill-opacity:0.0; 
stroke:#000000; stroke-width:59.0551; stroke-opacity:1; 
stroke-linecap:round; stroke-linejoin:round;">
<path d="M44746 44787
L44971 44787
" />
<path d="M44859 44787
L44859 44393
L44896 44450
L44934 44487
L44971 44506
" />
<path d="M44578 44787
L44578 44393
" />
<path d="M44540 44637
L44428 44787
" />
<path d="M44428 44525
L44578 44675
" />
</g>
<g style="fill:#000000; fill-opacity:0.0; 
stroke:#000000; stroke-width:29.5276; stroke-opacity:1; 
stroke-linecap:round; stroke-linejoin:round;">
<path d="M44732 45289
L44798 45195
" />
<path d="M44845 45289
L44845 45092
L44770 45092
L44751 45101
L44742 45110
L44732 45129
L44732 45157
L44742 45176
L44751 45185
L44770 45195
L44845 45195
" />
<path d="M44667 45092
L44545 45092
L44610 45167
L44582 45167
L44564 45176
L44554 45185
L44545 45204
L44545 45251
L44554 45270
L44564 45279
L44582 45289
L44639 45289
L44657 45279
L44667 45270
" />
</g>
<g style="fill:#000000; fill-opacity:0.0; 
stroke:#000000; stroke-width:59.0551; stroke-opacity:1; 
stroke-linecap:round; stroke-linejoin:round;">
<path d="M32146 44787
L32371 44787
" />
<path d="M32259 44787
L32259 44393
L32296 44450
L32334 44487
L32371 44506
" />
<path d="M31978 44787
L31978 44393
" />
<path d="M31940 44637
L31828 44787
" />
<path d="M31828 44525
L31978 44675
" />
</g>
<g style="fill:#000000; fill-opacity:0.0; 
stroke:#000000; stroke-width:29.5276; stroke-opacity:1; 
stroke-linecap:round; stroke-linejoin:round;">
<path d="M32132 45289
L32198 45195
" />
<path d="M32245 45289
L32245 45092
L32170 45092
L32151 45101
L32142 45110
L32132 45129
L32132 45157
L32142 45176
L32151 45185
L32170 45195
L32245 45195
" />
<path d="M31964 45157
L31964 45289
" />
<path d="M32010 45082
L32057 45223
L31935 45223
" />
</g>
<g style="fill:#000000; fill-opacity:0.0; 
stroke:#000000; stroke-width:59.0551; stroke-opacity:1; 
stroke-linecap:round; stroke-linejoin:round;">
<path d="M36346 44787
L36571 44787
" />
<path d="M36459 44787
L36459 44393
L36496 44450
L36534 44487
L36571 44506
" />
<path d="M36178 44787
L36178 44393
" />
<path d="M36140 44637
L36028 44787
" />
<path d="M36028 44525
L36178 44675
" />
</g>
<g style="fill:#000000; fill-opacity:0.0; 
stroke:#000000; stroke-width:29.5276; stroke-opacity:1; 
stroke-linecap:round; stroke-linejoin:round;">
<path d="M36332 45289
L36398 45195
" />
<path d="M36445 45289
L36445 45092
L36370 45092
L36351 45101
L36342 45110
L36332 45129
L36332 45157
L36342 45176
L36351 45185
L36370 45195
L36445 45195
" />
<path d="M36154 45092
L36248 45092
L36257 45185
L36248 45176
L36229 45167
L36182 45167
L36164 45176
L36154 45185
L36145 45204
L36145 45251
L36154 45270
L36164 45279
L36182 45289
L36229 45289
L36248 45279
L36257 45270
" />
</g>
<g style="fill:#000000; fill-opacity:0.0; 
stroke:#000000; stroke-width:59.0551; stroke-opacity:1; 
stroke-linecap:round; stroke-linejoin:round;">
<path d="M40346 44787
L40571 44787
" />
<path d="M40459 44787
L40459 44393
L40496 44450
L40534 44487
L40571 44506
" />
<path d="M40178 44787
L40178 44393
" />
<path d="M40140 44637
L40028 44787
" />
<path d="M40028 44525
L40178 44675
" />
</g>
<g style="fill:#000000; fill-opacity:0.0; 
stroke:#000000; stroke-width:29.5276; stroke-opacity:1; 
stroke-linecap:round; stroke-linejoin:round;">
<path d="M40332 45289
L40398 45195
" />
<path d="M40445 45289
L40445 45092
L40370 45092
L40351 45101
L40342 45110
L40332 45129
L40332 45157
L40342 45176
L40351 45185
L40370 45195
L40445 45195
" />
<path d="M40164 45092
L40201 45092
L40220 45101
L40229 45110
L40248 45139
L40257 45176
L40257 45251
L40248 45270
L40239 45279
L40220 45289
L40182 45289
L40164 45279
L40154 45270
L40145 45251
L40145 45204
L40154 45185
L40164 45176
L40182 45167
L40220 45167
L40239 45176
L40248 45185
L40257 45204
" />
</g>
<g style="fill:#000000; fill-opacity:0.0; 
stroke:#000000; stroke-width:59.0551; stroke-opacity:1; 
stroke-linecap:round; stroke-linejoin:round;">
<path d="M67746 44787
L67971 44787
" />
<path d="M67859 44787
L67859 44393
L67896 44450
L67934 44487
L67971 44506
" />
<path d="M67578 44787
L67578 44393
" />
<path d="M67540 44637
L67428 44787
" />
<path d="M67428 44525
L67578 44675
" />
</g>
<g style="fill:#000000; fill-opacity:0.0; 
stroke:#000000; stroke-width:29.5276; stroke-opacity:1; 
stroke-linecap:round; stroke-linejoin:round;">
<path d="M67732 45289
L67798 45195
" />
<path d="M67845 45289
L67845 45092
L67770 45092
L67751 45101
L67742 45110
L67732 45129
L67732 45157
L67742 45176
L67751 45185
L67770 45195
L67845 45195
" />
<path d="M67667 45092
L67535 45092
L67620 45289
" />
</g>
<g style="fill:#000000; fill-opacity:0.0; 
stroke:#000000; stroke-width:59.0551; stroke-opacity:1; 
stroke-linecap:round; stroke-linejoin:round;">
<path d="M55334 44637
L55559 44637
" />
<path d="M55446 44637
L55446 44243
L55484 44300
L55521 44337
L55559 44356
" />
<path d="M55090 44243
L55053 44243
L55015 44262
L54996 44281
L54978 44318
L54959 44393
L54959 44487
L54978 44562
L54996 44600
L55015 44618
L55053 44637
L55090 44637
L55128 44618
L55146 44600
L55165 44562
L55184 44487
L55184 44393
L55165 44318
L55146 44281
L55128 44262
L55090 44243
" />
<path d="M54790 44637
L54790 44243
" />
<path d="M54753 44487
L54640 44637
" />
<path d="M54640 44375
L54790 44525
" />
</g>
<g style="fill:#000000; fill-opacity:0.0; 
stroke:#000000; stroke-width:29.5276; stroke-opacity:1; 
stroke-linecap:round; stroke-linejoin:round;">
<path d="M55132 45139
L55198 45045
" />
<path d="M55245 45139
L55245 44942
L55170 44942
L55151 44951
L55142 44960
L55132 44979
L55132 45007
L55142 45026
L55151 45035
L55170 45045
L55245 45045
" />
<path d="M55020 45026
L55039 45017
L55048 45007
L55057 44989
L55057 44979
L55048 44960
L55039 44951
L55020 44942
L54982 44942
L54964 44951
L54954 44960
L54945 44979
L54945 44989
L54954 45007
L54964 45017
L54982 45026
L55020 45026
L55039 45035
L55048 45045
L55057 45064
L55057 45101
L55048 45120
L55039 45129
L55020 45139
L54982 45139
L54964 45129
L54954 45120
L54945 45101
L54945 45064
L54954 45045
L54964 45035
L54982 45026
" />
</g>
<g style="fill:#000000; fill-opacity:0.0; 
stroke:#000000; stroke-width:59.0551; stroke-opacity:1; 
stroke-linecap:round; stroke-linejoin:round;">
<path d="M51134 44787
L51359 44787
" />
<path d="M51246 44787
L51246 44393
L51284 44450
L51321 44487
L51359 44506
" />
<path d="M50890 44393
L50853 44393
L50815 44412
L50796 44431
L50778 44468
L50759 44543
L50759 44637
L50778 44712
L50796 44750
L50815 44768
L50853 44787
L50890 44787
L50928 44768
L50946 44750
L50965 44712
L50984 44637
L50984 44543
L50965 44468
L50946 44431
L50928 44412
L50890 44393
" />
<path d="M50590 44787
L50590 44393
" />
<path d="M50553 44637
L50440 44787
" />
<path d="M50440 44525
L50590 44675
" />
</g>
<g style="fill:#000000; fill-opacity:0.0; 
stroke:#000000; stroke-width:29.5276; stroke-opacity:1; 
stroke-linecap:round; stroke-linejoin:round;">
<path d="M50932 45289
L50998 45195
" />
<path d="M51045 45289
L51045 45092
L50970 45092
L50951 45101
L50942 45110
L50932 45129
L50932 45157
L50942 45176
L50951 45185
L50970 45195
L51045 45195
" />
<path d="M50839 45289
L50801 45289
L50782 45279
L50773 45270
L50754 45242
L50745 45204
L50745 45129
L50754 45110
L50764 45101
L50782 45092
L50820 45092
L50839 45101
L50848 45110
L50857 45129
L50857 45176
L50848 45195
L50839 45204
L50820 45214
L50782 45214
L50764 45204
L50754 45195
L50745 45176
" />
</g>
<g style="fill:#000000; fill-opacity:0.0; 
stroke:#000000; stroke-width:59.0551; stroke-opacity:1; 
stroke-linecap:round; stroke-linejoin:round;">
<path d="M46934 44787
L47159 44787
" />
<path d="M47046 44787
L47046 44393
L47084 44450
L47121 44487
L47159 44506
" />
<path d="M46690 44393
L46653 44393
L46615 44412
L46596 44431
L46578 44468
L46559 44543
L46559 44637
L46578 44712
L46596 44750
L46615 44768
L46653 44787
L46690 44787
L46728 44768
L46746 44750
L46765 44712
L46784 44637
L46784 44543
L46765 44468
L46746 44431
L46728 44412
L46690 44393
" />
<path d="M46390 44787
L46390 44393
" />
<path d="M46353 44637
L46240 44787
" />
<path d="M46240 44525
L46390 44675
" />
</g>
<g style="fill:#000000; fill-opacity:0.0; 
stroke:#000000; stroke-width:29.5276; stroke-opacity:1; 
stroke-linecap:round; stroke-linejoin:round;">
<path d="M46826 45289
L46892 45195
" />
<path d="M46939 45289
L46939 45092
L46864 45092
L46845 45101
L46835 45110
L46826 45129
L46826 45157
L46835 45176
L46845 45185
L46864 45195
L46939 45195
" />
<path d="M46639 45289
L46751 45289
" />
<path d="M46695 45289
L46695 45092
L46714 45120
L46732 45139
L46751 45148
" />
<path d="M46517 45092
L46498 45092
L46479 45101
L46470 45110
L46460 45129
L46451 45167
L46451 45214
L46460 45251
L46470 45270
L46479 45279
L46498 45289
L46517 45289
L46535 45279
L46545 45270
L46554 45251
L46564 45214
L46564 45167
L46554 45129
L46545 45110
L46535 45101
L46517 45092
" />
</g>
<g style="fill:#000000; fill-opacity:0.0; 
stroke:#000000; stroke-width:59.0551; stroke-opacity:1; 
stroke-linecap:round; stroke-linejoin:round;">
<path d="M34334 44787
L34559 44787
" />
<path d="M34446 44787
L34446 44393
L34484 44450
L34521 44487
L34559 44506
" />
<path d="M34090 44393
L34053 44393
L34015 44412
L33996 44431
L33978 44468
L33959 44543
L33959 44637
L33978 44712
L33996 44750
L34015 44768
L34053 44787
L34090 44787
L34128 44768
L34146 44750
L34165 44712
L34184 44637
L34184 44543
L34165 44468
L34146 44431
L34128 44412
L34090 44393
" />
<path d="M33790 44787
L33790 44393
" />
<path d="M33753 44637
L33640 44787
" />
<path d="M33640 44525
L33790 44675
" />
</g>
<g style="fill:#000000; fill-opacity:0.0; 
stroke:#000000; stroke-width:29.5276; stroke-opacity:1; 
stroke-linecap:round; stroke-linejoin:round;">
<path d="M34226 45289
L34292 45195
" />
<path d="M34339 45289
L34339 45092
L34264 45092
L34245 45101
L34235 45110
L34226 45129
L34226 45157
L34235 45176
L34245 45185
L34264 45195
L34339 45195
" />
<path d="M34039 45289
L34151 45289
" />
<path d="M34095 45289
L34095 45092
L34114 45120
L34132 45139
L34151 45148
" />
<path d="M33851 45289
L33964 45289
" />
<path d="M33907 45289
L33907 45092
L33926 45120
L33945 45139
L33964 45148
" />
</g>
<g style="fill:#000000; fill-opacity:0.0; 
stroke:#000000; stroke-width:59.0551; stroke-opacity:1; 
stroke-linecap:round; stroke-linejoin:round;">
<path d="M38534 44787
L38759 44787
" />
<path d="M38646 44787
L38646 44393
L38684 44450
L38721 44487
L38759 44506
" />
<path d="M38290 44393
L38253 44393
L38215 44412
L38196 44431
L38178 44468
L38159 44543
L38159 44637
L38178 44712
L38196 44750
L38215 44768
L38253 44787
L38290 44787
L38328 44768
L38346 44750
L38365 44712
L38384 44637
L38384 44543
L38365 44468
L38346 44431
L38328 44412
L38290 44393
" />
<path d="M37990 44787
L37990 44393
" />
<path d="M37953 44637
L37840 44787
" />
<path d="M37840 44525
L37990 44675
" />
</g>
<g style="fill:#000000; fill-opacity:0.0; 
stroke:#000000; stroke-width:29.5276; stroke-opacity:1; 
stroke-linecap:round; stroke-linejoin:round;">
<path d="M38426 45289
L38492 45195
" />
<path d="M38539 45289
L38539 45092
L38464 45092
L38445 45101
L38435 45110
L38426 45129
L38426 45157
L38435 45176
L38445 45185
L38464 45195
L38539 45195
" />
<path d="M38239 45289
L38351 45289
" />
<path d="M38295 45289
L38295 45092
L38314 45120
L38332 45139
L38351 45148
" />
<path d="M38164 45110
L38154 45101
L38135 45092
L38089 45092
L38070 45101
L38060 45110
L38051 45129
L38051 45148
L38060 45176
L38173 45289
L38051 45289
" />
</g>
<g style="fill:#000000; fill-opacity:0.0; 
stroke:#000000; stroke-width:59.0551; stroke-opacity:1; 
stroke-linecap:round; stroke-linejoin:round;">
<path d="M42534 44787
L42759 44787
" />
<path d="M42646 44787
L42646 44393
L42684 44450
L42721 44487
L42759 44506
" />
<path d="M42290 44393
L42253 44393
L42215 44412
L42196 44431
L42178 44468
L42159 44543
L42159 44637
L42178 44712
L42196 44750
L42215 44768
L42253 44787
L42290 44787
L42328 44768
L42346 44750
L42365 44712
L42384 44637
L42384 44543
L42365 44468
L42346 44431
L42328 44412
L42290 44393
" />
<path d="M41990 44787
L41990 44393
" />
<path d="M41953 44637
L41840 44787
" />
<path d="M41840 44525
L41990 44675
" />
</g>
<g style="fill:#000000; fill-opacity:0.0; 
stroke:#000000; stroke-width:29.5276; stroke-opacity:1; 
stroke-linecap:round; stroke-linejoin:round;">
<path d="M42426 45289
L42492 45195
" />
<path d="M42539 45289
L42539 45092
L42464 45092
L42445 45101
L42435 45110
L42426 45129
L42426 45157
L42435 45176
L42445 45185
L42464 45195
L42539 45195
" />
<path d="M42239 45289
L42351 45289
" />
<path d="M42295 45289
L42295 45092
L42314 45120
L42332 45139
L42351 45148
" />
<path d="M42173 45092
L42051 45092
L42117 45167
L42089 45167
L42070 45176
L42060 45185
L42051 45204
L42051 45251
L42060 45270
L42070 45279
L42089 45289
L42145 45289
L42164 45279
L42173 45270
" />
</g>
<g style="fill:#000000; fill-opacity:0.0; 
stroke:#000000; stroke-width:59.0551; stroke-opacity:1; 
stroke-linecap:round; stroke-linejoin:round;">
<path d="M69934 44787
L70159 44787
" />
<path d="M70046 44787
L70046 44393
L70084 44450
L70121 44487
L70159 44506
" />
<path d="M69690 44393
L69653 44393
L69615 44412
L69596 44431
L69578 44468
L69559 44543
L69559 44637
L69578 44712
L69596 44750
L69615 44768
L69653 44787
L69690 44787
L69728 44768
L69746 44750
L69765 44712
L69784 44637
L69784 44543
L69765 44468
L69746 44431
L69728 44412
L69690 44393
" />
<path d="M69390 44787
L69390 44393
" />
<path d="M69353 44637
L69240 44787
" />
<path d="M69240 44525
L69390 44675
" />
</g>
<g style="fill:#000000; fill-opacity:0.0; 
stroke:#000000; stroke-width:29.5276; stroke-opacity:1; 
stroke-linecap:round; stroke-linejoin:round;">
<path d="M69826 45289
L69892 45195
" />
<path d="M69939 45289
L69939 45092
L69864 45092
L69845 45101
L69835 45110
L69826 45129
L69826 45157
L69835 45176
L69845 45185
L69864 45195
L69939 45195
" />
<path d="M69639 45289
L69751 45289
" />
<path d="M69695 45289
L69695 45092
L69714 45120
L69732 45139
L69751 45148
" />
<path d="M69470 45157
L69470 45289
" />
<path d="M69517 45082
L69564 45223
L69442 45223
" />
</g>
<g style="fill:#000000; fill-opacity:0.0; 
stroke:#000000; stroke-width:59.0551; stroke-opacity:1; 
stroke-linecap:round; stroke-linejoin:round;">
<path d="M34218 47465
L34218 47240
" />
<path d="M34218 47353
L33824 47353
L33881 47315
L33918 47278
L33937 47240
" />
<path d="M33824 47709
L33824 47746
L33843 47784
L33862 47803
L33899 47821
L33974 47840
L34068 47840
L34143 47821
L34181 47803
L34199 47784
L34218 47746
L34218 47709
L34199 47671
L34181 47653
L34143 47634
L34068 47615
L33974 47615
L33899 47634
L33862 47653
L33843 47671
L33824 47709
" />
<path d="M34218 48009
L33824 48009
" />
<path d="M34068 48046
L34218 48159
" />
<path d="M33956 48159
L34106 48009
" />
</g>
<g style="fill:#000000; fill-opacity:0.0; 
stroke:#000000; stroke-width:29.5276; stroke-opacity:1; 
stroke-linecap:round; stroke-linejoin:round;">
<path d="M33539 47573
L33445 47507
" />
<path d="M33539 47460
L33342 47460
L33342 47535
L33351 47554
L33360 47564
L33379 47573
L33407 47573
L33426 47564
L33435 47554
L33445 47535
L33445 47460
" />
<path d="M33539 47760
L33539 47648
" />
<path d="M33539 47704
L33342 47704
L33370 47685
L33389 47667
L33398 47648
" />
<path d="M33342 47939
L33342 47845
L33435 47835
L33426 47845
L33417 47864
L33417 47910
L33426 47929
L33435 47939
L33454 47948
L33501 47948
L33520 47939
L33529 47929
L33539 47910
L33539 47864
L33529 47845
L33520 47835
" />
</g>
<g style="fill:#000000; fill-opacity:0.0; 
stroke:#000000; stroke-width:59.0551; stroke-opacity:1; 
stroke-linecap:round; stroke-linejoin:round;">
<path d="M55131 42284
L54906 42284
" />
<path d="M55018 42678
L55018 42284
" />
<path d="M54587 42678
L54774 42678
L54774 42284
" />
<path d="M54456 42678
L54456 42284
L54306 42284
L54268 42303
L54249 42321
L54231 42359
L54231 42415
L54249 42453
L54268 42471
L54306 42490
L54456 42490
" />
<path d="M53856 42678
L54081 42678
" />
<path d="M53968 42678
L53968 42284
L54006 42340
L54043 42378
L54081 42396
" />
<path d="M53631 42453
L53668 42434
L53687 42415
L53706 42378
L53706 42359
L53687 42321
L53668 42303
L53631 42284
L53556 42284
L53518 42303
L53500 42321
L53481 42359
L53481 42378
L53500 42415
L53518 42434
L53556 42453
L53631 42453
L53668 42471
L53687 42490
L53706 42528
L53706 42603
L53687 42640
L53668 42659
L53631 42678
L53556 42678
L53518 42659
L53500 42640
L53481 42603
L53481 42528
L53500 42490
L53518 42471
L53556 42453
" />
<path d="M53125 42284
L53312 42284
L53331 42471
L53312 42453
L53275 42434
L53181 42434
L53143 42453
L53125 42471
L53106 42509
L53106 42603
L53125 42640
L53143 42659
L53181 42678
L53275 42678
L53312 42659
L53331 42640
" />
<path d="M54324 43488
L54324 43727
L54310 43755
L54296 43769
L54268 43783
L54212 43783
L54184 43769
L54170 43755
L54156 43727
L54156 43488
" />
<path d="M53860 43783
L54029 43783
" />
<path d="M53945 43783
L53945 43488
L53973 43530
L54001 43558
L54029 43572
" />
<path d="M50931 42434
L50706 42434
" />
<path d="M50818 42828
L50818 42434
" />
<path d="M50387 42828
L50574 42828
L50574 42434
" />
<path d="M50256 42828
L50256 42434
L50106 42434
L50068 42453
L50049 42471
L50031 42509
L50031 42565
L50049 42603
L50068 42621
L50106 42640
L50256 42640
" />
<path d="M49656 42828
L49881 42828
" />
<path d="M49768 42828
L49768 42434
L49806 42490
L49843 42528
L49881 42546
" />
<path d="M49431 42603
L49468 42584
L49487 42565
L49506 42528
L49506 42509
L49487 42471
L49468 42453
L49431 42434
L49356 42434
L49318 42453
L49300 42471
L49281 42509
L49281 42528
L49300 42565
L49318 42584
L49356 42603
L49431 42603
L49468 42621
L49487 42640
L49506 42678
L49506 42753
L49487 42790
L49468 42809
L49431 42828
L49356 42828
L49318 42809
L49300 42790
L49281 42753
L49281 42678
L49300 42640
L49318 42621
L49356 42603
" />
<path d="M48925 42434
L49112 42434
L49131 42621
L49112 42603
L49075 42584
L48981 42584
L48943 42603
L48925 42621
L48906 42659
L48906 42753
L48925 42790
L48943 42809
L48981 42828
L49075 42828
L49112 42809
L49131 42790
" />
<path d="M50124 43638
L50124 43877
L50110 43905
L50096 43919
L50068 43933
L50012 43933
L49984 43919
L49970 43905
L49956 43877
L49956 43638
" />
<path d="M49829 43666
L49815 43652
L49787 43638
L49717 43638
L49689 43652
L49675 43666
L49660 43694
L49660 43722
L49675 43764
L49843 43933
L49660 43933
" />
<path d="M46731 42434
L46506 42434
" />
<path d="M46618 42828
L46618 42434
" />
<path d="M46187 42828
L46374 42828
L46374 42434
" />
<path d="M46056 42828
L46056 42434
L45906 42434
L45868 42453
L45849 42471
L45831 42509
L45831 42565
L45849 42603
L45868 42621
L45906 42640
L46056 42640
" />
<path d="M45456 42828
L45681 42828
" />
<path d="M45568 42828
L45568 42434
L45606 42490
L45643 42528
L45681 42546
" />
<path d="M45231 42603
L45268 42584
L45287 42565
L45306 42528
L45306 42509
L45287 42471
L45268 42453
L45231 42434
L45156 42434
L45118 42453
L45100 42471
L45081 42509
L45081 42528
L45100 42565
L45118 42584
L45156 42603
L45231 42603
L45268 42621
L45287 42640
L45306 42678
L45306 42753
L45287 42790
L45268 42809
L45231 42828
L45156 42828
L45118 42809
L45100 42790
L45081 42753
L45081 42678
L45100 42640
L45118 42621
L45156 42603
" />
<path d="M44725 42434
L44912 42434
L44931 42621
L44912 42603
L44875 42584
L44781 42584
L44743 42603
L44725 42621
L44706 42659
L44706 42753
L44725 42790
L44743 42809
L44781 42828
L44875 42828
L44912 42809
L44931 42790
" />
<path d="M45924 43638
L45924 43877
L45910 43905
L45896 43919
L45868 43933
L45812 43933
L45784 43919
L45770 43905
L45756 43877
L45756 43638
" />
<path d="M45643 43638
L45460 43638
L45559 43750
L45517 43750
L45489 43764
L45475 43778
L45460 43807
L45460 43877
L45475 43905
L45489 43919
L45517 43933
L45601 43933
L45629 43919
L45643 43905
" />
<path d="M34131 42434
L33906 42434
" />
<path d="M34018 42828
L34018 42434
" />
<path d="M33587 42828
L33774 42828
L33774 42434
" />
<path d="M33456 42828
L33456 42434
L33306 42434
L33268 42453
L33249 42471
L33231 42509
L33231 42565
L33249 42603
L33268 42621
L33306 42640
L33456 42640
" />
<path d="M32856 42828
L33081 42828
" />
<path d="M32968 42828
L32968 42434
L33006 42490
L33043 42528
L33081 42546
" />
<path d="M32631 42603
L32668 42584
L32687 42565
L32706 42528
L32706 42509
L32687 42471
L32668 42453
L32631 42434
L32556 42434
L32518 42453
L32500 42471
L32481 42509
L32481 42528
L32500 42565
L32518 42584
L32556 42603
L32631 42603
L32668 42621
L32687 42640
L32706 42678
L32706 42753
L32687 42790
L32668 42809
L32631 42828
L32556 42828
L32518 42809
L32500 42790
L32481 42753
L32481 42678
L32500 42640
L32518 42621
L32556 42603
" />
<path d="M32125 42434
L32312 42434
L32331 42621
L32312 42603
L32275 42584
L32181 42584
L32143 42603
L32125 42621
L32106 42659
L32106 42753
L32125 42790
L32143 42809
L32181 42828
L32275 42828
L32312 42809
L32331 42790
" />
<path d="M33324 43638
L33324 43877
L33310 43905
L33296 43919
L33268 43933
L33212 43933
L33184 43919
L33170 43905
L33156 43877
L33156 43638
" />
<path d="M32889 43736
L32889 43933
" />
<path d="M32959 43624
L33029 43835
L32846 43835
" />
<path d="M38331 42434
L38106 42434
" />
<path d="M38218 42828
L38218 42434
" />
<path d="M37787 42828
L37974 42828
L37974 42434
" />
<path d="M37656 42828
L37656 42434
L37506 42434
L37468 42453
L37449 42471
L37431 42509
L37431 42565
L37449 42603
L37468 42621
L37506 42640
L37656 42640
" />
<path d="M37056 42828
L37281 42828
" />
<path d="M37168 42828
L37168 42434
L37206 42490
L37243 42528
L37281 42546
" />
<path d="M36831 42603
L36868 42584
L36887 42565
L36906 42528
L36906 42509
L36887 42471
L36868 42453
L36831 42434
L36756 42434
L36718 42453
L36700 42471
L36681 42509
L36681 42528
L36700 42565
L36718 42584
L36756 42603
L36831 42603
L36868 42621
L36887 42640
L36906 42678
L36906 42753
L36887 42790
L36868 42809
L36831 42828
L36756 42828
L36718 42809
L36700 42790
L36681 42753
L36681 42678
L36700 42640
L36718 42621
L36756 42603
" />
<path d="M36325 42434
L36512 42434
L36531 42621
L36512 42603
L36475 42584
L36381 42584
L36343 42603
L36325 42621
L36306 42659
L36306 42753
L36325 42790
L36343 42809
L36381 42828
L36475 42828
L36512 42809
L36531 42790
" />
<path d="M37524 43638
L37524 43877
L37510 43905
L37496 43919
L37468 43933
L37412 43933
L37384 43919
L37370 43905
L37356 43877
L37356 43638
" />
<path d="M37075 43638
L37215 43638
L37229 43778
L37215 43764
L37187 43750
L37117 43750
L37089 43764
L37075 43778
L37060 43807
L37060 43877
L37075 43905
L37089 43919
L37117 43933
L37187 43933
L37215 43919
L37229 43905
" />
<path d="M42331 42434
L42106 42434
" />
<path d="M42218 42828
L42218 42434
" />
<path d="M41787 42828
L41974 42828
L41974 42434
" />
<path d="M41656 42828
L41656 42434
L41506 42434
L41468 42453
L41449 42471
L41431 42509
L41431 42565
L41449 42603
L41468 42621
L41506 42640
L41656 42640
" />
<path d="M41056 42828
L41281 42828
" />
<path d="M41168 42828
L41168 42434
L41206 42490
L41243 42528
L41281 42546
" />
<path d="M40831 42603
L40868 42584
L40887 42565
L40906 42528
L40906 42509
L40887 42471
L40868 42453
L40831 42434
L40756 42434
L40718 42453
L40700 42471
L40681 42509
L40681 42528
L40700 42565
L40718 42584
L40756 42603
L40831 42603
L40868 42621
L40887 42640
L40906 42678
L40906 42753
L40887 42790
L40868 42809
L40831 42828
L40756 42828
L40718 42809
L40700 42790
L40681 42753
L40681 42678
L40700 42640
L40718 42621
L40756 42603
" />
<path d="M40325 42434
L40512 42434
L40531 42621
L40512 42603
L40475 42584
L40381 42584
L40343 42603
L40325 42621
L40306 42659
L40306 42753
L40325 42790
L40343 42809
L40381 42828
L40475 42828
L40512 42809
L40531 42790
" />
<path d="M41524 43638
L41524 43877
L41510 43905
L41496 43919
L41468 43933
L41412 43933
L41384 43919
L41370 43905
L41356 43877
L41356 43638
" />
<path d="M41089 43638
L41145 43638
L41173 43652
L41187 43666
L41215 43708
L41229 43764
L41229 43877
L41215 43905
L41201 43919
L41173 43933
L41117 43933
L41089 43919
L41075 43905
L41060 43877
L41060 43807
L41075 43778
L41089 43764
L41117 43750
L41173 43750
L41201 43764
L41215 43778
L41229 43807
" />
<path d="M69731 42434
L69506 42434
" />
<path d="M69618 42828
L69618 42434
" />
<path d="M69187 42828
L69374 42828
L69374 42434
" />
<path d="M69056 42828
L69056 42434
L68906 42434
L68868 42453
L68849 42471
L68831 42509
L68831 42565
L68849 42603
L68868 42621
L68906 42640
L69056 42640
" />
<path d="M68456 42828
L68681 42828
" />
<path d="M68568 42828
L68568 42434
L68606 42490
L68643 42528
L68681 42546
" />
<path d="M68231 42603
L68268 42584
L68287 42565
L68306 42528
L68306 42509
L68287 42471
L68268 42453
L68231 42434
L68156 42434
L68118 42453
L68100 42471
L68081 42509
L68081 42528
L68100 42565
L68118 42584
L68156 42603
L68231 42603
L68268 42621
L68287 42640
L68306 42678
L68306 42753
L68287 42790
L68268 42809
L68231 42828
L68156 42828
L68118 42809
L68100 42790
L68081 42753
L68081 42678
L68100 42640
L68118 42621
L68156 42603
" />
<path d="M67725 42434
L67912 42434
L67931 42621
L67912 42603
L67875 42584
L67781 42584
L67743 42603
L67725 42621
L67706 42659
L67706 42753
L67725 42790
L67743 42809
L67781 42828
L67875 42828
L67912 42809
L67931 42790
" />
<path d="M68924 43638
L68924 43877
L68910 43905
L68896 43919
L68868 43933
L68812 43933
L68784 43919
L68770 43905
L68756 43877
L68756 43638
" />
<path d="M68643 43638
L68446 43638
L68573 43933
" />
<path d="M61131 32034
L60868 32034
L61037 32428
" />
<path d="M60549 32165
L60549 32428
" />
<path d="M60643 32015
L60737 32296
L60493 32296
" />
<path d="M60343 32428
L60343 32034
" />
<path d="M60343 32221
L60118 32221
" />
<path d="M60118 32428
L60118 32034
" />
<path d="M59706 32390
L59724 32409
L59781 32428
L59818 32428
L59874 32409
L59912 32371
L59931 32334
L59949 32259
L59949 32203
L59931 32128
L59912 32090
L59874 32053
L59818 32034
L59781 32034
L59724 32053
L59706 32071
" />
<path d="M59593 32034
L59368 32034
" />
<path d="M59481 32428
L59481 32034
" />
<path d="M59256 32071
L59237 32053
L59200 32034
L59106 32034
L59068 32053
L59050 32071
L59031 32109
L59031 32146
L59050 32203
L59275 32428
L59031 32428
" />
<path d="M58693 32165
L58693 32428
" />
<path d="M58787 32015
L58881 32296
L58637 32296
" />
<path d="M58300 32034
L58487 32034
L58506 32221
L58487 32203
L58450 32184
L58356 32184
L58318 32203
L58300 32221
L58281 32259
L58281 32353
L58300 32390
L58318 32409
L58356 32428
L58450 32428
L58487 32409
L58506 32390
" />
<path d="M58112 32428
L58112 32034
L57962 32034
L57925 32053
L57906 32071
L57887 32109
L57887 32165
L57906 32203
L57925 32221
L57962 32240
L58112 32240
" />
<path d="M65659 44484
L65396 44484
L65565 44878
" />
<path d="M65077 44615
L65077 44878
" />
<path d="M65171 44465
L65265 44746
L65021 44746
" />
<path d="M64871 44878
L64871 44484
" />
<path d="M64871 44671
L64646 44671
" />
<path d="M64646 44878
L64646 44484
" />
<path d="M64234 44840
L64253 44859
L64309 44878
L64346 44878
L64403 44859
L64440 44821
L64459 44784
L64478 44709
L64478 44653
L64459 44578
L64440 44540
L64403 44503
L64346 44484
L64309 44484
L64253 44503
L64234 44521
" />
<path d="M63859 44878
L64084 44878
" />
<path d="M63971 44878
L63971 44484
L64009 44540
L64046 44578
L64084 44596
" />
<path d="M63709 44521
L63690 44503
L63653 44484
L63559 44484
L63521 44503
L63503 44521
L63484 44559
L63484 44596
L63503 44653
L63728 44878
L63484 44878
" />
<path d="M63128 44484
L63315 44484
L63334 44671
L63315 44653
L63278 44634
L63184 44634
L63146 44653
L63128 44671
L63109 44709
L63109 44803
L63128 44840
L63146 44859
L63184 44878
L63278 44878
L63315 44859
L63334 44840
" />
<path d="M62959 44765
L62772 44765
" />
<path d="M62997 44878
L62865 44484
L62734 44878
" />
<path d="M62603 44878
L62603 44484
L62378 44878
L62378 44484
" />
</g> 
</svg>
