<?xml version="1.0" standalone="no"?>
 <!DOCTYPE svg PUBLIC "-//W3C//DTD SVG 1.1//EN" 
 "http://www.w3.org/Graphics/SVG/1.1/DTD/svg11.dtd"> 
<svg xmlns="http://www.w3.org/2000/svg" version="1.1" 
    width="29.7002cm" height="21.0007cm" viewBox="0 0 116930 82680 ">
<title>SVG Picture created as arduino_uno_grbl_shield-F.CrtYd.svg date 2017/06/16 22:26:17 </title>
  <desc>Picture generated by PCBNEW </desc>
<g style="fill:#000000; fill-opacity:1;stroke:#000000; stroke-opacity:1;
stroke-linecap:round; stroke-linejoin:round; "
 transform="translate(0 0) scale(1 1)">
</g>
<g style="fill:#000000; fill-opacity:0.0; 
stroke:#000000; stroke-width:-0.000393701; stroke-opacity:1; 
stroke-linecap:round; stroke-linejoin:round;">
</g>
<g style="fill:#000000; fill-opacity:0.0; 
stroke:#000000; stroke-width:19.685; stroke-opacity:1; 
stroke-linecap:round; stroke-linejoin:round;">
<circle cx="71653.5" cy="29133.9" r="1358.27" /> 
<circle cx="71653.5" cy="48031.5" r="1358.27" /> 
<circle cx="26771.7" cy="48031.5" r="1358.27" /> 
<path d="M34487 37820
L37912 37820
" />
<path d="M37912 37820
L37912 34395
" />
<path d="M37912 34395
L34487 34395
" />
<path d="M34487 34395
L34487 37820
" />
<path d="M37912 30779
L34487 30779
" />
<path d="M34487 30779
L34487 34204
" />
<path d="M34487 34204
L37912 34204
" />
<path d="M37912 34204
L37912 30779
" />
<path d="M33008 47291
L30587 47291
" />
<path d="M30587 47291
L30587 48708
" />
<path d="M30587 48708
L33008 48708
" />
<path d="M33008 48708
L33008 47291
" />
<path d="M65141 29708
L69550 29708
" />
<path d="M69550 29708
L69550 28291
" />
<path d="M69550 28291
L65141 28291
" />
<path d="M65141 28291
L65141 29708
" />
<path d="M30874 41133
L30874 45266
" />
<path d="M30874 41133
L27725 41133
" />
<path d="M27725 45266
L30874 45266
" />
<path d="M27725 45266
L27725 41133
" />
<path d="M70966 38974
L66833 38974
" />
<path d="M70966 38974
L70966 35825
" />
<path d="M66833 35825
L66833 38974
" />
<path d="M66833 35825
L70966 35825
" />
<path d="M60566 38974
L56433 38974
" />
<path d="M60566 38974
L60566 35825
" />
<path d="M56433 35825
L56433 38974
" />
<path d="M56433 35825
L60566 35825
" />
<path d="M50166 38974
L46033 38974
" />
<path d="M50166 38974
L50166 35825
" />
<path d="M46033 35825
L46033 38974
" />
<path d="M46033 35825
L50166 35825
" />
<path d="M62633 39425
L66766 39425
" />
<path d="M62633 39425
L62633 42574
" />
<path d="M66766 42574
L66766 39425
" />
<path d="M66766 42574
L62633 42574
" />
<path d="M27725 35516
L27725 31383
" />
<path d="M27725 35516
L30874 35516
" />
<path d="M30874 31383
L27725 31383
" />
<path d="M30874 31383
L30874 35516
" />
<path d="M27725 40366
L27725 36233
" />
<path d="M27725 40366
L30874 40366
" />
<path d="M30874 36233
L27725 36233
" />
<path d="M30874 36233
L30874 40366
" />
<path d="M66833 39425
L70966 39425
" />
<path d="M66833 39425
L66833 42574
" />
<path d="M70966 42574
L70966 39425
" />
<path d="M70966 42574
L66833 42574
" />
<path d="M39633 39425
L43766 39425
" />
<path d="M39633 39425
L39633 42574
" />
<path d="M43766 42574
L43766 39425
" />
<path d="M43766 42574
L39633 42574
" />
<path d="M35433 39425
L39566 39425
" />
<path d="M35433 39425
L35433 42574
" />
<path d="M39566 42574
L39566 39425
" />
<path d="M39566 42574
L35433 42574
" />
<path d="M31233 39425
L35366 39425
" />
<path d="M31233 39425
L31233 42574
" />
<path d="M35366 42574
L35366 39425
" />
<path d="M35366 42574
L31233 42574
" />
<path d="M43833 39425
L47966 39425
" />
<path d="M43833 39425
L43833 42574
" />
<path d="M47966 42574
L47966 39425
" />
<path d="M47966 42574
L43833 42574
" />
<path d="M48033 39425
L52166 39425
" />
<path d="M48033 39425
L48033 42574
" />
<path d="M52166 42574
L52166 39425
" />
<path d="M52166 42574
L48033 42574
" />
<path d="M52233 39425
L56366 39425
" />
<path d="M52233 39425
L52233 42574
" />
<path d="M56366 42574
L56366 39425
" />
<path d="M56366 42574
L52233 42574
" />
<path d="M66770 38974
L60629 38974
" />
<path d="M66770 38974
L66770 35825
" />
<path d="M60629 35825
L60629 38974
" />
<path d="M60629 35825
L66770 35825
" />
<path d="M56370 38974
L50229 38974
" />
<path d="M56370 38974
L56370 35825
" />
<path d="M50229 35825
L50229 38974
" />
<path d="M50229 35825
L56370 35825
" />
<path d="M45970 38974
L39829 38974
" />
<path d="M45970 38974
L45970 35825
" />
<path d="M39829 35825
L39829 38974
" />
<path d="M39829 35825
L45970 35825
" />
<path d="M56429 39425
L62570 39425
" />
<path d="M56429 39425
L56429 42574
" />
<path d="M62570 42574
L62570 39425
" />
<path d="M62570 42574
L56429 42574
" />
<circle cx="26771.7" cy="29133.9" r="1358.27" /> 
</g> 
</svg>
