M48
;DRILL file {KiCad 4.0.4-stable} date 06/16/17 13:04:25
;FORMAT={-:-/ absolute / metric / decimal}
FMAT,2
METRIC,TZ
T1C0.800
T2C0.813
T3C1.000
T4C1.143
T5C1.520
%
G90
G05
M71
T1
X91.948Y-81.28
X91.948Y-83.78
X91.948Y-90.464
X91.948Y-92.964
T2
X117.602Y-73.66
X120.142Y-73.66
X122.682Y-73.66
X125.222Y-73.66
X126.746Y-121.92
X127.762Y-73.66
X129.286Y-121.92
X130.302Y-73.66
X131.826Y-121.92
X132.842Y-73.66
X134.366Y-121.92
X135.382Y-73.66
X136.906Y-121.92
X137.922Y-73.66
X139.446Y-121.92
X140.462Y-73.66
X141.986Y-121.92
X144.526Y-73.66
X144.526Y-121.92
X147.066Y-73.66
X149.606Y-73.66
X149.606Y-121.92
X152.146Y-73.66
X152.146Y-121.92
X154.686Y-73.66
X154.686Y-121.92
X157.226Y-73.66
X157.226Y-121.92
X159.766Y-73.66
X159.766Y-121.92
X162.306Y-73.66
X162.306Y-121.92
T3
X72.644Y-121.92
X75.184Y-121.92
X110.109Y-78.74
X112.649Y-80.264
X124.841Y-84.074
X135.382Y-80.264
X135.636Y-116.459
X141.732Y-79.883
X145.669Y-85.217
X146.05Y-87.249
X156.083Y-117.856
X170.053Y-73.66
X172.593Y-73.66
X174.879Y-108.204
X175.133Y-73.66
X177.673Y-73.66
T4
X83.312Y-85.09
X83.312Y-87.63
X83.312Y-90.17
T5
X74.422Y-80.01
X74.422Y-85.09
X74.422Y-91.44
X74.422Y-96.52
X74.422Y-104.14
X74.422Y-109.22
X82.042Y-104.14
X87.122Y-104.14
X92.71Y-104.14
X97.79Y-104.14
X103.378Y-104.14
X103.886Y-94.996
X108.458Y-104.14
X108.966Y-94.996
X114.046Y-94.996
X114.046Y-104.14
X119.126Y-104.14
X119.634Y-94.996
X124.714Y-94.996
X124.714Y-104.14
X129.794Y-104.14
X130.302Y-94.996
X135.382Y-94.996
X135.382Y-104.14
X140.462Y-94.996
X140.462Y-104.14
X146.05Y-94.996
X146.05Y-104.14
X151.13Y-94.996
X151.13Y-104.14
X156.21Y-104.14
X156.718Y-94.996
X161.798Y-94.996
X161.798Y-104.14
X166.878Y-94.996
X166.878Y-104.14
X172.466Y-94.996
X172.466Y-104.14
X177.546Y-94.996
X177.546Y-104.14
T0
M30
