<?xml version="1.0" standalone="no"?>
 <!DOCTYPE svg PUBLIC "-//W3C//DTD SVG 1.1//EN" 
 "http://www.w3.org/Graphics/SVG/1.1/DTD/svg11.dtd"> 
<svg xmlns="http://www.w3.org/2000/svg" version="1.1" 
    width="29.7002cm" height="21.0007cm" viewBox="0 0 116930 82680 ">
<title>SVG Picture created as arduino_uno_grbl_shield-F.Fab.svg date 2017/06/16 22:26:17 </title>
  <desc>Picture generated by PCBNEW </desc>
<g style="fill:#000000; fill-opacity:1;stroke:#000000; stroke-opacity:1;
stroke-linecap:round; stroke-linejoin:round; "
 transform="translate(0 0) scale(1 1)">
</g>
<g style="fill:#000000; fill-opacity:0.0; 
stroke:#000000; stroke-width:-0.000393701; stroke-opacity:1; 
stroke-linecap:round; stroke-linejoin:round;">
</g>
<g style="fill:#000000; fill-opacity:0.0; 
stroke:#000000; stroke-width:39.3701; stroke-opacity:1; 
stroke-linecap:round; stroke-linejoin:round;">
<path d="M36200 37466
L36200 36993
" />
<path d="M35944 37229
L36455 37229
" />
<circle cx="36200" cy="36107.9" r="1574.8" /> 
<path d="M36200 31133
L36200 31606
" />
<path d="M36455 31370
L35944 31370
" />
<circle cx="36200" cy="32492.1" r="1574.8" /> 
<path d="M32800 47500
L30800 47500
" />
<path d="M30800 47500
L30800 48500
" />
<path d="M30800 48500
L32800 48500
" />
<path d="M32800 48500
L32800 47500
" />
<path d="M65350 29500
L69350 29500
" />
<path d="M69350 29500
L69350 28500
" />
<path d="M69350 28500
L65350 28500
" />
<path d="M65350 28500
L65350 29500
" />
<path d="M28296 41251
L28296 45148
" />
<path d="M30776 41231
L27823 41231
" />
<path d="M27823 41231
L27823 45168
" />
<path d="M27823 45168
L30776 45168
" />
<path d="M30776 45168
L30776 41231
" />
<path d="M70848 36396
L66951 36396
" />
<path d="M70868 38876
L70868 35923
" />
<path d="M70868 35923
L66931 35923
" />
<path d="M66931 35923
L66931 38876
" />
<path d="M66931 38876
L70868 38876
" />
<path d="M60448 36396
L56551 36396
" />
<path d="M60468 38876
L60468 35923
" />
<path d="M60468 35923
L56531 35923
" />
<path d="M56531 35923
L56531 38876
" />
<path d="M56531 38876
L60468 38876
" />
<path d="M50048 36396
L46151 36396
" />
<path d="M50068 38876
L50068 35923
" />
<path d="M50068 35923
L46131 35923
" />
<path d="M46131 35923
L46131 38876
" />
<path d="M46131 38876
L50068 38876
" />
<path d="M62751 42003
L66648 42003
" />
<path d="M62731 39523
L62731 42476
" />
<path d="M62731 42476
L66668 42476
" />
<path d="M66668 42476
L66668 39523
" />
<path d="M66668 39523
L62731 39523
" />
<path d="M30303 35398
L30303 31501
" />
<path d="M27823 35418
L30776 35418
" />
<path d="M30776 35418
L30776 31481
" />
<path d="M30776 31481
L27823 31481
" />
<path d="M27823 31481
L27823 35418
" />
<path d="M30303 40248
L30303 36351
" />
<path d="M27823 40268
L30776 40268
" />
<path d="M30776 40268
L30776 36331
" />
<path d="M30776 36331
L27823 36331
" />
<path d="M27823 36331
L27823 40268
" />
<path d="M66951 42003
L70848 42003
" />
<path d="M66931 39523
L66931 42476
" />
<path d="M66931 42476
L70868 42476
" />
<path d="M70868 42476
L70868 39523
" />
<path d="M70868 39523
L66931 39523
" />
<path d="M39751 42003
L43648 42003
" />
<path d="M39731 39523
L39731 42476
" />
<path d="M39731 42476
L43668 42476
" />
<path d="M43668 42476
L43668 39523
" />
<path d="M43668 39523
L39731 39523
" />
<path d="M35551 42003
L39448 42003
" />
<path d="M35531 39523
L35531 42476
" />
<path d="M35531 42476
L39468 42476
" />
<path d="M39468 42476
L39468 39523
" />
<path d="M39468 39523
L35531 39523
" />
<path d="M31351 42003
L35248 42003
" />
<path d="M31331 39523
L31331 42476
" />
<path d="M31331 42476
L35268 42476
" />
<path d="M35268 42476
L35268 39523
" />
<path d="M35268 39523
L31331 39523
" />
<path d="M43951 42003
L47848 42003
" />
<path d="M43931 39523
L43931 42476
" />
<path d="M43931 42476
L47868 42476
" />
<path d="M47868 42476
L47868 39523
" />
<path d="M47868 39523
L43931 39523
" />
<path d="M48151 42003
L52048 42003
" />
<path d="M48131 39523
L48131 42476
" />
<path d="M48131 42476
L52068 42476
" />
<path d="M52068 42476
L52068 39523
" />
<path d="M52068 39523
L48131 39523
" />
<path d="M52351 42003
L56248 42003
" />
<path d="M52331 39523
L52331 42476
" />
<path d="M52331 42476
L56268 42476
" />
<path d="M56268 42476
L56268 39523
" />
<path d="M56268 39523
L52331 39523
" />
<path d="M66672 36396
L60727 36396
" />
<path d="M66672 38876
L60727 38876
" />
<path d="M60727 38876
L60727 35923
" />
<path d="M60727 35923
L66672 35923
" />
<path d="M66672 35923
L66672 38876
" />
<path d="M56272 36396
L50327 36396
" />
<path d="M56272 38876
L50327 38876
" />
<path d="M50327 38876
L50327 35923
" />
<path d="M50327 35923
L56272 35923
" />
<path d="M56272 35923
L56272 38876
" />
<path d="M45872 36396
L39927 36396
" />
<path d="M45872 38876
L39927 38876
" />
<path d="M39927 38876
L39927 35923
" />
<path d="M39927 35923
L45872 35923
" />
<path d="M45872 35923
L45872 38876
" />
<path d="M56527 42003
L62472 42003
" />
<path d="M56527 39523
L62472 39523
" />
<path d="M62472 39523
L62472 42476
" />
<path d="M62472 42476
L56527 42476
" />
<path d="M56527 42476
L56527 39523
" />
</g>
<g style="fill:#000000; fill-opacity:0.0; 
stroke:#000000; stroke-width:59.0551; stroke-opacity:1; 
stroke-linecap:round; stroke-linejoin:round;">
<path d="M68063 30965
L68063 30571
L68194 30853
L68325 30571
L68325 30965
" />
<path d="M68569 30965
L68532 30946
L68513 30928
L68494 30890
L68494 30778
L68513 30740
L68532 30721
L68569 30703
L68625 30703
L68663 30721
L68682 30740
L68700 30778
L68700 30890
L68682 30928
L68663 30946
L68625 30965
L68569 30965
" />
<path d="M69038 30703
L69038 30965
" />
<path d="M68869 30703
L68869 30909
L68888 30946
L68925 30965
L68982 30965
L69019 30946
L69038 30928
" />
<path d="M69225 30703
L69225 30965
" />
<path d="M69225 30740
L69244 30721
L69281 30703
L69338 30703
L69375 30721
L69394 30759
L69394 30965
" />
<path d="M69525 30703
L69675 30703
" />
<path d="M69581 30571
L69581 30909
L69600 30946
L69638 30965
L69675 30965
" />
<path d="M69806 30965
L69806 30703
" />
<path d="M69806 30571
L69788 30590
L69806 30609
L69825 30590
L69806 30571
L69806 30609
" />
<path d="M69994 30703
L69994 30965
" />
<path d="M69994 30740
L70013 30721
L70050 30703
L70106 30703
L70144 30721
L70163 30759
L70163 30965
" />
<path d="M70519 30703
L70519 31021
L70500 31059
L70481 31077
L70444 31096
L70388 31096
L70350 31077
" />
<path d="M70519 30946
L70481 30965
L70406 30965
L70369 30946
L70350 30928
L70331 30890
L70331 30778
L70350 30740
L70369 30721
L70406 30703
L70481 30703
L70519 30721
" />
<path d="M70706 30965
L70706 30571
" />
<path d="M70706 30759
L70931 30759
" />
<path d="M70931 30965
L70931 30571
" />
<path d="M71175 30965
L71137 30946
L71119 30928
L71100 30890
L71100 30778
L71119 30740
L71137 30721
L71175 30703
L71231 30703
L71269 30721
L71287 30740
L71306 30778
L71306 30890
L71287 30928
L71269 30946
L71231 30965
L71175 30965
" />
<path d="M71531 30965
L71494 30946
L71475 30909
L71475 30571
" />
<path d="M71831 30946
L71794 30965
L71719 30965
L71681 30946
L71662 30909
L71662 30759
L71681 30721
L71719 30703
L71794 30703
L71831 30721
L71850 30759
L71850 30796
L71662 30834
" />
<path d="M71925 31002
L72225 31002
" />
<path d="M72281 30571
L72525 30571
L72394 30721
L72450 30721
L72487 30740
L72506 30759
L72525 30796
L72525 30890
L72506 30928
L72487 30946
L72450 30965
L72337 30965
L72300 30946
L72281 30928
" />
<path d="M72694 30928
L72712 30946
L72694 30965
L72675 30946
L72694 30928
L72694 30965
" />
<path d="M72862 30609
L72881 30590
L72919 30571
L73012 30571
L73050 30590
L73068 30609
L73087 30646
L73087 30684
L73068 30740
L72844 30965
L73087 30965
" />
<path d="M73256 30965
L73256 30703
" />
<path d="M73256 30740
L73275 30721
L73312 30703
L73368 30703
L73406 30721
L73425 30759
L73425 30965
" />
<path d="M73425 30759
L73443 30721
L73481 30703
L73537 30703
L73575 30721
L73593 30759
L73593 30965
" />
<path d="M73781 30965
L73781 30703
" />
<path d="M73781 30740
L73800 30721
L73837 30703
L73893 30703
L73931 30721
L73950 30759
L73950 30965
" />
<path d="M73950 30759
L73968 30721
L74006 30703
L74062 30703
L74100 30721
L74118 30759
L74118 30965
" />
<path d="M74212 31002
L74512 31002
" />
<path d="M74606 30965
L74606 30571
L74737 30853
L74868 30571
L74868 30965
" />
<path d="M75018 30571
L75262 30571
L75131 30721
L75187 30721
L75224 30740
L75243 30759
L75262 30796
L75262 30890
L75243 30928
L75224 30946
L75187 30965
L75074 30965
L75037 30946
L75018 30928
" />
<path d="M68063 49863
L68063 49469
L68194 49750
L68325 49469
L68325 49863
" />
<path d="M68569 49863
L68532 49844
L68513 49825
L68494 49788
L68494 49675
L68513 49638
L68532 49619
L68569 49600
L68625 49600
L68663 49619
L68682 49638
L68700 49675
L68700 49788
L68682 49825
L68663 49844
L68625 49863
L68569 49863
" />
<path d="M69038 49600
L69038 49863
" />
<path d="M68869 49600
L68869 49806
L68888 49844
L68925 49863
L68982 49863
L69019 49844
L69038 49825
" />
<path d="M69225 49600
L69225 49863
" />
<path d="M69225 49638
L69244 49619
L69281 49600
L69338 49600
L69375 49619
L69394 49656
L69394 49863
" />
<path d="M69525 49600
L69675 49600
" />
<path d="M69581 49469
L69581 49806
L69600 49844
L69638 49863
L69675 49863
" />
<path d="M69806 49863
L69806 49600
" />
<path d="M69806 49469
L69788 49488
L69806 49506
L69825 49488
L69806 49469
L69806 49506
" />
<path d="M69994 49600
L69994 49863
" />
<path d="M69994 49638
L70013 49619
L70050 49600
L70106 49600
L70144 49619
L70163 49656
L70163 49863
" />
<path d="M70519 49600
L70519 49919
L70500 49956
L70481 49975
L70444 49994
L70388 49994
L70350 49975
" />
<path d="M70519 49844
L70481 49863
L70406 49863
L70369 49844
L70350 49825
L70331 49788
L70331 49675
L70350 49638
L70369 49619
L70406 49600
L70481 49600
L70519 49619
" />
<path d="M70706 49863
L70706 49469
" />
<path d="M70706 49656
L70931 49656
" />
<path d="M70931 49863
L70931 49469
" />
<path d="M71175 49863
L71137 49844
L71119 49825
L71100 49788
L71100 49675
L71119 49638
L71137 49619
L71175 49600
L71231 49600
L71269 49619
L71287 49638
L71306 49675
L71306 49788
L71287 49825
L71269 49844
L71231 49863
L71175 49863
" />
<path d="M71531 49863
L71494 49844
L71475 49806
L71475 49469
" />
<path d="M71831 49844
L71794 49863
L71719 49863
L71681 49844
L71662 49806
L71662 49656
L71681 49619
L71719 49600
L71794 49600
L71831 49619
L71850 49656
L71850 49694
L71662 49731
" />
<path d="M71925 49900
L72225 49900
" />
<path d="M72281 49469
L72525 49469
L72394 49619
L72450 49619
L72487 49638
L72506 49656
L72525 49694
L72525 49788
L72506 49825
L72487 49844
L72450 49863
L72337 49863
L72300 49844
L72281 49825
" />
<path d="M72694 49825
L72712 49844
L72694 49863
L72675 49844
L72694 49825
L72694 49863
" />
<path d="M72862 49506
L72881 49488
L72919 49469
L73012 49469
L73050 49488
L73068 49506
L73087 49544
L73087 49581
L73068 49638
L72844 49863
L73087 49863
" />
<path d="M73256 49863
L73256 49600
" />
<path d="M73256 49638
L73275 49619
L73312 49600
L73368 49600
L73406 49619
L73425 49656
L73425 49863
" />
<path d="M73425 49656
L73443 49619
L73481 49600
L73537 49600
L73575 49619
L73593 49656
L73593 49863
" />
<path d="M73781 49863
L73781 49600
" />
<path d="M73781 49638
L73800 49619
L73837 49600
L73893 49600
L73931 49619
L73950 49656
L73950 49863
" />
<path d="M73950 49656
L73968 49619
L74006 49600
L74062 49600
L74100 49619
L74118 49656
L74118 49863
" />
<path d="M74212 49900
L74512 49900
" />
<path d="M74606 49863
L74606 49469
L74737 49750
L74868 49469
L74868 49863
" />
<path d="M75018 49469
L75262 49469
L75131 49619
L75187 49619
L75224 49638
L75243 49656
L75262 49694
L75262 49788
L75243 49825
L75224 49844
L75187 49863
L75074 49863
L75037 49844
L75018 49825
" />
<path d="M23181 49863
L23181 49469
L23312 49750
L23443 49469
L23443 49863
" />
<path d="M23687 49863
L23650 49844
L23631 49825
L23612 49788
L23612 49675
L23631 49638
L23650 49619
L23687 49600
L23743 49600
L23781 49619
L23800 49638
L23818 49675
L23818 49788
L23800 49825
L23781 49844
L23743 49863
L23687 49863
" />
<path d="M24156 49600
L24156 49863
" />
<path d="M23987 49600
L23987 49806
L24006 49844
L24043 49863
L24100 49863
L24137 49844
L24156 49825
" />
<path d="M24343 49600
L24343 49863
" />
<path d="M24343 49638
L24362 49619
L24400 49600
L24456 49600
L24493 49619
L24512 49656
L24512 49863
" />
<path d="M24643 49600
L24793 49600
" />
<path d="M24700 49469
L24700 49806
L24718 49844
L24756 49863
L24793 49863
" />
<path d="M24925 49863
L24925 49600
" />
<path d="M24925 49469
L24906 49488
L24925 49506
L24943 49488
L24925 49469
L24925 49506
" />
<path d="M25112 49600
L25112 49863
" />
<path d="M25112 49638
L25131 49619
L25168 49600
L25224 49600
L25262 49619
L25281 49656
L25281 49863
" />
<path d="M25637 49600
L25637 49919
L25618 49956
L25599 49975
L25562 49994
L25506 49994
L25468 49975
" />
<path d="M25637 49844
L25599 49863
L25524 49863
L25487 49844
L25468 49825
L25449 49788
L25449 49675
L25468 49638
L25487 49619
L25524 49600
L25599 49600
L25637 49619
" />
<path d="M25824 49863
L25824 49469
" />
<path d="M25824 49656
L26049 49656
" />
<path d="M26049 49863
L26049 49469
" />
<path d="M26293 49863
L26256 49844
L26237 49825
L26218 49788
L26218 49675
L26237 49638
L26256 49619
L26293 49600
L26349 49600
L26387 49619
L26406 49638
L26424 49675
L26424 49788
L26406 49825
L26387 49844
L26349 49863
L26293 49863
" />
<path d="M26649 49863
L26612 49844
L26593 49806
L26593 49469
" />
<path d="M26949 49844
L26912 49863
L26837 49863
L26799 49844
L26781 49806
L26781 49656
L26799 49619
L26837 49600
L26912 49600
L26949 49619
L26968 49656
L26968 49694
L26781 49731
" />
<path d="M27043 49900
L27343 49900
" />
<path d="M27399 49469
L27643 49469
L27512 49619
L27568 49619
L27605 49638
L27624 49656
L27643 49694
L27643 49788
L27624 49825
L27605 49844
L27568 49863
L27455 49863
L27418 49844
L27399 49825
" />
<path d="M27812 49825
L27830 49844
L27812 49863
L27793 49844
L27812 49825
L27812 49863
" />
<path d="M27980 49506
L27999 49488
L28037 49469
L28130 49469
L28168 49488
L28187 49506
L28205 49544
L28205 49581
L28187 49638
L27962 49863
L28205 49863
" />
<path d="M28374 49863
L28374 49600
" />
<path d="M28374 49638
L28393 49619
L28430 49600
L28487 49600
L28524 49619
L28543 49656
L28543 49863
" />
<path d="M28543 49656
L28562 49619
L28599 49600
L28655 49600
L28693 49619
L28712 49656
L28712 49863
" />
<path d="M28899 49863
L28899 49600
" />
<path d="M28899 49638
L28918 49619
L28955 49600
L29011 49600
L29049 49619
L29068 49656
L29068 49863
" />
<path d="M29068 49656
L29086 49619
L29124 49600
L29180 49600
L29218 49619
L29236 49656
L29236 49863
" />
<path d="M29330 49900
L29630 49900
" />
<path d="M29724 49863
L29724 49469
L29855 49750
L29986 49469
L29986 49863
" />
<path d="M30136 49469
L30380 49469
L30249 49619
L30305 49619
L30343 49638
L30361 49656
L30380 49694
L30380 49788
L30361 49825
L30343 49844
L30305 49863
L30193 49863
L30155 49844
L30136 49825
" />
<path d="M38107 36782
L38370 36782
" />
<path d="M37957 36876
L38238 36970
L38238 36726
" />
<path d="M37976 36614
L37976 36351
L38370 36520
" />
<path d="M37976 36126
L37976 36089
L37995 36051
L38014 36032
L38051 36014
L38126 35995
L38220 35995
L38295 36014
L38332 36032
L38351 36051
L38370 36089
L38370 36126
L38351 36164
L38332 36182
L38295 36201
L38220 36220
L38126 36220
L38051 36201
L38014 36182
L37995 36164
L37976 36126
" />
<path d="M38107 35826
L38501 35826
" />
<path d="M38313 35639
L38351 35620
L38370 35582
" />
<path d="M38313 35826
L38351 35807
L38370 35770
L38370 35695
L38351 35657
L38313 35639
L38107 35639
" />
<path d="M38164 35282
L38164 35414
" />
<path d="M38370 35414
L37976 35414
L37976 35226
" />
<path d="M36340 36173
L36359 36192
L36378 36248
L36378 36285
L36359 36342
L36321 36379
L36284 36398
L36209 36417
L36153 36417
L36078 36398
L36040 36379
L36003 36342
L35984 36285
L35984 36248
L36003 36192
L36021 36173
" />
<path d="M36021 36023
L36003 36004
L35984 35967
L35984 35873
L36003 35836
L36021 35817
L36059 35798
L36096 35798
L36153 35817
L36378 36042
L36378 35798
" />
<path d="M34123 33167
L34385 33167
" />
<path d="M33973 33260
L34254 33354
L34254 33110
" />
<path d="M33992 32998
L33992 32735
L34385 32904
" />
<path d="M33992 32510
L33992 32473
L34011 32435
L34029 32417
L34067 32398
L34142 32379
L34235 32379
L34310 32398
L34348 32417
L34367 32435
L34385 32473
L34385 32510
L34367 32548
L34348 32567
L34310 32585
L34235 32604
L34142 32604
L34067 32585
L34029 32567
L34011 32548
L33992 32510
" />
<path d="M34123 32210
L34517 32210
" />
<path d="M34329 32023
L34367 32004
L34385 31967
" />
<path d="M34329 32210
L34367 32192
L34385 32154
L34385 32079
L34367 32042
L34329 32023
L34123 32023
" />
<path d="M34179 31667
L34179 31798
" />
<path d="M34385 31798
L33992 31798
L33992 31610
" />
<path d="M36340 32557
L36359 32576
L36378 32632
L36378 32670
L36359 32726
L36321 32763
L36284 32782
L36209 32801
L36153 32801
L36078 32782
L36040 32763
L36003 32726
L35984 32670
L35984 32632
L36003 32576
L36021 32557
" />
<path d="M35984 32426
L35984 32164
L36378 32332
" />
<path d="M30560 48571
L30373 48703
" />
<path d="M30560 48796
L30167 48796
L30167 48646
L30185 48609
L30204 48590
L30242 48571
L30298 48571
L30335 48590
L30354 48609
L30373 48646
L30373 48796
" />
<path d="M30354 48403
L30354 48271
" />
<path d="M30560 48215
L30560 48403
L30167 48403
L30167 48215
" />
<path d="M30542 48065
L30560 48009
L30560 47915
L30542 47878
L30523 47859
L30485 47840
L30448 47840
L30410 47859
L30392 47878
L30373 47915
L30354 47990
L30335 48028
L30317 48046
L30279 48065
L30242 48065
L30204 48046
L30185 48028
L30167 47990
L30167 47896
L30185 47840
" />
<path d="M30354 47671
L30354 47540
" />
<path d="M30560 47484
L30560 47671
L30167 47671
L30167 47484
" />
<path d="M30167 47371
L30167 47146
" />
<path d="M30560 47259
L30167 47259
" />
<path d="M33395 48290
L33001 48290
L33001 48140
L33020 48103
L33039 48084
L33076 48065
L33132 48065
L33170 48084
L33189 48103
L33207 48140
L33207 48290
" />
<path d="M33001 47709
L33001 47896
L33189 47915
L33170 47896
L33151 47859
L33151 47765
L33170 47728
L33189 47709
L33226 47690
L33320 47690
L33357 47709
L33376 47728
L33395 47765
L33395 47859
L33376 47896
L33357 47915
" />
<path d="M69945 29628
L69757 29759
" />
<path d="M69945 29853
L69551 29853
L69551 29703
L69570 29665
L69589 29646
L69626 29628
L69682 29628
L69720 29646
L69739 29665
L69757 29703
L69757 29853
" />
<path d="M69926 29478
L69945 29421
L69945 29328
L69926 29290
L69907 29271
L69870 29253
L69832 29253
L69795 29271
L69776 29290
L69757 29328
L69739 29403
L69720 29440
L69701 29459
L69664 29478
L69626 29478
L69589 29459
L69570 29440
L69551 29403
L69551 29309
L69570 29253
" />
<path d="M69589 29103
L69570 29084
L69551 29046
L69551 28953
L69570 28915
L69589 28896
L69626 28878
L69664 28878
L69720 28896
L69945 29121
L69945 28878
" />
<path d="M69551 28746
L69551 28503
L69701 28634
L69701 28578
L69720 28540
L69739 28521
L69776 28503
L69870 28503
L69907 28521
L69926 28540
L69945 28578
L69945 28690
L69926 28728
L69907 28746
" />
<path d="M69589 28353
L69570 28334
L69551 28296
L69551 28203
L69570 28165
L69589 28146
L69626 28128
L69664 28128
L69720 28146
L69945 28371
L69945 28128
" />
<path d="M65110 29290
L64717 29290
L64717 29140
L64735 29103
L64754 29084
L64792 29065
L64848 29065
L64885 29084
L64904 29103
L64923 29140
L64923 29290
" />
<path d="M64717 28728
L64717 28803
L64735 28840
L64754 28859
L64810 28896
L64885 28915
L65035 28915
L65073 28896
L65092 28878
L65110 28840
L65110 28765
L65092 28728
L65073 28709
L65035 28690
L64942 28690
L64904 28709
L64885 28728
L64867 28765
L64867 28840
L64885 28878
L64904 28896
L64942 28915
" />
<path d="M31278 35699
L31278 35887
L30884 35887
" />
<path d="M31278 35568
L30884 35568
L31165 35437
L30884 35306
L31278 35306
" />
<path d="M30884 35156
L30884 34893
L31278 35062
" />
<path d="M31053 34687
L31034 34724
L31015 34743
L30978 34762
L30959 34762
L30921 34743
L30903 34724
L30884 34687
L30884 34612
L30903 34574
L30921 34556
L30959 34537
L30978 34537
L31015 34556
L31034 34574
L31053 34612
L31053 34687
L31071 34724
L31090 34743
L31128 34762
L31203 34762
L31240 34743
L31259 34724
L31278 34687
L31278 34612
L31259 34574
L31240 34556
L31203 34537
L31128 34537
L31090 34556
L31071 34574
L31053 34612
" />
<path d="M30884 34293
L30884 34256
L30903 34218
L30921 34200
L30959 34181
L31034 34162
L31128 34162
L31203 34181
L31240 34200
L31259 34218
L31278 34256
L31278 34293
L31259 34331
L31240 34350
L31203 34368
L31128 34387
L31034 34387
L30959 34368
L30921 34350
L30903 34331
L30884 34293
" />
<path d="M30884 33806
L30884 33993
L31071 34012
L31053 33993
L31034 33956
L31034 33862
L31053 33825
L31071 33806
L31109 33787
L31203 33787
L31240 33806
L31259 33825
L31278 33862
L31278 33956
L31259 33993
L31240 34012
" />
<path d="M31240 33393
L31259 33412
L31278 33468
L31278 33506
L31259 33562
L31221 33600
L31184 33618
L31109 33637
L31053 33637
L30978 33618
L30940 33600
L30903 33562
L30884 33506
L30884 33468
L30903 33412
L30921 33393
" />
<path d="M30884 33281
L30884 33056
" />
<path d="M31278 33168
L30884 33168
" />
<path d="M27478 43453
L27478 43640
L27084 43640
" />
<path d="M27271 43321
L27271 43190
" />
<path d="M27478 43134
L27478 43321
L27084 43321
L27084 43134
" />
<path d="M27478 42965
L27084 42965
L27084 42871
L27103 42815
L27140 42778
L27178 42759
L27253 42740
L27309 42740
L27384 42759
L27421 42778
L27459 42815
L27478 42871
L27478 42965
" />
<path d="M67971 35184
L68234 35578
" />
<path d="M68234 35184
L67971 35578
" />
<path d="M68290 35615
L68590 35615
" />
<path d="M68665 35465
L68853 35465
" />
<path d="M68628 35578
L68759 35184
L68890 35578
" />
<path d="M69209 35578
L69021 35578
L69021 35184
" />
<path d="M69340 35578
L69340 35184
" />
<path d="M69528 35578
L69528 35184
L69659 35465
L69790 35184
L69790 35578
" />
<path d="M57703 35390
L57703 35578
" />
<path d="M57571 35184
L57703 35390
L57834 35184
" />
<path d="M57871 35615
L58171 35615
" />
<path d="M58246 35465
L58434 35465
" />
<path d="M58209 35578
L58340 35184
L58471 35578
" />
<path d="M58790 35578
L58603 35578
L58603 35184
" />
<path d="M58921 35578
L58921 35184
" />
<path d="M59109 35578
L59109 35184
L59240 35465
L59371 35184
L59371 35578
" />
<path d="M47171 35184
L47434 35184
L47171 35578
L47434 35578
" />
<path d="M47490 35615
L47790 35615
" />
<path d="M47865 35465
L48053 35465
" />
<path d="M47828 35578
L47959 35184
L48090 35578
" />
<path d="M48409 35578
L48221 35578
L48221 35184
" />
<path d="M48540 35578
L48540 35184
" />
<path d="M48728 35578
L48728 35184
L48859 35465
L48990 35184
L48990 35578
" />
<path d="M63725 43140
L63706 43159
L63650 43178
L63612 43178
L63556 43159
L63518 43121
L63500 43084
L63481 43009
L63481 42953
L63500 42878
L63518 42840
L63556 42803
L63612 42784
L63650 42784
L63706 42803
L63725 42821
" />
<path d="M63968 42784
L64043 42784
L64081 42803
L64118 42840
L64137 42915
L64137 43046
L64118 43121
L64081 43159
L64043 43178
L63968 43178
L63931 43159
L63893 43121
L63875 43046
L63875 42915
L63893 42840
L63931 42803
L63968 42784
" />
<path d="M64381 42784
L64456 42784
L64493 42803
L64531 42840
L64550 42915
L64550 43046
L64531 43121
L64493 43159
L64456 43178
L64381 43178
L64343 43159
L64306 43121
L64287 43046
L64287 42915
L64306 42840
L64343 42803
L64381 42784
" />
<path d="M64906 43178
L64718 43178
L64718 42784
" />
<path d="M65018 43065
L65206 43065
" />
<path d="M64981 43178
L65112 42784
L65243 43178
" />
<path d="M65374 43178
L65374 42784
L65599 43178
L65599 42784
" />
<path d="M65731 42784
L65956 42784
" />
<path d="M65843 43178
L65843 42784
" />
<path d="M31328 34143
L31328 33843
" />
<path d="M31478 33993
L31178 33993
" />
<path d="M31121 33674
L31103 33656
L31084 33618
L31084 33524
L31103 33487
L31121 33468
L31159 33450
L31196 33450
L31253 33468
L31478 33693
L31478 33450
" />
<path d="M31215 33112
L31478 33112
" />
<path d="M31065 33206
L31346 33300
L31346 33056
" />
<path d="M31084 32962
L31478 32831
L31084 32700
" />
<path d="M31328 38993
L31328 38693
" />
<path d="M31478 38843
L31178 38843
" />
<path d="M31478 38300
L31478 38524
" />
<path d="M31478 38412
L31084 38412
L31140 38449
L31178 38487
L31196 38524
" />
<path d="M31121 38150
L31103 38131
L31084 38093
L31084 38000
L31103 37962
L31121 37943
L31159 37925
L31196 37925
L31253 37943
L31478 38168
L31478 37925
" />
<path d="M31084 37812
L31478 37681
L31084 37550
" />
<path d="M68168 42915
L68168 43309
" />
<path d="M68168 42934
L68206 42915
L68281 42915
L68318 42934
L68337 42953
L68356 42990
L68356 43103
L68337 43140
L68318 43159
L68281 43178
L68206 43178
L68168 43159
" />
<path d="M68525 43178
L68525 42915
" />
<path d="M68525 42990
L68543 42953
L68562 42934
L68600 42915
L68637 42915
" />
<path d="M68825 43178
L68787 43159
L68768 43140
L68750 43103
L68750 42990
L68768 42953
L68787 42934
L68825 42915
L68881 42915
L68918 42934
L68937 42953
L68956 42990
L68956 43103
L68937 43140
L68918 43159
L68881 43178
L68825 43178
" />
<path d="M69124 43178
L69124 42784
" />
<path d="M69124 42934
L69162 42915
L69237 42915
L69274 42934
L69293 42953
L69312 42990
L69312 43103
L69293 43140
L69274 43159
L69237 43178
L69162 43178
L69124 43159
" />
<path d="M69631 43159
L69593 43178
L69518 43178
L69481 43159
L69462 43121
L69462 42971
L69481 42934
L69518 42915
L69593 42915
L69631 42934
L69649 42971
L69649 43009
L69462 43046
" />
<path d="M40734 43178
L40734 42915
" />
<path d="M40734 42990
L40753 42953
L40771 42934
L40809 42915
L40846 42915
" />
<path d="M41128 43159
L41090 43178
L41015 43178
L40978 43159
L40959 43121
L40959 42971
L40978 42934
L41015 42915
L41090 42915
L41128 42934
L41146 42971
L41146 43009
L40959 43046
" />
<path d="M41296 43159
L41334 43178
L41409 43178
L41446 43159
L41465 43121
L41465 43103
L41446 43065
L41409 43046
L41353 43046
L41315 43028
L41296 42990
L41296 42971
L41315 42934
L41353 42915
L41409 42915
L41446 42934
" />
<path d="M41803 42915
L41803 43178
" />
<path d="M41634 42915
L41634 43121
L41653 43159
L41690 43178
L41746 43178
L41784 43159
L41803 43140
" />
<path d="M41990 43178
L41990 42915
" />
<path d="M41990 42953
L42009 42934
L42046 42915
L42103 42915
L42140 42934
L42159 42971
L42159 43178
" />
<path d="M42159 42971
L42178 42934
L42215 42915
L42271 42915
L42309 42934
L42328 42971
L42328 43178
" />
<path d="M42665 43159
L42628 43178
L42553 43178
L42515 43159
L42496 43121
L42496 42971
L42515 42934
L42553 42915
L42628 42915
L42665 42934
L42684 42971
L42684 43009
L42496 43046
" />
<path d="M36956 43178
L36956 42784
" />
<path d="M37125 43178
L37125 42971
L37106 42934
L37068 42915
L37012 42915
L36975 42934
L36956 42953
" />
<path d="M37368 43178
L37331 43159
L37312 43140
L37293 43103
L37293 42990
L37312 42953
L37331 42934
L37368 42915
L37425 42915
L37462 42934
L37481 42953
L37500 42990
L37500 43103
L37481 43140
L37462 43159
L37425 43178
L37368 43178
" />
<path d="M37724 43178
L37687 43159
L37668 43121
L37668 42784
" />
<path d="M38043 43178
L38043 42784
" />
<path d="M38043 43159
L38006 43178
L37931 43178
L37893 43159
L37874 43140
L37856 43103
L37856 42990
L37874 42953
L37893 42934
L37931 42915
L38006 42915
L38043 42934
" />
<path d="M32793 43178
L32793 42971
L32775 42934
L32737 42915
L32662 42915
L32625 42934
" />
<path d="M32793 43159
L32756 43178
L32662 43178
L32625 43159
L32606 43121
L32606 43084
L32625 43046
L32662 43028
L32756 43028
L32793 43009
" />
<path d="M32981 43178
L32981 42784
" />
<path d="M32981 42934
L33018 42915
L33093 42915
L33131 42934
L33150 42953
L33168 42990
L33168 43103
L33150 43140
L33131 43159
L33093 43178
L33018 43178
L32981 43159
" />
<path d="M33393 43178
L33356 43159
L33337 43140
L33318 43103
L33318 42990
L33337 42953
L33356 42934
L33393 42915
L33449 42915
L33487 42934
L33506 42953
L33524 42990
L33524 43103
L33506 43140
L33487 43159
L33449 43178
L33393 43178
" />
<path d="M33693 43178
L33693 42915
" />
<path d="M33693 42990
L33712 42953
L33731 42934
L33768 42915
L33806 42915
" />
<path d="M33881 42915
L34031 42915
" />
<path d="M33937 42784
L33937 43121
L33956 43159
L33993 43178
L34031 43178
" />
<path d="M45403 43178
L45365 43159
L45346 43121
L45346 42784
" />
<path d="M45553 43178
L45553 42915
" />
<path d="M45553 42784
L45534 42803
L45553 42821
L45571 42803
L45553 42784
L45553 42821
" />
<path d="M45740 43178
L45740 42915
" />
<path d="M45740 42953
L45759 42934
L45796 42915
L45853 42915
L45890 42934
L45909 42971
L45909 43178
" />
<path d="M45909 42971
L45928 42934
L45965 42915
L46021 42915
L46059 42934
L46078 42971
L46078 43178
" />
<path d="M46228 42784
L46490 43178
" />
<path d="M46490 42784
L46228 43178
" />
<path d="M49621 43178
L49584 43159
L49565 43121
L49565 42784
" />
<path d="M49771 43178
L49771 42915
" />
<path d="M49771 42784
L49753 42803
L49771 42821
L49790 42803
L49771 42784
L49771 42821
" />
<path d="M49959 43178
L49959 42915
" />
<path d="M49959 42953
L49978 42934
L50015 42915
L50071 42915
L50109 42934
L50128 42971
L50128 43178
" />
<path d="M50128 42971
L50146 42934
L50184 42915
L50240 42915
L50278 42934
L50296 42971
L50296 43178
" />
<path d="M50559 42990
L50559 43178
" />
<path d="M50428 42784
L50559 42990
L50690 42784
" />
<path d="M53803 43178
L53765 43159
L53746 43121
L53746 42784
" />
<path d="M53953 43178
L53953 42915
" />
<path d="M53953 42784
L53934 42803
L53953 42821
L53971 42803
L53953 42784
L53953 42821
" />
<path d="M54140 43178
L54140 42915
" />
<path d="M54140 42953
L54159 42934
L54196 42915
L54253 42915
L54290 42934
L54309 42971
L54309 43178
" />
<path d="M54309 42971
L54328 42934
L54365 42915
L54421 42915
L54459 42934
L54478 42971
L54478 43178
" />
<path d="M54628 42784
L54890 42784
L54628 43178
L54890 43178
" />
<path d="M62715 35184
L62978 35578
" />
<path d="M62978 35184
L62715 35578
" />
<path d="M63034 35615
L63334 35615
" />
<path d="M63653 35540
L63634 35559
L63578 35578
L63540 35578
L63484 35559
L63446 35521
L63428 35484
L63409 35409
L63409 35353
L63428 35278
L63446 35240
L63484 35203
L63540 35184
L63578 35184
L63634 35203
L63653 35221
" />
<path d="M63765 35184
L63990 35184
" />
<path d="M63878 35578
L63878 35184
" />
<path d="M64346 35578
L64215 35390
" />
<path d="M64121 35578
L64121 35184
L64271 35184
L64309 35203
L64328 35221
L64346 35259
L64346 35315
L64328 35353
L64309 35371
L64271 35390
L64121 35390
" />
<path d="M64703 35578
L64515 35578
L64515 35184
" />
<path d="M52446 35390
L52446 35578
" />
<path d="M52315 35184
L52446 35390
L52578 35184
" />
<path d="M52615 35615
L52915 35615
" />
<path d="M53234 35540
L53215 35559
L53159 35578
L53121 35578
L53065 35559
L53028 35521
L53009 35484
L52990 35409
L52990 35353
L53009 35278
L53028 35240
L53065 35203
L53121 35184
L53159 35184
L53215 35203
L53234 35221
" />
<path d="M53346 35184
L53571 35184
" />
<path d="M53459 35578
L53459 35184
" />
<path d="M53928 35578
L53796 35390
" />
<path d="M53703 35578
L53703 35184
L53853 35184
L53890 35203
L53909 35221
L53928 35259
L53928 35315
L53909 35353
L53890 35371
L53853 35390
L53703 35390
" />
<path d="M54284 35578
L54096 35578
L54096 35184
" />
<path d="M41915 35184
L42178 35184
L41915 35578
L42178 35578
" />
<path d="M42234 35615
L42534 35615
" />
<path d="M42853 35540
L42834 35559
L42778 35578
L42740 35578
L42684 35559
L42646 35521
L42628 35484
L42609 35409
L42609 35353
L42628 35278
L42646 35240
L42684 35203
L42740 35184
L42778 35184
L42834 35203
L42853 35221
" />
<path d="M42965 35184
L43190 35184
" />
<path d="M43078 35578
L43078 35184
" />
<path d="M43546 35578
L43415 35390
" />
<path d="M43321 35578
L43321 35184
L43471 35184
L43509 35203
L43528 35221
L43546 35259
L43546 35315
L43528 35353
L43509 35371
L43471 35390
L43321 35390
" />
<path d="M43903 35578
L43715 35578
L43715 35184
" />
<path d="M58356 43159
L58412 43178
L58506 43178
L58543 43159
L58562 43140
L58581 43103
L58581 43065
L58562 43028
L58543 43009
L58506 42990
L58431 42971
L58393 42953
L58375 42934
L58356 42896
L58356 42859
L58375 42821
L58393 42803
L58431 42784
L58525 42784
L58581 42803
" />
<path d="M58750 43178
L58750 42784
L58900 42784
L58937 42803
L58956 42821
L58975 42859
L58975 42915
L58956 42953
L58937 42971
L58900 42990
L58750 42990
" />
<path d="M59143 43178
L59143 42784
" />
<path d="M59331 43178
L59331 42784
L59556 43178
L59556 42784
" />
<path d="M59743 43178
L59743 42784
L59837 42784
L59893 42803
L59931 42840
L59949 42878
L59968 42953
L59968 43009
L59949 43084
L59931 43121
L59893 43159
L59837 43178
L59743 43178
" />
<path d="M60324 43178
L60137 43178
L60137 42784
" />
<path d="M60456 42971
L60587 42971
" />
<path d="M60643 43178
L60456 43178
L60456 42784
L60643 42784
" />
<path d="M23181 30965
L23181 30571
L23312 30853
L23443 30571
L23443 30965
" />
<path d="M23687 30965
L23650 30946
L23631 30928
L23612 30890
L23612 30778
L23631 30740
L23650 30721
L23687 30703
L23743 30703
L23781 30721
L23800 30740
L23818 30778
L23818 30890
L23800 30928
L23781 30946
L23743 30965
L23687 30965
" />
<path d="M24156 30703
L24156 30965
" />
<path d="M23987 30703
L23987 30909
L24006 30946
L24043 30965
L24100 30965
L24137 30946
L24156 30928
" />
<path d="M24343 30703
L24343 30965
" />
<path d="M24343 30740
L24362 30721
L24400 30703
L24456 30703
L24493 30721
L24512 30759
L24512 30965
" />
<path d="M24643 30703
L24793 30703
" />
<path d="M24700 30571
L24700 30909
L24718 30946
L24756 30965
L24793 30965
" />
<path d="M24925 30965
L24925 30703
" />
<path d="M24925 30571
L24906 30590
L24925 30609
L24943 30590
L24925 30571
L24925 30609
" />
<path d="M25112 30703
L25112 30965
" />
<path d="M25112 30740
L25131 30721
L25168 30703
L25224 30703
L25262 30721
L25281 30759
L25281 30965
" />
<path d="M25637 30703
L25637 31021
L25618 31059
L25599 31077
L25562 31096
L25506 31096
L25468 31077
" />
<path d="M25637 30946
L25599 30965
L25524 30965
L25487 30946
L25468 30928
L25449 30890
L25449 30778
L25468 30740
L25487 30721
L25524 30703
L25599 30703
L25637 30721
" />
<path d="M25824 30965
L25824 30571
" />
<path d="M25824 30759
L26049 30759
" />
<path d="M26049 30965
L26049 30571
" />
<path d="M26293 30965
L26256 30946
L26237 30928
L26218 30890
L26218 30778
L26237 30740
L26256 30721
L26293 30703
L26349 30703
L26387 30721
L26406 30740
L26424 30778
L26424 30890
L26406 30928
L26387 30946
L26349 30965
L26293 30965
" />
<path d="M26649 30965
L26612 30946
L26593 30909
L26593 30571
" />
<path d="M26949 30946
L26912 30965
L26837 30965
L26799 30946
L26781 30909
L26781 30759
L26799 30721
L26837 30703
L26912 30703
L26949 30721
L26968 30759
L26968 30796
L26781 30834
" />
<path d="M27043 31002
L27343 31002
" />
<path d="M27399 30571
L27643 30571
L27512 30721
L27568 30721
L27605 30740
L27624 30759
L27643 30796
L27643 30890
L27624 30928
L27605 30946
L27568 30965
L27455 30965
L27418 30946
L27399 30928
" />
<path d="M27812 30928
L27830 30946
L27812 30965
L27793 30946
L27812 30928
L27812 30965
" />
<path d="M27980 30609
L27999 30590
L28037 30571
L28130 30571
L28168 30590
L28187 30609
L28205 30646
L28205 30684
L28187 30740
L27962 30965
L28205 30965
" />
<path d="M28374 30965
L28374 30703
" />
<path d="M28374 30740
L28393 30721
L28430 30703
L28487 30703
L28524 30721
L28543 30759
L28543 30965
" />
<path d="M28543 30759
L28562 30721
L28599 30703
L28655 30703
L28693 30721
L28712 30759
L28712 30965
" />
<path d="M28899 30965
L28899 30703
" />
<path d="M28899 30740
L28918 30721
L28955 30703
L29011 30703
L29049 30721
L29068 30759
L29068 30965
" />
<path d="M29068 30759
L29086 30721
L29124 30703
L29180 30703
L29218 30721
L29236 30759
L29236 30965
" />
<path d="M29330 31002
L29630 31002
" />
<path d="M29724 30965
L29724 30571
L29855 30853
L29986 30571
L29986 30965
" />
<path d="M30136 30571
L30380 30571
L30249 30721
L30305 30721
L30343 30740
L30361 30759
L30380 30796
L30380 30890
L30361 30928
L30343 30946
L30305 30965
L30193 30965
L30155 30946
L30136 30928
" />
</g> 
</svg>
