M48
;DRILL file {KiCad 4.0.4-stable} date 06/24/17 23:27:35
;FORMAT={-:-/ absolute / metric / decimal}
FMAT,2
METRIC,TZ
T1C0.600
T2C1.000
T3C1.143
T4C1.400
%
G90
G05
M71
T1
X108.204Y-119.126
X113.538Y-82.296
X116.586Y-117.475
T2
X115.316Y-121.412
X117.856Y-121.412
X172.72Y-73.152
X175.26Y-73.152
X177.8Y-73.152
X180.34Y-73.152
T3
X180.086Y-93.98
X180.086Y-96.52
X180.086Y-99.06
T4
X104.412Y-91.064
X104.412Y-101.064
X107.912Y-91.064
X107.912Y-101.064
X111.412Y-91.064
X111.412Y-101.064
X114.912Y-91.064
X114.912Y-101.064
X116.708Y-73.264
X118.412Y-91.064
X118.412Y-101.064
X119.248Y-73.264
X121.788Y-73.264
X121.912Y-91.064
X121.912Y-101.064
X124.328Y-73.264
X125.412Y-91.064
X125.412Y-101.064
X125.852Y-121.524
X126.868Y-73.264
X128.392Y-121.524
X128.912Y-91.064
X128.912Y-101.064
X129.408Y-73.264
X130.932Y-121.524
X131.948Y-73.264
X132.412Y-91.064
X132.412Y-101.064
X133.472Y-121.524
X134.488Y-73.264
X135.912Y-91.064
X135.912Y-101.064
X136.012Y-121.524
X137.028Y-73.264
X138.552Y-121.524
X139.412Y-91.064
X139.412Y-101.064
X139.568Y-73.264
X141.092Y-121.524
X142.912Y-91.064
X142.912Y-101.064
X143.632Y-73.264
X143.632Y-121.524
X146.172Y-73.264
X146.412Y-91.064
X146.412Y-101.064
X148.712Y-73.264
X148.712Y-121.524
X149.912Y-91.064
X149.912Y-101.064
X151.252Y-73.264
X151.252Y-121.524
X153.412Y-91.064
X153.412Y-101.064
X153.792Y-73.264
X153.792Y-121.524
X156.332Y-73.264
X156.332Y-121.524
X156.912Y-91.064
X156.912Y-101.064
X158.872Y-73.264
X158.872Y-121.524
X160.412Y-91.064
X160.412Y-101.064
X161.412Y-73.264
X161.412Y-121.524
X163.912Y-91.064
X163.912Y-101.064
X167.412Y-91.064
X167.412Y-101.064
X170.912Y-91.064
X170.912Y-101.064
X187.706Y-90.932
X187.706Y-93.432
X187.706Y-99.862
X187.706Y-102.362
T0
M30
