<?xml version="1.0" standalone="no"?>
 <!DOCTYPE svg PUBLIC "-//W3C//DTD SVG 1.1//EN" 
 "http://www.w3.org/Graphics/SVG/1.1/DTD/svg11.dtd"> 
<svg xmlns="http://www.w3.org/2000/svg" version="1.1" 
    width="29.7002cm" height="21.0007cm" viewBox="0 0 116930 82680 ">
<title>SVG Picture created as kcnc-grbl_shield-pcb-F.Cu.svg date 2017/06/24 23:27:31 </title>
  <desc>Picture generated by PCBNEW </desc>
<g style="fill:#000000; fill-opacity:1;stroke:#000000; stroke-opacity:1;
stroke-linecap:round; stroke-linejoin:round; "
 transform="translate(0 0) scale(1 1)">
</g>
<g style="fill:#000000; fill-opacity:0.0; 
stroke:#000000; stroke-width:-0.000393701; stroke-opacity:1; 
stroke-linecap:round; stroke-linejoin:round;">
</g>
<g style="fill:#000000; fill-opacity:0.0; 
stroke:#000000; stroke-width:59.0551; stroke-opacity:1; 
stroke-linecap:round; stroke-linejoin:round;">
<rect x="69685.9" y="65357.2" width="42519.7" height="12598.4" rx="0" />
<rect x="3937.01" y="3937.01" width="109056" height="74806" rx="0" />
<rect x="4724.41" y="4724.41" width="107481" height="73231.2" rx="0" />
<path d="M23622 4724
L23622 3937
" />
<path d="M43307 4724
L43307 3937
" />
<path d="M62992 4724
L62992 3937
" />
<path d="M82677 4724
L82677 3937
" />
<path d="M102362 4724
L102362 3937
" />
<path d="M14169 4562
L13877 4562
" />
<path d="M14023 4562
L14023 4050
L13974 4123
L13925 4172
L13877 4196
" />
<path d="M33562 4099
L33586 4074
L33635 4050
L33757 4050
L33805 4074
L33830 4099
L33854 4147
L33854 4196
L33830 4269
L33537 4562
L33854 4562
" />
<path d="M53222 4050
L53539 4050
L53368 4245
L53442 4245
L53490 4269
L53515 4294
L53539 4342
L53539 4464
L53515 4513
L53490 4537
L53442 4562
L53295 4562
L53247 4537
L53222 4513
" />
<path d="M73175 4221
L73175 4562
" />
<path d="M73053 4026
L72932 4391
L73248 4391
" />
<path d="M92885 4050
L92641 4050
L92617 4294
L92641 4269
L92690 4245
L92812 4245
L92860 4269
L92885 4294
L92909 4342
L92909 4464
L92885 4513
L92860 4537
L92812 4562
L92690 4562
L92641 4537
L92617 4513
" />
<path d="M112545 4050
L112448 4050
L112399 4074
L112375 4099
L112326 4172
L112302 4269
L112302 4464
L112326 4513
L112350 4537
L112399 4562
L112497 4562
L112545 4537
L112570 4513
L112594 4464
L112594 4342
L112570 4294
L112545 4269
L112497 4245
L112399 4245
L112350 4269
L112326 4294
L112302 4342
" />
<path d="M23622 77955
L23622 78742
" />
<path d="M43307 77955
L43307 78742
" />
<path d="M62992 77955
L62992 78742
" />
<path d="M82677 77955
L82677 78742
" />
<path d="M102362 77955
L102362 78742
" />
<path d="M14169 78580
L13877 78580
" />
<path d="M14023 78580
L14023 78069
L13974 78142
L13925 78190
L13877 78215
" />
<path d="M33562 78117
L33586 78093
L33635 78069
L33757 78069
L33805 78093
L33830 78117
L33854 78166
L33854 78215
L33830 78288
L33537 78580
L33854 78580
" />
<path d="M53222 78069
L53539 78069
L53368 78263
L53442 78263
L53490 78288
L53515 78312
L53539 78361
L53539 78483
L53515 78532
L53490 78556
L53442 78580
L53295 78580
L53247 78556
L53222 78532
" />
<path d="M73175 78239
L73175 78580
" />
<path d="M73053 78044
L72932 78410
L73248 78410
" />
<path d="M92885 78069
L92641 78069
L92617 78312
L92641 78288
L92690 78263
L92812 78263
L92860 78288
L92885 78312
L92909 78361
L92909 78483
L92885 78532
L92860 78556
L92812 78580
L92690 78580
L92641 78556
L92617 78532
" />
<path d="M112545 78069
L112448 78069
L112399 78093
L112375 78117
L112326 78190
L112302 78288
L112302 78483
L112326 78532
L112350 78556
L112399 78580
L112497 78580
L112545 78556
L112570 78532
L112594 78483
L112594 78361
L112570 78312
L112545 78288
L112497 78263
L112399 78263
L112350 78288
L112326 78312
L112302 78361
" />
<path d="M3937 23622
L4724 23622
" />
<path d="M3937 43307
L4724 43307
" />
<path d="M3937 62992
L4724 62992
" />
<path d="M4208 13864
L4452 13864
" />
<path d="M4160 14011
L4330 13499
L4501 14011
" />
<path d="M4367 33428
L4440 33452
L4464 33476
L4489 33525
L4489 33598
L4464 33647
L4440 33671
L4391 33696
L4196 33696
L4196 33184
L4367 33184
L4416 33208
L4440 33233
L4464 33281
L4464 33330
L4440 33379
L4416 33403
L4367 33428
L4196 33428
" />
<path d="M4489 53332
L4464 53356
L4391 53381
L4342 53381
L4269 53356
L4221 53308
L4196 53259
L4172 53161
L4172 53088
L4196 52991
L4221 52942
L4269 52893
L4342 52869
L4391 52869
L4464 52893
L4489 52918
" />
<path d="M4196 73066
L4196 72554
L4318 72554
L4391 72578
L4440 72627
L4464 72676
L4489 72773
L4489 72846
L4464 72944
L4440 72993
L4391 73041
L4318 73066
L4196 73066
" />
<path d="M112992 23622
L112205 23622
" />
<path d="M112992 43307
L112205 43307
" />
<path d="M112992 62992
L112205 62992
" />
<path d="M112477 13864
L112721 13864
" />
<path d="M112428 14011
L112599 13499
L112769 14011
" />
<path d="M112635 33428
L112708 33452
L112733 33476
L112757 33525
L112757 33598
L112733 33647
L112708 33671
L112660 33696
L112465 33696
L112465 33184
L112635 33184
L112684 33208
L112708 33233
L112733 33281
L112733 33330
L112708 33379
L112684 33403
L112635 33428
L112465 33428
" />
<path d="M112757 53332
L112733 53356
L112660 53381
L112611 53381
L112538 53356
L112489 53308
L112465 53259
L112440 53161
L112440 53088
L112465 52991
L112489 52942
L112538 52893
L112611 52869
L112660 52869
L112733 52893
L112757 52918
" />
<path d="M112465 73066
L112465 72554
L112587 72554
L112660 72578
L112708 72627
L112733 72676
L112757 72773
L112757 72846
L112733 72944
L112708 72993
L112660 73041
L112587 73066
L112465 73066
" />
<path d="M78881 76293
L78881 75703
L79022 75703
L79106 75731
L79162 75787
L79190 75843
L79219 75956
L79219 76040
L79190 76153
L79162 76209
L79106 76265
L79022 76293
L78881 76293
" />
<path d="M79725 76293
L79725 75984
L79697 75928
L79640 75899
L79528 75899
L79472 75928
" />
<path d="M79725 76265
L79669 76293
L79528 76293
L79472 76265
L79444 76209
L79444 76153
L79472 76096
L79528 76068
L79669 76068
L79725 76040
" />
<path d="M79922 75899
L80147 75899
" />
<path d="M80006 75703
L80006 76209
L80034 76265
L80090 76293
L80147 76293
" />
<path d="M80568 76265
L80512 76293
L80400 76293
L80343 76265
L80315 76209
L80315 75984
L80343 75928
L80400 75899
L80512 75899
L80568 75928
L80597 75984
L80597 76040
L80315 76096
" />
<path d="M80850 76237
L80878 76265
L80850 76293
L80822 76265
L80850 76237
L80850 76293
" />
<path d="M80850 75928
L80878 75956
L80850 75984
L80822 75956
L80850 75928
L80850 75984
" />
<path d="M69685 76577
L112205 76577
" />
<path d="M70220 77395
L70220 76805
" />
<path d="M70557 77395
L70304 77058
" />
<path d="M70557 76805
L70220 77142
" />
<path d="M70810 77395
L70810 77002
" />
<path d="M70810 76805
L70782 76833
L70810 76861
L70838 76833
L70810 76805
L70810 76861
" />
<path d="M71429 77339
L71401 77367
L71316 77395
L71260 77395
L71176 77367
L71120 77311
L71091 77255
L71063 77142
L71063 77058
L71091 76946
L71120 76889
L71176 76833
L71260 76805
L71316 76805
L71401 76833
L71429 76861
" />
<path d="M71935 77395
L71935 77086
L71907 77030
L71851 77002
L71738 77002
L71682 77030
" />
<path d="M71935 77367
L71879 77395
L71738 77395
L71682 77367
L71654 77311
L71654 77255
L71682 77199
L71738 77171
L71879 77171
L71935 77142
" />
<path d="M72469 77395
L72469 76805
" />
<path d="M72469 77367
L72413 77395
L72301 77395
L72244 77367
L72216 77339
L72188 77283
L72188 77114
L72216 77058
L72244 77030
L72301 77002
L72413 77002
L72469 77030
" />
<path d="M73201 77086
L73397 77086
" />
<path d="M73482 77395
L73201 77395
L73201 76805
L73482 76805
" />
<path d="M73735 77339
L73763 77367
L73735 77395
L73707 77367
L73735 77339
L73735 77395
" />
<path d="M74016 77395
L74016 76805
L74157 76805
L74241 76833
L74297 76889
L74325 76946
L74354 77058
L74354 77142
L74325 77255
L74297 77311
L74241 77367
L74157 77395
L74016 77395
" />
<path d="M74607 77339
L74635 77367
L74607 77395
L74579 77367
L74607 77339
L74607 77395
" />
<path d="M74860 77227
L75141 77227
" />
<path d="M74804 77395
L75000 76805
L75197 77395
" />
<path d="M75394 77339
L75422 77367
L75394 77395
L75366 77367
L75394 77339
L75394 77395
" />
<path d="M76575 77395
L76575 76805
" />
<path d="M76631 77171
L76800 77395
" />
<path d="M76800 77002
L76575 77227
" />
<path d="M77053 77395
L77053 77002
" />
<path d="M77053 76805
L77025 76833
L77053 76861
L77081 76833
L77053 76805
L77053 76861
" />
<path d="M77588 77367
L77531 77395
L77419 77395
L77363 77367
L77334 77339
L77306 77283
L77306 77114
L77334 77058
L77363 77030
L77419 77002
L77531 77002
L77588 77030
" />
<path d="M78094 77395
L78094 77086
L78066 77030
L78009 77002
L77897 77002
L77841 77030
" />
<path d="M78094 77367
L78037 77395
L77897 77395
L77841 77367
L77813 77311
L77813 77255
L77841 77199
L77897 77171
L78037 77171
L78094 77142
" />
<path d="M78628 77395
L78628 76805
" />
<path d="M78628 77367
L78572 77395
L78459 77395
L78403 77367
L78375 77339
L78347 77283
L78347 77114
L78375 77058
L78403 77030
L78459 77002
L78572 77002
L78628 77030
" />
<path d="M79612 77002
L79612 77395
" />
<path d="M79472 76777
L79331 77199
L79697 77199
" />
<path d="M79922 77339
L79950 77367
L79922 77395
L79894 77367
L79922 77339
L79922 77395
" />
<path d="M80315 76805
L80372 76805
L80428 76833
L80456 76861
L80484 76917
L80512 77030
L80512 77171
L80484 77283
L80456 77339
L80428 77367
L80372 77395
L80315 77395
L80259 77367
L80231 77339
L80203 77283
L80175 77171
L80175 77030
L80203 76917
L80231 76861
L80259 76833
L80315 76805
" />
<path d="M80765 77339
L80793 77367
L80765 77395
L80737 77367
L80765 77339
L80765 77395
" />
<path d="M81300 77002
L81300 77395
" />
<path d="M81159 76777
L81018 77199
L81384 77199
" />
<path d="M81609 77171
L82059 77171
" />
<path d="M82312 77367
L82368 77395
L82481 77395
L82537 77367
L82565 77311
L82565 77283
L82537 77227
L82481 77199
L82396 77199
L82340 77171
L82312 77114
L82312 77086
L82340 77030
L82396 77002
L82481 77002
L82537 77030
" />
<path d="M82734 77002
L82959 77002
" />
<path d="M82818 76805
L82818 77311
L82846 77367
L82903 77395
L82959 77395
" />
<path d="M83409 77395
L83409 77086
L83381 77030
L83324 77002
L83212 77002
L83156 77030
" />
<path d="M83409 77367
L83352 77395
L83212 77395
L83156 77367
L83127 77311
L83127 77255
L83156 77199
L83212 77171
L83352 77171
L83409 77142
" />
<path d="M83690 77395
L83690 76805
" />
<path d="M83690 77030
L83746 77002
L83859 77002
L83915 77030
L83943 77058
L83971 77114
L83971 77283
L83943 77339
L83915 77367
L83859 77395
L83746 77395
L83690 77367
" />
<path d="M84309 77395
L84252 77367
L84224 77311
L84224 76805
" />
<path d="M84759 77367
L84702 77395
L84590 77395
L84534 77367
L84505 77311
L84505 77086
L84534 77030
L84590 77002
L84702 77002
L84759 77030
L84787 77086
L84787 77142
L84505 77199
" />
<path d="M69685 75396
L112205 75396
" />
</g>
<g style="fill:#000000; fill-opacity:0.0; 
stroke:#000000; stroke-width:118.11; stroke-opacity:1; 
stroke-linecap:round; stroke-linejoin:round;">
<path d="M104022 76293
L103825 76012
" />
<path d="M103684 76293
L103684 75703
L103909 75703
L103965 75731
L103994 75759
L104022 75815
L104022 75899
L103994 75956
L103965 75984
L103909 76012
L103684 76012
" />
<path d="M104500 76265
L104444 76293
L104331 76293
L104275 76265
L104247 76209
L104247 75984
L104275 75928
L104331 75899
L104444 75899
L104500 75928
L104528 75984
L104528 76040
L104247 76096
" />
<path d="M104725 75899
L104865 76293
L105006 75899
" />
<path d="M105231 76237
L105259 76265
L105231 76293
L105203 76265
L105231 76237
L105231 76293
" />
<path d="M105231 75928
L105259 75956
L105231 75984
L105203 75956
L105231 75928
L105231 75984
" />
</g>
<g style="fill:#000000; fill-opacity:0.0; 
stroke:#000000; stroke-width:59.0551; stroke-opacity:1; 
stroke-linecap:round; stroke-linejoin:round;">
<path d="M70192 76265
L70276 76293
L70417 76293
L70473 76265
L70501 76237
L70529 76181
L70529 76124
L70501 76068
L70473 76040
L70417 76012
L70304 75984
L70248 75956
L70220 75928
L70192 75871
L70192 75815
L70220 75759
L70248 75731
L70304 75703
L70445 75703
L70529 75731
" />
<path d="M70782 76293
L70782 75899
" />
<path d="M70782 75703
L70754 75731
L70782 75759
L70810 75731
L70782 75703
L70782 75759
" />
<path d="M71007 75899
L71316 75899
L71007 76293
L71316 76293
" />
<path d="M71766 76265
L71710 76293
L71598 76293
L71541 76265
L71513 76209
L71513 75984
L71541 75928
L71598 75899
L71710 75899
L71766 75928
L71795 75984
L71795 76040
L71513 76096
" />
<path d="M72048 76237
L72076 76265
L72048 76293
L72019 76265
L72048 76237
L72048 76293
" />
<path d="M72048 75928
L72076 75956
L72048 75984
L72019 75956
L72048 75928
L72048 75984
" />
<path d="M72751 76124
L73032 76124
" />
<path d="M72694 76293
L72891 75703
L73088 76293
" />
<path d="M73538 75899
L73538 76293
" />
<path d="M73397 75674
L73257 76096
L73622 76096
" />
<path d="M103684 77395
L103684 76805
" />
<path d="M104219 77395
L104219 76805
" />
<path d="M104219 77367
L104162 77395
L104050 77395
L103994 77367
L103965 77339
L103937 77283
L103937 77114
L103965 77058
L103994 77030
L104050 77002
L104162 77002
L104219 77030
" />
<path d="M104500 77339
L104528 77367
L104500 77395
L104472 77367
L104500 77339
L104500 77395
" />
<path d="M104500 77030
L104528 77058
L104500 77086
L104472 77058
L104500 77030
L104500 77086
" />
<path d="M105540 77395
L105203 77395
" />
<path d="M105372 77395
L105372 76805
L105315 76889
L105259 76946
L105203 76974
" />
<path d="M106215 76777
L105709 77536
" />
<path d="M106721 77395
L106384 77395
" />
<path d="M106553 77395
L106553 76805
L106496 76889
L106440 76946
L106384 76974
" />
<path d="M69685 73821
L112205 73821
" />
</g>
<g style="fill:#000000; fill-opacity:0.0; 
stroke:#000000; stroke-width:157.48; stroke-opacity:1; 
stroke-linecap:round; stroke-linejoin:round;">
<path d="M70257 74099
L70707 74099
" />
<path d="M70384 74886
L70482 74099
" />
<path d="M70871 74886
L70937 74361
" />
<path d="M70970 74099
L70927 74136
L70960 74174
L71002 74136
L70970 74099
L70960 74174
" />
<path d="M71199 74361
L71499 74361
" />
<path d="M71345 74099
L71260 74774
L71288 74849
L71359 74886
L71434 74886
" />
<path d="M71809 74886
L71738 74849
L71710 74774
L71795 74099
" />
<path d="M72413 74849
L72334 74886
L72184 74886
L72113 74849
L72085 74774
L72123 74474
L72169 74399
L72249 74361
L72399 74361
L72469 74399
L72498 74474
L72488 74549
L72104 74624
" />
<path d="M72793 74811
L72826 74849
L72783 74886
L72751 74849
L72793 74811
L72783 74886
" />
<path d="M72844 74399
L72877 74436
L72835 74474
L72802 74436
L72844 74399
L72835 74474
" />
</g>
<g style="fill:#000000; fill-opacity:0.0; 
stroke:#000000; stroke-width:59.0551; stroke-opacity:1; 
stroke-linecap:round; stroke-linejoin:round;">
<path d="M70417 73070
L70220 73070
" />
<path d="M70220 73380
L70220 72789
L70501 72789
" />
<path d="M70726 73380
L70726 72986
" />
<path d="M70726 72789
L70698 72817
L70726 72845
L70754 72817
L70726 72789
L70726 72845
" />
<path d="M71091 73380
L71035 73352
L71007 73295
L71007 72789
" />
<path d="M71541 73352
L71485 73380
L71373 73380
L71316 73352
L71288 73295
L71288 73070
L71316 73014
L71373 72986
L71485 72986
L71541 73014
L71570 73070
L71570 73127
L71288 73183
" />
<path d="M71823 73323
L71851 73352
L71823 73380
L71795 73352
L71823 73323
L71823 73380
" />
<path d="M71823 73014
L71851 73042
L71823 73070
L71795 73042
L71823 73014
L71823 73070
" />
<path d="M72554 73380
L72554 72789
" />
<path d="M72610 73155
L72779 73380
" />
<path d="M72779 72986
L72554 73211
" />
<path d="M73285 73352
L73229 73380
L73116 73380
L73060 73352
L73032 73323
L73004 73267
L73004 73099
L73032 73042
L73060 73014
L73116 72986
L73229 72986
L73285 73014
" />
<path d="M73538 72986
L73538 73380
" />
<path d="M73538 73042
L73566 73014
L73622 72986
L73707 72986
L73763 73014
L73791 73070
L73791 73380
" />
<path d="M74325 73352
L74269 73380
L74157 73380
L74100 73352
L74072 73323
L74044 73267
L74044 73099
L74072 73042
L74100 73014
L74157 72986
L74269 72986
L74325 73014
" />
<path d="M74579 73155
L75028 73155
" />
<path d="M75563 72986
L75563 73464
L75535 73520
L75507 73548
L75450 73577
L75366 73577
L75310 73548
" />
<path d="M75563 73352
L75507 73380
L75394 73380
L75338 73352
L75310 73323
L75282 73267
L75282 73099
L75310 73042
L75338 73014
L75394 72986
L75507 72986
L75563 73014
" />
<path d="M75844 73380
L75844 72986
" />
<path d="M75844 73099
L75872 73042
L75900 73014
L75956 72986
L76013 72986
" />
<path d="M76210 73380
L76210 72789
" />
<path d="M76210 73014
L76266 72986
L76378 72986
L76435 73014
L76463 73042
L76491 73099
L76491 73267
L76463 73323
L76435 73352
L76378 73380
L76266 73380
L76210 73352
" />
<path d="M76828 73380
L76772 73352
L76744 73295
L76744 72789
" />
<path d="M76913 73436
L77363 73436
" />
<path d="M77475 73352
L77531 73380
L77644 73380
L77700 73352
L77728 73295
L77728 73267
L77700 73211
L77644 73183
L77559 73183
L77503 73155
L77475 73099
L77475 73070
L77503 73014
L77559 72986
L77644 72986
L77700 73014
" />
<path d="M77981 73380
L77981 72789
" />
<path d="M78234 73380
L78234 73070
L78206 73014
L78150 72986
L78066 72986
L78009 73014
L77981 73042
" />
<path d="M78516 73380
L78516 72986
" />
<path d="M78516 72789
L78487 72817
L78516 72845
L78544 72817
L78516 72789
L78516 72845
" />
<path d="M79022 73352
L78965 73380
L78853 73380
L78797 73352
L78769 73295
L78769 73070
L78797 73014
L78853 72986
L78965 72986
L79022 73014
L79050 73070
L79050 73127
L78769 73183
" />
<path d="M79387 73380
L79331 73352
L79303 73295
L79303 72789
" />
<path d="M79865 73380
L79865 72789
" />
<path d="M79865 73352
L79809 73380
L79697 73380
L79640 73352
L79612 73323
L79584 73267
L79584 73099
L79612 73042
L79640 73014
L79697 72986
L79809 72986
L79865 73014
" />
<path d="M80147 73155
L80597 73155
" />
<path d="M80878 72986
L80878 73577
" />
<path d="M80878 73014
L80934 72986
L81046 72986
L81103 73014
L81131 73042
L81159 73099
L81159 73267
L81131 73323
L81103 73352
L81046 73380
L80934 73380
L80878 73352
" />
<path d="M81665 73352
L81609 73380
L81496 73380
L81440 73352
L81412 73323
L81384 73267
L81384 73099
L81412 73042
L81440 73014
L81496 72986
L81609 72986
L81665 73014
" />
<path d="M81918 73380
L81918 72789
" />
<path d="M81918 73014
L81974 72986
L82087 72986
L82143 73014
L82171 73042
L82199 73099
L82199 73267
L82171 73323
L82143 73352
L82087 73380
L81974 73380
L81918 73352
" />
<path d="M82453 73323
L82481 73352
L82453 73380
L82424 73352
L82453 73323
L82453 73380
" />
<path d="M82734 73380
L82734 72789
" />
<path d="M82790 73155
L82959 73380
" />
<path d="M82959 72986
L82734 73211
" />
<path d="M83212 73380
L83212 72986
" />
<path d="M83212 72789
L83184 72817
L83212 72845
L83240 72817
L83212 72789
L83212 72845
" />
<path d="M83746 73352
L83690 73380
L83577 73380
L83521 73352
L83493 73323
L83465 73267
L83465 73099
L83493 73042
L83521 73014
L83577 72986
L83690 72986
L83746 73014
" />
<path d="M84252 73380
L84252 73070
L84224 73014
L84168 72986
L84055 72986
L83999 73014
" />
<path d="M84252 73352
L84196 73380
L84055 73380
L83999 73352
L83971 73295
L83971 73239
L83999 73183
L84055 73155
L84196 73155
L84252 73127
" />
<path d="M84787 73380
L84787 72789
" />
<path d="M84787 73352
L84730 73380
L84618 73380
L84562 73352
L84534 73323
L84505 73267
L84505 73099
L84534 73042
L84562 73014
L84618 72986
L84730 72986
L84787 73014
" />
<path d="M84927 73436
L85377 73436
" />
<path d="M85518 72986
L85518 73577
" />
<path d="M85518 73014
L85574 72986
L85687 72986
L85743 73014
L85771 73042
L85799 73099
L85799 73267
L85771 73323
L85743 73352
L85687 73380
L85574 73380
L85518 73352
" />
<path d="M86305 73352
L86249 73380
L86136 73380
L86080 73352
L86052 73323
L86024 73267
L86024 73099
L86052 73042
L86080 73014
L86136 72986
L86249 72986
L86305 73014
" />
<path d="M86558 73380
L86558 72789
" />
<path d="M86558 73014
L86615 72986
L86727 72986
L86783 73014
L86811 73042
L86840 73099
L86840 73267
L86811 73323
L86783 73352
L86727 73380
L86615 73380
L86558 73352
" />
<path d="M69685 71459
L112205 71459
" />
<path d="M70192 72289
L70276 72317
L70417 72317
L70473 72289
L70501 72260
L70529 72204
L70529 72148
L70501 72092
L70473 72064
L70417 72036
L70304 72007
L70248 71979
L70220 71951
L70192 71895
L70192 71839
L70220 71782
L70248 71754
L70304 71726
L70445 71726
L70529 71754
" />
<path d="M70782 72317
L70782 71726
" />
<path d="M71035 72317
L71035 72007
L71007 71951
L70951 71923
L70867 71923
L70810 71951
L70782 71979
" />
<path d="M71541 72289
L71485 72317
L71373 72317
L71316 72289
L71288 72232
L71288 72007
L71316 71951
L71373 71923
L71485 71923
L71541 71951
L71570 72007
L71570 72064
L71288 72120
" />
<path d="M72048 72289
L71991 72317
L71879 72317
L71823 72289
L71795 72232
L71795 72007
L71823 71951
L71879 71923
L71991 71923
L72048 71951
L72076 72007
L72076 72064
L71795 72120
" />
<path d="M72244 71923
L72469 71923
" />
<path d="M72329 71726
L72329 72232
L72357 72289
L72413 72317
L72469 72317
" />
<path d="M72666 72260
L72694 72289
L72666 72317
L72638 72289
L72666 72260
L72666 72317
" />
<path d="M72666 71951
L72694 71979
L72666 72007
L72638 71979
L72666 71951
L72666 72007
" />
<path d="M77559 75396
L77559 76577
" />
<path d="M102756 75396
L102756 77955
" />
<path d="M38188 49212
L38188 27559
" />
<path d="M77952 49212
L38188 49212
" />
<path d="M77952 27559
L77952 49212
" />
<path d="M38188 27559
L77952 27559
" />
<circle cx="34645.7" cy="52755.9" r="656.168" /> 
<path d="M33661 52755
L35629 52755
" />
<path d="M34645 51771
L34645 53740
" />
<circle cx="81496.1" cy="52755.9" r="656.168" /> 
<path d="M80511 52755
L82480 52755
" />
<path d="M81496 51771
L81496 53740
" />
<circle cx="81496.1" cy="24015.7" r="656.168" /> 
<path d="M80511 24015
L82480 24015
" />
<path d="M81496 23031
L81496 25000
" />
<circle cx="34645.7" cy="24015.7" r="656.168" /> 
<path d="M33661 24015
L35629 24015
" />
<path d="M34645 23031
L34645 25000
" />
</g>
<g style="fill:#000000; fill-opacity:0.0; 
stroke:#000000; stroke-width:600; stroke-opacity:1; 
stroke-linecap:round; stroke-linejoin:round;">
<path d="M63548 48044
L63548 47644
" />
<path d="M62548 48044
L62548 47644
" />
<path d="M61548 48044
L61548 47644
" />
<path d="M58548 48044
L58548 47644
" />
<path d="M59548 48044
L59548 47644
" />
<path d="M60548 48044
L60548 47644
" />
<path d="M56548 48044
L56548 47644
" />
<path d="M55548 48044
L55548 47644
" />
<path d="M54548 48044
L54548 47644
" />
<path d="M52548 48044
L52548 47644
" />
<path d="M51548 48044
L51548 47644
" />
<path d="M63548 29044
L63548 28644
" />
<path d="M62548 29044
L62548 28644
" />
<path d="M61548 29044
L61548 28644
" />
<path d="M60548 29044
L60548 28644
" />
<path d="M59548 29044
L59548 28644
" />
<path d="M58548 29044
L58548 28644
" />
<path d="M57548 29044
L57548 28644
" />
<path d="M56548 29044
L56548 28644
" />
<path d="M54948 29044
L54948 28644
" />
<path d="M53948 29044
L53948 28644
" />
<path d="M52948 29044
L52948 28644
" />
<path d="M51948 29044
L51948 28644
" />
<path d="M50948 29044
L50948 28644
" />
<path d="M49948 29044
L49948 28644
" />
<path d="M48948 29044
L48948 28644
" />
<path d="M47948 29044
L47948 28644
" />
<path d="M53548 48044
L53548 47644
" />
<path d="M46948 29044
L46948 28644
" />
<path d="M45948 29044
L45948 28644
" />
<path d="M50548 48044
L50548 47644
" />
<path d="M49548 48044
L49548 47644
" />
</g>
<g style="fill:#000000; fill-opacity:0.0; 
stroke:#000000; stroke-width:0; stroke-opacity:1; 
stroke-linecap:round; stroke-linejoin:round;">
</g>
<g style="fill:#000000; fill-opacity:1.0; 
stroke:#000000; stroke-width:0; stroke-opacity:1; 
stroke-linecap:round; stroke-linejoin:round;">
<polyline style="fill-rule:evenodd;"
points="73506,35406
74293,35406
74293,36193
73506,36193
73506,35406
" /> 
<circle cx="73900" cy="36784.3" r="393.701" /> 
</g>
<g style="fill:#000000; fill-opacity:1.0; 
stroke:#000000; stroke-width:59.0551; stroke-opacity:1; 
stroke-linecap:round; stroke-linejoin:round;">
</g>
<g style="fill:#000000; fill-opacity:1.0; 
stroke:#000000; stroke-width:800; stroke-opacity:1; 
stroke-linecap:round; stroke-linejoin:round;">
</g>
<g style="fill:#000000; fill-opacity:0.0; 
stroke:#000000; stroke-width:800; stroke-opacity:1; 
stroke-linecap:round; stroke-linejoin:round;">
<path d="M70800 38000
L71000 38000
" />
<path d="M70800 37000
L71000 37000
" />
<path d="M70800 39000
L71000 39000
" />
<path d="M42485 39688
L42485 39888
" />
<path d="M41107 39688
L41107 39888
" />
<path d="M45240 39688
L45240 39888
" />
<path d="M43862 39688
L43862 39888
" />
<path d="M47996 39688
L47996 39888
" />
<path d="M46618 39688
L46618 39888
" />
<path d="M50752 39688
L50752 39888
" />
<path d="M49374 39688
L49374 39888
" />
<path d="M53508 39688
L53508 39888
" />
<path d="M52130 39688
L52130 39888
" />
<path d="M56264 39688
L56264 39888
" />
<path d="M54886 39688
L54886 39888
" />
<path d="M59020 39688
L59020 39888
" />
<path d="M57642 39688
L57642 39888
" />
<path d="M67288 39688
L67288 39888
" />
<path d="M65910 39688
L65910 39888
" />
<path d="M61776 39688
L61776 39888
" />
<path d="M60398 39688
L60398 39888
" />
<path d="M41107 35951
L41107 35751
" />
<path d="M42485 35951
L42485 35751
" />
<path d="M43862 35951
L43862 35751
" />
<path d="M45240 35951
L45240 35751
" />
<path d="M46618 35951
L46618 35751
" />
<path d="M47996 35951
L47996 35751
" />
<path d="M49374 35951
L49374 35751
" />
<path d="M50752 35951
L50752 35751
" />
<path d="M52130 35951
L52130 35751
" />
<path d="M53508 35951
L53508 35751
" />
<path d="M54886 35951
L54886 35751
" />
<path d="M56264 35951
L56264 35751
" />
<path d="M57642 35951
L57642 35751
" />
<path d="M59020 35951
L59020 35751
" />
<path d="M60398 35951
L60398 35751
" />
<path d="M61776 35951
L61776 35751
" />
<path d="M63154 35951
L63154 35751
" />
<path d="M64532 35951
L64532 35751
" />
<path d="M65910 35951
L65910 35751
" />
<path d="M67288 35951
L67288 35751
" />
<path d="M64532 39688
L64532 39888
" />
<path d="M63154 39688
L63154 39888
" />
</g>
<g style="fill:#000000; fill-opacity:0.0; 
stroke:#000000; stroke-width:0; stroke-opacity:1; 
stroke-linecap:round; stroke-linejoin:round;">
</g>
<g style="fill:#000000; fill-opacity:1.0; 
stroke:#000000; stroke-width:0; stroke-opacity:1; 
stroke-linecap:round; stroke-linejoin:round;">
<polyline style="fill-rule:evenodd;"
points="46065,47465
46734,47465
46734,48134
46065,48134
46065,47465
" /> 
</g>
<g style="fill:#000000; fill-opacity:1.0; 
stroke:#000000; stroke-width:669.291; stroke-opacity:1; 
stroke-linecap:round; stroke-linejoin:round;">
</g>
<g style="fill:#000000; fill-opacity:0.0; 
stroke:#000000; stroke-width:669.291; stroke-opacity:1; 
stroke-linecap:round; stroke-linejoin:round;">
<path d="M45400 47800
L45400 47800
" />
</g>
<g style="fill:#000000; fill-opacity:0.0; 
stroke:#000000; stroke-width:0; stroke-opacity:1; 
stroke-linecap:round; stroke-linejoin:round;">
</g>
<g style="fill:#000000; fill-opacity:1.0; 
stroke:#000000; stroke-width:0; stroke-opacity:1; 
stroke-linecap:round; stroke-linejoin:round;">
<polyline style="fill-rule:evenodd;"
points="68334,29134
67665,29134
67665,28465
68334,28465
68334,29134
" /> 
</g>
<g style="fill:#000000; fill-opacity:1.0; 
stroke:#000000; stroke-width:669.291; stroke-opacity:1; 
stroke-linecap:round; stroke-linejoin:round;">
</g>
<g style="fill:#000000; fill-opacity:0.0; 
stroke:#000000; stroke-width:669.291; stroke-opacity:1; 
stroke-linecap:round; stroke-linejoin:round;">
<path d="M69000 28800
L69000 28800
" />
<path d="M70000 28800
L70000 28800
" />
<path d="M71000 28800
L71000 28800
" />
</g>
<g style="fill:#000000; fill-opacity:0.0; 
stroke:#000000; stroke-width:0; stroke-opacity:1; 
stroke-linecap:round; stroke-linejoin:round;">
</g>
<g style="fill:#000000; fill-opacity:1.0; 
stroke:#000000; stroke-width:0; stroke-opacity:1; 
stroke-linecap:round; stroke-linejoin:round;">
<polyline style="fill-rule:evenodd;"
points="74293,40693
73506,40693
73506,39906
74293,39906
74293,40693
" /> 
<circle cx="73900" cy="39315.7" r="393.701" /> 
</g>
<g style="fill:#000000; fill-opacity:1.0; 
stroke:#000000; stroke-width:59.0551; stroke-opacity:1; 
stroke-linecap:round; stroke-linejoin:round;">
</g>
<g style="fill:#000000; fill-opacity:1.0; 
stroke:#000000; stroke-width:0; stroke-opacity:1; 
stroke-linecap:round; stroke-linejoin:round;">
<circle cx="42600" cy="46900" r="236.22" /> 
</g>
<g style="fill:#000000; fill-opacity:1.0; 
stroke:#000000; stroke-width:59.0551; stroke-opacity:1; 
stroke-linecap:round; stroke-linejoin:round;">
</g>
<g style="fill:#000000; fill-opacity:1.0; 
stroke:#000000; stroke-width:0; stroke-opacity:1; 
stroke-linecap:round; stroke-linejoin:round;">
<circle cx="45900" cy="46250" r="236.22" /> 
</g>
<g style="fill:#000000; fill-opacity:1.0; 
stroke:#000000; stroke-width:59.0551; stroke-opacity:1; 
stroke-linecap:round; stroke-linejoin:round;">
</g>
<g style="fill:#000000; fill-opacity:1.0; 
stroke:#000000; stroke-width:0; stroke-opacity:1; 
stroke-linecap:round; stroke-linejoin:round;">
<circle cx="44700" cy="32400" r="236.22" /> 
</g>
<g style="fill:#000000; fill-opacity:1.0; 
stroke:#000000; stroke-width:59.0551; stroke-opacity:1; 
stroke-linecap:round; stroke-linejoin:round;">
</g>
<g style="fill:#000000; fill-opacity:1.0; 
stroke:#000000; stroke-width:787.402; stroke-opacity:1; 
stroke-linecap:round; stroke-linejoin:round;">
</g>
<g style="fill:#000000; fill-opacity:0.0; 
stroke:#000000; stroke-width:787.402; stroke-opacity:1; 
stroke-linecap:round; stroke-linejoin:round;">
<path d="M73900 40300
L71400 40300
" />
<path d="M71400 40300
L70900 40800
" />
<path d="M66500 42000
L63700 42000
" />
<path d="M63154 41454
L63154 39788
" />
<path d="M63700 42000
L63154 41454
" />
<path d="M70900 39000
L70900 40800
" />
<path d="M65910 41410
L65910 39788
" />
<path d="M66500 42000
L65910 41410
" />
<path d="M69700 42000
L66500 42000
" />
<path d="M70900 40800
L69700 42000
" />
</g>
<g style="fill:#000000; fill-opacity:0.0; 
stroke:#000000; stroke-width:118.11; stroke-opacity:1; 
stroke-linecap:round; stroke-linejoin:round;">
<path d="M52948 32851
L52948 28844
" />
<path d="M52948 32851
L51800 34000
" />
<path d="M51800 34000
L40000 34000
" />
<path d="M40000 34000
L39400 34600
" />
<path d="M39400 34600
L39400 45800
" />
<path d="M39400 45800
L40500 46900
" />
<path d="M40500 46900
L42600 46900
" />
<path d="M53948 33451
L53200 34200
" />
<path d="M53200 34200
L40100 34200
" />
<path d="M40100 34200
L39600 34700
" />
<path d="M39600 34700
L39600 45700
" />
<path d="M39600 45700
L40150 46250
" />
<path d="M40150 46250
L45900 46250
" />
<path d="M53948 28844
L53948 33451
" />
</g>
<g style="fill:#000000; fill-opacity:0.0; 
stroke:#000000; stroke-width:1181.1; stroke-opacity:1; 
stroke-linecap:round; stroke-linejoin:round;">
<path d="M60398 39788
L60398 37800
" />
<path d="M60398 37800
L60700 37800
" />
<path d="M60700 37800
L53800 37800
" />
<path d="M53508 37508
L53508 35851
" />
<path d="M53800 37800
L53508 37508
" />
<path d="M67288 35851
L67288 37588
" />
<path d="M67288 37588
L67076 37800
" />
<path d="M67076 37800
L60700 37800
" />
<path d="M60398 37498
L60398 35851
" />
<path d="M60700 37800
L60398 37498
" />
</g>
<g style="fill:#000000; fill-opacity:0.0; 
stroke:#000000; stroke-width:118.11; stroke-opacity:1; 
stroke-linecap:round; stroke-linejoin:round;">
<path d="M61548 47248
L61548 47844
" />
<path d="M61100 46800
L61548 47248
" />
<path d="M43900 46800
L61100 46800
" />
<path d="M43300 47400
L43900 46800
" />
<path d="M40700 47400
L43300 47400
" />
<path d="M39200 45900
L40700 47400
" />
<path d="M39200 34500
L39200 45900
" />
<path d="M39900 33800
L39200 34500
" />
<path d="M44600 33800
L39900 33800
" />
<path d="M44700 33700
L44600 33800
" />
<path d="M44700 32400
L44700 33700
" />
</g>
<g style="fill:#000000; fill-opacity:1.0; 
stroke:#000000; stroke-width:98.4252; stroke-opacity:1; 
stroke-linecap:round; stroke-linejoin:round;">
<polyline style="fill-rule:evenodd;"
points="77450,48750
38649,48750
38649,48012
38759,48012
38876,48296
39094,48514
39377,48632
39685,48632
39969,48515
40186,48298
40303,48017
44969,48017
45085,48165
45182,48230
45252,48220
45252,47947
45547,47947
45547,48220
45617,48230
45714,48165
45830,48017
45822,47947
45547,47947
45252,47947
44977,47947
44969,48017
40303,48017
40304,48014
40305,47706
40187,47422
39970,47205
39686,47087
39379,47087
39095,47204
38877,47421
38759,47705
38759,48012
38649,48012
38649,34500
38993,34500
38993,45900
39009,45979
39053,46046
40553,47546
40620,47590
40700,47606
43300,47606
43379,47590
43391,47582
44969,47582
44977,47652
45252,47652
45252,47379
45547,47379
45547,47652
45822,47652
45830,47582
45738,47465
45914,47465
45914,48134
45925,48189
45957,48239
46006,48273
46065,48285
46734,48285
46789,48274
46839,48242
46873,48193
46885,48134
46885,47631
49100,47631
49100,48056
49134,48228
49231,48373
49376,48470
49548,48504
49719,48470
49864,48373
49961,48228
49995,48056
49995,47631
50100,47631
50100,48056
50134,48228
50231,48373
50376,48470
50548,48504
50719,48470
50864,48373
50961,48228
50995,48056
50995,47631
51100,47631
51100,48056
51134,48228
51231,48373
51376,48470
51548,48504
51719,48470
51864,48373
51961,48228
51995,48056
51995,47631
52100,47631
52100,48056
52134,48228
52231,48373
52376,48470
52548,48504
52719,48470
52864,48373
52961,48228
52995,48056
52995,47631
53100,47631
53100,48056
53134,48228
53231,48373
53376,48470
53548,48504
53719,48470
53864,48373
53961,48228
53994,48063
54089,48063
54131,48237
54237,48382
54336,48438
54400,48427
54400,47991
54695,47991
54695,48427
54759,48438
54858,48382
54964,48237
55006,48063
55089,48063
55131,48237
55237,48382
55336,48438
55400,48427
55400,47991
55695,47991
55695,48427
55759,48438
55858,48382
55964,48237
56006,48063
55967,47991
55695,47991
55400,47991
55128,47991
55089,48063
55006,48063
54967,47991
54695,47991
54400,47991
54128,47991
54089,48063
53994,48063
53995,48056
53995,47631
53994,47624
54089,47624
54128,47696
54400,47696
54400,47260
54695,47260
54695,47696
54967,47696
55006,47624
55089,47624
55128,47696
55400,47696
55400,47260
55695,47260
55695,47696
55967,47696
56002,47631
56100,47631
56100,48056
56134,48228
56231,48373
56376,48470
56548,48504
56719,48470
56864,48373
56961,48228
56995,48056
56995,47631
58100,47631
58100,48056
58134,48228
58231,48373
58376,48470
58548,48504
58719,48470
58864,48373
58961,48228
58995,48056
58995,47631
59100,47631
59100,48056
59134,48228
59231,48373
59376,48470
59548,48504
59719,48470
59864,48373
59961,48228
59995,48056
59995,47631
60100,47631
60100,48056
60134,48228
60231,48373
60376,48470
60548,48504
60719,48470
60864,48373
60961,48228
60995,48056
60995,47631
60961,47460
60864,47314
60719,47217
60548,47183
60376,47217
60231,47314
60134,47460
60100,47631
59995,47631
59961,47460
59864,47314
59719,47217
59548,47183
59376,47217
59231,47314
59134,47460
59100,47631
58995,47631
58961,47460
58864,47314
58719,47217
58548,47183
58376,47217
58231,47314
58134,47460
58100,47631
56995,47631
56961,47460
56864,47314
56719,47217
56548,47183
56376,47217
56231,47314
56134,47460
56100,47631
56002,47631
56006,47624
55964,47450
55858,47305
55759,47249
55695,47260
55400,47260
55336,47249
55237,47305
55131,47450
55089,47624
55006,47624
54964,47450
54858,47305
54759,47249
54695,47260
54400,47260
54336,47249
54237,47305
54131,47450
54089,47624
53994,47624
53961,47460
53864,47314
53719,47217
53548,47183
53376,47217
53231,47314
53134,47460
53100,47631
52995,47631
52961,47460
52864,47314
52719,47217
52548,47183
52376,47217
52231,47314
52134,47460
52100,47631
51995,47631
51961,47460
51864,47314
51719,47217
51548,47183
51376,47217
51231,47314
51134,47460
51100,47631
50995,47631
50961,47460
50864,47314
50719,47217
50548,47183
50376,47217
50231,47314
50134,47460
50100,47631
49995,47631
49961,47460
49864,47314
49719,47217
49548,47183
49376,47217
49231,47314
49134,47460
49100,47631
46885,47631
46885,47465
46874,47410
46842,47360
46793,47326
46734,47314
46065,47314
46010,47325
45960,47357
45926,47406
45914,47465
45738,47465
45714,47434
45617,47369
45547,47379
45252,47379
45182,47369
45085,47434
44969,47582
43391,47582
43446,47546
43985,47006
61014,47006
61286,47278
61231,47314
61134,47460
61100,47631
61100,48056
61134,48228
61231,48373
61376,48470
61548,48504
61719,48470
61864,48373
61961,48228
61995,48056
61995,47631
62100,47631
62100,48056
62134,48228
62231,48373
62376,48470
62548,48504
62719,48470
62864,48373
62961,48228
62995,48056
62995,47631
63100,47631
63100,48056
63134,48228
63231,48373
63376,48470
63548,48504
63719,48470
63864,48373
63961,48228
63995,48056
63995,48012
75767,48012
75884,48296
76101,48514
76385,48632
76693,48632
76977,48515
77194,48298
77312,48014
77312,47706
77195,47422
76978,47205
76694,47087
76387,47087
76103,47204
75885,47421
75767,47705
75767,48012
63995,48012
63995,47631
63961,47460
63864,47314
63719,47217
63548,47183
63376,47217
63231,47314
63134,47460
63100,47631
62995,47631
62961,47460
62864,47314
62719,47217
62548,47183
62376,47217
62231,47314
62134,47460
62100,47631
61995,47631
61961,47460
61864,47314
61753,47240
61738,47168
61694,47101
61246,46653
61179,46609
61100,46593
46074,46593
46117,46575
46225,46467
46283,46326
46283,46173
46225,46032
46117,45924
45976,45866
45823,45866
45682,45924
45574,46032
45570,46043
40235,46043
39806,45614
39806,39676
40559,39676
40559,39901
40601,40111
40719,40288
40897,40407
41107,40449
41316,40407
41494,40288
41613,40111
41631,40020
41957,40020
42048,40212
42205,40354
42256,40386
42337,40377
42337,39936
42632,39936
42632,40377
42713,40386
42764,40354
42921,40212
43012,40020
42989,39936
42632,39936
42337,39936
41980,39936
41957,40020
41631,40020
41654,39901
41654,39676
43315,39676
43315,39901
43357,40111
43475,40288
43653,40407
43862,40449
44072,40407
44250,40288
44368,40111
44386,40020
44713,40020
44804,40212
44961,40354
45012,40386
45093,40377
45093,39936
45388,39936
45388,40377
45469,40386
45520,40354
45677,40212
45768,40020
45745,39936
45388,39936
45093,39936
44736,39936
44713,40020
44386,40020
44410,39901
44410,39676
46071,39676
46071,39901
46112,40111
46231,40288
46409,40407
46618,40449
46828,40407
47006,40288
47124,40111
47142,40020
47469,40020
47560,40212
47717,40354
47768,40386
47849,40377
47849,39936
48144,39936
48144,40377
48225,40386
48276,40354
48433,40212
48523,40020
48501,39936
48144,39936
47849,39936
47492,39936
47469,40020
47142,40020
47166,39901
47166,39676
48827,39676
48827,39901
48868,40111
48987,40288
49165,40407
49374,40449
49584,40407
49762,40288
49880,40111
49898,40020
50225,40020
50316,40212
50473,40354
50524,40386
50605,40377
50605,39936
50900,39936
50900,40377
50981,40386
51032,40354
51189,40212
51279,40020
51257,39936
50900,39936
50605,39936
50248,39936
50225,40020
49898,40020
49922,39901
49922,39676
51583,39676
51583,39901
51624,40111
51743,40288
51921,40407
52130,40449
52340,40407
52517,40288
52636,40111
52654,40020
52981,40020
53072,40212
53229,40354
53280,40386
53361,40377
53361,39936
53656,39936
53656,40377
53736,40386
53788,40354
53945,40212
54035,40020
54012,39936
53656,39936
53361,39936
53004,39936
52981,40020
52654,40020
52678,39901
52678,39676
54338,39676
54338,39901
54380,40111
54499,40288
54677,40407
54886,40449
55096,40407
55273,40288
55392,40111
55410,40020
55737,40020
55828,40212
55985,40354
56036,40386
56116,40377
56116,39936
56412,39936
56412,40377
56492,40386
56544,40354
56701,40212
56791,40020
56768,39936
56412,39936
56116,39936
55760,39936
55737,40020
55410,40020
55434,39901
55434,39676
57094,39676
57094,39901
57136,40111
57255,40288
57432,40407
57642,40449
57852,40407
58029,40288
58148,40111
58166,40020
58493,40020
58583,40212
58740,40354
58792,40386
58872,40377
58872,39936
59168,39936
59168,40377
59248,40386
59300,40354
59457,40212
59547,40020
59524,39936
59168,39936
58872,39936
58516,39936
58493,40020
58166,40020
58190,39901
58190,39676
58166,39557
58493,39557
58516,39641
58872,39641
58872,39200
59168,39200
59168,39641
59524,39641
59547,39557
59457,39365
59300,39223
59248,39191
59168,39200
58872,39200
58792,39191
58740,39223
58583,39365
58493,39557
58166,39557
58148,39466
58029,39289
57852,39170
57642,39128
57432,39170
57255,39289
57136,39466
57094,39676
55434,39676
55410,39557
55737,39557
55760,39641
56116,39641
56116,39200
56412,39200
56412,39641
56768,39641
56791,39557
56701,39365
56544,39223
56492,39191
56412,39200
56116,39200
56036,39191
55985,39223
55828,39365
55737,39557
55410,39557
55392,39466
55273,39289
55096,39170
54886,39128
54677,39170
54499,39289
54380,39466
54338,39676
52678,39676
52654,39557
52981,39557
53004,39641
53361,39641
53361,39200
53656,39200
53656,39641
54012,39641
54035,39557
53945,39365
53788,39223
53736,39191
53656,39200
53361,39200
53280,39191
53229,39223
53072,39365
52981,39557
52654,39557
52636,39466
52517,39289
52340,39170
52130,39128
51921,39170
51743,39289
51624,39466
51583,39676
49922,39676
49898,39557
50225,39557
50248,39641
50605,39641
50605,39200
50900,39200
50900,39641
51257,39641
51279,39557
51189,39365
51032,39223
50981,39191
50900,39200
50605,39200
50524,39191
50473,39223
50316,39365
50225,39557
49898,39557
49880,39466
49762,39289
49584,39170
49374,39128
49165,39170
48987,39289
48868,39466
48827,39676
47166,39676
47142,39557
47469,39557
47492,39641
47849,39641
47849,39200
48144,39200
48144,39641
48501,39641
48523,39557
48433,39365
48276,39223
48225,39191
48144,39200
47849,39200
47768,39191
47717,39223
47560,39365
47469,39557
47142,39557
47124,39466
47006,39289
46828,39170
46618,39128
46409,39170
46231,39289
46112,39466
46071,39676
44410,39676
44386,39557
44713,39557
44736,39641
45093,39641
45093,39200
45388,39200
45388,39641
45745,39641
45768,39557
45677,39365
45520,39223
45469,39191
45388,39200
45093,39200
45012,39191
44961,39223
44804,39365
44713,39557
44386,39557
44368,39466
44250,39289
44072,39170
43862,39128
43653,39170
43475,39289
43357,39466
43315,39676
41654,39676
41631,39557
41957,39557
41980,39641
42337,39641
42337,39200
42632,39200
42632,39641
42989,39641
43012,39557
42921,39365
42764,39223
42713,39191
42632,39200
42337,39200
42256,39191
42205,39223
42048,39365
41957,39557
41631,39557
41613,39466
41494,39289
41316,39170
41107,39128
40897,39170
40719,39289
40601,39466
40559,39676
39806,39676
39806,36083
40580,36083
40670,36275
40827,36417
40878,36449
40959,36440
40959,35999
41254,35999
41254,36440
41335,36449
41386,36417
41543,36275
41634,36083
41611,35999
41254,35999
40959,35999
40602,35999
40580,36083
39806,36083
39806,35739
41937,35739
41937,35964
41979,36174
42097,36351
42275,36470
42485,36512
42694,36470
42872,36351
42990,36174
43009,36083
43335,36083
43426,36275
43583,36417
43634,36449
43715,36440
43715,35999
44010,35999
44010,36440
44091,36449
44142,36417
44299,36275
44390,36083
44367,35999
44010,35999
43715,35999
43358,35999
43335,36083
43009,36083
43032,35964
43032,35739
44693,35739
44693,35964
44734,36174
44853,36351
45031,36470
45240,36512
45450,36470
45628,36351
45746,36174
45788,35964
45788,35739
46071,35739
46071,35964
46112,36174
46231,36351
46409,36470
46618,36512
46828,36470
47006,36351
47124,36174
47166,35964
47166,35739
47449,35739
47449,35964
47490,36174
47609,36351
47787,36470
47996,36512
48206,36470
48384,36351
48502,36174
48544,35964
48544,35739
48827,35739
48827,35964
48868,36174
48987,36351
49165,36470
49374,36512
49584,36470
49762,36351
49880,36174
49922,35964
49922,35739
50205,35739
50205,35964
50246,36174
50365,36351
50543,36470
50752,36512
50962,36470
51139,36351
51258,36174
51276,36083
51603,36083
51694,36275
51851,36417
51902,36449
51983,36440
51983,35999
52278,35999
52278,36440
52359,36449
52410,36417
52567,36275
52657,36083
52634,35999
52278,35999
51983,35999
51626,35999
51603,36083
51276,36083
51300,35964
51300,35851
52731,35851
52731,37508
52790,37806
52958,38058
53250,38349
53502,38518
53800,38577
59620,38577
59620,39788
59680,40086
59848,40338
60100,40507
60398,40566
60695,40507
60948,40338
61116,40086
61129,40020
61249,40020
61339,40212
61496,40354
61548,40386
61628,40377
61628,39936
61924,39936
61924,40377
62004,40386
62055,40354
62212,40212
62303,40020
62280,39936
61924,39936
61628,39936
61272,39936
61249,40020
61129,40020
61175,39788
61175,39676
62606,39676
62606,39901
62612,39933
62612,41454
62654,41661
62741,41792
62771,41837
63317,42382
63492,42500
63700,42541
69700,42541
69907,42500
70082,42382
71624,40841
73492,40841
73506,40844
74293,40844
74348,40833
74398,40801
74432,40752
74444,40693
74444,39906
74433,39851
74401,39801
74352,39767
74293,39755
74131,39755
73900,39524
73668,39755
73506,39755
73490,39758
71441,39758
71441,39335
73348,39335
73382,39508
73446,39560
73691,39315
74108,39315
74353,39560
74417,39508
74451,39296
74417,39122
74353,39071
74108,39315
73691,39315
73446,39071
73382,39122
73348,39335
71441,39335
71441,39325
71518,39209
71560,39000
71532,38862
73655,38862
73900,39106
74144,38862
74093,38798
73880,38764
73706,38798
73655,38862
71532,38862
71518,38790
71399,38612
71222,38494
71207,38491
71323,38436
71465,38279
71497,38228
71488,38147
71047,38147
71047,38155
70752,38155
70752,38147
70311,38147
70302,38228
70334,38279
70476,38436
70592,38491
70577,38494
70400,38612
70281,38790
70239,39000
70281,39209
70358,39325
70358,40575
69475,41458
66724,41458
66451,41186
66451,40020
66761,40020
66851,40212
67008,40354
67059,40386
67140,40377
67140,39936
67435,39936
67435,40377
67516,40386
67567,40354
67724,40212
67815,40020
67792,39936
67435,39936
67140,39936
66783,39936
66761,40020
66451,40020
66451,39933
66457,39901
66457,39676
66434,39557
66761,39557
66783,39641
67140,39641
67140,39200
67435,39200
67435,39641
67792,39641
67815,39557
67724,39365
67567,39223
67516,39191
67435,39200
67140,39200
67059,39191
67008,39223
66851,39365
66761,39557
66434,39557
66416,39466
66297,39289
66119,39170
65910,39128
65700,39170
65522,39289
65404,39466
65362,39676
65362,39901
65368,39933
65368,41410
65378,41458
63924,41458
63695,41230
63695,40020
64005,40020
64095,40212
64252,40354
64303,40386
64384,40377
64384,39936
64679,39936
64679,40377
64760,40386
64811,40354
64968,40212
65059,40020
65036,39936
64679,39936
64384,39936
64028,39936
64005,40020
63695,40020
63695,39933
63701,39901
63701,39676
63678,39557
64005,39557
64028,39641
64384,39641
64384,39200
64679,39200
64679,39641
65036,39641
65059,39557
64968,39365
64811,39223
64760,39191
64679,39200
64384,39200
64303,39191
64252,39223
64095,39365
64005,39557
63678,39557
63660,39466
63541,39289
63363,39170
63154,39128
62944,39170
62767,39289
62648,39466
62606,39676
61175,39676
61175,39557
61249,39557
61272,39641
61628,39641
61628,39200
61924,39200
61924,39641
62280,39641
62303,39557
62212,39365
62055,39223
62004,39191
61924,39200
61628,39200
61548,39191
61496,39223
61339,39365
61249,39557
61175,39557
61175,38577
67076,38577
67373,38518
67626,38349
67838,38138
67891,38058
68006,37885
68065,37588
68065,37000
70239,37000
70281,37209
70400,37387
70577,37505
70592,37508
70476,37563
70334,37720
70302,37771
70311,37852
70752,37852
70752,37844
71047,37844
71047,37852
71488,37852
71497,37771
71465,37720
71323,37563
71207,37508
71222,37505
71399,37387
71499,37237
73655,37237
73706,37301
73919,37335
74093,37301
74144,37237
73900,36993
73655,37237
71499,37237
71518,37209
71560,37000
71521,36803
73348,36803
73382,36977
73446,37028
73691,36784
74108,36784
74353,37028
74417,36977
74451,36764
74417,36591
74353,36539
74108,36784
73691,36784
73446,36539
73382,36591
73348,36803
71521,36803
71518,36790
71399,36612
71222,36494
71012,36452
70787,36452
70577,36494
70400,36612
70281,36790
70239,37000
68065,37000
68065,35851
68006,35554
67907,35406
73355,35406
73355,36193
73366,36248
73398,36298
73447,36332
73506,36344
73668,36344
73900,36575
74131,36344
74293,36344
74348,36333
74398,36301
74432,36252
74444,36193
74444,35406
74433,35351
74401,35301
74352,35267
74293,35255
73506,35255
73451,35266
73401,35298
73367,35347
73355,35406
67907,35406
67838,35302
67585,35133
67288,35074
66990,35133
66738,35302
66569,35554
66510,35851
66510,37022
61175,37022
61175,35851
61153,35739
61228,35739
61228,35964
61270,36174
61389,36351
61566,36470
61776,36512
61985,36470
62163,36351
62282,36174
62324,35964
62324,35739
62606,35739
62606,35964
62648,36174
62767,36351
62944,36470
63154,36512
63363,36470
63541,36351
63660,36174
63701,35964
63701,35739
63984,35739
63984,35964
64026,36174
64145,36351
64322,36470
64532,36512
64741,36470
64919,36351
65038,36174
65056,36083
65383,36083
65473,36275
65630,36417
65681,36449
65762,36440
65762,35999
66057,35999
66057,36440
66138,36449
66189,36417
66346,36275
66437,36083
66414,35999
66057,35999
65762,35999
65405,35999
65383,36083
65056,36083
65079,35964
65079,35739
65056,35620
65383,35620
65405,35704
65762,35704
65762,35263
66057,35263
66057,35704
66414,35704
66437,35620
66346,35428
66189,35286
66138,35254
66057,35263
65762,35263
65681,35254
65630,35286
65473,35428
65383,35620
65056,35620
65038,35529
64919,35352
64741,35233
64532,35191
64322,35233
64145,35352
64026,35529
63984,35739
63701,35739
63660,35529
63541,35352
63363,35233
63154,35191
62944,35233
62767,35352
62648,35529
62606,35739
62324,35739
62282,35529
62163,35352
61985,35233
61776,35191
61566,35233
61389,35352
61270,35529
61228,35739
61153,35739
61116,35554
60948,35302
60695,35133
60398,35074
60100,35133
59848,35302
59680,35554
59620,35851
59620,37022
54286,37022
54286,35851
54263,35739
54338,35739
54338,35964
54380,36174
54499,36351
54677,36470
54886,36512
55096,36470
55273,36351
55392,36174
55434,35964
55434,35739
55716,35739
55716,35964
55758,36174
55877,36351
56054,36470
56264,36512
56474,36470
56651,36351
56770,36174
56812,35964
56812,35739
57094,35739
57094,35964
57136,36174
57255,36351
57432,36470
57642,36512
57852,36470
58029,36351
58148,36174
58166,36083
58493,36083
58583,36275
58740,36417
58792,36449
58872,36440
58872,35999
59168,35999
59168,36440
59248,36449
59300,36417
59457,36275
59547,36083
59524,35999
59168,35999
58872,35999
58516,35999
58493,36083
58166,36083
58190,35964
58190,35739
58166,35620
58493,35620
58516,35704
58872,35704
58872,35263
59168,35263
59168,35704
59524,35704
59547,35620
59457,35428
59300,35286
59248,35254
59168,35263
58872,35263
58792,35254
58740,35286
58583,35428
58493,35620
58166,35620
58148,35529
58029,35352
57852,35233
57642,35191
57432,35233
57255,35352
57136,35529
57094,35739
56812,35739
56770,35529
56651,35352
56474,35233
56264,35191
56054,35233
55877,35352
55758,35529
55716,35739
55434,35739
55392,35529
55273,35352
55096,35233
54886,35191
54677,35233
54499,35352
54380,35529
54338,35739
54263,35739
54227,35554
54058,35302
53806,35133
53508,35074
53211,35133
52958,35302
52790,35554
52731,35851
51300,35851
51300,35739
51276,35620
51603,35620
51626,35704
51983,35704
51983,35263
52278,35263
52278,35704
52634,35704
52657,35620
52567,35428
52410,35286
52359,35254
52278,35263
51983,35263
51902,35254
51851,35286
51694,35428
51603,35620
51276,35620
51258,35529
51139,35352
50962,35233
50752,35191
50543,35233
50365,35352
50246,35529
50205,35739
49922,35739
49880,35529
49762,35352
49584,35233
49374,35191
49165,35233
48987,35352
48868,35529
48827,35739
48544,35739
48502,35529
48384,35352
48206,35233
47996,35191
47787,35233
47609,35352
47490,35529
47449,35739
47166,35739
47124,35529
47006,35352
46828,35233
46618,35191
46409,35233
46231,35352
46112,35529
46071,35739
45788,35739
45746,35529
45628,35352
45450,35233
45240,35191
45031,35233
44853,35352
44734,35529
44693,35739
43032,35739
43009,35620
43335,35620
43358,35704
43715,35704
43715,35263
44010,35263
44010,35704
44367,35704
44390,35620
44299,35428
44142,35286
44091,35254
44010,35263
43715,35263
43634,35254
43583,35286
43426,35428
43335,35620
43009,35620
42990,35529
42872,35352
42694,35233
42485,35191
42275,35233
42097,35352
41979,35529
41937,35739
39806,35739
39806,35620
40580,35620
40602,35704
40959,35704
40959,35263
41254,35263
41254,35704
41611,35704
41634,35620
41543,35428
41386,35286
41335,35254
41254,35263
40959,35263
40878,35254
40827,35286
40670,35428
40580,35620
39806,35620
39806,34785
40185,34406
53200,34406
53279,34390
53346,34346
54094,33598
54138,33531
54154,33451
54154,29446
54264,29373
54361,29228
54395,29056
54395,28631
54500,28631
54500,29056
54534,29228
54631,29373
54776,29470
54948,29504
55119,29470
55264,29373
55361,29228
55395,29056
55395,28631
56100,28631
56100,29056
56134,29228
56231,29373
56376,29470
56548,29504
56719,29470
56864,29373
56961,29228
56995,29056
56995,28631
57100,28631
57100,29056
57134,29228
57231,29373
57376,29470
57548,29504
57719,29470
57864,29373
57961,29228
57995,29056
57995,28631
58100,28631
58100,29056
58134,29228
58231,29373
58376,29470
58548,29504
58719,29470
58864,29373
58961,29228
58995,29056
58995,28631
59100,28631
59100,29056
59134,29228
59231,29373
59376,29470
59548,29504
59719,29470
59864,29373
59961,29228
59995,29056
59995,28631
60100,28631
60100,29056
60134,29228
60231,29373
60376,29470
60548,29504
60719,29470
60864,29373
60961,29228
60995,29056
60995,28631
61100,28631
61100,29056
61134,29228
61231,29373
61376,29470
61548,29504
61719,29470
61864,29373
61961,29228
61995,29056
61995,28631
62100,28631
62100,29056
62134,29228
62231,29373
62376,29470
62548,29504
62719,29470
62864,29373
62961,29228
62995,29056
62995,28631
63100,28631
63100,29056
63134,29228
63231,29373
63376,29470
63548,29504
63719,29470
63864,29373
63961,29228
63995,29056
63995,28631
63962,28465
67514,28465
67514,29134
67525,29189
67557,29239
67606,29273
67665,29285
68334,29285
68389,29274
68439,29242
68473,29193
68485,29134
68485,28790
68517,28790
68517,28809
68554,28994
68658,29150
68815,29255
69000,29291
69184,29255
69341,29150
69445,28994
69482,28809
69482,28790
69517,28790
69517,28809
69554,28994
69658,29150
69815,29255
70000,29291
70184,29255
70341,29150
70429,29017
70569,29017
70685,29165
70782,29230
70852,29220
70852,28947
71147,28947
71147,29220
71217,29230
71314,29165
71430,29017
71422,28947
71147,28947
70852,28947
70577,28947
70569,29017
70429,29017
70445,28994
70460,28918
75767,28918
75884,29202
76101,29419
76385,29537
76693,29538
76977,29420
77194,29203
77312,28919
77312,28612
77195,28328
76978,28110
76694,27992
76387,27992
76103,28109
75885,28327
75767,28610
75767,28918
70460,28918
70482,28809
70482,28790
70445,28605
70429,28582
70569,28582
70577,28652
70852,28652
70852,28379
71147,28379
71147,28652
71422,28652
71430,28582
71314,28434
71217,28369
71147,28379
70852,28379
70782,28369
70685,28434
70569,28582
70429,28582
70341,28449
70184,28344
70000,28308
69815,28344
69658,28449
69554,28605
69517,28790
69482,28790
69445,28605
69341,28449
69184,28344
69000,28308
68815,28344
68658,28449
68554,28605
68517,28790
68485,28790
68485,28465
68474,28410
68442,28360
68393,28326
68334,28314
67665,28314
67610,28325
67560,28357
67526,28406
67514,28465
63962,28465
63961,28460
63864,28314
63719,28217
63548,28183
63376,28217
63231,28314
63134,28460
63100,28631
62995,28631
62961,28460
62864,28314
62719,28217
62548,28183
62376,28217
62231,28314
62134,28460
62100,28631
61995,28631
61961,28460
61864,28314
61719,28217
61548,28183
61376,28217
61231,28314
61134,28460
61100,28631
60995,28631
60961,28460
60864,28314
60719,28217
60548,28183
60376,28217
60231,28314
60134,28460
60100,28631
59995,28631
59961,28460
59864,28314
59719,28217
59548,28183
59376,28217
59231,28314
59134,28460
59100,28631
58995,28631
58961,28460
58864,28314
58719,28217
58548,28183
58376,28217
58231,28314
58134,28460
58100,28631
57995,28631
57961,28460
57864,28314
57719,28217
57548,28183
57376,28217
57231,28314
57134,28460
57100,28631
56995,28631
56961,28460
56864,28314
56719,28217
56548,28183
56376,28217
56231,28314
56134,28460
56100,28631
55395,28631
55361,28460
55264,28314
55119,28217
54948,28183
54776,28217
54631,28314
54534,28460
54500,28631
54395,28631
54361,28460
54264,28314
54119,28217
53948,28183
53776,28217
53631,28314
53534,28460
53500,28631
53500,29056
53534,29228
53631,29373
53741,29446
53741,33366
53114,33993
52099,33993
53094,32998
53138,32931
53154,32851
53154,29446
53264,29373
53361,29228
53395,29056
53395,28631
53361,28460
53264,28314
53119,28217
52948,28183
52776,28217
52631,28314
52534,28460
52500,28631
52500,29056
52534,29228
52631,29373
52741,29446
52741,32766
51714,33793
44881,33793
44890,33779
44906,33700
44906,32729
44917,32725
45025,32617
45083,32476
45083,32323
45025,32182
44917,32074
44776,32016
44623,32016
44482,32074
44374,32182
44316,32323
44316,32476
44374,32617
44482,32725
44493,32729
44493,33593
39900,33593
39820,33609
39753,33653
39053,34353
39009,34420
38993,34500
38649,34500
38649,28918
38759,28918
38876,29202
39094,29419
39377,29537
39685,29538
39969,29420
40186,29203
40304,28919
40305,28631
45500,28631
45500,29056
45534,29228
45631,29373
45776,29470
45948,29504
46119,29470
46264,29373
46361,29228
46395,29056
46395,28631
46500,28631
46500,29056
46534,29228
46631,29373
46776,29470
46948,29504
47119,29470
47264,29373
47361,29228
47395,29056
47395,28631
47500,28631
47500,29056
47534,29228
47631,29373
47776,29470
47948,29504
48119,29470
48264,29373
48361,29228
48394,29063
48489,29063
48531,29237
48637,29382
48736,29438
48800,29427
48800,28991
49095,28991
49095,29427
49159,29438
49258,29382
49364,29237
49406,29063
49367,28991
49095,28991
48800,28991
48528,28991
48489,29063
48394,29063
48395,29056
48395,28631
48394,28624
48489,28624
48528,28696
48800,28696
48800,28260
49095,28260
49095,28696
49367,28696
49402,28631
49500,28631
49500,29056
49534,29228
49631,29373
49776,29470
49948,29504
50119,29470
50264,29373
50361,29228
50395,29056
50395,28631
50500,28631
50500,29056
50534,29228
50631,29373
50776,29470
50948,29504
51119,29470
51264,29373
51361,29228
51395,29056
51395,28631
51500,28631
51500,29056
51534,29228
51631,29373
51776,29470
51948,29504
52119,29470
52264,29373
52361,29228
52395,29056
52395,28631
52361,28460
52264,28314
52119,28217
51948,28183
51776,28217
51631,28314
51534,28460
51500,28631
51395,28631
51361,28460
51264,28314
51119,28217
50948,28183
50776,28217
50631,28314
50534,28460
50500,28631
50395,28631
50361,28460
50264,28314
50119,28217
49948,28183
49776,28217
49631,28314
49534,28460
49500,28631
49402,28631
49406,28624
49364,28450
49258,28305
49159,28249
49095,28260
48800,28260
48736,28249
48637,28305
48531,28450
48489,28624
48394,28624
48361,28460
48264,28314
48119,28217
47948,28183
47776,28217
47631,28314
47534,28460
47500,28631
47395,28631
47361,28460
47264,28314
47119,28217
46948,28183
46776,28217
46631,28314
46534,28460
46500,28631
46395,28631
46361,28460
46264,28314
46119,28217
45948,28183
45776,28217
45631,28314
45534,28460
45500,28631
40305,28631
40305,28612
40187,28328
39970,28110
39686,27992
39379,27992
39095,28109
38877,28327
38759,28610
38759,28918
38649,28918
38649,27949
77450,27949
77450,48750
" /> 
</g>
<g style="fill:#FFFFFF; fill-opacity:1.0; 
stroke:#FFFFFF; stroke-width:98.4252; stroke-opacity:1; 
stroke-linecap:round; stroke-linejoin:round;">
</g>
<g style="fill:#FFFFFF; fill-opacity:1.0; 
stroke:#FFFFFF; stroke-width:0; stroke-opacity:1; 
stroke-linecap:round; stroke-linejoin:round;">
<circle cx="42600" cy="46900" r="68.8976" /> 
</g>
<g style="fill:#FFFFFF; fill-opacity:1.0; 
stroke:#FFFFFF; stroke-width:59.0551; stroke-opacity:1; 
stroke-linecap:round; stroke-linejoin:round;">
</g>
<g style="fill:#FFFFFF; fill-opacity:1.0; 
stroke:#FFFFFF; stroke-width:0; stroke-opacity:1; 
stroke-linecap:round; stroke-linejoin:round;">
<circle cx="45900" cy="46250" r="68.8976" /> 
</g>
<g style="fill:#FFFFFF; fill-opacity:1.0; 
stroke:#FFFFFF; stroke-width:59.0551; stroke-opacity:1; 
stroke-linecap:round; stroke-linejoin:round;">
</g>
<g style="fill:#FFFFFF; fill-opacity:1.0; 
stroke:#FFFFFF; stroke-width:0; stroke-opacity:1; 
stroke-linecap:round; stroke-linejoin:round;">
<circle cx="44700" cy="32400" r="68.8976" /> 
</g>
<g style="fill:#FFFFFF; fill-opacity:1.0; 
stroke:#FFFFFF; stroke-width:59.0551; stroke-opacity:1; 
stroke-linecap:round; stroke-linejoin:round;">
</g>
<g style="fill:#FFFFFF; fill-opacity:1.0; 
stroke:#FFFFFF; stroke-width:0; stroke-opacity:1; 
stroke-linecap:round; stroke-linejoin:round;">
<circle cx="63548" cy="47844.1" r="68.8976" /> 
</g>
<g style="fill:#FFFFFF; fill-opacity:1.0; 
stroke:#FFFFFF; stroke-width:59.0551; stroke-opacity:1; 
stroke-linecap:round; stroke-linejoin:round;">
</g>
<g style="fill:#FFFFFF; fill-opacity:1.0; 
stroke:#FFFFFF; stroke-width:0; stroke-opacity:1; 
stroke-linecap:round; stroke-linejoin:round;">
<circle cx="62548" cy="47844.1" r="68.8976" /> 
</g>
<g style="fill:#FFFFFF; fill-opacity:1.0; 
stroke:#FFFFFF; stroke-width:59.0551; stroke-opacity:1; 
stroke-linecap:round; stroke-linejoin:round;">
</g>
<g style="fill:#FFFFFF; fill-opacity:1.0; 
stroke:#FFFFFF; stroke-width:0; stroke-opacity:1; 
stroke-linecap:round; stroke-linejoin:round;">
<circle cx="61548" cy="47844.1" r="68.8976" /> 
</g>
<g style="fill:#FFFFFF; fill-opacity:1.0; 
stroke:#FFFFFF; stroke-width:59.0551; stroke-opacity:1; 
stroke-linecap:round; stroke-linejoin:round;">
</g>
<g style="fill:#FFFFFF; fill-opacity:1.0; 
stroke:#FFFFFF; stroke-width:0; stroke-opacity:1; 
stroke-linecap:round; stroke-linejoin:round;">
<circle cx="58548" cy="47844.1" r="68.8976" /> 
</g>
<g style="fill:#FFFFFF; fill-opacity:1.0; 
stroke:#FFFFFF; stroke-width:59.0551; stroke-opacity:1; 
stroke-linecap:round; stroke-linejoin:round;">
</g>
<g style="fill:#FFFFFF; fill-opacity:1.0; 
stroke:#FFFFFF; stroke-width:0; stroke-opacity:1; 
stroke-linecap:round; stroke-linejoin:round;">
<circle cx="59548" cy="47844.1" r="68.8976" /> 
</g>
<g style="fill:#FFFFFF; fill-opacity:1.0; 
stroke:#FFFFFF; stroke-width:59.0551; stroke-opacity:1; 
stroke-linecap:round; stroke-linejoin:round;">
</g>
<g style="fill:#FFFFFF; fill-opacity:1.0; 
stroke:#FFFFFF; stroke-width:0; stroke-opacity:1; 
stroke-linecap:round; stroke-linejoin:round;">
<circle cx="60548" cy="47844.1" r="68.8976" /> 
</g>
<g style="fill:#FFFFFF; fill-opacity:1.0; 
stroke:#FFFFFF; stroke-width:59.0551; stroke-opacity:1; 
stroke-linecap:round; stroke-linejoin:round;">
</g>
<g style="fill:#FFFFFF; fill-opacity:1.0; 
stroke:#FFFFFF; stroke-width:0; stroke-opacity:1; 
stroke-linecap:round; stroke-linejoin:round;">
<circle cx="56548" cy="47844.1" r="68.8976" /> 
</g>
<g style="fill:#FFFFFF; fill-opacity:1.0; 
stroke:#FFFFFF; stroke-width:59.0551; stroke-opacity:1; 
stroke-linecap:round; stroke-linejoin:round;">
</g>
<g style="fill:#FFFFFF; fill-opacity:1.0; 
stroke:#FFFFFF; stroke-width:0; stroke-opacity:1; 
stroke-linecap:round; stroke-linejoin:round;">
<circle cx="55548" cy="47844.1" r="68.8976" /> 
</g>
<g style="fill:#FFFFFF; fill-opacity:1.0; 
stroke:#FFFFFF; stroke-width:59.0551; stroke-opacity:1; 
stroke-linecap:round; stroke-linejoin:round;">
</g>
<g style="fill:#FFFFFF; fill-opacity:1.0; 
stroke:#FFFFFF; stroke-width:0; stroke-opacity:1; 
stroke-linecap:round; stroke-linejoin:round;">
<circle cx="54548" cy="47844.1" r="68.8976" /> 
</g>
<g style="fill:#FFFFFF; fill-opacity:1.0; 
stroke:#FFFFFF; stroke-width:59.0551; stroke-opacity:1; 
stroke-linecap:round; stroke-linejoin:round;">
</g>
<g style="fill:#FFFFFF; fill-opacity:1.0; 
stroke:#FFFFFF; stroke-width:0; stroke-opacity:1; 
stroke-linecap:round; stroke-linejoin:round;">
<circle cx="52548" cy="47844.1" r="68.8976" /> 
</g>
<g style="fill:#FFFFFF; fill-opacity:1.0; 
stroke:#FFFFFF; stroke-width:59.0551; stroke-opacity:1; 
stroke-linecap:round; stroke-linejoin:round;">
</g>
<g style="fill:#FFFFFF; fill-opacity:1.0; 
stroke:#FFFFFF; stroke-width:0; stroke-opacity:1; 
stroke-linecap:round; stroke-linejoin:round;">
<circle cx="51548" cy="47844.1" r="68.8976" /> 
</g>
<g style="fill:#FFFFFF; fill-opacity:1.0; 
stroke:#FFFFFF; stroke-width:59.0551; stroke-opacity:1; 
stroke-linecap:round; stroke-linejoin:round;">
</g>
<g style="fill:#FFFFFF; fill-opacity:1.0; 
stroke:#FFFFFF; stroke-width:0; stroke-opacity:1; 
stroke-linecap:round; stroke-linejoin:round;">
<circle cx="63548" cy="28844.1" r="68.8976" /> 
</g>
<g style="fill:#FFFFFF; fill-opacity:1.0; 
stroke:#FFFFFF; stroke-width:59.0551; stroke-opacity:1; 
stroke-linecap:round; stroke-linejoin:round;">
</g>
<g style="fill:#FFFFFF; fill-opacity:1.0; 
stroke:#FFFFFF; stroke-width:0; stroke-opacity:1; 
stroke-linecap:round; stroke-linejoin:round;">
<circle cx="62548" cy="28844.1" r="68.8976" /> 
</g>
<g style="fill:#FFFFFF; fill-opacity:1.0; 
stroke:#FFFFFF; stroke-width:59.0551; stroke-opacity:1; 
stroke-linecap:round; stroke-linejoin:round;">
</g>
<g style="fill:#FFFFFF; fill-opacity:1.0; 
stroke:#FFFFFF; stroke-width:0; stroke-opacity:1; 
stroke-linecap:round; stroke-linejoin:round;">
<circle cx="61548" cy="28844.1" r="68.8976" /> 
</g>
<g style="fill:#FFFFFF; fill-opacity:1.0; 
stroke:#FFFFFF; stroke-width:59.0551; stroke-opacity:1; 
stroke-linecap:round; stroke-linejoin:round;">
</g>
<g style="fill:#FFFFFF; fill-opacity:1.0; 
stroke:#FFFFFF; stroke-width:0; stroke-opacity:1; 
stroke-linecap:round; stroke-linejoin:round;">
<circle cx="60548" cy="28844.1" r="68.8976" /> 
</g>
<g style="fill:#FFFFFF; fill-opacity:1.0; 
stroke:#FFFFFF; stroke-width:59.0551; stroke-opacity:1; 
stroke-linecap:round; stroke-linejoin:round;">
</g>
<g style="fill:#FFFFFF; fill-opacity:1.0; 
stroke:#FFFFFF; stroke-width:0; stroke-opacity:1; 
stroke-linecap:round; stroke-linejoin:round;">
<circle cx="59548" cy="28844.1" r="68.8976" /> 
</g>
<g style="fill:#FFFFFF; fill-opacity:1.0; 
stroke:#FFFFFF; stroke-width:59.0551; stroke-opacity:1; 
stroke-linecap:round; stroke-linejoin:round;">
</g>
<g style="fill:#FFFFFF; fill-opacity:1.0; 
stroke:#FFFFFF; stroke-width:0; stroke-opacity:1; 
stroke-linecap:round; stroke-linejoin:round;">
<circle cx="58548" cy="28844.1" r="68.8976" /> 
</g>
<g style="fill:#FFFFFF; fill-opacity:1.0; 
stroke:#FFFFFF; stroke-width:59.0551; stroke-opacity:1; 
stroke-linecap:round; stroke-linejoin:round;">
</g>
<g style="fill:#FFFFFF; fill-opacity:1.0; 
stroke:#FFFFFF; stroke-width:0; stroke-opacity:1; 
stroke-linecap:round; stroke-linejoin:round;">
<circle cx="57548" cy="28844.1" r="68.8976" /> 
</g>
<g style="fill:#FFFFFF; fill-opacity:1.0; 
stroke:#FFFFFF; stroke-width:59.0551; stroke-opacity:1; 
stroke-linecap:round; stroke-linejoin:round;">
</g>
<g style="fill:#FFFFFF; fill-opacity:1.0; 
stroke:#FFFFFF; stroke-width:0; stroke-opacity:1; 
stroke-linecap:round; stroke-linejoin:round;">
<circle cx="56548" cy="28844.1" r="68.8976" /> 
</g>
<g style="fill:#FFFFFF; fill-opacity:1.0; 
stroke:#FFFFFF; stroke-width:59.0551; stroke-opacity:1; 
stroke-linecap:round; stroke-linejoin:round;">
</g>
<g style="fill:#FFFFFF; fill-opacity:1.0; 
stroke:#FFFFFF; stroke-width:0; stroke-opacity:1; 
stroke-linecap:round; stroke-linejoin:round;">
<circle cx="54948" cy="28844.1" r="68.8976" /> 
</g>
<g style="fill:#FFFFFF; fill-opacity:1.0; 
stroke:#FFFFFF; stroke-width:59.0551; stroke-opacity:1; 
stroke-linecap:round; stroke-linejoin:round;">
</g>
<g style="fill:#FFFFFF; fill-opacity:1.0; 
stroke:#FFFFFF; stroke-width:0; stroke-opacity:1; 
stroke-linecap:round; stroke-linejoin:round;">
<circle cx="53948" cy="28844.1" r="68.8976" /> 
</g>
<g style="fill:#FFFFFF; fill-opacity:1.0; 
stroke:#FFFFFF; stroke-width:59.0551; stroke-opacity:1; 
stroke-linecap:round; stroke-linejoin:round;">
</g>
<g style="fill:#FFFFFF; fill-opacity:1.0; 
stroke:#FFFFFF; stroke-width:0; stroke-opacity:1; 
stroke-linecap:round; stroke-linejoin:round;">
<circle cx="52948" cy="28844.1" r="68.8976" /> 
</g>
<g style="fill:#FFFFFF; fill-opacity:1.0; 
stroke:#FFFFFF; stroke-width:59.0551; stroke-opacity:1; 
stroke-linecap:round; stroke-linejoin:round;">
</g>
<g style="fill:#FFFFFF; fill-opacity:1.0; 
stroke:#FFFFFF; stroke-width:0; stroke-opacity:1; 
stroke-linecap:round; stroke-linejoin:round;">
<circle cx="51948" cy="28844.1" r="68.8976" /> 
</g>
<g style="fill:#FFFFFF; fill-opacity:1.0; 
stroke:#FFFFFF; stroke-width:59.0551; stroke-opacity:1; 
stroke-linecap:round; stroke-linejoin:round;">
</g>
<g style="fill:#FFFFFF; fill-opacity:1.0; 
stroke:#FFFFFF; stroke-width:0; stroke-opacity:1; 
stroke-linecap:round; stroke-linejoin:round;">
<circle cx="50948" cy="28844.1" r="68.8976" /> 
</g>
<g style="fill:#FFFFFF; fill-opacity:1.0; 
stroke:#FFFFFF; stroke-width:59.0551; stroke-opacity:1; 
stroke-linecap:round; stroke-linejoin:round;">
</g>
<g style="fill:#FFFFFF; fill-opacity:1.0; 
stroke:#FFFFFF; stroke-width:0; stroke-opacity:1; 
stroke-linecap:round; stroke-linejoin:round;">
<circle cx="49948" cy="28844.1" r="68.8976" /> 
</g>
<g style="fill:#FFFFFF; fill-opacity:1.0; 
stroke:#FFFFFF; stroke-width:59.0551; stroke-opacity:1; 
stroke-linecap:round; stroke-linejoin:round;">
</g>
<g style="fill:#FFFFFF; fill-opacity:1.0; 
stroke:#FFFFFF; stroke-width:0; stroke-opacity:1; 
stroke-linecap:round; stroke-linejoin:round;">
<circle cx="48948" cy="28844.1" r="68.8976" /> 
</g>
<g style="fill:#FFFFFF; fill-opacity:1.0; 
stroke:#FFFFFF; stroke-width:59.0551; stroke-opacity:1; 
stroke-linecap:round; stroke-linejoin:round;">
</g>
<g style="fill:#FFFFFF; fill-opacity:1.0; 
stroke:#FFFFFF; stroke-width:0; stroke-opacity:1; 
stroke-linecap:round; stroke-linejoin:round;">
<circle cx="47948" cy="28844.1" r="68.8976" /> 
</g>
<g style="fill:#FFFFFF; fill-opacity:1.0; 
stroke:#FFFFFF; stroke-width:59.0551; stroke-opacity:1; 
stroke-linecap:round; stroke-linejoin:round;">
</g>
<g style="fill:#FFFFFF; fill-opacity:1.0; 
stroke:#FFFFFF; stroke-width:0; stroke-opacity:1; 
stroke-linecap:round; stroke-linejoin:round;">
<circle cx="53548" cy="47844.1" r="68.8976" /> 
</g>
<g style="fill:#FFFFFF; fill-opacity:1.0; 
stroke:#FFFFFF; stroke-width:59.0551; stroke-opacity:1; 
stroke-linecap:round; stroke-linejoin:round;">
</g>
<g style="fill:#FFFFFF; fill-opacity:1.0; 
stroke:#FFFFFF; stroke-width:0; stroke-opacity:1; 
stroke-linecap:round; stroke-linejoin:round;">
<circle cx="76540.2" cy="47859.8" r="68.8976" /> 
</g>
<g style="fill:#FFFFFF; fill-opacity:1.0; 
stroke:#FFFFFF; stroke-width:59.0551; stroke-opacity:1; 
stroke-linecap:round; stroke-linejoin:round;">
</g>
<g style="fill:#FFFFFF; fill-opacity:1.0; 
stroke:#FFFFFF; stroke-width:0; stroke-opacity:1; 
stroke-linecap:round; stroke-linejoin:round;">
<circle cx="76540.2" cy="28765.4" r="68.8976" /> 
</g>
<g style="fill:#FFFFFF; fill-opacity:1.0; 
stroke:#FFFFFF; stroke-width:59.0551; stroke-opacity:1; 
stroke-linecap:round; stroke-linejoin:round;">
</g>
<g style="fill:#FFFFFF; fill-opacity:1.0; 
stroke:#FFFFFF; stroke-width:0; stroke-opacity:1; 
stroke-linecap:round; stroke-linejoin:round;">
<circle cx="39532.3" cy="28765.4" r="68.8976" /> 
</g>
<g style="fill:#FFFFFF; fill-opacity:1.0; 
stroke:#FFFFFF; stroke-width:59.0551; stroke-opacity:1; 
stroke-linecap:round; stroke-linejoin:round;">
</g>
<g style="fill:#FFFFFF; fill-opacity:1.0; 
stroke:#FFFFFF; stroke-width:0; stroke-opacity:1; 
stroke-linecap:round; stroke-linejoin:round;">
<circle cx="39532.3" cy="47859.8" r="68.8976" /> 
</g>
<g style="fill:#FFFFFF; fill-opacity:1.0; 
stroke:#FFFFFF; stroke-width:59.0551; stroke-opacity:1; 
stroke-linecap:round; stroke-linejoin:round;">
</g>
<g style="fill:#FFFFFF; fill-opacity:1.0; 
stroke:#FFFFFF; stroke-width:0; stroke-opacity:1; 
stroke-linecap:round; stroke-linejoin:round;">
<circle cx="46948" cy="28844.1" r="68.8976" /> 
</g>
<g style="fill:#FFFFFF; fill-opacity:1.0; 
stroke:#FFFFFF; stroke-width:59.0551; stroke-opacity:1; 
stroke-linecap:round; stroke-linejoin:round;">
</g>
<g style="fill:#FFFFFF; fill-opacity:1.0; 
stroke:#FFFFFF; stroke-width:0; stroke-opacity:1; 
stroke-linecap:round; stroke-linejoin:round;">
<circle cx="45948" cy="28844.1" r="68.8976" /> 
</g>
<g style="fill:#FFFFFF; fill-opacity:1.0; 
stroke:#FFFFFF; stroke-width:59.0551; stroke-opacity:1; 
stroke-linecap:round; stroke-linejoin:round;">
</g>
<g style="fill:#FFFFFF; fill-opacity:1.0; 
stroke:#FFFFFF; stroke-width:0; stroke-opacity:1; 
stroke-linecap:round; stroke-linejoin:round;">
<circle cx="50548" cy="47844.1" r="68.8976" /> 
</g>
<g style="fill:#FFFFFF; fill-opacity:1.0; 
stroke:#FFFFFF; stroke-width:59.0551; stroke-opacity:1; 
stroke-linecap:round; stroke-linejoin:round;">
</g>
<g style="fill:#FFFFFF; fill-opacity:1.0; 
stroke:#FFFFFF; stroke-width:0; stroke-opacity:1; 
stroke-linecap:round; stroke-linejoin:round;">
<circle cx="49548" cy="47844.1" r="68.8976" /> 
</g>
<g style="fill:#FFFFFF; fill-opacity:1.0; 
stroke:#FFFFFF; stroke-width:59.0551; stroke-opacity:1; 
stroke-linecap:round; stroke-linejoin:round;">
</g>
<g style="fill:#FFFFFF; fill-opacity:1.0; 
stroke:#FFFFFF; stroke-width:0; stroke-opacity:1; 
stroke-linecap:round; stroke-linejoin:round;">
<circle cx="73900" cy="35800" r="68.8976" /> 
</g>
<g style="fill:#FFFFFF; fill-opacity:1.0; 
stroke:#FFFFFF; stroke-width:59.0551; stroke-opacity:1; 
stroke-linecap:round; stroke-linejoin:round;">
</g>
<g style="fill:#FFFFFF; fill-opacity:1.0; 
stroke:#FFFFFF; stroke-width:0; stroke-opacity:1; 
stroke-linecap:round; stroke-linejoin:round;">
<circle cx="73900" cy="36784.3" r="68.8976" /> 
</g>
<g style="fill:#FFFFFF; fill-opacity:1.0; 
stroke:#FFFFFF; stroke-width:59.0551; stroke-opacity:1; 
stroke-linecap:round; stroke-linejoin:round;">
</g>
<g style="fill:#FFFFFF; fill-opacity:1.0; 
stroke:#FFFFFF; stroke-width:0; stroke-opacity:1; 
stroke-linecap:round; stroke-linejoin:round;">
<circle cx="70900" cy="38000" r="68.8976" /> 
</g>
<g style="fill:#FFFFFF; fill-opacity:1.0; 
stroke:#FFFFFF; stroke-width:59.0551; stroke-opacity:1; 
stroke-linecap:round; stroke-linejoin:round;">
</g>
<g style="fill:#FFFFFF; fill-opacity:1.0; 
stroke:#FFFFFF; stroke-width:0; stroke-opacity:1; 
stroke-linecap:round; stroke-linejoin:round;">
<circle cx="70900" cy="37000" r="68.8976" /> 
</g>
<g style="fill:#FFFFFF; fill-opacity:1.0; 
stroke:#FFFFFF; stroke-width:59.0551; stroke-opacity:1; 
stroke-linecap:round; stroke-linejoin:round;">
</g>
<g style="fill:#FFFFFF; fill-opacity:1.0; 
stroke:#FFFFFF; stroke-width:0; stroke-opacity:1; 
stroke-linecap:round; stroke-linejoin:round;">
<circle cx="70900" cy="39000" r="68.8976" /> 
</g>
<g style="fill:#FFFFFF; fill-opacity:1.0; 
stroke:#FFFFFF; stroke-width:59.0551; stroke-opacity:1; 
stroke-linecap:round; stroke-linejoin:round;">
</g>
<g style="fill:#FFFFFF; fill-opacity:1.0; 
stroke:#FFFFFF; stroke-width:0; stroke-opacity:1; 
stroke-linecap:round; stroke-linejoin:round;">
<circle cx="42485" cy="39789" r="68.8976" /> 
</g>
<g style="fill:#FFFFFF; fill-opacity:1.0; 
stroke:#FFFFFF; stroke-width:59.0551; stroke-opacity:1; 
stroke-linecap:round; stroke-linejoin:round;">
</g>
<g style="fill:#FFFFFF; fill-opacity:1.0; 
stroke:#FFFFFF; stroke-width:0; stroke-opacity:1; 
stroke-linecap:round; stroke-linejoin:round;">
<circle cx="41107.1" cy="39789" r="68.8976" /> 
</g>
<g style="fill:#FFFFFF; fill-opacity:1.0; 
stroke:#FFFFFF; stroke-width:59.0551; stroke-opacity:1; 
stroke-linecap:round; stroke-linejoin:round;">
</g>
<g style="fill:#FFFFFF; fill-opacity:1.0; 
stroke:#FFFFFF; stroke-width:0; stroke-opacity:1; 
stroke-linecap:round; stroke-linejoin:round;">
<circle cx="45240.9" cy="39789" r="68.8976" /> 
</g>
<g style="fill:#FFFFFF; fill-opacity:1.0; 
stroke:#FFFFFF; stroke-width:59.0551; stroke-opacity:1; 
stroke-linecap:round; stroke-linejoin:round;">
</g>
<g style="fill:#FFFFFF; fill-opacity:1.0; 
stroke:#FFFFFF; stroke-width:0; stroke-opacity:1; 
stroke-linecap:round; stroke-linejoin:round;">
<circle cx="43863" cy="39789" r="68.8976" /> 
</g>
<g style="fill:#FFFFFF; fill-opacity:1.0; 
stroke:#FFFFFF; stroke-width:59.0551; stroke-opacity:1; 
stroke-linecap:round; stroke-linejoin:round;">
</g>
<g style="fill:#FFFFFF; fill-opacity:1.0; 
stroke:#FFFFFF; stroke-width:0; stroke-opacity:1; 
stroke-linecap:round; stroke-linejoin:round;">
<circle cx="47996.9" cy="39789" r="68.8976" /> 
</g>
<g style="fill:#FFFFFF; fill-opacity:1.0; 
stroke:#FFFFFF; stroke-width:59.0551; stroke-opacity:1; 
stroke-linecap:round; stroke-linejoin:round;">
</g>
<g style="fill:#FFFFFF; fill-opacity:1.0; 
stroke:#FFFFFF; stroke-width:0; stroke-opacity:1; 
stroke-linecap:round; stroke-linejoin:round;">
<circle cx="46618.9" cy="39789" r="68.8976" /> 
</g>
<g style="fill:#FFFFFF; fill-opacity:1.0; 
stroke:#FFFFFF; stroke-width:59.0551; stroke-opacity:1; 
stroke-linecap:round; stroke-linejoin:round;">
</g>
<g style="fill:#FFFFFF; fill-opacity:1.0; 
stroke:#FFFFFF; stroke-width:0; stroke-opacity:1; 
stroke-linecap:round; stroke-linejoin:round;">
<circle cx="50752.8" cy="39789" r="68.8976" /> 
</g>
<g style="fill:#FFFFFF; fill-opacity:1.0; 
stroke:#FFFFFF; stroke-width:59.0551; stroke-opacity:1; 
stroke-linecap:round; stroke-linejoin:round;">
</g>
<g style="fill:#FFFFFF; fill-opacity:1.0; 
stroke:#FFFFFF; stroke-width:0; stroke-opacity:1; 
stroke-linecap:round; stroke-linejoin:round;">
<circle cx="49374.8" cy="39789" r="68.8976" /> 
</g>
<g style="fill:#FFFFFF; fill-opacity:1.0; 
stroke:#FFFFFF; stroke-width:59.0551; stroke-opacity:1; 
stroke-linecap:round; stroke-linejoin:round;">
</g>
<g style="fill:#FFFFFF; fill-opacity:1.0; 
stroke:#FFFFFF; stroke-width:0; stroke-opacity:1; 
stroke-linecap:round; stroke-linejoin:round;">
<circle cx="53508.7" cy="39789" r="68.8976" /> 
</g>
<g style="fill:#FFFFFF; fill-opacity:1.0; 
stroke:#FFFFFF; stroke-width:59.0551; stroke-opacity:1; 
stroke-linecap:round; stroke-linejoin:round;">
</g>
<g style="fill:#FFFFFF; fill-opacity:1.0; 
stroke:#FFFFFF; stroke-width:0; stroke-opacity:1; 
stroke-linecap:round; stroke-linejoin:round;">
<circle cx="52130.7" cy="39789" r="68.8976" /> 
</g>
<g style="fill:#FFFFFF; fill-opacity:1.0; 
stroke:#FFFFFF; stroke-width:59.0551; stroke-opacity:1; 
stroke-linecap:round; stroke-linejoin:round;">
</g>
<g style="fill:#FFFFFF; fill-opacity:1.0; 
stroke:#FFFFFF; stroke-width:0; stroke-opacity:1; 
stroke-linecap:round; stroke-linejoin:round;">
<circle cx="56264.6" cy="39789" r="68.8976" /> 
</g>
<g style="fill:#FFFFFF; fill-opacity:1.0; 
stroke:#FFFFFF; stroke-width:59.0551; stroke-opacity:1; 
stroke-linecap:round; stroke-linejoin:round;">
</g>
<g style="fill:#FFFFFF; fill-opacity:1.0; 
stroke:#FFFFFF; stroke-width:0; stroke-opacity:1; 
stroke-linecap:round; stroke-linejoin:round;">
<circle cx="54886.6" cy="39789" r="68.8976" /> 
</g>
<g style="fill:#FFFFFF; fill-opacity:1.0; 
stroke:#FFFFFF; stroke-width:59.0551; stroke-opacity:1; 
stroke-linecap:round; stroke-linejoin:round;">
</g>
<g style="fill:#FFFFFF; fill-opacity:1.0; 
stroke:#FFFFFF; stroke-width:0; stroke-opacity:1; 
stroke-linecap:round; stroke-linejoin:round;">
<circle cx="59020.5" cy="39789" r="68.8976" /> 
</g>
<g style="fill:#FFFFFF; fill-opacity:1.0; 
stroke:#FFFFFF; stroke-width:59.0551; stroke-opacity:1; 
stroke-linecap:round; stroke-linejoin:round;">
</g>
<g style="fill:#FFFFFF; fill-opacity:1.0; 
stroke:#FFFFFF; stroke-width:0; stroke-opacity:1; 
stroke-linecap:round; stroke-linejoin:round;">
<circle cx="57642.5" cy="39789" r="68.8976" /> 
</g>
<g style="fill:#FFFFFF; fill-opacity:1.0; 
stroke:#FFFFFF; stroke-width:59.0551; stroke-opacity:1; 
stroke-linecap:round; stroke-linejoin:round;">
</g>
<g style="fill:#FFFFFF; fill-opacity:1.0; 
stroke:#FFFFFF; stroke-width:0; stroke-opacity:1; 
stroke-linecap:round; stroke-linejoin:round;">
<circle cx="67288.2" cy="39789" r="68.8976" /> 
</g>
<g style="fill:#FFFFFF; fill-opacity:1.0; 
stroke:#FFFFFF; stroke-width:59.0551; stroke-opacity:1; 
stroke-linecap:round; stroke-linejoin:round;">
</g>
<g style="fill:#FFFFFF; fill-opacity:1.0; 
stroke:#FFFFFF; stroke-width:0; stroke-opacity:1; 
stroke-linecap:round; stroke-linejoin:round;">
<circle cx="65910.2" cy="39789" r="68.8976" /> 
</g>
<g style="fill:#FFFFFF; fill-opacity:1.0; 
stroke:#FFFFFF; stroke-width:59.0551; stroke-opacity:1; 
stroke-linecap:round; stroke-linejoin:round;">
</g>
<g style="fill:#FFFFFF; fill-opacity:1.0; 
stroke:#FFFFFF; stroke-width:0; stroke-opacity:1; 
stroke-linecap:round; stroke-linejoin:round;">
<circle cx="61776.4" cy="39789" r="68.8976" /> 
</g>
<g style="fill:#FFFFFF; fill-opacity:1.0; 
stroke:#FFFFFF; stroke-width:59.0551; stroke-opacity:1; 
stroke-linecap:round; stroke-linejoin:round;">
</g>
<g style="fill:#FFFFFF; fill-opacity:1.0; 
stroke:#FFFFFF; stroke-width:0; stroke-opacity:1; 
stroke-linecap:round; stroke-linejoin:round;">
<circle cx="60398.4" cy="39789" r="68.8976" /> 
</g>
<g style="fill:#FFFFFF; fill-opacity:1.0; 
stroke:#FFFFFF; stroke-width:59.0551; stroke-opacity:1; 
stroke-linecap:round; stroke-linejoin:round;">
</g>
<g style="fill:#FFFFFF; fill-opacity:1.0; 
stroke:#FFFFFF; stroke-width:0; stroke-opacity:1; 
stroke-linecap:round; stroke-linejoin:round;">
<circle cx="41107.1" cy="35852" r="68.8976" /> 
</g>
<g style="fill:#FFFFFF; fill-opacity:1.0; 
stroke:#FFFFFF; stroke-width:59.0551; stroke-opacity:1; 
stroke-linecap:round; stroke-linejoin:round;">
</g>
<g style="fill:#FFFFFF; fill-opacity:1.0; 
stroke:#FFFFFF; stroke-width:0; stroke-opacity:1; 
stroke-linecap:round; stroke-linejoin:round;">
<circle cx="42485" cy="35852" r="68.8976" /> 
</g>
<g style="fill:#FFFFFF; fill-opacity:1.0; 
stroke:#FFFFFF; stroke-width:59.0551; stroke-opacity:1; 
stroke-linecap:round; stroke-linejoin:round;">
</g>
<g style="fill:#FFFFFF; fill-opacity:1.0; 
stroke:#FFFFFF; stroke-width:0; stroke-opacity:1; 
stroke-linecap:round; stroke-linejoin:round;">
<circle cx="43863" cy="35852" r="68.8976" /> 
</g>
<g style="fill:#FFFFFF; fill-opacity:1.0; 
stroke:#FFFFFF; stroke-width:59.0551; stroke-opacity:1; 
stroke-linecap:round; stroke-linejoin:round;">
</g>
<g style="fill:#FFFFFF; fill-opacity:1.0; 
stroke:#FFFFFF; stroke-width:0; stroke-opacity:1; 
stroke-linecap:round; stroke-linejoin:round;">
<circle cx="45240.9" cy="35852" r="68.8976" /> 
</g>
<g style="fill:#FFFFFF; fill-opacity:1.0; 
stroke:#FFFFFF; stroke-width:59.0551; stroke-opacity:1; 
stroke-linecap:round; stroke-linejoin:round;">
</g>
<g style="fill:#FFFFFF; fill-opacity:1.0; 
stroke:#FFFFFF; stroke-width:0; stroke-opacity:1; 
stroke-linecap:round; stroke-linejoin:round;">
<circle cx="46618.9" cy="35852" r="68.8976" /> 
</g>
<g style="fill:#FFFFFF; fill-opacity:1.0; 
stroke:#FFFFFF; stroke-width:59.0551; stroke-opacity:1; 
stroke-linecap:round; stroke-linejoin:round;">
</g>
<g style="fill:#FFFFFF; fill-opacity:1.0; 
stroke:#FFFFFF; stroke-width:0; stroke-opacity:1; 
stroke-linecap:round; stroke-linejoin:round;">
<circle cx="47996.9" cy="35852" r="68.8976" /> 
</g>
<g style="fill:#FFFFFF; fill-opacity:1.0; 
stroke:#FFFFFF; stroke-width:59.0551; stroke-opacity:1; 
stroke-linecap:round; stroke-linejoin:round;">
</g>
<g style="fill:#FFFFFF; fill-opacity:1.0; 
stroke:#FFFFFF; stroke-width:0; stroke-opacity:1; 
stroke-linecap:round; stroke-linejoin:round;">
<circle cx="49374.8" cy="35852" r="68.8976" /> 
</g>
<g style="fill:#FFFFFF; fill-opacity:1.0; 
stroke:#FFFFFF; stroke-width:59.0551; stroke-opacity:1; 
stroke-linecap:round; stroke-linejoin:round;">
</g>
<g style="fill:#FFFFFF; fill-opacity:1.0; 
stroke:#FFFFFF; stroke-width:0; stroke-opacity:1; 
stroke-linecap:round; stroke-linejoin:round;">
<circle cx="50752.8" cy="35852" r="68.8976" /> 
</g>
<g style="fill:#FFFFFF; fill-opacity:1.0; 
stroke:#FFFFFF; stroke-width:59.0551; stroke-opacity:1; 
stroke-linecap:round; stroke-linejoin:round;">
</g>
<g style="fill:#FFFFFF; fill-opacity:1.0; 
stroke:#FFFFFF; stroke-width:0; stroke-opacity:1; 
stroke-linecap:round; stroke-linejoin:round;">
<circle cx="52130.7" cy="35852" r="68.8976" /> 
</g>
<g style="fill:#FFFFFF; fill-opacity:1.0; 
stroke:#FFFFFF; stroke-width:59.0551; stroke-opacity:1; 
stroke-linecap:round; stroke-linejoin:round;">
</g>
<g style="fill:#FFFFFF; fill-opacity:1.0; 
stroke:#FFFFFF; stroke-width:0; stroke-opacity:1; 
stroke-linecap:round; stroke-linejoin:round;">
<circle cx="53508.7" cy="35852" r="68.8976" /> 
</g>
<g style="fill:#FFFFFF; fill-opacity:1.0; 
stroke:#FFFFFF; stroke-width:59.0551; stroke-opacity:1; 
stroke-linecap:round; stroke-linejoin:round;">
</g>
<g style="fill:#FFFFFF; fill-opacity:1.0; 
stroke:#FFFFFF; stroke-width:0; stroke-opacity:1; 
stroke-linecap:round; stroke-linejoin:round;">
<circle cx="54886.6" cy="35852" r="68.8976" /> 
</g>
<g style="fill:#FFFFFF; fill-opacity:1.0; 
stroke:#FFFFFF; stroke-width:59.0551; stroke-opacity:1; 
stroke-linecap:round; stroke-linejoin:round;">
</g>
<g style="fill:#FFFFFF; fill-opacity:1.0; 
stroke:#FFFFFF; stroke-width:0; stroke-opacity:1; 
stroke-linecap:round; stroke-linejoin:round;">
<circle cx="56264.6" cy="35852" r="68.8976" /> 
</g>
<g style="fill:#FFFFFF; fill-opacity:1.0; 
stroke:#FFFFFF; stroke-width:59.0551; stroke-opacity:1; 
stroke-linecap:round; stroke-linejoin:round;">
</g>
<g style="fill:#FFFFFF; fill-opacity:1.0; 
stroke:#FFFFFF; stroke-width:0; stroke-opacity:1; 
stroke-linecap:round; stroke-linejoin:round;">
<circle cx="57642.5" cy="35852" r="68.8976" /> 
</g>
<g style="fill:#FFFFFF; fill-opacity:1.0; 
stroke:#FFFFFF; stroke-width:59.0551; stroke-opacity:1; 
stroke-linecap:round; stroke-linejoin:round;">
</g>
<g style="fill:#FFFFFF; fill-opacity:1.0; 
stroke:#FFFFFF; stroke-width:0; stroke-opacity:1; 
stroke-linecap:round; stroke-linejoin:round;">
<circle cx="59020.5" cy="35852" r="68.8976" /> 
</g>
<g style="fill:#FFFFFF; fill-opacity:1.0; 
stroke:#FFFFFF; stroke-width:59.0551; stroke-opacity:1; 
stroke-linecap:round; stroke-linejoin:round;">
</g>
<g style="fill:#FFFFFF; fill-opacity:1.0; 
stroke:#FFFFFF; stroke-width:0; stroke-opacity:1; 
stroke-linecap:round; stroke-linejoin:round;">
<circle cx="60398.4" cy="35852" r="68.8976" /> 
</g>
<g style="fill:#FFFFFF; fill-opacity:1.0; 
stroke:#FFFFFF; stroke-width:59.0551; stroke-opacity:1; 
stroke-linecap:round; stroke-linejoin:round;">
</g>
<g style="fill:#FFFFFF; fill-opacity:1.0; 
stroke:#FFFFFF; stroke-width:0; stroke-opacity:1; 
stroke-linecap:round; stroke-linejoin:round;">
<circle cx="61776.4" cy="35852" r="68.8976" /> 
</g>
<g style="fill:#FFFFFF; fill-opacity:1.0; 
stroke:#FFFFFF; stroke-width:59.0551; stroke-opacity:1; 
stroke-linecap:round; stroke-linejoin:round;">
</g>
<g style="fill:#FFFFFF; fill-opacity:1.0; 
stroke:#FFFFFF; stroke-width:0; stroke-opacity:1; 
stroke-linecap:round; stroke-linejoin:round;">
<circle cx="63154.3" cy="35852" r="68.8976" /> 
</g>
<g style="fill:#FFFFFF; fill-opacity:1.0; 
stroke:#FFFFFF; stroke-width:59.0551; stroke-opacity:1; 
stroke-linecap:round; stroke-linejoin:round;">
</g>
<g style="fill:#FFFFFF; fill-opacity:1.0; 
stroke:#FFFFFF; stroke-width:0; stroke-opacity:1; 
stroke-linecap:round; stroke-linejoin:round;">
<circle cx="64532.3" cy="35852" r="68.8976" /> 
</g>
<g style="fill:#FFFFFF; fill-opacity:1.0; 
stroke:#FFFFFF; stroke-width:59.0551; stroke-opacity:1; 
stroke-linecap:round; stroke-linejoin:round;">
</g>
<g style="fill:#FFFFFF; fill-opacity:1.0; 
stroke:#FFFFFF; stroke-width:0; stroke-opacity:1; 
stroke-linecap:round; stroke-linejoin:round;">
<circle cx="65910.2" cy="35852" r="68.8976" /> 
</g>
<g style="fill:#FFFFFF; fill-opacity:1.0; 
stroke:#FFFFFF; stroke-width:59.0551; stroke-opacity:1; 
stroke-linecap:round; stroke-linejoin:round;">
</g>
<g style="fill:#FFFFFF; fill-opacity:1.0; 
stroke:#FFFFFF; stroke-width:0; stroke-opacity:1; 
stroke-linecap:round; stroke-linejoin:round;">
<circle cx="67288.2" cy="35852" r="68.8976" /> 
</g>
<g style="fill:#FFFFFF; fill-opacity:1.0; 
stroke:#FFFFFF; stroke-width:59.0551; stroke-opacity:1; 
stroke-linecap:round; stroke-linejoin:round;">
</g>
<g style="fill:#FFFFFF; fill-opacity:1.0; 
stroke:#FFFFFF; stroke-width:0; stroke-opacity:1; 
stroke-linecap:round; stroke-linejoin:round;">
<circle cx="64532.3" cy="39789" r="68.8976" /> 
</g>
<g style="fill:#FFFFFF; fill-opacity:1.0; 
stroke:#FFFFFF; stroke-width:59.0551; stroke-opacity:1; 
stroke-linecap:round; stroke-linejoin:round;">
</g>
<g style="fill:#FFFFFF; fill-opacity:1.0; 
stroke:#FFFFFF; stroke-width:0; stroke-opacity:1; 
stroke-linecap:round; stroke-linejoin:round;">
<circle cx="63154.3" cy="39789" r="68.8976" /> 
</g>
<g style="fill:#FFFFFF; fill-opacity:1.0; 
stroke:#FFFFFF; stroke-width:59.0551; stroke-opacity:1; 
stroke-linecap:round; stroke-linejoin:round;">
</g>
<g style="fill:#FFFFFF; fill-opacity:1.0; 
stroke:#FFFFFF; stroke-width:0; stroke-opacity:1; 
stroke-linecap:round; stroke-linejoin:round;">
<circle cx="46400" cy="47800" r="68.8976" /> 
</g>
<g style="fill:#FFFFFF; fill-opacity:1.0; 
stroke:#FFFFFF; stroke-width:59.0551; stroke-opacity:1; 
stroke-linecap:round; stroke-linejoin:round;">
</g>
<g style="fill:#FFFFFF; fill-opacity:1.0; 
stroke:#FFFFFF; stroke-width:0; stroke-opacity:1; 
stroke-linecap:round; stroke-linejoin:round;">
<circle cx="45400" cy="47800" r="68.8976" /> 
</g>
<g style="fill:#FFFFFF; fill-opacity:1.0; 
stroke:#FFFFFF; stroke-width:59.0551; stroke-opacity:1; 
stroke-linecap:round; stroke-linejoin:round;">
</g>
<g style="fill:#FFFFFF; fill-opacity:1.0; 
stroke:#FFFFFF; stroke-width:0; stroke-opacity:1; 
stroke-linecap:round; stroke-linejoin:round;">
<circle cx="68000" cy="28800" r="68.8976" /> 
</g>
<g style="fill:#FFFFFF; fill-opacity:1.0; 
stroke:#FFFFFF; stroke-width:59.0551; stroke-opacity:1; 
stroke-linecap:round; stroke-linejoin:round;">
</g>
<g style="fill:#FFFFFF; fill-opacity:1.0; 
stroke:#FFFFFF; stroke-width:0; stroke-opacity:1; 
stroke-linecap:round; stroke-linejoin:round;">
<circle cx="69000" cy="28800" r="68.8976" /> 
</g>
<g style="fill:#FFFFFF; fill-opacity:1.0; 
stroke:#FFFFFF; stroke-width:59.0551; stroke-opacity:1; 
stroke-linecap:round; stroke-linejoin:round;">
</g>
<g style="fill:#FFFFFF; fill-opacity:1.0; 
stroke:#FFFFFF; stroke-width:0; stroke-opacity:1; 
stroke-linecap:round; stroke-linejoin:round;">
<circle cx="70000" cy="28800" r="68.8976" /> 
</g>
<g style="fill:#FFFFFF; fill-opacity:1.0; 
stroke:#FFFFFF; stroke-width:59.0551; stroke-opacity:1; 
stroke-linecap:round; stroke-linejoin:round;">
</g>
<g style="fill:#FFFFFF; fill-opacity:1.0; 
stroke:#FFFFFF; stroke-width:0; stroke-opacity:1; 
stroke-linecap:round; stroke-linejoin:round;">
<circle cx="71000" cy="28800" r="68.8976" /> 
</g>
<g style="fill:#FFFFFF; fill-opacity:1.0; 
stroke:#FFFFFF; stroke-width:59.0551; stroke-opacity:1; 
stroke-linecap:round; stroke-linejoin:round;">
</g>
<g style="fill:#FFFFFF; fill-opacity:1.0; 
stroke:#FFFFFF; stroke-width:0; stroke-opacity:1; 
stroke-linecap:round; stroke-linejoin:round;">
<circle cx="73900" cy="40300" r="68.8976" /> 
</g>
<g style="fill:#FFFFFF; fill-opacity:1.0; 
stroke:#FFFFFF; stroke-width:59.0551; stroke-opacity:1; 
stroke-linecap:round; stroke-linejoin:round;">
</g>
<g style="fill:#FFFFFF; fill-opacity:1.0; 
stroke:#FFFFFF; stroke-width:0; stroke-opacity:1; 
stroke-linecap:round; stroke-linejoin:round;">
<circle cx="73900" cy="39315.7" r="68.8976" /> 
</g>
<g style="fill:#FFFFFF; fill-opacity:1.0; 
stroke:#FFFFFF; stroke-width:59.0551; stroke-opacity:1; 
stroke-linecap:round; stroke-linejoin:round;">
</g>
<g style="fill:#000000; fill-opacity:1.0; 
stroke:#000000; stroke-width:59.0551; stroke-opacity:1; 
stroke-linecap:round; stroke-linejoin:round;">
</g> 
</svg>
