<?xml version="1.0" standalone="no"?>
 <!DOCTYPE svg PUBLIC "-//W3C//DTD SVG 1.1//EN" 
 "http://www.w3.org/Graphics/SVG/1.1/DTD/svg11.dtd"> 
<svg xmlns="http://www.w3.org/2000/svg" version="1.1" 
    width="29.7002cm" height="21.0007cm" viewBox="0 0 116930 82680 ">
<title>SVG Picture created as kcnc-grbl_shield-pcb-drl_map.svg date 2017/06/24 23:27:36 </title>
  <desc>Picture generated by PCBNEW </desc>
<g style="fill:#000000; fill-opacity:1;stroke:#000000; stroke-opacity:1;
stroke-linecap:round; stroke-linejoin:round; "
 transform="translate(0 0) scale(1 1)">
</g>
<g style="fill:#000000; fill-opacity:0.0; 
stroke:#000000; stroke-width:-0.000393701; stroke-opacity:1; 
stroke-linecap:round; stroke-linejoin:round;">
</g>
<g style="fill:#000000; fill-opacity:0.0; 
stroke:#000000; stroke-width:59.0551; stroke-opacity:1; 
stroke-linecap:round; stroke-linejoin:round;">
<path d="M38188 49212
L38188 27559
" />
<path d="M77952 49212
L38188 49212
" />
<path d="M77952 27559
L77952 49212
" />
<path d="M38188 27559
L77952 27559
" />
</g>
<g style="fill:#000000; fill-opacity:0.0; 
stroke:#000000; stroke-width:78.7402; stroke-opacity:1; 
stroke-linecap:round; stroke-linejoin:round;">
<path d="M42481 46781
L42718 47018
" />
<path d="M42718 46781
L42481 47018
" />
<path d="M44581 32281
L44818 32518
" />
<path d="M44818 32281
L44581 32518
" />
<path d="M45781 46131
L46018 46368
" />
<path d="M46018 46131
L45781 46368
" />
<circle cx="45400" cy="47800" r="196.85" /> 
<circle cx="46400" cy="47800" r="196.85" /> 
<circle cx="68000" cy="28800" r="196.85" /> 
<circle cx="69000" cy="28800" r="196.85" /> 
<circle cx="70000" cy="28800" r="196.85" /> 
<circle cx="71000" cy="28800" r="196.85" /> 
<path d="M70900 36775
L70900 37225
" />
<path d="M70675 37000
L71125 37000
" />
<path d="M70900 37775
L70900 38225
" />
<path d="M70675 38000
L71125 38000
" />
<path d="M70900 38775
L70900 39225
" />
<path d="M70675 39000
L71125 39000
" />
<polyline fill="none;"
points="41301,36046
41301,35657
40912,35657
40912,36046
41301,36046
" /> 
<polyline fill="none;"
points="41301,39983
41301,39594
40912,39594
40912,39983
41301,39983
" /> 
<polyline fill="none;"
points="42679,36046
42679,35657
42290,35657
42290,36046
42679,36046
" /> 
<polyline fill="none;"
points="42679,39983
42679,39594
42290,39594
42290,39983
42679,39983
" /> 
<polyline fill="none;"
points="44057,36046
44057,35657
43668,35657
43668,36046
44057,36046
" /> 
<polyline fill="none;"
points="44057,39983
44057,39594
43668,39594
43668,39983
44057,39983
" /> 
<polyline fill="none;"
points="45435,36046
45435,35657
45046,35657
45046,36046
45435,36046
" /> 
<polyline fill="none;"
points="45435,39983
45435,39594
45046,39594
45046,39983
45435,39983
" /> 
<polyline fill="none;"
points="46142,29038
46142,28649
45753,28649
45753,29038
46142,29038
" /> 
<polyline fill="none;"
points="46813,36046
46813,35657
46424,35657
46424,36046
46813,36046
" /> 
<polyline fill="none;"
points="46813,39983
46813,39594
46424,39594
46424,39983
46813,39983
" /> 
<polyline fill="none;"
points="47142,29038
47142,28649
46753,28649
46753,29038
47142,29038
" /> 
<polyline fill="none;"
points="48142,29038
48142,28649
47753,28649
47753,29038
48142,29038
" /> 
<polyline fill="none;"
points="48191,36046
48191,35657
47801,35657
47801,36046
48191,36046
" /> 
<polyline fill="none;"
points="48191,39983
48191,39594
47801,39594
47801,39983
48191,39983
" /> 
<polyline fill="none;"
points="49142,29038
49142,28649
48753,28649
48753,29038
49142,29038
" /> 
<polyline fill="none;"
points="49569,36046
49569,35657
49179,35657
49179,36046
49569,36046
" /> 
<polyline fill="none;"
points="49569,39983
49569,39594
49179,39594
49179,39983
49569,39983
" /> 
<polyline fill="none;"
points="49742,48038
49742,47649
49353,47649
49353,48038
49742,48038
" /> 
<polyline fill="none;"
points="50142,29038
50142,28649
49753,28649
49753,29038
50142,29038
" /> 
<polyline fill="none;"
points="50742,48038
50742,47649
50353,47649
50353,48038
50742,48038
" /> 
<polyline fill="none;"
points="50947,36046
50947,35657
50557,35657
50557,36046
50947,36046
" /> 
<polyline fill="none;"
points="50947,39983
50947,39594
50557,39594
50557,39983
50947,39983
" /> 
<polyline fill="none;"
points="51142,29038
51142,28649
50753,28649
50753,29038
51142,29038
" /> 
<polyline fill="none;"
points="51742,48038
51742,47649
51353,47649
51353,48038
51742,48038
" /> 
<polyline fill="none;"
points="52142,29038
52142,28649
51753,28649
51753,29038
52142,29038
" /> 
<polyline fill="none;"
points="52325,36046
52325,35657
51935,35657
51935,36046
52325,36046
" /> 
<polyline fill="none;"
points="52325,39983
52325,39594
51935,39594
51935,39983
52325,39983
" /> 
<polyline fill="none;"
points="52742,48038
52742,47649
52353,47649
52353,48038
52742,48038
" /> 
<polyline fill="none;"
points="53142,29038
53142,28649
52753,28649
52753,29038
53142,29038
" /> 
<polyline fill="none;"
points="53703,36046
53703,35657
53313,35657
53313,36046
53703,36046
" /> 
<polyline fill="none;"
points="53703,39983
53703,39594
53313,39594
53313,39983
53703,39983
" /> 
<polyline fill="none;"
points="53742,48038
53742,47649
53353,47649
53353,48038
53742,48038
" /> 
<polyline fill="none;"
points="54142,29038
54142,28649
53753,28649
53753,29038
54142,29038
" /> 
<polyline fill="none;"
points="54742,48038
54742,47649
54353,47649
54353,48038
54742,48038
" /> 
<polyline fill="none;"
points="55081,36046
55081,35657
54691,35657
54691,36046
55081,36046
" /> 
<polyline fill="none;"
points="55081,39983
55081,39594
54691,39594
54691,39983
55081,39983
" /> 
<polyline fill="none;"
points="55142,29038
55142,28649
54753,28649
54753,29038
55142,29038
" /> 
<polyline fill="none;"
points="55742,48038
55742,47649
55353,47649
55353,48038
55742,48038
" /> 
<polyline fill="none;"
points="56459,36046
56459,35657
56069,35657
56069,36046
56459,36046
" /> 
<polyline fill="none;"
points="56459,39983
56459,39594
56069,39594
56069,39983
56459,39983
" /> 
<polyline fill="none;"
points="56742,29038
56742,28649
56353,28649
56353,29038
56742,29038
" /> 
<polyline fill="none;"
points="56742,48038
56742,47649
56353,47649
56353,48038
56742,48038
" /> 
<polyline fill="none;"
points="57742,29038
57742,28649
57353,28649
57353,29038
57742,29038
" /> 
<polyline fill="none;"
points="57837,36046
57837,35657
57447,35657
57447,36046
57837,36046
" /> 
<polyline fill="none;"
points="57837,39983
57837,39594
57447,39594
57447,39983
57837,39983
" /> 
<polyline fill="none;"
points="58742,29038
58742,28649
58353,28649
58353,29038
58742,29038
" /> 
<polyline fill="none;"
points="58742,48038
58742,47649
58353,47649
58353,48038
58742,48038
" /> 
<polyline fill="none;"
points="59215,36046
59215,35657
58825,35657
58825,36046
59215,36046
" /> 
<polyline fill="none;"
points="59215,39983
59215,39594
58825,39594
58825,39983
59215,39983
" /> 
<polyline fill="none;"
points="59742,29038
59742,28649
59353,28649
59353,29038
59742,29038
" /> 
<polyline fill="none;"
points="59742,48038
59742,47649
59353,47649
59353,48038
59742,48038
" /> 
<polyline fill="none;"
points="60593,36046
60593,35657
60203,35657
60203,36046
60593,36046
" /> 
<polyline fill="none;"
points="60593,39983
60593,39594
60203,39594
60203,39983
60593,39983
" /> 
<polyline fill="none;"
points="60742,29038
60742,28649
60353,28649
60353,29038
60742,29038
" /> 
<polyline fill="none;"
points="60742,48038
60742,47649
60353,47649
60353,48038
60742,48038
" /> 
<polyline fill="none;"
points="61742,29038
61742,28649
61353,28649
61353,29038
61742,29038
" /> 
<polyline fill="none;"
points="61742,48038
61742,47649
61353,47649
61353,48038
61742,48038
" /> 
<polyline fill="none;"
points="61971,36046
61971,35657
61581,35657
61581,36046
61971,36046
" /> 
<polyline fill="none;"
points="61971,39983
61971,39594
61581,39594
61581,39983
61971,39983
" /> 
<polyline fill="none;"
points="62742,29038
62742,28649
62353,28649
62353,29038
62742,29038
" /> 
<polyline fill="none;"
points="62742,48038
62742,47649
62353,47649
62353,48038
62742,48038
" /> 
<polyline fill="none;"
points="63349,36046
63349,35657
62959,35657
62959,36046
63349,36046
" /> 
<polyline fill="none;"
points="63349,39983
63349,39594
62959,39594
62959,39983
63349,39983
" /> 
<polyline fill="none;"
points="63742,29038
63742,28649
63353,28649
63353,29038
63742,29038
" /> 
<polyline fill="none;"
points="63742,48038
63742,47649
63353,47649
63353,48038
63742,48038
" /> 
<polyline fill="none;"
points="64727,36046
64727,35657
64337,35657
64337,36046
64727,36046
" /> 
<polyline fill="none;"
points="64727,39983
64727,39594
64337,39594
64337,39983
64727,39983
" /> 
<polyline fill="none;"
points="66105,36046
66105,35657
65715,35657
65715,36046
66105,36046
" /> 
<polyline fill="none;"
points="66105,39983
66105,39594
65715,39594
65715,39983
66105,39983
" /> 
<polyline fill="none;"
points="67483,36046
67483,35657
67093,35657
67093,36046
67483,36046
" /> 
<polyline fill="none;"
points="67483,39983
67483,39594
67093,39594
67093,39983
67483,39983
" /> 
<polyline fill="none;"
points="74094,35994
74094,35605
73705,35605
73705,35994
74094,35994
" /> 
<polyline fill="none;"
points="74094,36979
74094,36589
73705,36589
73705,36979
74094,36979
" /> 
<polyline fill="none;"
points="74094,39510
74094,39120
73705,39120
73705,39510
74094,39510
" /> 
<polyline fill="none;"
points="74094,40494
74094,40105
73705,40105
73705,40494
74094,40494
" /> 
</g>
<g style="fill:#000000; fill-opacity:0.0; 
stroke:#000000; stroke-width:118.11; stroke-opacity:1; 
stroke-linecap:round; stroke-linejoin:round;">
<path d="M39228 51075
L39228 49894
L39509 49894
L39678 49950
L39790 50063
L39846 50175
L39902 50400
L39902 50569
L39846 50794
L39790 50906
L39678 51019
L39509 51075
L39228 51075
" />
<path d="M40409 51075
L40409 50288
" />
<path d="M40409 50513
L40465 50400
L40521 50344
L40634 50288
L40746 50288
" />
<path d="M41140 51075
L41140 50288
" />
<path d="M41140 49894
L41084 49950
L41140 50007
L41196 49950
L41140 49894
L41140 50007
" />
<path d="M41871 51075
L41758 51019
L41702 50906
L41702 49894
" />
<path d="M42490 51075
L42377 51019
L42321 50906
L42321 49894
" />
<path d="M43839 51075
L43839 49894
L44233 50738
L44627 49894
L44627 51075
" />
<path d="M45696 51075
L45696 50456
L45639 50344
L45527 50288
L45302 50288
L45189 50344
" />
<path d="M45696 51019
L45583 51075
L45302 51075
L45189 51019
L45133 50906
L45133 50794
L45189 50681
L45302 50625
L45583 50625
L45696 50569
" />
<path d="M46258 50288
L46258 51469
" />
<path d="M46258 50344
L46370 50288
L46595 50288
L46708 50344
L46764 50400
L46820 50513
L46820 50850
L46764 50963
L46708 51019
L46595 51075
L46370 51075
L46258 51019
" />
<path d="M47327 50963
L47383 51019
L47327 51075
L47270 51019
L47327 50963
L47327 51075
" />
<path d="M47327 50344
L47383 50400
L47327 50456
L47270 50400
L47327 50344
L47327 50456
" />
<path d="M37923 52903
L38159 53139
" />
<path d="M38159 52903
L37923 53139
" />
<path d="M39453 52374
L39565 52374
L39678 52431
L39734 52487
L39790 52599
L39846 52824
L39846 53106
L39790 53330
L39734 53443
L39678 53499
L39565 53555
L39453 53555
L39340 53499
L39284 53443
L39228 53330
L39171 53106
L39171 52824
L39228 52599
L39284 52487
L39340 52431
L39453 52374
" />
<path d="M40352 53443
L40409 53499
L40352 53555
L40296 53499
L40352 53443
L40352 53555
" />
<path d="M41421 52374
L41196 52374
L41084 52431
L41027 52487
L40915 52656
L40859 52881
L40859 53330
L40915 53443
L40971 53499
L41084 53555
L41309 53555
L41421 53499
L41477 53443
L41534 53330
L41534 53049
L41477 52937
L41421 52881
L41309 52824
L41084 52824
L40971 52881
L40915 52937
L40859 53049
" />
<path d="M42265 52374
L42377 52374
L42490 52431
L42546 52487
L42602 52599
L42658 52824
L42658 53106
L42602 53330
L42546 53443
L42490 53499
L42377 53555
L42265 53555
L42152 53499
L42096 53443
L42040 53330
L41983 53106
L41983 52824
L42040 52599
L42096 52487
L42152 52431
L42265 52374
" />
<path d="M43165 53555
L43165 52768
" />
<path d="M43165 52881
L43221 52824
L43333 52768
L43502 52768
L43615 52824
L43671 52937
L43671 53555
" />
<path d="M43671 52937
L43727 52824
L43839 52768
L44008 52768
L44121 52824
L44177 52937
L44177 53555
" />
<path d="M44739 53555
L44739 52768
" />
<path d="M44739 52881
L44796 52824
L44908 52768
L45077 52768
L45189 52824
L45246 52937
L45246 53555
" />
<path d="M45246 52937
L45302 52824
L45414 52768
L45583 52768
L45696 52824
L45752 52937
L45752 53555
" />
<path d="M48058 52318
L47045 53837
" />
<path d="M49576 52374
L49689 52374
L49801 52431
L49857 52487
L49914 52599
L49970 52824
L49970 53106
L49914 53330
L49857 53443
L49801 53499
L49689 53555
L49576 53555
L49464 53499
L49408 53443
L49351 53330
L49295 53106
L49295 52824
L49351 52599
L49408 52487
L49464 52431
L49576 52374
" />
<path d="M50476 53443
L50532 53499
L50476 53555
L50420 53499
L50476 53443
L50476 53555
" />
<path d="M51264 52374
L51376 52374
L51489 52431
L51545 52487
L51601 52599
L51657 52824
L51657 53106
L51601 53330
L51545 53443
L51489 53499
L51376 53555
L51264 53555
L51151 53499
L51095 53443
L51039 53330
L50982 53106
L50982 52824
L51039 52599
L51095 52487
L51151 52431
L51264 52374
" />
<path d="M52107 52487
L52163 52431
L52276 52374
L52557 52374
L52670 52431
L52726 52487
L52782 52599
L52782 52712
L52726 52881
L52051 53555
L52782 53555
" />
<path d="M53794 52768
L53794 53555
" />
<path d="M53513 52318
L53232 53162
L53963 53162
" />
<path d="M54357 52374
L54357 52599
" />
<path d="M54807 52374
L54807 52599
" />
<path d="M56550 54005
L56494 53949
L56382 53780
L56325 53668
L56269 53499
L56213 53218
L56213 52993
L56269 52712
L56325 52543
L56382 52431
L56494 52262
L56550 52206
" />
<path d="M56888 52374
L57619 52374
L57225 52824
L57394 52824
L57507 52881
L57563 52937
L57619 53049
L57619 53330
L57563 53443
L57507 53499
L57394 53555
L57057 53555
L56944 53499
L56888 53443
" />
<path d="M59025 53555
L59025 52374
" />
<path d="M59531 53555
L59531 52937
L59475 52824
L59363 52768
L59194 52768
L59081 52824
L59025 52881
" />
<path d="M60262 53555
L60150 53499
L60094 53443
L60037 53330
L60037 52993
L60094 52881
L60150 52824
L60262 52768
L60431 52768
L60544 52824
L60600 52881
L60656 52993
L60656 53330
L60600 53443
L60544 53499
L60431 53555
L60262 53555
" />
<path d="M61331 53555
L61219 53499
L61162 53387
L61162 52374
" />
<path d="M62231 53499
L62118 53555
L61893 53555
L61781 53499
L61725 53387
L61725 52937
L61781 52824
L61893 52768
L62118 52768
L62231 52824
L62287 52937
L62287 53049
L61725 53162
" />
<path d="M62737 53499
L62850 53555
L63075 53555
L63187 53499
L63243 53387
L63243 53330
L63187 53218
L63075 53162
L62906 53162
L62793 53106
L62737 52993
L62737 52937
L62793 52824
L62906 52768
L63075 52768
L63187 52824
" />
<path d="M63637 54005
L63693 53949
L63806 53780
L63862 53668
L63918 53499
L63974 53218
L63974 52993
L63918 52712
L63862 52543
L63806 52431
L63693 52262
L63637 52206
" />
<circle cx="37962.6" cy="54580.7" r="196.85" /> 
<path d="M39846 55115
L39171 55115
" />
<path d="M39509 55115
L39509 53933
L39396 54102
L39284 54215
L39171 54271
" />
<path d="M40352 55002
L40409 55058
L40352 55115
L40296 55058
L40352 55002
L40352 55115
" />
<path d="M41140 53933
L41252 53933
L41365 53990
L41421 54046
L41477 54158
L41534 54383
L41534 54665
L41477 54890
L41421 55002
L41365 55058
L41252 55115
L41140 55115
L41027 55058
L40971 55002
L40915 54890
L40859 54665
L40859 54383
L40915 54158
L40971 54046
L41027 53990
L41140 53933
" />
<path d="M42265 53933
L42377 53933
L42490 53990
L42546 54046
L42602 54158
L42658 54383
L42658 54665
L42602 54890
L42546 55002
L42490 55058
L42377 55115
L42265 55115
L42152 55058
L42096 55002
L42040 54890
L41983 54665
L41983 54383
L42040 54158
L42096 54046
L42152 53990
L42265 53933
" />
<path d="M43165 55115
L43165 54327
" />
<path d="M43165 54440
L43221 54383
L43333 54327
L43502 54327
L43615 54383
L43671 54496
L43671 55115
" />
<path d="M43671 54496
L43727 54383
L43839 54327
L44008 54327
L44121 54383
L44177 54496
L44177 55115
" />
<path d="M44739 55115
L44739 54327
" />
<path d="M44739 54440
L44796 54383
L44908 54327
L45077 54327
L45189 54383
L45246 54496
L45246 55115
" />
<path d="M45246 54496
L45302 54383
L45414 54327
L45583 54327
L45696 54383
L45752 54496
L45752 55115
" />
<path d="M48058 53877
L47045 55396
" />
<path d="M49576 53933
L49689 53933
L49801 53990
L49857 54046
L49914 54158
L49970 54383
L49970 54665
L49914 54890
L49857 55002
L49801 55058
L49689 55115
L49576 55115
L49464 55058
L49408 55002
L49351 54890
L49295 54665
L49295 54383
L49351 54158
L49408 54046
L49464 53990
L49576 53933
" />
<path d="M50476 55002
L50532 55058
L50476 55115
L50420 55058
L50476 55002
L50476 55115
" />
<path d="M51264 53933
L51376 53933
L51489 53990
L51545 54046
L51601 54158
L51657 54383
L51657 54665
L51601 54890
L51545 55002
L51489 55058
L51376 55115
L51264 55115
L51151 55058
L51095 55002
L51039 54890
L50982 54665
L50982 54383
L51039 54158
L51095 54046
L51151 53990
L51264 53933
" />
<path d="M52051 53933
L52782 53933
L52388 54383
L52557 54383
L52670 54440
L52726 54496
L52782 54608
L52782 54890
L52726 55002
L52670 55058
L52557 55115
L52220 55115
L52107 55058
L52051 55002
" />
<path d="M53345 55115
L53570 55115
L53682 55058
L53738 55002
L53851 54833
L53907 54608
L53907 54158
L53851 54046
L53794 53990
L53682 53933
L53457 53933
L53345 53990
L53288 54046
L53232 54158
L53232 54440
L53288 54552
L53345 54608
L53457 54665
L53682 54665
L53794 54608
L53851 54552
L53907 54440
" />
<path d="M54357 53933
L54357 54158
" />
<path d="M54807 53933
L54807 54158
" />
<path d="M56550 55564
L56494 55508
L56382 55339
L56325 55227
L56269 55058
L56213 54777
L56213 54552
L56269 54271
L56325 54102
L56382 53990
L56494 53821
L56550 53765
" />
<path d="M57507 53933
L57282 53933
L57169 53990
L57113 54046
L57000 54215
L56944 54440
L56944 54890
L57000 55002
L57057 55058
L57169 55115
L57394 55115
L57507 55058
L57563 55002
L57619 54890
L57619 54608
L57563 54496
L57507 54440
L57394 54383
L57169 54383
L57057 54440
L57000 54496
L56944 54608
" />
<path d="M59025 55115
L59025 53933
" />
<path d="M59531 55115
L59531 54496
L59475 54383
L59363 54327
L59194 54327
L59081 54383
L59025 54440
" />
<path d="M60262 55115
L60150 55058
L60094 55002
L60037 54890
L60037 54552
L60094 54440
L60150 54383
L60262 54327
L60431 54327
L60544 54383
L60600 54440
L60656 54552
L60656 54890
L60600 55002
L60544 55058
L60431 55115
L60262 55115
" />
<path d="M61331 55115
L61219 55058
L61162 54946
L61162 53933
" />
<path d="M62231 55058
L62118 55115
L61893 55115
L61781 55058
L61725 54946
L61725 54496
L61781 54383
L61893 54327
L62118 54327
L62231 54383
L62287 54496
L62287 54608
L61725 54721
" />
<path d="M62737 55058
L62850 55115
L63075 55115
L63187 55058
L63243 54946
L63243 54890
L63187 54777
L63075 54721
L62906 54721
L62793 54665
L62737 54552
L62737 54496
L62793 54383
L62906 54327
L63075 54327
L63187 54383
" />
<path d="M63637 55564
L63693 55508
L63806 55339
L63862 55227
L63918 55058
L63974 54777
L63974 54552
L63918 54271
L63862 54102
L63806 53990
L63693 53821
L63637 53765
" />
<path d="M37934 55914
L37934 56364
" />
<path d="M37709 56139
L38159 56139
" />
<path d="M39846 56674
L39171 56674
" />
<path d="M39509 56674
L39509 55492
L39396 55661
L39284 55774
L39171 55830
" />
<path d="M40352 56561
L40409 56617
L40352 56674
L40296 56617
L40352 56561
L40352 56674
" />
<path d="M41534 56674
L40859 56674
" />
<path d="M41196 56674
L41196 55492
L41084 55661
L40971 55774
L40859 55830
" />
<path d="M42546 55886
L42546 56674
" />
<path d="M42265 55436
L41983 56280
L42715 56280
" />
<path d="M43165 56674
L43165 55886
" />
<path d="M43165 55999
L43221 55942
L43333 55886
L43502 55886
L43615 55942
L43671 56055
L43671 56674
" />
<path d="M43671 56055
L43727 55942
L43839 55886
L44008 55886
L44121 55942
L44177 56055
L44177 56674
" />
<path d="M44739 56674
L44739 55886
" />
<path d="M44739 55999
L44796 55942
L44908 55886
L45077 55886
L45189 55942
L45246 56055
L45246 56674
" />
<path d="M45246 56055
L45302 55942
L45414 55886
L45583 55886
L45696 55942
L45752 56055
L45752 56674
" />
<path d="M48058 55436
L47045 56955
" />
<path d="M49576 55492
L49689 55492
L49801 55549
L49857 55605
L49914 55717
L49970 55942
L49970 56224
L49914 56449
L49857 56561
L49801 56617
L49689 56674
L49576 56674
L49464 56617
L49408 56561
L49351 56449
L49295 56224
L49295 55942
L49351 55717
L49408 55605
L49464 55549
L49576 55492
" />
<path d="M50476 56561
L50532 56617
L50476 56674
L50420 56617
L50476 56561
L50476 56674
" />
<path d="M51264 55492
L51376 55492
L51489 55549
L51545 55605
L51601 55717
L51657 55942
L51657 56224
L51601 56449
L51545 56561
L51489 56617
L51376 56674
L51264 56674
L51151 56617
L51095 56561
L51039 56449
L50982 56224
L50982 55942
L51039 55717
L51095 55605
L51151 55549
L51264 55492
" />
<path d="M52670 55886
L52670 56674
" />
<path d="M52388 55436
L52107 56280
L52838 56280
" />
<path d="M53851 55492
L53288 55492
L53232 56055
L53288 55999
L53401 55942
L53682 55942
L53794 55999
L53851 56055
L53907 56167
L53907 56449
L53851 56561
L53794 56617
L53682 56674
L53401 56674
L53288 56617
L53232 56561
" />
<path d="M54357 55492
L54357 55717
" />
<path d="M54807 55492
L54807 55717
" />
<path d="M56550 57124
L56494 57067
L56382 56899
L56325 56786
L56269 56617
L56213 56336
L56213 56111
L56269 55830
L56325 55661
L56382 55549
L56494 55380
L56550 55324
" />
<path d="M56888 55492
L57619 55492
L57225 55942
L57394 55942
L57507 55999
L57563 56055
L57619 56167
L57619 56449
L57563 56561
L57507 56617
L57394 56674
L57057 56674
L56944 56617
L56888 56561
" />
<path d="M59025 56674
L59025 55492
" />
<path d="M59531 56674
L59531 56055
L59475 55942
L59363 55886
L59194 55886
L59081 55942
L59025 55999
" />
<path d="M60262 56674
L60150 56617
L60094 56561
L60037 56449
L60037 56111
L60094 55999
L60150 55942
L60262 55886
L60431 55886
L60544 55942
L60600 55999
L60656 56111
L60656 56449
L60600 56561
L60544 56617
L60431 56674
L60262 56674
" />
<path d="M61331 56674
L61219 56617
L61162 56505
L61162 55492
" />
<path d="M62231 56617
L62118 56674
L61893 56674
L61781 56617
L61725 56505
L61725 56055
L61781 55942
L61893 55886
L62118 55886
L62231 55942
L62287 56055
L62287 56167
L61725 56280
" />
<path d="M62737 56617
L62850 56674
L63075 56674
L63187 56617
L63243 56505
L63243 56449
L63187 56336
L63075 56280
L62906 56280
L62793 56224
L62737 56111
L62737 56055
L62793 55942
L62906 55886
L63075 55886
L63187 55942
" />
<path d="M63637 57124
L63693 57067
L63806 56899
L63862 56786
L63918 56617
L63974 56336
L63974 56111
L63918 55830
L63862 55661
L63806 55549
L63693 55380
L63637 55324
" />
<polyline fill="none;"
points="38078,57893
38078,57503
37688,57503
37688,57893
38078,57893
" /> 
<path d="M39846 58233
L39171 58233
" />
<path d="M39509 58233
L39509 57052
L39396 57220
L39284 57333
L39171 57389
" />
<path d="M40352 58120
L40409 58176
L40352 58233
L40296 58176
L40352 58120
L40352 58233
" />
<path d="M41421 57445
L41421 58233
" />
<path d="M41140 56995
L40859 57839
L41590 57839
" />
<path d="M42265 57052
L42377 57052
L42490 57108
L42546 57164
L42602 57276
L42658 57501
L42658 57783
L42602 58008
L42546 58120
L42490 58176
L42377 58233
L42265 58233
L42152 58176
L42096 58120
L42040 58008
L41983 57783
L41983 57501
L42040 57276
L42096 57164
L42152 57108
L42265 57052
" />
<path d="M43165 58233
L43165 57445
" />
<path d="M43165 57558
L43221 57501
L43333 57445
L43502 57445
L43615 57501
L43671 57614
L43671 58233
" />
<path d="M43671 57614
L43727 57501
L43839 57445
L44008 57445
L44121 57501
L44177 57614
L44177 58233
" />
<path d="M44739 58233
L44739 57445
" />
<path d="M44739 57558
L44796 57501
L44908 57445
L45077 57445
L45189 57501
L45246 57614
L45246 58233
" />
<path d="M45246 57614
L45302 57501
L45414 57445
L45583 57445
L45696 57501
L45752 57614
L45752 58233
" />
<path d="M48058 56995
L47045 58514
" />
<path d="M49576 57052
L49689 57052
L49801 57108
L49857 57164
L49914 57276
L49970 57501
L49970 57783
L49914 58008
L49857 58120
L49801 58176
L49689 58233
L49576 58233
L49464 58176
L49408 58120
L49351 58008
L49295 57783
L49295 57501
L49351 57276
L49408 57164
L49464 57108
L49576 57052
" />
<path d="M50476 58120
L50532 58176
L50476 58233
L50420 58176
L50476 58120
L50476 58233
" />
<path d="M51264 57052
L51376 57052
L51489 57108
L51545 57164
L51601 57276
L51657 57501
L51657 57783
L51601 58008
L51545 58120
L51489 58176
L51376 58233
L51264 58233
L51151 58176
L51095 58120
L51039 58008
L50982 57783
L50982 57501
L51039 57276
L51095 57164
L51151 57108
L51264 57052
" />
<path d="M52726 57052
L52163 57052
L52107 57614
L52163 57558
L52276 57501
L52557 57501
L52670 57558
L52726 57614
L52782 57726
L52782 58008
L52726 58120
L52670 58176
L52557 58233
L52276 58233
L52163 58176
L52107 58120
" />
<path d="M53851 57052
L53288 57052
L53232 57614
L53288 57558
L53401 57501
L53682 57501
L53794 57558
L53851 57614
L53907 57726
L53907 58008
L53851 58120
L53794 58176
L53682 58233
L53401 58233
L53288 58176
L53232 58120
" />
<path d="M54357 57052
L54357 57276
" />
<path d="M54807 57052
L54807 57276
" />
<path d="M56550 58683
L56494 58626
L56382 58458
L56325 58345
L56269 58176
L56213 57895
L56213 57670
L56269 57389
L56325 57220
L56382 57108
L56494 56939
L56550 56883
" />
<path d="M56888 57052
L57675 57052
L57169 58233
" />
<path d="M58631 57052
L58406 57052
L58294 57108
L58238 57164
L58125 57333
L58069 57558
L58069 58008
L58125 58120
L58181 58176
L58294 58233
L58519 58233
L58631 58176
L58688 58120
L58744 58008
L58744 57726
L58688 57614
L58631 57558
L58519 57501
L58294 57501
L58181 57558
L58125 57614
L58069 57726
" />
<path d="M60150 58233
L60150 57052
" />
<path d="M60656 58233
L60656 57614
L60600 57501
L60487 57445
L60319 57445
L60206 57501
L60150 57558
" />
<path d="M61387 58233
L61275 58176
L61219 58120
L61162 58008
L61162 57670
L61219 57558
L61275 57501
L61387 57445
L61556 57445
L61669 57501
L61725 57558
L61781 57670
L61781 58008
L61725 58120
L61669 58176
L61556 58233
L61387 58233
" />
<path d="M62456 58233
L62343 58176
L62287 58064
L62287 57052
" />
<path d="M63356 58176
L63243 58233
L63018 58233
L62906 58176
L62850 58064
L62850 57614
L62906 57501
L63018 57445
L63243 57445
L63356 57501
L63412 57614
L63412 57726
L62850 57839
" />
<path d="M63862 58176
L63974 58233
L64199 58233
L64312 58176
L64368 58064
L64368 58008
L64312 57895
L64199 57839
L64031 57839
L63918 57783
L63862 57670
L63862 57614
L63918 57501
L64031 57445
L64199 57445
L64312 57501
" />
<path d="M64762 58683
L64818 58626
L64931 58458
L64987 58345
L65043 58176
L65099 57895
L65099 57670
L65043 57389
L64987 57220
L64931 57108
L64818 56939
L64762 56883
" />
</g> 
</svg>
