<?xml version="1.0" standalone="no"?>
 <!DOCTYPE svg PUBLIC "-//W3C//DTD SVG 1.1//EN" 
 "http://www.w3.org/Graphics/SVG/1.1/DTD/svg11.dtd"> 
<svg xmlns="http://www.w3.org/2000/svg" version="1.1" 
    width="29.7002cm" height="21.0007cm" viewBox="0 0 116930 82680 ">
<title>SVG Picture created as kcnc-grbl_shield-pcb-Cmts.User.svg date 2017/06/24 23:27:31 </title>
  <desc>Picture generated by PCBNEW </desc>
<g style="fill:#000000; fill-opacity:1;stroke:#000000; stroke-opacity:1;
stroke-linecap:round; stroke-linejoin:round; "
 transform="translate(0 0) scale(1 1)">
</g>
<g style="fill:#000000; fill-opacity:0.0; 
stroke:#000000; stroke-width:-0.000393701; stroke-opacity:1; 
stroke-linecap:round; stroke-linejoin:round;">
</g>
<g style="fill:#000000; fill-opacity:0.0; 
stroke:#000000; stroke-width:59.0551; stroke-opacity:1; 
stroke-linecap:round; stroke-linejoin:round;">
<rect x="69685.9" y="65357.2" width="42519.7" height="12598.4" rx="0" />
<rect x="3937.01" y="3937.01" width="109056" height="74806" rx="0" />
<rect x="4724.41" y="4724.41" width="107481" height="73231.2" rx="0" />
<path d="M23622 4724
L23622 3937
" />
<path d="M43307 4724
L43307 3937
" />
<path d="M62992 4724
L62992 3937
" />
<path d="M82677 4724
L82677 3937
" />
<path d="M102362 4724
L102362 3937
" />
<path d="M14169 4562
L13877 4562
" />
<path d="M14023 4562
L14023 4050
L13974 4123
L13925 4172
L13877 4196
" />
<path d="M33562 4099
L33586 4074
L33635 4050
L33757 4050
L33805 4074
L33830 4099
L33854 4147
L33854 4196
L33830 4269
L33537 4562
L33854 4562
" />
<path d="M53222 4050
L53539 4050
L53368 4245
L53442 4245
L53490 4269
L53515 4294
L53539 4342
L53539 4464
L53515 4513
L53490 4537
L53442 4562
L53295 4562
L53247 4537
L53222 4513
" />
<path d="M73175 4221
L73175 4562
" />
<path d="M73053 4026
L72932 4391
L73248 4391
" />
<path d="M92885 4050
L92641 4050
L92617 4294
L92641 4269
L92690 4245
L92812 4245
L92860 4269
L92885 4294
L92909 4342
L92909 4464
L92885 4513
L92860 4537
L92812 4562
L92690 4562
L92641 4537
L92617 4513
" />
<path d="M112545 4050
L112448 4050
L112399 4074
L112375 4099
L112326 4172
L112302 4269
L112302 4464
L112326 4513
L112350 4537
L112399 4562
L112497 4562
L112545 4537
L112570 4513
L112594 4464
L112594 4342
L112570 4294
L112545 4269
L112497 4245
L112399 4245
L112350 4269
L112326 4294
L112302 4342
" />
<path d="M23622 77955
L23622 78742
" />
<path d="M43307 77955
L43307 78742
" />
<path d="M62992 77955
L62992 78742
" />
<path d="M82677 77955
L82677 78742
" />
<path d="M102362 77955
L102362 78742
" />
<path d="M14169 78580
L13877 78580
" />
<path d="M14023 78580
L14023 78069
L13974 78142
L13925 78190
L13877 78215
" />
<path d="M33562 78117
L33586 78093
L33635 78069
L33757 78069
L33805 78093
L33830 78117
L33854 78166
L33854 78215
L33830 78288
L33537 78580
L33854 78580
" />
<path d="M53222 78069
L53539 78069
L53368 78263
L53442 78263
L53490 78288
L53515 78312
L53539 78361
L53539 78483
L53515 78532
L53490 78556
L53442 78580
L53295 78580
L53247 78556
L53222 78532
" />
<path d="M73175 78239
L73175 78580
" />
<path d="M73053 78044
L72932 78410
L73248 78410
" />
<path d="M92885 78069
L92641 78069
L92617 78312
L92641 78288
L92690 78263
L92812 78263
L92860 78288
L92885 78312
L92909 78361
L92909 78483
L92885 78532
L92860 78556
L92812 78580
L92690 78580
L92641 78556
L92617 78532
" />
<path d="M112545 78069
L112448 78069
L112399 78093
L112375 78117
L112326 78190
L112302 78288
L112302 78483
L112326 78532
L112350 78556
L112399 78580
L112497 78580
L112545 78556
L112570 78532
L112594 78483
L112594 78361
L112570 78312
L112545 78288
L112497 78263
L112399 78263
L112350 78288
L112326 78312
L112302 78361
" />
<path d="M3937 23622
L4724 23622
" />
<path d="M3937 43307
L4724 43307
" />
<path d="M3937 62992
L4724 62992
" />
<path d="M4208 13864
L4452 13864
" />
<path d="M4160 14011
L4330 13499
L4501 14011
" />
<path d="M4367 33428
L4440 33452
L4464 33476
L4489 33525
L4489 33598
L4464 33647
L4440 33671
L4391 33696
L4196 33696
L4196 33184
L4367 33184
L4416 33208
L4440 33233
L4464 33281
L4464 33330
L4440 33379
L4416 33403
L4367 33428
L4196 33428
" />
<path d="M4489 53332
L4464 53356
L4391 53381
L4342 53381
L4269 53356
L4221 53308
L4196 53259
L4172 53161
L4172 53088
L4196 52991
L4221 52942
L4269 52893
L4342 52869
L4391 52869
L4464 52893
L4489 52918
" />
<path d="M4196 73066
L4196 72554
L4318 72554
L4391 72578
L4440 72627
L4464 72676
L4489 72773
L4489 72846
L4464 72944
L4440 72993
L4391 73041
L4318 73066
L4196 73066
" />
<path d="M112992 23622
L112205 23622
" />
<path d="M112992 43307
L112205 43307
" />
<path d="M112992 62992
L112205 62992
" />
<path d="M112477 13864
L112721 13864
" />
<path d="M112428 14011
L112599 13499
L112769 14011
" />
<path d="M112635 33428
L112708 33452
L112733 33476
L112757 33525
L112757 33598
L112733 33647
L112708 33671
L112660 33696
L112465 33696
L112465 33184
L112635 33184
L112684 33208
L112708 33233
L112733 33281
L112733 33330
L112708 33379
L112684 33403
L112635 33428
L112465 33428
" />
<path d="M112757 53332
L112733 53356
L112660 53381
L112611 53381
L112538 53356
L112489 53308
L112465 53259
L112440 53161
L112440 53088
L112465 52991
L112489 52942
L112538 52893
L112611 52869
L112660 52869
L112733 52893
L112757 52918
" />
<path d="M112465 73066
L112465 72554
L112587 72554
L112660 72578
L112708 72627
L112733 72676
L112757 72773
L112757 72846
L112733 72944
L112708 72993
L112660 73041
L112587 73066
L112465 73066
" />
<path d="M78881 76293
L78881 75703
L79022 75703
L79106 75731
L79162 75787
L79190 75843
L79219 75956
L79219 76040
L79190 76153
L79162 76209
L79106 76265
L79022 76293
L78881 76293
" />
<path d="M79725 76293
L79725 75984
L79697 75928
L79640 75899
L79528 75899
L79472 75928
" />
<path d="M79725 76265
L79669 76293
L79528 76293
L79472 76265
L79444 76209
L79444 76153
L79472 76096
L79528 76068
L79669 76068
L79725 76040
" />
<path d="M79922 75899
L80147 75899
" />
<path d="M80006 75703
L80006 76209
L80034 76265
L80090 76293
L80147 76293
" />
<path d="M80568 76265
L80512 76293
L80400 76293
L80343 76265
L80315 76209
L80315 75984
L80343 75928
L80400 75899
L80512 75899
L80568 75928
L80597 75984
L80597 76040
L80315 76096
" />
<path d="M80850 76237
L80878 76265
L80850 76293
L80822 76265
L80850 76237
L80850 76293
" />
<path d="M80850 75928
L80878 75956
L80850 75984
L80822 75956
L80850 75928
L80850 75984
" />
<path d="M69685 76577
L112205 76577
" />
<path d="M70220 77395
L70220 76805
" />
<path d="M70557 77395
L70304 77058
" />
<path d="M70557 76805
L70220 77142
" />
<path d="M70810 77395
L70810 77002
" />
<path d="M70810 76805
L70782 76833
L70810 76861
L70838 76833
L70810 76805
L70810 76861
" />
<path d="M71429 77339
L71401 77367
L71316 77395
L71260 77395
L71176 77367
L71120 77311
L71091 77255
L71063 77142
L71063 77058
L71091 76946
L71120 76889
L71176 76833
L71260 76805
L71316 76805
L71401 76833
L71429 76861
" />
<path d="M71935 77395
L71935 77086
L71907 77030
L71851 77002
L71738 77002
L71682 77030
" />
<path d="M71935 77367
L71879 77395
L71738 77395
L71682 77367
L71654 77311
L71654 77255
L71682 77199
L71738 77171
L71879 77171
L71935 77142
" />
<path d="M72469 77395
L72469 76805
" />
<path d="M72469 77367
L72413 77395
L72301 77395
L72244 77367
L72216 77339
L72188 77283
L72188 77114
L72216 77058
L72244 77030
L72301 77002
L72413 77002
L72469 77030
" />
<path d="M73201 77086
L73397 77086
" />
<path d="M73482 77395
L73201 77395
L73201 76805
L73482 76805
" />
<path d="M73735 77339
L73763 77367
L73735 77395
L73707 77367
L73735 77339
L73735 77395
" />
<path d="M74016 77395
L74016 76805
L74157 76805
L74241 76833
L74297 76889
L74325 76946
L74354 77058
L74354 77142
L74325 77255
L74297 77311
L74241 77367
L74157 77395
L74016 77395
" />
<path d="M74607 77339
L74635 77367
L74607 77395
L74579 77367
L74607 77339
L74607 77395
" />
<path d="M74860 77227
L75141 77227
" />
<path d="M74804 77395
L75000 76805
L75197 77395
" />
<path d="M75394 77339
L75422 77367
L75394 77395
L75366 77367
L75394 77339
L75394 77395
" />
<path d="M76575 77395
L76575 76805
" />
<path d="M76631 77171
L76800 77395
" />
<path d="M76800 77002
L76575 77227
" />
<path d="M77053 77395
L77053 77002
" />
<path d="M77053 76805
L77025 76833
L77053 76861
L77081 76833
L77053 76805
L77053 76861
" />
<path d="M77588 77367
L77531 77395
L77419 77395
L77363 77367
L77334 77339
L77306 77283
L77306 77114
L77334 77058
L77363 77030
L77419 77002
L77531 77002
L77588 77030
" />
<path d="M78094 77395
L78094 77086
L78066 77030
L78009 77002
L77897 77002
L77841 77030
" />
<path d="M78094 77367
L78037 77395
L77897 77395
L77841 77367
L77813 77311
L77813 77255
L77841 77199
L77897 77171
L78037 77171
L78094 77142
" />
<path d="M78628 77395
L78628 76805
" />
<path d="M78628 77367
L78572 77395
L78459 77395
L78403 77367
L78375 77339
L78347 77283
L78347 77114
L78375 77058
L78403 77030
L78459 77002
L78572 77002
L78628 77030
" />
<path d="M79612 77002
L79612 77395
" />
<path d="M79472 76777
L79331 77199
L79697 77199
" />
<path d="M79922 77339
L79950 77367
L79922 77395
L79894 77367
L79922 77339
L79922 77395
" />
<path d="M80315 76805
L80372 76805
L80428 76833
L80456 76861
L80484 76917
L80512 77030
L80512 77171
L80484 77283
L80456 77339
L80428 77367
L80372 77395
L80315 77395
L80259 77367
L80231 77339
L80203 77283
L80175 77171
L80175 77030
L80203 76917
L80231 76861
L80259 76833
L80315 76805
" />
<path d="M80765 77339
L80793 77367
L80765 77395
L80737 77367
L80765 77339
L80765 77395
" />
<path d="M81300 77002
L81300 77395
" />
<path d="M81159 76777
L81018 77199
L81384 77199
" />
<path d="M81609 77171
L82059 77171
" />
<path d="M82312 77367
L82368 77395
L82481 77395
L82537 77367
L82565 77311
L82565 77283
L82537 77227
L82481 77199
L82396 77199
L82340 77171
L82312 77114
L82312 77086
L82340 77030
L82396 77002
L82481 77002
L82537 77030
" />
<path d="M82734 77002
L82959 77002
" />
<path d="M82818 76805
L82818 77311
L82846 77367
L82903 77395
L82959 77395
" />
<path d="M83409 77395
L83409 77086
L83381 77030
L83324 77002
L83212 77002
L83156 77030
" />
<path d="M83409 77367
L83352 77395
L83212 77395
L83156 77367
L83127 77311
L83127 77255
L83156 77199
L83212 77171
L83352 77171
L83409 77142
" />
<path d="M83690 77395
L83690 76805
" />
<path d="M83690 77030
L83746 77002
L83859 77002
L83915 77030
L83943 77058
L83971 77114
L83971 77283
L83943 77339
L83915 77367
L83859 77395
L83746 77395
L83690 77367
" />
<path d="M84309 77395
L84252 77367
L84224 77311
L84224 76805
" />
<path d="M84759 77367
L84702 77395
L84590 77395
L84534 77367
L84505 77311
L84505 77086
L84534 77030
L84590 77002
L84702 77002
L84759 77030
L84787 77086
L84787 77142
L84505 77199
" />
<path d="M69685 75396
L112205 75396
" />
</g>
<g style="fill:#000000; fill-opacity:0.0; 
stroke:#000000; stroke-width:118.11; stroke-opacity:1; 
stroke-linecap:round; stroke-linejoin:round;">
<path d="M104022 76293
L103825 76012
" />
<path d="M103684 76293
L103684 75703
L103909 75703
L103965 75731
L103994 75759
L104022 75815
L104022 75899
L103994 75956
L103965 75984
L103909 76012
L103684 76012
" />
<path d="M104500 76265
L104444 76293
L104331 76293
L104275 76265
L104247 76209
L104247 75984
L104275 75928
L104331 75899
L104444 75899
L104500 75928
L104528 75984
L104528 76040
L104247 76096
" />
<path d="M104725 75899
L104865 76293
L105006 75899
" />
<path d="M105231 76237
L105259 76265
L105231 76293
L105203 76265
L105231 76237
L105231 76293
" />
<path d="M105231 75928
L105259 75956
L105231 75984
L105203 75956
L105231 75928
L105231 75984
" />
</g>
<g style="fill:#000000; fill-opacity:0.0; 
stroke:#000000; stroke-width:59.0551; stroke-opacity:1; 
stroke-linecap:round; stroke-linejoin:round;">
<path d="M70192 76265
L70276 76293
L70417 76293
L70473 76265
L70501 76237
L70529 76181
L70529 76124
L70501 76068
L70473 76040
L70417 76012
L70304 75984
L70248 75956
L70220 75928
L70192 75871
L70192 75815
L70220 75759
L70248 75731
L70304 75703
L70445 75703
L70529 75731
" />
<path d="M70782 76293
L70782 75899
" />
<path d="M70782 75703
L70754 75731
L70782 75759
L70810 75731
L70782 75703
L70782 75759
" />
<path d="M71007 75899
L71316 75899
L71007 76293
L71316 76293
" />
<path d="M71766 76265
L71710 76293
L71598 76293
L71541 76265
L71513 76209
L71513 75984
L71541 75928
L71598 75899
L71710 75899
L71766 75928
L71795 75984
L71795 76040
L71513 76096
" />
<path d="M72048 76237
L72076 76265
L72048 76293
L72019 76265
L72048 76237
L72048 76293
" />
<path d="M72048 75928
L72076 75956
L72048 75984
L72019 75956
L72048 75928
L72048 75984
" />
<path d="M72751 76124
L73032 76124
" />
<path d="M72694 76293
L72891 75703
L73088 76293
" />
<path d="M73538 75899
L73538 76293
" />
<path d="M73397 75674
L73257 76096
L73622 76096
" />
<path d="M103684 77395
L103684 76805
" />
<path d="M104219 77395
L104219 76805
" />
<path d="M104219 77367
L104162 77395
L104050 77395
L103994 77367
L103965 77339
L103937 77283
L103937 77114
L103965 77058
L103994 77030
L104050 77002
L104162 77002
L104219 77030
" />
<path d="M104500 77339
L104528 77367
L104500 77395
L104472 77367
L104500 77339
L104500 77395
" />
<path d="M104500 77030
L104528 77058
L104500 77086
L104472 77058
L104500 77030
L104500 77086
" />
<path d="M105540 77395
L105203 77395
" />
<path d="M105372 77395
L105372 76805
L105315 76889
L105259 76946
L105203 76974
" />
<path d="M106215 76777
L105709 77536
" />
<path d="M106721 77395
L106384 77395
" />
<path d="M106553 77395
L106553 76805
L106496 76889
L106440 76946
L106384 76974
" />
<path d="M69685 73821
L112205 73821
" />
</g>
<g style="fill:#000000; fill-opacity:0.0; 
stroke:#000000; stroke-width:157.48; stroke-opacity:1; 
stroke-linecap:round; stroke-linejoin:round;">
<path d="M70257 74099
L70707 74099
" />
<path d="M70384 74886
L70482 74099
" />
<path d="M70871 74886
L70937 74361
" />
<path d="M70970 74099
L70927 74136
L70960 74174
L71002 74136
L70970 74099
L70960 74174
" />
<path d="M71199 74361
L71499 74361
" />
<path d="M71345 74099
L71260 74774
L71288 74849
L71359 74886
L71434 74886
" />
<path d="M71809 74886
L71738 74849
L71710 74774
L71795 74099
" />
<path d="M72413 74849
L72334 74886
L72184 74886
L72113 74849
L72085 74774
L72123 74474
L72169 74399
L72249 74361
L72399 74361
L72469 74399
L72498 74474
L72488 74549
L72104 74624
" />
<path d="M72793 74811
L72826 74849
L72783 74886
L72751 74849
L72793 74811
L72783 74886
" />
<path d="M72844 74399
L72877 74436
L72835 74474
L72802 74436
L72844 74399
L72835 74474
" />
</g>
<g style="fill:#000000; fill-opacity:0.0; 
stroke:#000000; stroke-width:59.0551; stroke-opacity:1; 
stroke-linecap:round; stroke-linejoin:round;">
<path d="M70417 73070
L70220 73070
" />
<path d="M70220 73380
L70220 72789
L70501 72789
" />
<path d="M70726 73380
L70726 72986
" />
<path d="M70726 72789
L70698 72817
L70726 72845
L70754 72817
L70726 72789
L70726 72845
" />
<path d="M71091 73380
L71035 73352
L71007 73295
L71007 72789
" />
<path d="M71541 73352
L71485 73380
L71373 73380
L71316 73352
L71288 73295
L71288 73070
L71316 73014
L71373 72986
L71485 72986
L71541 73014
L71570 73070
L71570 73127
L71288 73183
" />
<path d="M71823 73323
L71851 73352
L71823 73380
L71795 73352
L71823 73323
L71823 73380
" />
<path d="M71823 73014
L71851 73042
L71823 73070
L71795 73042
L71823 73014
L71823 73070
" />
<path d="M72554 73380
L72554 72789
" />
<path d="M72610 73155
L72779 73380
" />
<path d="M72779 72986
L72554 73211
" />
<path d="M73285 73352
L73229 73380
L73116 73380
L73060 73352
L73032 73323
L73004 73267
L73004 73099
L73032 73042
L73060 73014
L73116 72986
L73229 72986
L73285 73014
" />
<path d="M73538 72986
L73538 73380
" />
<path d="M73538 73042
L73566 73014
L73622 72986
L73707 72986
L73763 73014
L73791 73070
L73791 73380
" />
<path d="M74325 73352
L74269 73380
L74157 73380
L74100 73352
L74072 73323
L74044 73267
L74044 73099
L74072 73042
L74100 73014
L74157 72986
L74269 72986
L74325 73014
" />
<path d="M74579 73155
L75028 73155
" />
<path d="M75563 72986
L75563 73464
L75535 73520
L75507 73548
L75450 73577
L75366 73577
L75310 73548
" />
<path d="M75563 73352
L75507 73380
L75394 73380
L75338 73352
L75310 73323
L75282 73267
L75282 73099
L75310 73042
L75338 73014
L75394 72986
L75507 72986
L75563 73014
" />
<path d="M75844 73380
L75844 72986
" />
<path d="M75844 73099
L75872 73042
L75900 73014
L75956 72986
L76013 72986
" />
<path d="M76210 73380
L76210 72789
" />
<path d="M76210 73014
L76266 72986
L76378 72986
L76435 73014
L76463 73042
L76491 73099
L76491 73267
L76463 73323
L76435 73352
L76378 73380
L76266 73380
L76210 73352
" />
<path d="M76828 73380
L76772 73352
L76744 73295
L76744 72789
" />
<path d="M76913 73436
L77363 73436
" />
<path d="M77475 73352
L77531 73380
L77644 73380
L77700 73352
L77728 73295
L77728 73267
L77700 73211
L77644 73183
L77559 73183
L77503 73155
L77475 73099
L77475 73070
L77503 73014
L77559 72986
L77644 72986
L77700 73014
" />
<path d="M77981 73380
L77981 72789
" />
<path d="M78234 73380
L78234 73070
L78206 73014
L78150 72986
L78066 72986
L78009 73014
L77981 73042
" />
<path d="M78516 73380
L78516 72986
" />
<path d="M78516 72789
L78487 72817
L78516 72845
L78544 72817
L78516 72789
L78516 72845
" />
<path d="M79022 73352
L78965 73380
L78853 73380
L78797 73352
L78769 73295
L78769 73070
L78797 73014
L78853 72986
L78965 72986
L79022 73014
L79050 73070
L79050 73127
L78769 73183
" />
<path d="M79387 73380
L79331 73352
L79303 73295
L79303 72789
" />
<path d="M79865 73380
L79865 72789
" />
<path d="M79865 73352
L79809 73380
L79697 73380
L79640 73352
L79612 73323
L79584 73267
L79584 73099
L79612 73042
L79640 73014
L79697 72986
L79809 72986
L79865 73014
" />
<path d="M80147 73155
L80597 73155
" />
<path d="M80878 72986
L80878 73577
" />
<path d="M80878 73014
L80934 72986
L81046 72986
L81103 73014
L81131 73042
L81159 73099
L81159 73267
L81131 73323
L81103 73352
L81046 73380
L80934 73380
L80878 73352
" />
<path d="M81665 73352
L81609 73380
L81496 73380
L81440 73352
L81412 73323
L81384 73267
L81384 73099
L81412 73042
L81440 73014
L81496 72986
L81609 72986
L81665 73014
" />
<path d="M81918 73380
L81918 72789
" />
<path d="M81918 73014
L81974 72986
L82087 72986
L82143 73014
L82171 73042
L82199 73099
L82199 73267
L82171 73323
L82143 73352
L82087 73380
L81974 73380
L81918 73352
" />
<path d="M82453 73323
L82481 73352
L82453 73380
L82424 73352
L82453 73323
L82453 73380
" />
<path d="M82734 73380
L82734 72789
" />
<path d="M82790 73155
L82959 73380
" />
<path d="M82959 72986
L82734 73211
" />
<path d="M83212 73380
L83212 72986
" />
<path d="M83212 72789
L83184 72817
L83212 72845
L83240 72817
L83212 72789
L83212 72845
" />
<path d="M83746 73352
L83690 73380
L83577 73380
L83521 73352
L83493 73323
L83465 73267
L83465 73099
L83493 73042
L83521 73014
L83577 72986
L83690 72986
L83746 73014
" />
<path d="M84252 73380
L84252 73070
L84224 73014
L84168 72986
L84055 72986
L83999 73014
" />
<path d="M84252 73352
L84196 73380
L84055 73380
L83999 73352
L83971 73295
L83971 73239
L83999 73183
L84055 73155
L84196 73155
L84252 73127
" />
<path d="M84787 73380
L84787 72789
" />
<path d="M84787 73352
L84730 73380
L84618 73380
L84562 73352
L84534 73323
L84505 73267
L84505 73099
L84534 73042
L84562 73014
L84618 72986
L84730 72986
L84787 73014
" />
<path d="M84927 73436
L85377 73436
" />
<path d="M85518 72986
L85518 73577
" />
<path d="M85518 73014
L85574 72986
L85687 72986
L85743 73014
L85771 73042
L85799 73099
L85799 73267
L85771 73323
L85743 73352
L85687 73380
L85574 73380
L85518 73352
" />
<path d="M86305 73352
L86249 73380
L86136 73380
L86080 73352
L86052 73323
L86024 73267
L86024 73099
L86052 73042
L86080 73014
L86136 72986
L86249 72986
L86305 73014
" />
<path d="M86558 73380
L86558 72789
" />
<path d="M86558 73014
L86615 72986
L86727 72986
L86783 73014
L86811 73042
L86840 73099
L86840 73267
L86811 73323
L86783 73352
L86727 73380
L86615 73380
L86558 73352
" />
<path d="M69685 71459
L112205 71459
" />
<path d="M70192 72289
L70276 72317
L70417 72317
L70473 72289
L70501 72260
L70529 72204
L70529 72148
L70501 72092
L70473 72064
L70417 72036
L70304 72007
L70248 71979
L70220 71951
L70192 71895
L70192 71839
L70220 71782
L70248 71754
L70304 71726
L70445 71726
L70529 71754
" />
<path d="M70782 72317
L70782 71726
" />
<path d="M71035 72317
L71035 72007
L71007 71951
L70951 71923
L70867 71923
L70810 71951
L70782 71979
" />
<path d="M71541 72289
L71485 72317
L71373 72317
L71316 72289
L71288 72232
L71288 72007
L71316 71951
L71373 71923
L71485 71923
L71541 71951
L71570 72007
L71570 72064
L71288 72120
" />
<path d="M72048 72289
L71991 72317
L71879 72317
L71823 72289
L71795 72232
L71795 72007
L71823 71951
L71879 71923
L71991 71923
L72048 71951
L72076 72007
L72076 72064
L71795 72120
" />
<path d="M72244 71923
L72469 71923
" />
<path d="M72329 71726
L72329 72232
L72357 72289
L72413 72317
L72469 72317
" />
<path d="M72666 72260
L72694 72289
L72666 72317
L72638 72289
L72666 72260
L72666 72317
" />
<path d="M72666 71951
L72694 71979
L72666 72007
L72638 71979
L72666 71951
L72666 72007
" />
<path d="M77559 75396
L77559 76577
" />
<path d="M102756 75396
L102756 77955
" />
<path d="M38188 49212
L38188 27559
" />
<path d="M77952 49212
L38188 49212
" />
<path d="M77952 27559
L77952 49212
" />
<path d="M38188 27559
L77952 27559
" />
</g>
<g style="fill:#000000; fill-opacity:0.0; 
stroke:#000000; stroke-width:118.11; stroke-opacity:1; 
stroke-linecap:round; stroke-linejoin:round;">
<path d="M34831 36122
L34437 36122
" />
<path d="M35056 35981
L34634 35840
L34634 36206
" />
<path d="M34775 36515
L34803 36459
L34831 36431
L34887 36403
L34915 36403
L34971 36431
L35000 36459
L35028 36515
L35028 36628
L35000 36684
L34971 36712
L34915 36740
L34887 36740
L34831 36712
L34803 36684
L34775 36628
L34775 36515
L34746 36459
L34718 36431
L34662 36403
L34550 36403
L34493 36431
L34465 36459
L34437 36515
L34437 36628
L34465 36684
L34493 36712
L34550 36740
L34662 36740
L34718 36712
L34746 36684
L34775 36628
" />
<path d="M34465 37021
L34437 37021
L34381 36993
L34353 36965
" />
<path d="M35028 37556
L35028 37275
L34746 37246
L34775 37275
L34803 37331
L34803 37471
L34775 37528
L34746 37556
L34690 37584
L34550 37584
L34493 37556
L34465 37528
L34437 37471
L34437 37331
L34465 37275
L34493 37246
" />
<path d="M35028 37949
L35028 38006
L35000 38062
L34971 38090
L34915 38118
L34803 38146
L34662 38146
L34550 38118
L34493 38090
L34465 38062
L34437 38006
L34437 37949
L34465 37893
L34493 37865
L34550 37837
L34662 37809
L34803 37809
L34915 37837
L34971 37865
L35000 37893
L35028 37949
" />
<path d="M35028 38512
L35028 38568
L35000 38624
L34971 38652
L34915 38681
L34803 38709
L34662 38709
L34550 38681
L34493 38652
L34465 38624
L34437 38568
L34437 38512
L34465 38456
L34493 38428
L34550 38399
L34662 38371
L34803 38371
L34915 38399
L34971 38428
L35000 38456
L35028 38512
" />
<path d="M34437 39412
L34831 39412
" />
<path d="M34775 39412
L34803 39440
L34831 39496
L34831 39580
L34803 39637
L34746 39665
L34437 39665
" />
<path d="M34746 39665
L34803 39693
L34831 39749
L34831 39834
L34803 39890
L34746 39918
L34437 39918
" />
<path d="M34437 40199
L34831 40199
" />
<path d="M34775 40199
L34803 40227
L34831 40284
L34831 40368
L34803 40424
L34746 40452
L34437 40452
" />
<path d="M34746 40452
L34803 40480
L34831 40537
L34831 40621
L34803 40677
L34746 40705
L34437 40705
" />
<path d="M35236 28740
L35236 47834
" />
<path d="M36811 28740
L34173 28740
" />
<path d="M36811 47834
L34173 47834
" />
<path d="M35236 47834
L35005 47391
" />
<path d="M35236 47834
L35467 47391
" />
<path d="M35236 28740
L35005 29183
" />
<path d="M35236 28740
L35467 29183
" />
<path d="M55680 23160
L55793 23160
L55849 23132
L55877 23104
L55933 23020
L55961 22907
L55961 22682
L55933 22626
L55905 22598
L55849 22570
L55736 22570
L55680 22598
L55652 22626
L55624 22682
L55624 22823
L55652 22879
L55680 22907
L55736 22935
L55849 22935
L55905 22907
L55933 22879
L55961 22823
" />
<path d="M56467 22767
L56467 23160
" />
<path d="M56327 22542
L56186 22964
L56552 22964
" />
<path d="M56805 23132
L56805 23160
L56777 23217
L56749 23245
" />
<path d="M57170 22570
L57227 22570
L57283 22598
L57311 22626
L57339 22682
L57367 22795
L57367 22935
L57339 23048
L57311 23104
L57283 23132
L57227 23160
L57170 23160
L57114 23132
L57086 23104
L57058 23048
L57030 22935
L57030 22795
L57058 22682
L57086 22626
L57114 22598
L57170 22570
" />
<path d="M57733 22570
L57789 22570
L57845 22598
L57874 22626
L57902 22682
L57930 22795
L57930 22935
L57902 23048
L57874 23104
L57845 23132
L57789 23160
L57733 23160
L57677 23132
L57649 23104
L57620 23048
L57592 22935
L57592 22795
L57620 22682
L57649 22626
L57677 22598
L57733 22570
" />
<path d="M58295 22570
L58352 22570
L58408 22598
L58436 22626
L58464 22682
L58492 22795
L58492 22935
L58464 23048
L58436 23104
L58408 23132
L58352 23160
L58295 23160
L58239 23132
L58211 23104
L58183 23048
L58155 22935
L58155 22795
L58183 22682
L58211 22626
L58239 22598
L58295 22570
" />
<path d="M59195 23160
L59195 22767
" />
<path d="M59195 22823
L59223 22795
L59280 22767
L59364 22767
L59420 22795
L59448 22851
L59448 23160
" />
<path d="M59448 22851
L59476 22795
L59533 22767
L59617 22767
L59673 22795
L59701 22851
L59701 23160
" />
<path d="M59983 23160
L59983 22767
" />
<path d="M59983 22823
L60011 22795
L60067 22767
L60151 22767
L60208 22795
L60236 22851
L60236 23160
" />
<path d="M60236 22851
L60264 22795
L60320 22767
L60404 22767
L60461 22795
L60489 22851
L60489 23160
" />
<path d="M76574 23425
L39566 23425
" />
<path d="M76574 25590
L76574 22362
" />
<path d="M39566 25590
L39566 22362
" />
<path d="M39566 23425
L40010 23194
" />
<path d="M39566 23425
L40010 23656
" />
<path d="M76574 23425
L76131 23194
" />
<path d="M76574 23425
L76131 23656
" />
<path d="M55582 17845
L55694 17845
L55750 17817
L55778 17789
L55835 17705
L55863 17592
L55863 17367
L55835 17311
L55807 17283
L55750 17255
L55638 17255
L55582 17283
L55553 17311
L55525 17367
L55525 17508
L55553 17564
L55582 17592
L55638 17620
L55750 17620
L55807 17592
L55835 17564
L55863 17508
" />
<path d="M56144 17845
L56257 17845
L56313 17817
L56341 17789
L56397 17705
L56425 17592
L56425 17367
L56397 17311
L56369 17283
L56313 17255
L56200 17255
L56144 17283
L56116 17311
L56088 17367
L56088 17508
L56116 17564
L56144 17592
L56200 17620
L56313 17620
L56369 17592
L56397 17564
L56425 17508
" />
<path d="M56706 17817
L56706 17845
L56678 17902
L56650 17930
" />
<path d="M57241 17255
L56960 17255
L56931 17536
L56960 17508
L57016 17480
L57156 17480
L57213 17508
L57241 17536
L57269 17592
L57269 17733
L57241 17789
L57213 17817
L57156 17845
L57016 17845
L56960 17817
L56931 17789
" />
<path d="M57634 17255
L57691 17255
L57747 17283
L57775 17311
L57803 17367
L57831 17480
L57831 17620
L57803 17733
L57775 17789
L57747 17817
L57691 17845
L57634 17845
L57578 17817
L57550 17789
L57522 17733
L57494 17620
L57494 17480
L57522 17367
L57550 17311
L57578 17283
L57634 17255
" />
<path d="M58197 17255
L58253 17255
L58309 17283
L58338 17311
L58366 17367
L58394 17480
L58394 17620
L58366 17733
L58338 17789
L58309 17817
L58253 17845
L58197 17845
L58141 17817
L58113 17789
L58084 17733
L58056 17620
L58056 17480
L58084 17367
L58113 17311
L58141 17283
L58197 17255
" />
<path d="M59097 17845
L59097 17452
" />
<path d="M59097 17508
L59125 17480
L59181 17452
L59266 17452
L59322 17480
L59350 17536
L59350 17845
" />
<path d="M59350 17536
L59378 17480
L59434 17452
L59519 17452
L59575 17480
L59603 17536
L59603 17845
" />
<path d="M59884 17845
L59884 17452
" />
<path d="M59884 17508
L59912 17480
L59969 17452
L60053 17452
L60109 17480
L60137 17536
L60137 17845
" />
<path d="M60137 17536
L60165 17480
L60222 17452
L60306 17452
L60362 17480
L60390 17536
L60390 17845
" />
<path d="M38385 18110
L77559 18110
" />
<path d="M38385 20472
L38385 17047
" />
<path d="M77559 20472
L77559 17047
" />
<path d="M77559 18110
L77115 18341
" />
<path d="M77559 18110
L77115 17879
" />
<path d="M38385 18110
L38829 18341
" />
<path d="M38385 18110
L38829 17879
" />
<path d="M30500 36150
L30500 35868
L30219 35840
L30247 35868
L30275 35925
L30275 36065
L30247 36122
L30219 36150
L30163 36178
L30022 36178
L29966 36150
L29938 36122
L29910 36065
L29910 35925
L29938 35868
L29966 35840
" />
<path d="M30500 36375
L30500 36740
L30275 36543
L30275 36628
L30247 36684
L30219 36712
L30163 36740
L30022 36740
L29966 36712
L29938 36684
L29910 36628
L29910 36459
L29938 36403
L29966 36375
" />
<path d="M29938 37021
L29910 37021
L29853 36993
L29825 36965
" />
<path d="M30500 37556
L30500 37275
L30219 37246
L30247 37275
L30275 37331
L30275 37471
L30247 37528
L30219 37556
L30163 37584
L30022 37584
L29966 37556
L29938 37528
L29910 37471
L29910 37331
L29938 37275
L29966 37246
" />
<path d="M30500 37949
L30500 38006
L30472 38062
L30444 38090
L30388 38118
L30275 38146
L30134 38146
L30022 38118
L29966 38090
L29938 38062
L29910 38006
L29910 37949
L29938 37893
L29966 37865
L30022 37837
L30134 37809
L30275 37809
L30388 37837
L30444 37865
L30472 37893
L30500 37949
" />
<path d="M30500 38512
L30500 38568
L30472 38624
L30444 38652
L30388 38681
L30275 38709
L30134 38709
L30022 38681
L29966 38652
L29938 38624
L29910 38568
L29910 38512
L29938 38456
L29966 38428
L30022 38399
L30134 38371
L30275 38371
L30388 38399
L30444 38428
L30472 38456
L30500 38512
" />
<path d="M29910 39412
L30303 39412
" />
<path d="M30247 39412
L30275 39440
L30303 39496
L30303 39580
L30275 39637
L30219 39665
L29910 39665
" />
<path d="M30219 39665
L30275 39693
L30303 39749
L30303 39834
L30275 39890
L30219 39918
L29910 39918
" />
<path d="M29910 40199
L30303 40199
" />
<path d="M30247 40199
L30275 40227
L30303 40284
L30303 40368
L30275 40424
L30219 40452
L29910 40452
" />
<path d="M30219 40452
L30275 40480
L30303 40537
L30303 40621
L30275 40677
L30219 40705
L29910 40705
" />
<path d="M30708 27755
L30708 48818
" />
<path d="M32283 27755
L29645 27755
" />
<path d="M32283 48818
L29645 48818
" />
<path d="M30708 48818
L30477 48375
" />
<path d="M30708 48818
L30939 48375
" />
<path d="M30708 27755
L30477 28199
" />
<path d="M30708 27755
L30939 28199
" />
<path d="M29319 36248
L29319 35967
L29038 35939
L29066 35967
L29094 36023
L29094 36164
L29066 36220
L29038 36248
L28982 36276
L28841 36276
L28785 36248
L28757 36220
L28728 36164
L28728 36023
L28757 35967
L28785 35939
" />
<path d="M29319 36473
L29319 36839
L29094 36642
L29094 36726
L29066 36782
L29038 36811
L28982 36839
L28841 36839
L28785 36811
L28757 36782
L28728 36726
L28728 36557
L28757 36501
L28785 36473
" />
<path d="M28757 37120
L28728 37120
L28672 37092
L28644 37064
" />
<path d="M29319 37485
L29319 37542
L29291 37598
L29263 37626
L29206 37654
L29094 37682
L28953 37682
L28841 37654
L28785 37626
L28757 37598
L28728 37542
L28728 37485
L28757 37429
L28785 37401
L28841 37373
L28953 37345
L29094 37345
L29206 37373
L29263 37401
L29291 37429
L29319 37485
" />
<path d="M29319 38048
L29319 38104
L29291 38160
L29263 38188
L29206 38217
L29094 38245
L28953 38245
L28841 38217
L28785 38188
L28757 38160
L28728 38104
L28728 38048
L28757 37992
L28785 37964
L28841 37935
L28953 37907
L29094 37907
L29206 37935
L29263 37964
L29291 37992
L29319 38048
" />
<path d="M29319 38610
L29319 38667
L29291 38723
L29263 38751
L29206 38779
L29094 38807
L28953 38807
L28841 38779
L28785 38751
L28757 38723
L28728 38667
L28728 38610
L28757 38554
L28785 38526
L28841 38498
L28953 38470
L29094 38470
L29206 38498
L29263 38526
L29291 38554
L29319 38610
" />
<path d="M28728 39510
L29122 39510
" />
<path d="M29066 39510
L29094 39538
L29122 39595
L29122 39679
L29094 39735
L29038 39763
L28728 39763
" />
<path d="M29038 39763
L29094 39791
L29122 39848
L29122 39932
L29094 39988
L29038 40016
L28728 40016
" />
<path d="M28728 40298
L29122 40298
" />
<path d="M29066 40298
L29094 40326
L29122 40382
L29122 40466
L29094 40523
L29038 40551
L28728 40551
" />
<path d="M29038 40551
L29094 40579
L29122 40635
L29122 40719
L29094 40776
L29038 40804
L28728 40804
" />
<path d="M29527 27952
L29527 48818
" />
<path d="M31102 27952
L28464 27952
" />
<path d="M31102 48818
L28464 48818
" />
<path d="M29527 48818
L29296 48375
" />
<path d="M29527 48818
L29758 48375
" />
<path d="M29527 27952
L29296 28396
" />
<path d="M29527 27952
L29758 28396
" />
</g>
<g style="fill:#000000; fill-opacity:0.0; 
stroke:#000000; stroke-width:59.0551; stroke-opacity:1; 
stroke-linecap:round; stroke-linejoin:round;">
<circle cx="34645.7" cy="52755.9" r="656.168" /> 
<path d="M33661 52755
L35629 52755
" />
<path d="M34645 51771
L34645 53740
" />
<circle cx="81496.1" cy="52755.9" r="656.168" /> 
<path d="M80511 52755
L82480 52755
" />
<path d="M81496 51771
L81496 53740
" />
<circle cx="81496.1" cy="24015.7" r="656.168" /> 
<path d="M80511 24015
L82480 24015
" />
<path d="M81496 23031
L81496 25000
" />
<circle cx="34645.7" cy="24015.7" r="656.168" /> 
<path d="M33661 24015
L35629 24015
" />
<path d="M34645 23031
L34645 25000
" />
</g>
<g style="fill:#000000; fill-opacity:0.0; 
stroke:#000000; stroke-width:150; stroke-opacity:1; 
stroke-linecap:round; stroke-linejoin:round;">
<path d="M64548 32844
L64548 28344
" />
<path d="M64548 28344
L64048 27844
" />
<path d="M64048 27844
L38548 27844
" />
<path d="M64548 48844
L38548 48844
" />
<path d="M38548 48844
L38548 27844
" />
<path d="M64548 32844
L65548 33844
" />
<path d="M65548 33844
L65548 46844
" />
<path d="M65548 46844
L64548 47844
" />
<path d="M64548 47844
L64548 48844
" />
</g> 
</svg>
