<?xml version="1.0" standalone="no"?>
 <!DOCTYPE svg PUBLIC "-//W3C//DTD SVG 1.1//EN" 
 "http://www.w3.org/Graphics/SVG/1.1/DTD/svg11.dtd"> 
<svg xmlns="http://www.w3.org/2000/svg" version="1.1" 
    width="29.7002cm" height="21.0007cm" viewBox="0 0 116930 82680 ">
<title>SVG Picture created as kcnc-grbl_shield-pcb-NPTH-drl_map.svg date 2017/06/24 23:27:36 </title>
  <desc>Picture generated by PCBNEW </desc>
<g style="fill:#000000; fill-opacity:1;stroke:#000000; stroke-opacity:1;
stroke-linecap:round; stroke-linejoin:round; "
 transform="translate(0 0) scale(1 1)">
</g>
<g style="fill:#000000; fill-opacity:0.0; 
stroke:#000000; stroke-width:-0.000393701; stroke-opacity:1; 
stroke-linecap:round; stroke-linejoin:round;">
</g>
<g style="fill:#000000; fill-opacity:0.0; 
stroke:#000000; stroke-width:59.0551; stroke-opacity:1; 
stroke-linecap:round; stroke-linejoin:round;">
<path d="M38188 49212
L38188 27559
" />
<path d="M77952 49212
L38188 49212
" />
<path d="M77952 27559
L77952 49212
" />
<path d="M38188 27559
L77952 27559
" />
</g>
<g style="fill:#000000; fill-opacity:0.0; 
stroke:#000000; stroke-width:78.7402; stroke-opacity:1; 
stroke-linecap:round; stroke-linejoin:round;">
<path d="M38907 28140
L40157 29390
" />
<path d="M40157 28140
L38907 29390
" />
<path d="M38907 47234
L40157 48484
" />
<path d="M40157 47234
L38907 48484
" />
<path d="M75915 28140
L77165 29390
" />
<path d="M77165 28140
L75915 29390
" />
<path d="M75915 47234
L77165 48484
" />
<path d="M77165 47234
L75915 48484
" />
</g>
<g style="fill:#000000; fill-opacity:0.0; 
stroke:#000000; stroke-width:118.11; stroke-opacity:1; 
stroke-linecap:round; stroke-linejoin:round;">
<path d="M39228 51075
L39228 49894
L39509 49894
L39678 49950
L39790 50063
L39846 50175
L39902 50400
L39902 50569
L39846 50794
L39790 50906
L39678 51019
L39509 51075
L39228 51075
" />
<path d="M40409 51075
L40409 50288
" />
<path d="M40409 50513
L40465 50400
L40521 50344
L40634 50288
L40746 50288
" />
<path d="M41140 51075
L41140 50288
" />
<path d="M41140 49894
L41084 49950
L41140 50007
L41196 49950
L41140 49894
L41140 50007
" />
<path d="M41871 51075
L41758 51019
L41702 50906
L41702 49894
" />
<path d="M42490 51075
L42377 51019
L42321 50906
L42321 49894
" />
<path d="M43839 51075
L43839 49894
L44233 50738
L44627 49894
L44627 51075
" />
<path d="M45696 51075
L45696 50456
L45639 50344
L45527 50288
L45302 50288
L45189 50344
" />
<path d="M45696 51019
L45583 51075
L45302 51075
L45189 51019
L45133 50906
L45133 50794
L45189 50681
L45302 50625
L45583 50625
L45696 50569
" />
<path d="M46258 50288
L46258 51469
" />
<path d="M46258 50344
L46370 50288
L46595 50288
L46708 50344
L46764 50400
L46820 50513
L46820 50850
L46764 50963
L46708 51019
L46595 51075
L46370 51075
L46258 51019
" />
<path d="M47327 50963
L47383 51019
L47327 51075
L47270 51019
L47327 50963
L47327 51075
" />
<path d="M47327 50344
L47383 50400
L47327 50456
L47270 50400
L47327 50344
L47327 50456
" />
<path d="M36909 52396
L38159 53646
" />
<path d="M38159 52396
L36909 53646
" />
<path d="M39115 52374
L39846 52374
L39453 52824
L39621 52824
L39734 52881
L39790 52937
L39846 53049
L39846 53330
L39790 53443
L39734 53499
L39621 53555
L39284 53555
L39171 53499
L39115 53443
" />
<path d="M40352 53443
L40409 53499
L40352 53555
L40296 53499
L40352 53443
L40352 53555
" />
<path d="M41534 53555
L40859 53555
" />
<path d="M41196 53555
L41196 52374
L41084 52543
L40971 52656
L40859 52712
" />
<path d="M41927 52374
L42715 52374
L42208 53555
" />
<path d="M43165 53555
L43165 52768
" />
<path d="M43165 52881
L43221 52824
L43333 52768
L43502 52768
L43615 52824
L43671 52937
L43671 53555
" />
<path d="M43671 52937
L43727 52824
L43839 52768
L44008 52768
L44121 52824
L44177 52937
L44177 53555
" />
<path d="M44739 53555
L44739 52768
" />
<path d="M44739 52881
L44796 52824
L44908 52768
L45077 52768
L45189 52824
L45246 52937
L45246 53555
" />
<path d="M45246 52937
L45302 52824
L45414 52768
L45583 52768
L45696 52824
L45752 52937
L45752 53555
" />
<path d="M48058 52318
L47045 53837
" />
<path d="M49576 52374
L49689 52374
L49801 52431
L49857 52487
L49914 52599
L49970 52824
L49970 53106
L49914 53330
L49857 53443
L49801 53499
L49689 53555
L49576 53555
L49464 53499
L49408 53443
L49351 53330
L49295 53106
L49295 52824
L49351 52599
L49408 52487
L49464 52431
L49576 52374
" />
<path d="M50476 53443
L50532 53499
L50476 53555
L50420 53499
L50476 53443
L50476 53555
" />
<path d="M51657 53555
L50982 53555
" />
<path d="M51320 53555
L51320 52374
L51207 52543
L51095 52656
L50982 52712
" />
<path d="M52107 52487
L52163 52431
L52276 52374
L52557 52374
L52670 52431
L52726 52487
L52782 52599
L52782 52712
L52726 52881
L52051 53555
L52782 53555
" />
<path d="M53851 52374
L53288 52374
L53232 52937
L53288 52881
L53401 52824
L53682 52824
L53794 52881
L53851 52937
L53907 53049
L53907 53330
L53851 53443
L53794 53499
L53682 53555
L53401 53555
L53288 53499
L53232 53443
" />
<path d="M54357 52374
L54357 52599
" />
<path d="M54807 52374
L54807 52599
" />
<path d="M56550 54005
L56494 53949
L56382 53780
L56325 53668
L56269 53499
L56213 53218
L56213 52993
L56269 52712
L56325 52543
L56382 52431
L56494 52262
L56550 52206
" />
<path d="M57507 52768
L57507 53555
" />
<path d="M57225 52318
L56944 53162
L57675 53162
" />
<path d="M59025 53555
L59025 52374
" />
<path d="M59531 53555
L59531 52937
L59475 52824
L59363 52768
L59194 52768
L59081 52824
L59025 52881
" />
<path d="M60262 53555
L60150 53499
L60094 53443
L60037 53330
L60037 52993
L60094 52881
L60150 52824
L60262 52768
L60431 52768
L60544 52824
L60600 52881
L60656 52993
L60656 53330
L60600 53443
L60544 53499
L60431 53555
L60262 53555
" />
<path d="M61331 53555
L61219 53499
L61162 53387
L61162 52374
" />
<path d="M62231 53499
L62118 53555
L61893 53555
L61781 53499
L61725 53387
L61725 52937
L61781 52824
L61893 52768
L62118 52768
L62231 52824
L62287 52937
L62287 53049
L61725 53162
" />
<path d="M62737 53499
L62850 53555
L63075 53555
L63187 53499
L63243 53387
L63243 53330
L63187 53218
L63075 53162
L62906 53162
L62793 53106
L62737 52993
L62737 52937
L62793 52824
L62906 52768
L63075 52768
L63187 52824
" />
<path d="M63637 54005
L63693 53949
L63806 53780
L63862 53668
L63918 53499
L63974 53218
L63974 52993
L63918 52712
L63862 52543
L63806 52431
L63693 52262
L63637 52206
" />
<path d="M65774 54005
L65718 53949
L65606 53780
L65549 53668
L65493 53499
L65437 53218
L65437 52993
L65493 52712
L65549 52543
L65606 52431
L65718 52262
L65774 52206
" />
<path d="M66224 52768
L66224 53555
" />
<path d="M66224 52881
L66280 52824
L66393 52768
L66562 52768
L66674 52824
L66730 52937
L66730 53555
" />
<path d="M67462 53555
L67349 53499
L67293 53443
L67237 53330
L67237 52993
L67293 52881
L67349 52824
L67462 52768
L67630 52768
L67743 52824
L67799 52881
L67855 52993
L67855 53330
L67799 53443
L67743 53499
L67630 53555
L67462 53555
" />
<path d="M68193 52768
L68643 52768
" />
<path d="M68361 52374
L68361 53387
L68418 53499
L68530 53555
L68643 53555
" />
<path d="M69936 52768
L69936 53949
" />
<path d="M69936 52824
L70049 52768
L70274 52768
L70386 52824
L70442 52881
L70499 52993
L70499 53330
L70442 53443
L70386 53499
L70274 53555
L70049 53555
L69936 53499
" />
<path d="M71174 53555
L71061 53499
L71005 53387
L71005 52374
" />
<path d="M72130 53555
L72130 52937
L72073 52824
L71961 52768
L71736 52768
L71624 52824
" />
<path d="M72130 53499
L72017 53555
L71736 53555
L71624 53499
L71567 53387
L71567 53274
L71624 53162
L71736 53106
L72017 53106
L72130 53049
" />
<path d="M72523 52768
L72973 52768
" />
<path d="M72692 52374
L72692 53387
L72748 53499
L72861 53555
L72973 53555
" />
<path d="M73817 53499
L73705 53555
L73480 53555
L73367 53499
L73311 53387
L73311 52937
L73367 52824
L73480 52768
L73705 52768
L73817 52824
L73873 52937
L73873 53049
L73311 53162
" />
<path d="M74886 53555
L74886 52374
" />
<path d="M74886 53499
L74773 53555
L74548 53555
L74436 53499
L74379 53443
L74323 53330
L74323 52993
L74379 52881
L74436 52824
L74548 52768
L74773 52768
L74886 52824
" />
<path d="M75336 54005
L75392 53949
L75504 53780
L75561 53668
L75617 53499
L75673 53218
L75673 52993
L75617 52712
L75561 52543
L75504 52431
L75392 52262
L75336 52206
" />
</g> 
</svg>
