<?xml version="1.0" standalone="no"?>
 <!DOCTYPE svg PUBLIC "-//W3C//DTD SVG 1.1//EN" 
 "http://www.w3.org/Graphics/SVG/1.1/DTD/svg11.dtd"> 
<svg xmlns="http://www.w3.org/2000/svg" version="1.1" 
    width="29.7002cm" height="21.0007cm" viewBox="0 0 116930 82680 ">
<title>SVG Picture created as kcnc-grbl_shield-pcb-B.Fab.svg date 2017/06/24 23:27:31 </title>
  <desc>Picture generated by PCBNEW </desc>
<g style="fill:#000000; fill-opacity:1;stroke:#000000; stroke-opacity:1;
stroke-linecap:round; stroke-linejoin:round; "
 transform="translate(0 0) scale(1 1)">
</g>
<g style="fill:#000000; fill-opacity:0.0; 
stroke:#000000; stroke-width:-0.000393701; stroke-opacity:1; 
stroke-linecap:round; stroke-linejoin:round;">
</g>
<g style="fill:#000000; fill-opacity:0.0; 
stroke:#000000; stroke-width:59.0551; stroke-opacity:1; 
stroke-linecap:round; stroke-linejoin:round;">
<rect x="69685.9" y="65357.2" width="42519.7" height="12598.4" rx="0" />
<rect x="3937.01" y="3937.01" width="109056" height="74806" rx="0" />
<rect x="4724.41" y="4724.41" width="107481" height="73231.2" rx="0" />
<path d="M23622 4724
L23622 3937
" />
<path d="M43307 4724
L43307 3937
" />
<path d="M62992 4724
L62992 3937
" />
<path d="M82677 4724
L82677 3937
" />
<path d="M102362 4724
L102362 3937
" />
<path d="M14169 4562
L13877 4562
" />
<path d="M14023 4562
L14023 4050
L13974 4123
L13925 4172
L13877 4196
" />
<path d="M33562 4099
L33586 4074
L33635 4050
L33757 4050
L33805 4074
L33830 4099
L33854 4147
L33854 4196
L33830 4269
L33537 4562
L33854 4562
" />
<path d="M53222 4050
L53539 4050
L53368 4245
L53442 4245
L53490 4269
L53515 4294
L53539 4342
L53539 4464
L53515 4513
L53490 4537
L53442 4562
L53295 4562
L53247 4537
L53222 4513
" />
<path d="M73175 4221
L73175 4562
" />
<path d="M73053 4026
L72932 4391
L73248 4391
" />
<path d="M92885 4050
L92641 4050
L92617 4294
L92641 4269
L92690 4245
L92812 4245
L92860 4269
L92885 4294
L92909 4342
L92909 4464
L92885 4513
L92860 4537
L92812 4562
L92690 4562
L92641 4537
L92617 4513
" />
<path d="M112545 4050
L112448 4050
L112399 4074
L112375 4099
L112326 4172
L112302 4269
L112302 4464
L112326 4513
L112350 4537
L112399 4562
L112497 4562
L112545 4537
L112570 4513
L112594 4464
L112594 4342
L112570 4294
L112545 4269
L112497 4245
L112399 4245
L112350 4269
L112326 4294
L112302 4342
" />
<path d="M23622 77955
L23622 78742
" />
<path d="M43307 77955
L43307 78742
" />
<path d="M62992 77955
L62992 78742
" />
<path d="M82677 77955
L82677 78742
" />
<path d="M102362 77955
L102362 78742
" />
<path d="M14169 78580
L13877 78580
" />
<path d="M14023 78580
L14023 78069
L13974 78142
L13925 78190
L13877 78215
" />
<path d="M33562 78117
L33586 78093
L33635 78069
L33757 78069
L33805 78093
L33830 78117
L33854 78166
L33854 78215
L33830 78288
L33537 78580
L33854 78580
" />
<path d="M53222 78069
L53539 78069
L53368 78263
L53442 78263
L53490 78288
L53515 78312
L53539 78361
L53539 78483
L53515 78532
L53490 78556
L53442 78580
L53295 78580
L53247 78556
L53222 78532
" />
<path d="M73175 78239
L73175 78580
" />
<path d="M73053 78044
L72932 78410
L73248 78410
" />
<path d="M92885 78069
L92641 78069
L92617 78312
L92641 78288
L92690 78263
L92812 78263
L92860 78288
L92885 78312
L92909 78361
L92909 78483
L92885 78532
L92860 78556
L92812 78580
L92690 78580
L92641 78556
L92617 78532
" />
<path d="M112545 78069
L112448 78069
L112399 78093
L112375 78117
L112326 78190
L112302 78288
L112302 78483
L112326 78532
L112350 78556
L112399 78580
L112497 78580
L112545 78556
L112570 78532
L112594 78483
L112594 78361
L112570 78312
L112545 78288
L112497 78263
L112399 78263
L112350 78288
L112326 78312
L112302 78361
" />
<path d="M3937 23622
L4724 23622
" />
<path d="M3937 43307
L4724 43307
" />
<path d="M3937 62992
L4724 62992
" />
<path d="M4208 13864
L4452 13864
" />
<path d="M4160 14011
L4330 13499
L4501 14011
" />
<path d="M4367 33428
L4440 33452
L4464 33476
L4489 33525
L4489 33598
L4464 33647
L4440 33671
L4391 33696
L4196 33696
L4196 33184
L4367 33184
L4416 33208
L4440 33233
L4464 33281
L4464 33330
L4440 33379
L4416 33403
L4367 33428
L4196 33428
" />
<path d="M4489 53332
L4464 53356
L4391 53381
L4342 53381
L4269 53356
L4221 53308
L4196 53259
L4172 53161
L4172 53088
L4196 52991
L4221 52942
L4269 52893
L4342 52869
L4391 52869
L4464 52893
L4489 52918
" />
<path d="M4196 73066
L4196 72554
L4318 72554
L4391 72578
L4440 72627
L4464 72676
L4489 72773
L4489 72846
L4464 72944
L4440 72993
L4391 73041
L4318 73066
L4196 73066
" />
<path d="M112992 23622
L112205 23622
" />
<path d="M112992 43307
L112205 43307
" />
<path d="M112992 62992
L112205 62992
" />
<path d="M112477 13864
L112721 13864
" />
<path d="M112428 14011
L112599 13499
L112769 14011
" />
<path d="M112635 33428
L112708 33452
L112733 33476
L112757 33525
L112757 33598
L112733 33647
L112708 33671
L112660 33696
L112465 33696
L112465 33184
L112635 33184
L112684 33208
L112708 33233
L112733 33281
L112733 33330
L112708 33379
L112684 33403
L112635 33428
L112465 33428
" />
<path d="M112757 53332
L112733 53356
L112660 53381
L112611 53381
L112538 53356
L112489 53308
L112465 53259
L112440 53161
L112440 53088
L112465 52991
L112489 52942
L112538 52893
L112611 52869
L112660 52869
L112733 52893
L112757 52918
" />
<path d="M112465 73066
L112465 72554
L112587 72554
L112660 72578
L112708 72627
L112733 72676
L112757 72773
L112757 72846
L112733 72944
L112708 72993
L112660 73041
L112587 73066
L112465 73066
" />
<path d="M78881 76293
L78881 75703
L79022 75703
L79106 75731
L79162 75787
L79190 75843
L79219 75956
L79219 76040
L79190 76153
L79162 76209
L79106 76265
L79022 76293
L78881 76293
" />
<path d="M79725 76293
L79725 75984
L79697 75928
L79640 75899
L79528 75899
L79472 75928
" />
<path d="M79725 76265
L79669 76293
L79528 76293
L79472 76265
L79444 76209
L79444 76153
L79472 76096
L79528 76068
L79669 76068
L79725 76040
" />
<path d="M79922 75899
L80147 75899
" />
<path d="M80006 75703
L80006 76209
L80034 76265
L80090 76293
L80147 76293
" />
<path d="M80568 76265
L80512 76293
L80400 76293
L80343 76265
L80315 76209
L80315 75984
L80343 75928
L80400 75899
L80512 75899
L80568 75928
L80597 75984
L80597 76040
L80315 76096
" />
<path d="M80850 76237
L80878 76265
L80850 76293
L80822 76265
L80850 76237
L80850 76293
" />
<path d="M80850 75928
L80878 75956
L80850 75984
L80822 75956
L80850 75928
L80850 75984
" />
<path d="M69685 76577
L112205 76577
" />
<path d="M70220 77395
L70220 76805
" />
<path d="M70557 77395
L70304 77058
" />
<path d="M70557 76805
L70220 77142
" />
<path d="M70810 77395
L70810 77002
" />
<path d="M70810 76805
L70782 76833
L70810 76861
L70838 76833
L70810 76805
L70810 76861
" />
<path d="M71429 77339
L71401 77367
L71316 77395
L71260 77395
L71176 77367
L71120 77311
L71091 77255
L71063 77142
L71063 77058
L71091 76946
L71120 76889
L71176 76833
L71260 76805
L71316 76805
L71401 76833
L71429 76861
" />
<path d="M71935 77395
L71935 77086
L71907 77030
L71851 77002
L71738 77002
L71682 77030
" />
<path d="M71935 77367
L71879 77395
L71738 77395
L71682 77367
L71654 77311
L71654 77255
L71682 77199
L71738 77171
L71879 77171
L71935 77142
" />
<path d="M72469 77395
L72469 76805
" />
<path d="M72469 77367
L72413 77395
L72301 77395
L72244 77367
L72216 77339
L72188 77283
L72188 77114
L72216 77058
L72244 77030
L72301 77002
L72413 77002
L72469 77030
" />
<path d="M73201 77086
L73397 77086
" />
<path d="M73482 77395
L73201 77395
L73201 76805
L73482 76805
" />
<path d="M73735 77339
L73763 77367
L73735 77395
L73707 77367
L73735 77339
L73735 77395
" />
<path d="M74016 77395
L74016 76805
L74157 76805
L74241 76833
L74297 76889
L74325 76946
L74354 77058
L74354 77142
L74325 77255
L74297 77311
L74241 77367
L74157 77395
L74016 77395
" />
<path d="M74607 77339
L74635 77367
L74607 77395
L74579 77367
L74607 77339
L74607 77395
" />
<path d="M74860 77227
L75141 77227
" />
<path d="M74804 77395
L75000 76805
L75197 77395
" />
<path d="M75394 77339
L75422 77367
L75394 77395
L75366 77367
L75394 77339
L75394 77395
" />
<path d="M76575 77395
L76575 76805
" />
<path d="M76631 77171
L76800 77395
" />
<path d="M76800 77002
L76575 77227
" />
<path d="M77053 77395
L77053 77002
" />
<path d="M77053 76805
L77025 76833
L77053 76861
L77081 76833
L77053 76805
L77053 76861
" />
<path d="M77588 77367
L77531 77395
L77419 77395
L77363 77367
L77334 77339
L77306 77283
L77306 77114
L77334 77058
L77363 77030
L77419 77002
L77531 77002
L77588 77030
" />
<path d="M78094 77395
L78094 77086
L78066 77030
L78009 77002
L77897 77002
L77841 77030
" />
<path d="M78094 77367
L78037 77395
L77897 77395
L77841 77367
L77813 77311
L77813 77255
L77841 77199
L77897 77171
L78037 77171
L78094 77142
" />
<path d="M78628 77395
L78628 76805
" />
<path d="M78628 77367
L78572 77395
L78459 77395
L78403 77367
L78375 77339
L78347 77283
L78347 77114
L78375 77058
L78403 77030
L78459 77002
L78572 77002
L78628 77030
" />
<path d="M79612 77002
L79612 77395
" />
<path d="M79472 76777
L79331 77199
L79697 77199
" />
<path d="M79922 77339
L79950 77367
L79922 77395
L79894 77367
L79922 77339
L79922 77395
" />
<path d="M80315 76805
L80372 76805
L80428 76833
L80456 76861
L80484 76917
L80512 77030
L80512 77171
L80484 77283
L80456 77339
L80428 77367
L80372 77395
L80315 77395
L80259 77367
L80231 77339
L80203 77283
L80175 77171
L80175 77030
L80203 76917
L80231 76861
L80259 76833
L80315 76805
" />
<path d="M80765 77339
L80793 77367
L80765 77395
L80737 77367
L80765 77339
L80765 77395
" />
<path d="M81300 77002
L81300 77395
" />
<path d="M81159 76777
L81018 77199
L81384 77199
" />
<path d="M81609 77171
L82059 77171
" />
<path d="M82312 77367
L82368 77395
L82481 77395
L82537 77367
L82565 77311
L82565 77283
L82537 77227
L82481 77199
L82396 77199
L82340 77171
L82312 77114
L82312 77086
L82340 77030
L82396 77002
L82481 77002
L82537 77030
" />
<path d="M82734 77002
L82959 77002
" />
<path d="M82818 76805
L82818 77311
L82846 77367
L82903 77395
L82959 77395
" />
<path d="M83409 77395
L83409 77086
L83381 77030
L83324 77002
L83212 77002
L83156 77030
" />
<path d="M83409 77367
L83352 77395
L83212 77395
L83156 77367
L83127 77311
L83127 77255
L83156 77199
L83212 77171
L83352 77171
L83409 77142
" />
<path d="M83690 77395
L83690 76805
" />
<path d="M83690 77030
L83746 77002
L83859 77002
L83915 77030
L83943 77058
L83971 77114
L83971 77283
L83943 77339
L83915 77367
L83859 77395
L83746 77395
L83690 77367
" />
<path d="M84309 77395
L84252 77367
L84224 77311
L84224 76805
" />
<path d="M84759 77367
L84702 77395
L84590 77395
L84534 77367
L84505 77311
L84505 77086
L84534 77030
L84590 77002
L84702 77002
L84759 77030
L84787 77086
L84787 77142
L84505 77199
" />
<path d="M69685 75396
L112205 75396
" />
</g>
<g style="fill:#000000; fill-opacity:0.0; 
stroke:#000000; stroke-width:118.11; stroke-opacity:1; 
stroke-linecap:round; stroke-linejoin:round;">
<path d="M104022 76293
L103825 76012
" />
<path d="M103684 76293
L103684 75703
L103909 75703
L103965 75731
L103994 75759
L104022 75815
L104022 75899
L103994 75956
L103965 75984
L103909 76012
L103684 76012
" />
<path d="M104500 76265
L104444 76293
L104331 76293
L104275 76265
L104247 76209
L104247 75984
L104275 75928
L104331 75899
L104444 75899
L104500 75928
L104528 75984
L104528 76040
L104247 76096
" />
<path d="M104725 75899
L104865 76293
L105006 75899
" />
<path d="M105231 76237
L105259 76265
L105231 76293
L105203 76265
L105231 76237
L105231 76293
" />
<path d="M105231 75928
L105259 75956
L105231 75984
L105203 75956
L105231 75928
L105231 75984
" />
</g>
<g style="fill:#000000; fill-opacity:0.0; 
stroke:#000000; stroke-width:59.0551; stroke-opacity:1; 
stroke-linecap:round; stroke-linejoin:round;">
<path d="M70192 76265
L70276 76293
L70417 76293
L70473 76265
L70501 76237
L70529 76181
L70529 76124
L70501 76068
L70473 76040
L70417 76012
L70304 75984
L70248 75956
L70220 75928
L70192 75871
L70192 75815
L70220 75759
L70248 75731
L70304 75703
L70445 75703
L70529 75731
" />
<path d="M70782 76293
L70782 75899
" />
<path d="M70782 75703
L70754 75731
L70782 75759
L70810 75731
L70782 75703
L70782 75759
" />
<path d="M71007 75899
L71316 75899
L71007 76293
L71316 76293
" />
<path d="M71766 76265
L71710 76293
L71598 76293
L71541 76265
L71513 76209
L71513 75984
L71541 75928
L71598 75899
L71710 75899
L71766 75928
L71795 75984
L71795 76040
L71513 76096
" />
<path d="M72048 76237
L72076 76265
L72048 76293
L72019 76265
L72048 76237
L72048 76293
" />
<path d="M72048 75928
L72076 75956
L72048 75984
L72019 75956
L72048 75928
L72048 75984
" />
<path d="M72751 76124
L73032 76124
" />
<path d="M72694 76293
L72891 75703
L73088 76293
" />
<path d="M73538 75899
L73538 76293
" />
<path d="M73397 75674
L73257 76096
L73622 76096
" />
<path d="M103684 77395
L103684 76805
" />
<path d="M104219 77395
L104219 76805
" />
<path d="M104219 77367
L104162 77395
L104050 77395
L103994 77367
L103965 77339
L103937 77283
L103937 77114
L103965 77058
L103994 77030
L104050 77002
L104162 77002
L104219 77030
" />
<path d="M104500 77339
L104528 77367
L104500 77395
L104472 77367
L104500 77339
L104500 77395
" />
<path d="M104500 77030
L104528 77058
L104500 77086
L104472 77058
L104500 77030
L104500 77086
" />
<path d="M105540 77395
L105203 77395
" />
<path d="M105372 77395
L105372 76805
L105315 76889
L105259 76946
L105203 76974
" />
<path d="M106215 76777
L105709 77536
" />
<path d="M106721 77395
L106384 77395
" />
<path d="M106553 77395
L106553 76805
L106496 76889
L106440 76946
L106384 76974
" />
<path d="M69685 73821
L112205 73821
" />
</g>
<g style="fill:#000000; fill-opacity:0.0; 
stroke:#000000; stroke-width:157.48; stroke-opacity:1; 
stroke-linecap:round; stroke-linejoin:round;">
<path d="M70257 74099
L70707 74099
" />
<path d="M70384 74886
L70482 74099
" />
<path d="M70871 74886
L70937 74361
" />
<path d="M70970 74099
L70927 74136
L70960 74174
L71002 74136
L70970 74099
L70960 74174
" />
<path d="M71199 74361
L71499 74361
" />
<path d="M71345 74099
L71260 74774
L71288 74849
L71359 74886
L71434 74886
" />
<path d="M71809 74886
L71738 74849
L71710 74774
L71795 74099
" />
<path d="M72413 74849
L72334 74886
L72184 74886
L72113 74849
L72085 74774
L72123 74474
L72169 74399
L72249 74361
L72399 74361
L72469 74399
L72498 74474
L72488 74549
L72104 74624
" />
<path d="M72793 74811
L72826 74849
L72783 74886
L72751 74849
L72793 74811
L72783 74886
" />
<path d="M72844 74399
L72877 74436
L72835 74474
L72802 74436
L72844 74399
L72835 74474
" />
</g>
<g style="fill:#000000; fill-opacity:0.0; 
stroke:#000000; stroke-width:59.0551; stroke-opacity:1; 
stroke-linecap:round; stroke-linejoin:round;">
<path d="M70417 73070
L70220 73070
" />
<path d="M70220 73380
L70220 72789
L70501 72789
" />
<path d="M70726 73380
L70726 72986
" />
<path d="M70726 72789
L70698 72817
L70726 72845
L70754 72817
L70726 72789
L70726 72845
" />
<path d="M71091 73380
L71035 73352
L71007 73295
L71007 72789
" />
<path d="M71541 73352
L71485 73380
L71373 73380
L71316 73352
L71288 73295
L71288 73070
L71316 73014
L71373 72986
L71485 72986
L71541 73014
L71570 73070
L71570 73127
L71288 73183
" />
<path d="M71823 73323
L71851 73352
L71823 73380
L71795 73352
L71823 73323
L71823 73380
" />
<path d="M71823 73014
L71851 73042
L71823 73070
L71795 73042
L71823 73014
L71823 73070
" />
<path d="M72554 73380
L72554 72789
" />
<path d="M72610 73155
L72779 73380
" />
<path d="M72779 72986
L72554 73211
" />
<path d="M73285 73352
L73229 73380
L73116 73380
L73060 73352
L73032 73323
L73004 73267
L73004 73099
L73032 73042
L73060 73014
L73116 72986
L73229 72986
L73285 73014
" />
<path d="M73538 72986
L73538 73380
" />
<path d="M73538 73042
L73566 73014
L73622 72986
L73707 72986
L73763 73014
L73791 73070
L73791 73380
" />
<path d="M74325 73352
L74269 73380
L74157 73380
L74100 73352
L74072 73323
L74044 73267
L74044 73099
L74072 73042
L74100 73014
L74157 72986
L74269 72986
L74325 73014
" />
<path d="M74579 73155
L75028 73155
" />
<path d="M75563 72986
L75563 73464
L75535 73520
L75507 73548
L75450 73577
L75366 73577
L75310 73548
" />
<path d="M75563 73352
L75507 73380
L75394 73380
L75338 73352
L75310 73323
L75282 73267
L75282 73099
L75310 73042
L75338 73014
L75394 72986
L75507 72986
L75563 73014
" />
<path d="M75844 73380
L75844 72986
" />
<path d="M75844 73099
L75872 73042
L75900 73014
L75956 72986
L76013 72986
" />
<path d="M76210 73380
L76210 72789
" />
<path d="M76210 73014
L76266 72986
L76378 72986
L76435 73014
L76463 73042
L76491 73099
L76491 73267
L76463 73323
L76435 73352
L76378 73380
L76266 73380
L76210 73352
" />
<path d="M76828 73380
L76772 73352
L76744 73295
L76744 72789
" />
<path d="M76913 73436
L77363 73436
" />
<path d="M77475 73352
L77531 73380
L77644 73380
L77700 73352
L77728 73295
L77728 73267
L77700 73211
L77644 73183
L77559 73183
L77503 73155
L77475 73099
L77475 73070
L77503 73014
L77559 72986
L77644 72986
L77700 73014
" />
<path d="M77981 73380
L77981 72789
" />
<path d="M78234 73380
L78234 73070
L78206 73014
L78150 72986
L78066 72986
L78009 73014
L77981 73042
" />
<path d="M78516 73380
L78516 72986
" />
<path d="M78516 72789
L78487 72817
L78516 72845
L78544 72817
L78516 72789
L78516 72845
" />
<path d="M79022 73352
L78965 73380
L78853 73380
L78797 73352
L78769 73295
L78769 73070
L78797 73014
L78853 72986
L78965 72986
L79022 73014
L79050 73070
L79050 73127
L78769 73183
" />
<path d="M79387 73380
L79331 73352
L79303 73295
L79303 72789
" />
<path d="M79865 73380
L79865 72789
" />
<path d="M79865 73352
L79809 73380
L79697 73380
L79640 73352
L79612 73323
L79584 73267
L79584 73099
L79612 73042
L79640 73014
L79697 72986
L79809 72986
L79865 73014
" />
<path d="M80147 73155
L80597 73155
" />
<path d="M80878 72986
L80878 73577
" />
<path d="M80878 73014
L80934 72986
L81046 72986
L81103 73014
L81131 73042
L81159 73099
L81159 73267
L81131 73323
L81103 73352
L81046 73380
L80934 73380
L80878 73352
" />
<path d="M81665 73352
L81609 73380
L81496 73380
L81440 73352
L81412 73323
L81384 73267
L81384 73099
L81412 73042
L81440 73014
L81496 72986
L81609 72986
L81665 73014
" />
<path d="M81918 73380
L81918 72789
" />
<path d="M81918 73014
L81974 72986
L82087 72986
L82143 73014
L82171 73042
L82199 73099
L82199 73267
L82171 73323
L82143 73352
L82087 73380
L81974 73380
L81918 73352
" />
<path d="M82453 73323
L82481 73352
L82453 73380
L82424 73352
L82453 73323
L82453 73380
" />
<path d="M82734 73380
L82734 72789
" />
<path d="M82790 73155
L82959 73380
" />
<path d="M82959 72986
L82734 73211
" />
<path d="M83212 73380
L83212 72986
" />
<path d="M83212 72789
L83184 72817
L83212 72845
L83240 72817
L83212 72789
L83212 72845
" />
<path d="M83746 73352
L83690 73380
L83577 73380
L83521 73352
L83493 73323
L83465 73267
L83465 73099
L83493 73042
L83521 73014
L83577 72986
L83690 72986
L83746 73014
" />
<path d="M84252 73380
L84252 73070
L84224 73014
L84168 72986
L84055 72986
L83999 73014
" />
<path d="M84252 73352
L84196 73380
L84055 73380
L83999 73352
L83971 73295
L83971 73239
L83999 73183
L84055 73155
L84196 73155
L84252 73127
" />
<path d="M84787 73380
L84787 72789
" />
<path d="M84787 73352
L84730 73380
L84618 73380
L84562 73352
L84534 73323
L84505 73267
L84505 73099
L84534 73042
L84562 73014
L84618 72986
L84730 72986
L84787 73014
" />
<path d="M84927 73436
L85377 73436
" />
<path d="M85518 72986
L85518 73577
" />
<path d="M85518 73014
L85574 72986
L85687 72986
L85743 73014
L85771 73042
L85799 73099
L85799 73267
L85771 73323
L85743 73352
L85687 73380
L85574 73380
L85518 73352
" />
<path d="M86305 73352
L86249 73380
L86136 73380
L86080 73352
L86052 73323
L86024 73267
L86024 73099
L86052 73042
L86080 73014
L86136 72986
L86249 72986
L86305 73014
" />
<path d="M86558 73380
L86558 72789
" />
<path d="M86558 73014
L86615 72986
L86727 72986
L86783 73014
L86811 73042
L86840 73099
L86840 73267
L86811 73323
L86783 73352
L86727 73380
L86615 73380
L86558 73352
" />
<path d="M69685 71459
L112205 71459
" />
<path d="M70192 72289
L70276 72317
L70417 72317
L70473 72289
L70501 72260
L70529 72204
L70529 72148
L70501 72092
L70473 72064
L70417 72036
L70304 72007
L70248 71979
L70220 71951
L70192 71895
L70192 71839
L70220 71782
L70248 71754
L70304 71726
L70445 71726
L70529 71754
" />
<path d="M70782 72317
L70782 71726
" />
<path d="M71035 72317
L71035 72007
L71007 71951
L70951 71923
L70867 71923
L70810 71951
L70782 71979
" />
<path d="M71541 72289
L71485 72317
L71373 72317
L71316 72289
L71288 72232
L71288 72007
L71316 71951
L71373 71923
L71485 71923
L71541 71951
L71570 72007
L71570 72064
L71288 72120
" />
<path d="M72048 72289
L71991 72317
L71879 72317
L71823 72289
L71795 72232
L71795 72007
L71823 71951
L71879 71923
L71991 71923
L72048 71951
L72076 72007
L72076 72064
L71795 72120
" />
<path d="M72244 71923
L72469 71923
" />
<path d="M72329 71726
L72329 72232
L72357 72289
L72413 72317
L72469 72317
" />
<path d="M72666 72260
L72694 72289
L72666 72317
L72638 72289
L72666 72260
L72666 72317
" />
<path d="M72666 71951
L72694 71979
L72666 72007
L72638 71979
L72666 71951
L72666 72007
" />
<path d="M77559 75396
L77559 76577
" />
<path d="M102756 75396
L102756 77955
" />
<path d="M38188 49212
L38188 27559
" />
<path d="M77952 49212
L38188 49212
" />
<path d="M77952 27559
L77952 49212
" />
<path d="M38188 27559
L77952 27559
" />
<circle cx="34645.7" cy="52755.9" r="656.168" /> 
<path d="M33661 52755
L35629 52755
" />
<path d="M34645 51771
L34645 53740
" />
<circle cx="81496.1" cy="52755.9" r="656.168" /> 
<path d="M80511 52755
L82480 52755
" />
<path d="M81496 51771
L81496 53740
" />
<circle cx="81496.1" cy="24015.7" r="656.168" /> 
<path d="M80511 24015
L82480 24015
" />
<path d="M81496 23031
L81496 25000
" />
<circle cx="34645.7" cy="24015.7" r="656.168" /> 
<path d="M33661 24015
L35629 24015
" />
<path d="M34645 23031
L34645 25000
" />
</g>
<g style="fill:#000000; fill-opacity:0.0; 
stroke:#000000; stroke-width:39.3701; stroke-opacity:1; 
stroke-linecap:round; stroke-linejoin:round;">
<path d="M73906 41855
L73906 42344
" />
<path d="M74693 41855
L73906 41855
" />
<path d="M74693 42344
L74693 41855
" />
<path d="M73906 42344
L74693 42344
" />
<path d="M41235 45192
L41235 45507
" />
<path d="M41864 45192
L41235 45192
" />
<path d="M41864 45507
L41864 45192
" />
<path d="M41235 45507
L41864 45507
" />
<path d="M43985 45192
L43985 45507
" />
<path d="M44614 45192
L43985 45192
" />
<path d="M44614 45507
L44614 45192
" />
<path d="M43985 45507
L44614 45507
" />
<path d="M70244 34106
L69755 34106
" />
<path d="M70244 34893
L70244 34106
" />
<path d="M69755 34893
L70244 34893
" />
<path d="M69755 34106
L69755 34893
" />
<path d="M46735 45192
L46735 45507
" />
<path d="M47364 45192
L46735 45192
" />
<path d="M47364 45507
L47364 45192
" />
<path d="M46735 45507
L47364 45507
" />
<path d="M49485 45192
L49485 45507
" />
<path d="M50114 45192
L49485 45192
" />
<path d="M50114 45507
L50114 45192
" />
<path d="M49485 45507
L50114 45507
" />
<path d="M71057 34085
L70742 34085
" />
<path d="M71057 34714
L71057 34085
" />
<path d="M70742 34714
L71057 34714
" />
<path d="M70742 34085
L70742 34714
" />
<path d="M52235 45192
L52235 45507
" />
<path d="M52864 45192
L52235 45192
" />
<path d="M52864 45507
L52864 45192
" />
<path d="M52235 45507
L52864 45507
" />
<path d="M71857 34085
L71542 34085
" />
<path d="M71857 34714
L71857 34085
" />
<path d="M71542 34714
L71857 34714
" />
<path d="M71542 34085
L71542 34714
" />
<path d="M54985 45192
L54985 45507
" />
<path d="M55614 45192
L54985 45192
" />
<path d="M55614 45507
L55614 45192
" />
<path d="M54985 45507
L55614 45507
" />
<path d="M57985 45192
L57985 45507
" />
<path d="M58614 45192
L57985 45192
" />
<path d="M58614 45507
L58614 45192
" />
<path d="M57985 45507
L58614 45507
" />
<path d="M40457 41785
L40142 41785
" />
<path d="M40457 42414
L40457 41785
" />
<path d="M40142 42414
L40457 42414
" />
<path d="M40142 41785
L40142 42414
" />
<path d="M43457 41785
L43142 41785
" />
<path d="M43457 42414
L43457 41785
" />
<path d="M43142 42414
L43457 42414
" />
<path d="M43142 41785
L43142 42414
" />
<path d="M46207 41785
L45892 41785
" />
<path d="M46207 42414
L46207 41785
" />
<path d="M45892 42414
L46207 42414
" />
<path d="M45892 41785
L45892 42414
" />
<path d="M48957 41785
L48642 41785
" />
<path d="M48957 42414
L48957 41785
" />
<path d="M48642 42414
L48957 42414
" />
<path d="M48642 41785
L48642 42414
" />
<path d="M51707 41785
L51392 41785
" />
<path d="M51707 42414
L51707 41785
" />
<path d="M51392 42414
L51707 42414
" />
<path d="M51392 41785
L51392 42414
" />
<path d="M54457 41785
L54142 41785
" />
<path d="M54457 42414
L54457 41785
" />
<path d="M54142 42414
L54457 42414
" />
<path d="M54142 41785
L54142 42414
" />
<path d="M57207 41785
L56892 41785
" />
<path d="M57207 42414
L57207 41785
" />
<path d="M56892 42414
L57207 42414
" />
<path d="M56892 41785
L56892 42414
" />
<path d="M40457 43785
L40142 43785
" />
<path d="M40457 44414
L40457 43785
" />
<path d="M40142 44414
L40457 44414
" />
<path d="M40142 43785
L40142 44414
" />
<path d="M43457 43785
L43142 43785
" />
<path d="M43457 44414
L43457 43785
" />
<path d="M43142 44414
L43457 44414
" />
<path d="M43142 43785
L43142 44414
" />
<path d="M46207 43785
L45892 43785
" />
<path d="M46207 44414
L46207 43785
" />
<path d="M45892 44414
L46207 44414
" />
<path d="M45892 43785
L45892 44414
" />
<path d="M48957 43785
L48642 43785
" />
<path d="M48957 44414
L48957 43785
" />
<path d="M48642 44414
L48957 44414
" />
<path d="M48642 43785
L48642 44414
" />
<path d="M51707 43785
L51392 43785
" />
<path d="M51707 44414
L51707 43785
" />
<path d="M51392 44414
L51707 44414
" />
<path d="M51392 43785
L51392 44414
" />
<path d="M54457 43785
L54142 43785
" />
<path d="M54457 44414
L54457 43785
" />
<path d="M54142 44414
L54457 44414
" />
<path d="M54142 43785
L54142 44414
" />
<path d="M57207 43785
L56892 43785
" />
<path d="M57207 44414
L57207 43785
" />
<path d="M56892 44414
L57207 44414
" />
<path d="M56892 43785
L56892 44414
" />
<path d="M48057 47185
L47742 47185
" />
<path d="M48057 47814
L48057 47185
" />
<path d="M47742 47814
L48057 47814
" />
<path d="M47742 47185
L47742 47814
" />
</g>
<g style="fill:#000000; fill-opacity:0.0; 
stroke:#000000; stroke-width:47.2441; stroke-opacity:1; 
stroke-linecap:round; stroke-linejoin:round;">
<path d="M42300 44000
L42300 44450
" />
<path d="M41300 44000
L41300 44450
" />
<path d="M41300 41750
L41300 42250
" />
<path d="M42300 42200
L42300 41750
" />
<path d="M42508 42233
L42508 43966
" />
<path d="M42508 43966
L41091 43966
" />
<path d="M41091 43966
L41091 42470
" />
<path d="M41091 42470
L41327 42233
" />
<path d="M41327 42233
L42508 42233
" />
<path d="M45050 44000
L45050 44450
" />
<path d="M44050 44000
L44050 44450
" />
<path d="M44050 41750
L44050 42250
" />
<path d="M45050 42200
L45050 41750
" />
<path d="M45258 42233
L45258 43966
" />
<path d="M45258 43966
L43841 43966
" />
<path d="M43841 43966
L43841 42470
" />
<path d="M43841 42470
L44077 42233
" />
<path d="M44077 42233
L45258 42233
" />
<path d="M47800 44000
L47800 44450
" />
<path d="M46800 44000
L46800 44450
" />
<path d="M46800 41750
L46800 42250
" />
<path d="M47800 42200
L47800 41750
" />
<path d="M48008 42233
L48008 43966
" />
<path d="M48008 43966
L46591 43966
" />
<path d="M46591 43966
L46591 42470
" />
<path d="M46591 42470
L46827 42233
" />
<path d="M46827 42233
L48008 42233
" />
<path d="M50550 44000
L50550 44450
" />
<path d="M49550 44000
L49550 44450
" />
<path d="M49550 41750
L49550 42250
" />
<path d="M50550 42200
L50550 41750
" />
<path d="M50758 42233
L50758 43966
" />
<path d="M50758 43966
L49341 43966
" />
<path d="M49341 43966
L49341 42470
" />
<path d="M49341 42470
L49577 42233
" />
<path d="M49577 42233
L50758 42233
" />
<path d="M53300 44000
L53300 44450
" />
<path d="M52300 44000
L52300 44450
" />
<path d="M52300 41750
L52300 42250
" />
<path d="M53300 42200
L53300 41750
" />
<path d="M53508 42233
L53508 43966
" />
<path d="M53508 43966
L52091 43966
" />
<path d="M52091 43966
L52091 42470
" />
<path d="M52091 42470
L52327 42233
" />
<path d="M52327 42233
L53508 42233
" />
<path d="M56050 44000
L56050 44450
" />
<path d="M55050 44000
L55050 44450
" />
<path d="M55050 41750
L55050 42250
" />
<path d="M56050 42200
L56050 41750
" />
<path d="M56258 42233
L56258 43966
" />
<path d="M56258 43966
L54841 43966
" />
<path d="M54841 43966
L54841 42470
" />
<path d="M54841 42470
L55077 42233
" />
<path d="M55077 42233
L56258 42233
" />
<path d="M59050 44000
L59050 44450
" />
<path d="M58050 44000
L58050 44450
" />
<path d="M58050 41750
L58050 42250
" />
<path d="M59050 42200
L59050 41750
" />
<path d="M59258 42233
L59258 43966
" />
<path d="M59258 43966
L57841 43966
" />
<path d="M57841 43966
L57841 42470
" />
<path d="M57841 42470
L58077 42233
" />
<path d="M58077 42233
L59258 42233
" />
</g>
<g style="fill:#000000; fill-opacity:0.0; 
stroke:#000000; stroke-width:59.0551; stroke-opacity:1; 
stroke-linecap:round; stroke-linejoin:round;">
<path d="M74365 42831
L74384 42849
L74440 42868
L74478 42868
L74534 42849
L74571 42812
L74590 42774
L74609 42699
L74609 42643
L74590 42568
L74571 42531
L74534 42493
L74478 42474
L74440 42474
L74384 42493
L74365 42512
" />
<path d="M73990 42868
L74215 42868
" />
<path d="M74103 42868
L74103 42474
L74140 42531
L74178 42568
L74215 42587
" />
<path d="M41615 46081
L41634 46099
L41690 46118
L41728 46118
L41784 46099
L41821 46062
L41840 46024
L41859 45949
L41859 45893
L41840 45818
L41821 45781
L41784 45743
L41728 45724
L41690 45724
L41634 45743
L41615 45762
" />
<path d="M41484 45724
L41240 45724
L41371 45874
L41315 45874
L41278 45893
L41259 45912
L41240 45949
L41240 46043
L41259 46081
L41278 46099
L41315 46118
L41428 46118
L41465 46099
L41484 46081
" />
<path d="M44365 46081
L44384 46099
L44440 46118
L44478 46118
L44534 46099
L44571 46062
L44590 46024
L44609 45949
L44609 45893
L44590 45818
L44571 45781
L44534 45743
L44478 45724
L44440 45724
L44384 45743
L44365 45762
" />
<path d="M44028 45856
L44028 46118
" />
<path d="M44121 45706
L44215 45987
L43971 45987
" />
<path d="M69550 34434
L69568 34415
L69587 34359
L69587 34321
L69568 34265
L69531 34228
L69493 34209
L69418 34190
L69362 34190
L69287 34209
L69250 34228
L69212 34265
L69193 34321
L69193 34359
L69212 34415
L69231 34434
" />
<path d="M69193 34790
L69193 34603
L69381 34584
L69362 34603
L69343 34640
L69343 34734
L69362 34771
L69381 34790
L69418 34809
L69512 34809
L69550 34790
L69568 34771
L69587 34734
L69587 34640
L69568 34603
L69550 34584
" />
<path d="M47115 46081
L47134 46099
L47190 46118
L47228 46118
L47284 46099
L47321 46062
L47340 46024
L47359 45949
L47359 45893
L47340 45818
L47321 45781
L47284 45743
L47228 45724
L47190 45724
L47134 45743
L47115 45762
" />
<path d="M46778 45724
L46853 45724
L46890 45743
L46909 45762
L46946 45818
L46965 45893
L46965 46043
L46946 46081
L46928 46099
L46890 46118
L46815 46118
L46778 46099
L46759 46081
L46740 46043
L46740 45949
L46759 45912
L46778 45893
L46815 45874
L46890 45874
L46928 45893
L46946 45912
L46965 45949
" />
<path d="M49865 46081
L49884 46099
L49940 46118
L49978 46118
L50034 46099
L50071 46062
L50090 46024
L50109 45949
L50109 45893
L50090 45818
L50071 45781
L50034 45743
L49978 45724
L49940 45724
L49884 45743
L49865 45762
" />
<path d="M49640 45893
L49678 45874
L49696 45856
L49715 45818
L49715 45799
L49696 45762
L49678 45743
L49640 45724
L49565 45724
L49528 45743
L49509 45762
L49490 45799
L49490 45818
L49509 45856
L49528 45874
L49565 45893
L49640 45893
L49678 45912
L49696 45931
L49715 45968
L49715 46043
L49696 46081
L49678 46099
L49640 46118
L49565 46118
L49528 46099
L49509 46081
L49490 46043
L49490 45968
L49509 45931
L49528 45912
L49565 45893
" />
<path d="M70450 34334
L70468 34315
L70487 34259
L70487 34221
L70468 34165
L70431 34128
L70393 34109
L70318 34090
L70262 34090
L70187 34109
L70150 34128
L70112 34165
L70093 34221
L70093 34259
L70112 34315
L70131 34334
" />
<path d="M70487 34521
L70487 34596
L70468 34634
L70450 34653
L70393 34690
L70318 34709
L70168 34709
L70131 34690
L70112 34671
L70093 34634
L70093 34559
L70112 34521
L70131 34503
L70168 34484
L70262 34484
L70300 34503
L70318 34521
L70337 34559
L70337 34634
L70318 34671
L70300 34690
L70262 34709
" />
<path d="M52803 46081
L52821 46099
L52878 46118
L52915 46118
L52971 46099
L53009 46062
L53028 46024
L53046 45949
L53046 45893
L53028 45818
L53009 45781
L52971 45743
L52915 45724
L52878 45724
L52821 45743
L52803 45762
" />
<path d="M52428 46118
L52653 46118
" />
<path d="M52540 46118
L52540 45724
L52578 45781
L52615 45818
L52653 45837
" />
<path d="M52184 45724
L52146 45724
L52109 45743
L52090 45762
L52071 45799
L52053 45874
L52053 45968
L52071 46043
L52090 46081
L52109 46099
L52146 46118
L52184 46118
L52221 46099
L52240 46081
L52259 46043
L52278 45968
L52278 45874
L52259 45799
L52240 45762
L52221 45743
L52184 45724
" />
<path d="M71250 34146
L71268 34128
L71287 34071
L71287 34034
L71268 33978
L71231 33940
L71193 33921
L71118 33903
L71062 33903
L70987 33921
L70950 33940
L70912 33978
L70893 34034
L70893 34071
L70912 34128
L70931 34146
" />
<path d="M71287 34521
L71287 34296
" />
<path d="M71287 34409
L70893 34409
L70950 34371
L70987 34334
L71006 34296
" />
<path d="M71287 34896
L71287 34671
" />
<path d="M71287 34784
L70893 34784
L70950 34746
L70987 34709
L71006 34671
" />
<path d="M55553 46081
L55571 46099
L55628 46118
L55665 46118
L55721 46099
L55759 46062
L55778 46024
L55796 45949
L55796 45893
L55778 45818
L55759 45781
L55721 45743
L55665 45724
L55628 45724
L55571 45743
L55553 45762
" />
<path d="M55178 46118
L55403 46118
" />
<path d="M55290 46118
L55290 45724
L55328 45781
L55365 45818
L55403 45837
" />
<path d="M55028 45762
L55009 45743
L54971 45724
L54878 45724
L54840 45743
L54821 45762
L54803 45799
L54803 45837
L54821 45893
L55046 46118
L54803 46118
" />
<path d="M58553 46081
L58571 46099
L58628 46118
L58665 46118
L58721 46099
L58759 46062
L58778 46024
L58796 45949
L58796 45893
L58778 45818
L58759 45781
L58721 45743
L58665 45724
L58628 45724
L58571 45743
L58553 45762
" />
<path d="M58178 46118
L58403 46118
" />
<path d="M58290 46118
L58290 45724
L58328 45781
L58365 45818
L58403 45837
" />
<path d="M58046 45724
L57803 45724
L57934 45874
L57878 45874
L57840 45893
L57821 45912
L57803 45949
L57803 46043
L57821 46081
L57840 46099
L57878 46118
L57990 46118
L58028 46099
L58046 46081
" />
</g>
<g style="fill:#000000; fill-opacity:0.0; 
stroke:#000000; stroke-width:29.5276; stroke-opacity:1; 
stroke-linecap:round; stroke-linejoin:round;">
<path d="M40389 42067
L40295 42001
" />
<path d="M40389 41954
L40192 41954
L40192 42029
L40201 42048
L40210 42057
L40229 42067
L40257 42067
L40276 42057
L40285 42048
L40295 42029
L40295 41954
" />
<path d="M40389 42254
L40389 42142
" />
<path d="M40389 42198
L40192 42198
L40220 42179
L40239 42160
L40248 42142
" />
<path d="M43389 42067
L43295 42001
" />
<path d="M43389 41954
L43192 41954
L43192 42029
L43201 42048
L43210 42057
L43229 42067
L43257 42067
L43276 42057
L43285 42048
L43295 42029
L43295 41954
" />
<path d="M43210 42142
L43201 42151
L43192 42170
L43192 42217
L43201 42235
L43210 42245
L43229 42254
L43248 42254
L43276 42245
L43389 42132
L43389 42254
" />
<path d="M46139 42067
L46045 42001
" />
<path d="M46139 41954
L45942 41954
L45942 42029
L45951 42048
L45960 42057
L45979 42067
L46007 42067
L46026 42057
L46035 42048
L46045 42029
L46045 41954
" />
<path d="M45942 42132
L45942 42254
L46017 42189
L46017 42217
L46026 42235
L46035 42245
L46054 42254
L46101 42254
L46120 42245
L46129 42235
L46139 42217
L46139 42160
L46129 42142
L46120 42132
" />
<path d="M48889 42067
L48795 42001
" />
<path d="M48889 41954
L48692 41954
L48692 42029
L48701 42048
L48710 42057
L48729 42067
L48757 42067
L48776 42057
L48785 42048
L48795 42029
L48795 41954
" />
<path d="M48757 42235
L48889 42235
" />
<path d="M48682 42189
L48823 42142
L48823 42264
" />
<path d="M51639 42067
L51545 42001
" />
<path d="M51639 41954
L51442 41954
L51442 42029
L51451 42048
L51460 42057
L51479 42067
L51507 42067
L51526 42057
L51535 42048
L51545 42029
L51545 41954
" />
<path d="M51442 42245
L51442 42151
L51535 42142
L51526 42151
L51517 42170
L51517 42217
L51526 42235
L51535 42245
L51554 42254
L51601 42254
L51620 42245
L51629 42235
L51639 42217
L51639 42170
L51629 42151
L51620 42142
" />
<path d="M54389 42067
L54295 42001
" />
<path d="M54389 41954
L54192 41954
L54192 42029
L54201 42048
L54210 42057
L54229 42067
L54257 42067
L54276 42057
L54285 42048
L54295 42029
L54295 41954
" />
<path d="M54192 42235
L54192 42198
L54201 42179
L54210 42170
L54239 42151
L54276 42142
L54351 42142
L54370 42151
L54379 42160
L54389 42179
L54389 42217
L54379 42235
L54370 42245
L54351 42254
L54304 42254
L54285 42245
L54276 42235
L54267 42217
L54267 42179
L54276 42160
L54285 42151
L54304 42142
" />
<path d="M57139 42067
L57045 42001
" />
<path d="M57139 41954
L56942 41954
L56942 42029
L56951 42048
L56960 42057
L56979 42067
L57007 42067
L57026 42057
L57035 42048
L57045 42029
L57045 41954
" />
<path d="M56942 42132
L56942 42264
L57139 42179
" />
<path d="M40389 44067
L40295 44001
" />
<path d="M40389 43954
L40192 43954
L40192 44029
L40201 44048
L40210 44057
L40229 44067
L40257 44067
L40276 44057
L40285 44048
L40295 44029
L40295 43954
" />
<path d="M40276 44179
L40267 44160
L40257 44151
L40239 44142
L40229 44142
L40210 44151
L40201 44160
L40192 44179
L40192 44217
L40201 44235
L40210 44245
L40229 44254
L40239 44254
L40257 44245
L40267 44235
L40276 44217
L40276 44179
L40285 44160
L40295 44151
L40314 44142
L40351 44142
L40370 44151
L40379 44160
L40389 44179
L40389 44217
L40379 44235
L40370 44245
L40351 44254
L40314 44254
L40295 44245
L40285 44235
L40276 44217
" />
<path d="M43389 44067
L43295 44001
" />
<path d="M43389 43954
L43192 43954
L43192 44029
L43201 44048
L43210 44057
L43229 44067
L43257 44067
L43276 44057
L43285 44048
L43295 44029
L43295 43954
" />
<path d="M43389 44160
L43389 44198
L43379 44217
L43370 44226
L43342 44245
L43304 44254
L43229 44254
L43210 44245
L43201 44235
L43192 44217
L43192 44179
L43201 44160
L43210 44151
L43229 44142
L43276 44142
L43295 44151
L43304 44160
L43314 44179
L43314 44217
L43304 44235
L43295 44245
L43276 44254
" />
<path d="M46139 43973
L46045 43907
" />
<path d="M46139 43860
L45942 43860
L45942 43935
L45951 43954
L45960 43964
L45979 43973
L46007 43973
L46026 43964
L46035 43954
L46045 43935
L46045 43860
" />
<path d="M46139 44160
L46139 44048
" />
<path d="M46139 44104
L45942 44104
L45970 44085
L45989 44067
L45998 44048
" />
<path d="M45942 44282
L45942 44301
L45951 44320
L45960 44329
L45979 44339
L46017 44348
L46064 44348
L46101 44339
L46120 44329
L46129 44320
L46139 44301
L46139 44282
L46129 44264
L46120 44254
L46101 44245
L46064 44235
L46017 44235
L45979 44245
L45960 44254
L45951 44264
L45942 44282
" />
<path d="M48889 43973
L48795 43907
" />
<path d="M48889 43860
L48692 43860
L48692 43935
L48701 43954
L48710 43964
L48729 43973
L48757 43973
L48776 43964
L48785 43954
L48795 43935
L48795 43860
" />
<path d="M48889 44160
L48889 44048
" />
<path d="M48889 44104
L48692 44104
L48720 44085
L48739 44067
L48748 44048
" />
<path d="M48889 44348
L48889 44235
" />
<path d="M48889 44292
L48692 44292
L48720 44273
L48739 44254
L48748 44235
" />
<path d="M51639 43973
L51545 43907
" />
<path d="M51639 43860
L51442 43860
L51442 43935
L51451 43954
L51460 43964
L51479 43973
L51507 43973
L51526 43964
L51535 43954
L51545 43935
L51545 43860
" />
<path d="M51639 44160
L51639 44048
" />
<path d="M51639 44104
L51442 44104
L51470 44085
L51489 44067
L51498 44048
" />
<path d="M51460 44235
L51451 44245
L51442 44264
L51442 44310
L51451 44329
L51460 44339
L51479 44348
L51498 44348
L51526 44339
L51639 44226
L51639 44348
" />
<path d="M54389 43973
L54295 43907
" />
<path d="M54389 43860
L54192 43860
L54192 43935
L54201 43954
L54210 43964
L54229 43973
L54257 43973
L54276 43964
L54285 43954
L54295 43935
L54295 43860
" />
<path d="M54389 44160
L54389 44048
" />
<path d="M54389 44104
L54192 44104
L54220 44085
L54239 44067
L54248 44048
" />
<path d="M54192 44226
L54192 44348
L54267 44282
L54267 44310
L54276 44329
L54285 44339
L54304 44348
L54351 44348
L54370 44339
L54379 44329
L54389 44310
L54389 44254
L54379 44235
L54370 44226
" />
<path d="M57139 43973
L57045 43907
" />
<path d="M57139 43860
L56942 43860
L56942 43935
L56951 43954
L56960 43964
L56979 43973
L57007 43973
L57026 43964
L57035 43954
L57045 43935
L57045 43860
" />
<path d="M57139 44160
L57139 44048
" />
<path d="M57139 44104
L56942 44104
L56970 44085
L56989 44067
L56998 44048
" />
<path d="M57007 44329
L57139 44329
" />
<path d="M56932 44282
L57073 44235
L57073 44357
" />
<path d="M47989 47373
L47895 47307
" />
<path d="M47989 47260
L47792 47260
L47792 47335
L47801 47354
L47810 47364
L47829 47373
L47857 47373
L47876 47364
L47885 47354
L47895 47335
L47895 47260
" />
<path d="M47989 47560
L47989 47448
" />
<path d="M47989 47504
L47792 47504
L47820 47485
L47839 47467
L47848 47448
" />
<path d="M47792 47739
L47792 47645
L47885 47635
L47876 47645
L47867 47664
L47867 47710
L47876 47729
L47885 47739
L47904 47748
L47951 47748
L47970 47739
L47979 47729
L47989 47710
L47989 47664
L47979 47645
L47970 47635
" />
</g>
<g style="fill:#000000; fill-opacity:0.0; 
stroke:#000000; stroke-width:59.0551; stroke-opacity:1; 
stroke-linecap:round; stroke-linejoin:round;">
<path d="M41638 42875
L41877 42875
L41905 42889
L41919 42903
L41933 42931
L41933 42987
L41919 43015
L41905 43029
L41877 43043
L41638 43043
" />
<path d="M41933 43339
L41933 43170
" />
<path d="M41933 43254
L41638 43254
L41680 43226
L41708 43198
L41722 43170
" />
<path d="M44388 42875
L44627 42875
L44655 42889
L44669 42903
L44683 42931
L44683 42987
L44669 43015
L44655 43029
L44627 43043
L44388 43043
" />
<path d="M44416 43170
L44402 43184
L44388 43212
L44388 43282
L44402 43310
L44416 43324
L44444 43339
L44472 43339
L44514 43324
L44683 43156
L44683 43339
" />
<path d="M47138 42875
L47377 42875
L47405 42889
L47419 42903
L47433 42931
L47433 42987
L47419 43015
L47405 43029
L47377 43043
L47138 43043
" />
<path d="M47138 43156
L47138 43339
L47250 43240
L47250 43282
L47264 43310
L47278 43324
L47307 43339
L47377 43339
L47405 43324
L47419 43310
L47433 43282
L47433 43198
L47419 43170
L47405 43156
" />
<path d="M49888 42875
L50127 42875
L50155 42889
L50169 42903
L50183 42931
L50183 42987
L50169 43015
L50155 43029
L50127 43043
L49888 43043
" />
<path d="M49986 43310
L50183 43310
" />
<path d="M49874 43240
L50085 43170
L50085 43353
" />
<path d="M52638 42875
L52877 42875
L52905 42889
L52919 42903
L52933 42931
L52933 42987
L52919 43015
L52905 43029
L52877 43043
L52638 43043
" />
<path d="M52638 43324
L52638 43184
L52778 43170
L52764 43184
L52750 43212
L52750 43282
L52764 43310
L52778 43324
L52807 43339
L52877 43339
L52905 43324
L52919 43310
L52933 43282
L52933 43212
L52919 43184
L52905 43170
" />
<path d="M55388 42875
L55627 42875
L55655 42889
L55669 42903
L55683 42931
L55683 42987
L55669 43015
L55655 43029
L55627 43043
L55388 43043
" />
<path d="M55388 43310
L55388 43254
L55402 43226
L55416 43212
L55458 43184
L55514 43170
L55627 43170
L55655 43184
L55669 43198
L55683 43226
L55683 43282
L55669 43310
L55655 43324
L55627 43339
L55557 43339
L55528 43324
L55514 43310
L55500 43282
L55500 43226
L55514 43198
L55528 43184
L55557 43170
" />
<path d="M58388 42875
L58627 42875
L58655 42889
L58669 42903
L58683 42931
L58683 42987
L58669 43015
L58655 43029
L58627 43043
L58388 43043
" />
<path d="M58388 43156
L58388 43353
L58683 43226
" />
</g> 
</svg>
