<?xml version="1.0" standalone="no"?>
 <!DOCTYPE svg PUBLIC "-//W3C//DTD SVG 1.1//EN" 
 "http://www.w3.org/Graphics/SVG/1.1/DTD/svg11.dtd"> 
<svg xmlns="http://www.w3.org/2000/svg" version="1.1" 
    width="29.7002cm" height="21.0007cm" viewBox="0 0 116930 82680 ">
<title>SVG Picture created as kcnc-grbl_shield-pcb-F.SilkS.svg date 2017/06/24 23:27:31 </title>
  <desc>Picture generated by PCBNEW </desc>
<g style="fill:#000000; fill-opacity:1;stroke:#000000; stroke-opacity:1;
stroke-linecap:round; stroke-linejoin:round; "
 transform="translate(0 0) scale(1 1)">
</g>
<g style="fill:#000000; fill-opacity:0.0; 
stroke:#000000; stroke-width:-0.000393701; stroke-opacity:1; 
stroke-linecap:round; stroke-linejoin:round;">
</g>
<g style="fill:#000000; fill-opacity:0.0; 
stroke:#000000; stroke-width:59.0551; stroke-opacity:1; 
stroke-linecap:round; stroke-linejoin:round;">
<rect x="69685.9" y="65357.2" width="42519.7" height="12598.4" rx="0" />
<rect x="3937.01" y="3937.01" width="109056" height="74806" rx="0" />
<rect x="4724.41" y="4724.41" width="107481" height="73231.2" rx="0" />
<path d="M23622 4724
L23622 3937
" />
<path d="M43307 4724
L43307 3937
" />
<path d="M62992 4724
L62992 3937
" />
<path d="M82677 4724
L82677 3937
" />
<path d="M102362 4724
L102362 3937
" />
<path d="M14169 4562
L13877 4562
" />
<path d="M14023 4562
L14023 4050
L13974 4123
L13925 4172
L13877 4196
" />
<path d="M33562 4099
L33586 4074
L33635 4050
L33757 4050
L33805 4074
L33830 4099
L33854 4147
L33854 4196
L33830 4269
L33537 4562
L33854 4562
" />
<path d="M53222 4050
L53539 4050
L53368 4245
L53442 4245
L53490 4269
L53515 4294
L53539 4342
L53539 4464
L53515 4513
L53490 4537
L53442 4562
L53295 4562
L53247 4537
L53222 4513
" />
<path d="M73175 4221
L73175 4562
" />
<path d="M73053 4026
L72932 4391
L73248 4391
" />
<path d="M92885 4050
L92641 4050
L92617 4294
L92641 4269
L92690 4245
L92812 4245
L92860 4269
L92885 4294
L92909 4342
L92909 4464
L92885 4513
L92860 4537
L92812 4562
L92690 4562
L92641 4537
L92617 4513
" />
<path d="M112545 4050
L112448 4050
L112399 4074
L112375 4099
L112326 4172
L112302 4269
L112302 4464
L112326 4513
L112350 4537
L112399 4562
L112497 4562
L112545 4537
L112570 4513
L112594 4464
L112594 4342
L112570 4294
L112545 4269
L112497 4245
L112399 4245
L112350 4269
L112326 4294
L112302 4342
" />
<path d="M23622 77955
L23622 78742
" />
<path d="M43307 77955
L43307 78742
" />
<path d="M62992 77955
L62992 78742
" />
<path d="M82677 77955
L82677 78742
" />
<path d="M102362 77955
L102362 78742
" />
<path d="M14169 78580
L13877 78580
" />
<path d="M14023 78580
L14023 78069
L13974 78142
L13925 78190
L13877 78215
" />
<path d="M33562 78117
L33586 78093
L33635 78069
L33757 78069
L33805 78093
L33830 78117
L33854 78166
L33854 78215
L33830 78288
L33537 78580
L33854 78580
" />
<path d="M53222 78069
L53539 78069
L53368 78263
L53442 78263
L53490 78288
L53515 78312
L53539 78361
L53539 78483
L53515 78532
L53490 78556
L53442 78580
L53295 78580
L53247 78556
L53222 78532
" />
<path d="M73175 78239
L73175 78580
" />
<path d="M73053 78044
L72932 78410
L73248 78410
" />
<path d="M92885 78069
L92641 78069
L92617 78312
L92641 78288
L92690 78263
L92812 78263
L92860 78288
L92885 78312
L92909 78361
L92909 78483
L92885 78532
L92860 78556
L92812 78580
L92690 78580
L92641 78556
L92617 78532
" />
<path d="M112545 78069
L112448 78069
L112399 78093
L112375 78117
L112326 78190
L112302 78288
L112302 78483
L112326 78532
L112350 78556
L112399 78580
L112497 78580
L112545 78556
L112570 78532
L112594 78483
L112594 78361
L112570 78312
L112545 78288
L112497 78263
L112399 78263
L112350 78288
L112326 78312
L112302 78361
" />
<path d="M3937 23622
L4724 23622
" />
<path d="M3937 43307
L4724 43307
" />
<path d="M3937 62992
L4724 62992
" />
<path d="M4208 13864
L4452 13864
" />
<path d="M4160 14011
L4330 13499
L4501 14011
" />
<path d="M4367 33428
L4440 33452
L4464 33476
L4489 33525
L4489 33598
L4464 33647
L4440 33671
L4391 33696
L4196 33696
L4196 33184
L4367 33184
L4416 33208
L4440 33233
L4464 33281
L4464 33330
L4440 33379
L4416 33403
L4367 33428
L4196 33428
" />
<path d="M4489 53332
L4464 53356
L4391 53381
L4342 53381
L4269 53356
L4221 53308
L4196 53259
L4172 53161
L4172 53088
L4196 52991
L4221 52942
L4269 52893
L4342 52869
L4391 52869
L4464 52893
L4489 52918
" />
<path d="M4196 73066
L4196 72554
L4318 72554
L4391 72578
L4440 72627
L4464 72676
L4489 72773
L4489 72846
L4464 72944
L4440 72993
L4391 73041
L4318 73066
L4196 73066
" />
<path d="M112992 23622
L112205 23622
" />
<path d="M112992 43307
L112205 43307
" />
<path d="M112992 62992
L112205 62992
" />
<path d="M112477 13864
L112721 13864
" />
<path d="M112428 14011
L112599 13499
L112769 14011
" />
<path d="M112635 33428
L112708 33452
L112733 33476
L112757 33525
L112757 33598
L112733 33647
L112708 33671
L112660 33696
L112465 33696
L112465 33184
L112635 33184
L112684 33208
L112708 33233
L112733 33281
L112733 33330
L112708 33379
L112684 33403
L112635 33428
L112465 33428
" />
<path d="M112757 53332
L112733 53356
L112660 53381
L112611 53381
L112538 53356
L112489 53308
L112465 53259
L112440 53161
L112440 53088
L112465 52991
L112489 52942
L112538 52893
L112611 52869
L112660 52869
L112733 52893
L112757 52918
" />
<path d="M112465 73066
L112465 72554
L112587 72554
L112660 72578
L112708 72627
L112733 72676
L112757 72773
L112757 72846
L112733 72944
L112708 72993
L112660 73041
L112587 73066
L112465 73066
" />
<path d="M78881 76293
L78881 75703
L79022 75703
L79106 75731
L79162 75787
L79190 75843
L79219 75956
L79219 76040
L79190 76153
L79162 76209
L79106 76265
L79022 76293
L78881 76293
" />
<path d="M79725 76293
L79725 75984
L79697 75928
L79640 75899
L79528 75899
L79472 75928
" />
<path d="M79725 76265
L79669 76293
L79528 76293
L79472 76265
L79444 76209
L79444 76153
L79472 76096
L79528 76068
L79669 76068
L79725 76040
" />
<path d="M79922 75899
L80147 75899
" />
<path d="M80006 75703
L80006 76209
L80034 76265
L80090 76293
L80147 76293
" />
<path d="M80568 76265
L80512 76293
L80400 76293
L80343 76265
L80315 76209
L80315 75984
L80343 75928
L80400 75899
L80512 75899
L80568 75928
L80597 75984
L80597 76040
L80315 76096
" />
<path d="M80850 76237
L80878 76265
L80850 76293
L80822 76265
L80850 76237
L80850 76293
" />
<path d="M80850 75928
L80878 75956
L80850 75984
L80822 75956
L80850 75928
L80850 75984
" />
<path d="M69685 76577
L112205 76577
" />
<path d="M70220 77395
L70220 76805
" />
<path d="M70557 77395
L70304 77058
" />
<path d="M70557 76805
L70220 77142
" />
<path d="M70810 77395
L70810 77002
" />
<path d="M70810 76805
L70782 76833
L70810 76861
L70838 76833
L70810 76805
L70810 76861
" />
<path d="M71429 77339
L71401 77367
L71316 77395
L71260 77395
L71176 77367
L71120 77311
L71091 77255
L71063 77142
L71063 77058
L71091 76946
L71120 76889
L71176 76833
L71260 76805
L71316 76805
L71401 76833
L71429 76861
" />
<path d="M71935 77395
L71935 77086
L71907 77030
L71851 77002
L71738 77002
L71682 77030
" />
<path d="M71935 77367
L71879 77395
L71738 77395
L71682 77367
L71654 77311
L71654 77255
L71682 77199
L71738 77171
L71879 77171
L71935 77142
" />
<path d="M72469 77395
L72469 76805
" />
<path d="M72469 77367
L72413 77395
L72301 77395
L72244 77367
L72216 77339
L72188 77283
L72188 77114
L72216 77058
L72244 77030
L72301 77002
L72413 77002
L72469 77030
" />
<path d="M73201 77086
L73397 77086
" />
<path d="M73482 77395
L73201 77395
L73201 76805
L73482 76805
" />
<path d="M73735 77339
L73763 77367
L73735 77395
L73707 77367
L73735 77339
L73735 77395
" />
<path d="M74016 77395
L74016 76805
L74157 76805
L74241 76833
L74297 76889
L74325 76946
L74354 77058
L74354 77142
L74325 77255
L74297 77311
L74241 77367
L74157 77395
L74016 77395
" />
<path d="M74607 77339
L74635 77367
L74607 77395
L74579 77367
L74607 77339
L74607 77395
" />
<path d="M74860 77227
L75141 77227
" />
<path d="M74804 77395
L75000 76805
L75197 77395
" />
<path d="M75394 77339
L75422 77367
L75394 77395
L75366 77367
L75394 77339
L75394 77395
" />
<path d="M76575 77395
L76575 76805
" />
<path d="M76631 77171
L76800 77395
" />
<path d="M76800 77002
L76575 77227
" />
<path d="M77053 77395
L77053 77002
" />
<path d="M77053 76805
L77025 76833
L77053 76861
L77081 76833
L77053 76805
L77053 76861
" />
<path d="M77588 77367
L77531 77395
L77419 77395
L77363 77367
L77334 77339
L77306 77283
L77306 77114
L77334 77058
L77363 77030
L77419 77002
L77531 77002
L77588 77030
" />
<path d="M78094 77395
L78094 77086
L78066 77030
L78009 77002
L77897 77002
L77841 77030
" />
<path d="M78094 77367
L78037 77395
L77897 77395
L77841 77367
L77813 77311
L77813 77255
L77841 77199
L77897 77171
L78037 77171
L78094 77142
" />
<path d="M78628 77395
L78628 76805
" />
<path d="M78628 77367
L78572 77395
L78459 77395
L78403 77367
L78375 77339
L78347 77283
L78347 77114
L78375 77058
L78403 77030
L78459 77002
L78572 77002
L78628 77030
" />
<path d="M79612 77002
L79612 77395
" />
<path d="M79472 76777
L79331 77199
L79697 77199
" />
<path d="M79922 77339
L79950 77367
L79922 77395
L79894 77367
L79922 77339
L79922 77395
" />
<path d="M80315 76805
L80372 76805
L80428 76833
L80456 76861
L80484 76917
L80512 77030
L80512 77171
L80484 77283
L80456 77339
L80428 77367
L80372 77395
L80315 77395
L80259 77367
L80231 77339
L80203 77283
L80175 77171
L80175 77030
L80203 76917
L80231 76861
L80259 76833
L80315 76805
" />
<path d="M80765 77339
L80793 77367
L80765 77395
L80737 77367
L80765 77339
L80765 77395
" />
<path d="M81300 77002
L81300 77395
" />
<path d="M81159 76777
L81018 77199
L81384 77199
" />
<path d="M81609 77171
L82059 77171
" />
<path d="M82312 77367
L82368 77395
L82481 77395
L82537 77367
L82565 77311
L82565 77283
L82537 77227
L82481 77199
L82396 77199
L82340 77171
L82312 77114
L82312 77086
L82340 77030
L82396 77002
L82481 77002
L82537 77030
" />
<path d="M82734 77002
L82959 77002
" />
<path d="M82818 76805
L82818 77311
L82846 77367
L82903 77395
L82959 77395
" />
<path d="M83409 77395
L83409 77086
L83381 77030
L83324 77002
L83212 77002
L83156 77030
" />
<path d="M83409 77367
L83352 77395
L83212 77395
L83156 77367
L83127 77311
L83127 77255
L83156 77199
L83212 77171
L83352 77171
L83409 77142
" />
<path d="M83690 77395
L83690 76805
" />
<path d="M83690 77030
L83746 77002
L83859 77002
L83915 77030
L83943 77058
L83971 77114
L83971 77283
L83943 77339
L83915 77367
L83859 77395
L83746 77395
L83690 77367
" />
<path d="M84309 77395
L84252 77367
L84224 77311
L84224 76805
" />
<path d="M84759 77367
L84702 77395
L84590 77395
L84534 77367
L84505 77311
L84505 77086
L84534 77030
L84590 77002
L84702 77002
L84759 77030
L84787 77086
L84787 77142
L84505 77199
" />
<path d="M69685 75396
L112205 75396
" />
</g>
<g style="fill:#000000; fill-opacity:0.0; 
stroke:#000000; stroke-width:118.11; stroke-opacity:1; 
stroke-linecap:round; stroke-linejoin:round;">
<path d="M104022 76293
L103825 76012
" />
<path d="M103684 76293
L103684 75703
L103909 75703
L103965 75731
L103994 75759
L104022 75815
L104022 75899
L103994 75956
L103965 75984
L103909 76012
L103684 76012
" />
<path d="M104500 76265
L104444 76293
L104331 76293
L104275 76265
L104247 76209
L104247 75984
L104275 75928
L104331 75899
L104444 75899
L104500 75928
L104528 75984
L104528 76040
L104247 76096
" />
<path d="M104725 75899
L104865 76293
L105006 75899
" />
<path d="M105231 76237
L105259 76265
L105231 76293
L105203 76265
L105231 76237
L105231 76293
" />
<path d="M105231 75928
L105259 75956
L105231 75984
L105203 75956
L105231 75928
L105231 75984
" />
</g>
<g style="fill:#000000; fill-opacity:0.0; 
stroke:#000000; stroke-width:59.0551; stroke-opacity:1; 
stroke-linecap:round; stroke-linejoin:round;">
<path d="M70192 76265
L70276 76293
L70417 76293
L70473 76265
L70501 76237
L70529 76181
L70529 76124
L70501 76068
L70473 76040
L70417 76012
L70304 75984
L70248 75956
L70220 75928
L70192 75871
L70192 75815
L70220 75759
L70248 75731
L70304 75703
L70445 75703
L70529 75731
" />
<path d="M70782 76293
L70782 75899
" />
<path d="M70782 75703
L70754 75731
L70782 75759
L70810 75731
L70782 75703
L70782 75759
" />
<path d="M71007 75899
L71316 75899
L71007 76293
L71316 76293
" />
<path d="M71766 76265
L71710 76293
L71598 76293
L71541 76265
L71513 76209
L71513 75984
L71541 75928
L71598 75899
L71710 75899
L71766 75928
L71795 75984
L71795 76040
L71513 76096
" />
<path d="M72048 76237
L72076 76265
L72048 76293
L72019 76265
L72048 76237
L72048 76293
" />
<path d="M72048 75928
L72076 75956
L72048 75984
L72019 75956
L72048 75928
L72048 75984
" />
<path d="M72751 76124
L73032 76124
" />
<path d="M72694 76293
L72891 75703
L73088 76293
" />
<path d="M73538 75899
L73538 76293
" />
<path d="M73397 75674
L73257 76096
L73622 76096
" />
<path d="M103684 77395
L103684 76805
" />
<path d="M104219 77395
L104219 76805
" />
<path d="M104219 77367
L104162 77395
L104050 77395
L103994 77367
L103965 77339
L103937 77283
L103937 77114
L103965 77058
L103994 77030
L104050 77002
L104162 77002
L104219 77030
" />
<path d="M104500 77339
L104528 77367
L104500 77395
L104472 77367
L104500 77339
L104500 77395
" />
<path d="M104500 77030
L104528 77058
L104500 77086
L104472 77058
L104500 77030
L104500 77086
" />
<path d="M105540 77395
L105203 77395
" />
<path d="M105372 77395
L105372 76805
L105315 76889
L105259 76946
L105203 76974
" />
<path d="M106215 76777
L105709 77536
" />
<path d="M106721 77395
L106384 77395
" />
<path d="M106553 77395
L106553 76805
L106496 76889
L106440 76946
L106384 76974
" />
<path d="M69685 73821
L112205 73821
" />
</g>
<g style="fill:#000000; fill-opacity:0.0; 
stroke:#000000; stroke-width:157.48; stroke-opacity:1; 
stroke-linecap:round; stroke-linejoin:round;">
<path d="M70257 74099
L70707 74099
" />
<path d="M70384 74886
L70482 74099
" />
<path d="M70871 74886
L70937 74361
" />
<path d="M70970 74099
L70927 74136
L70960 74174
L71002 74136
L70970 74099
L70960 74174
" />
<path d="M71199 74361
L71499 74361
" />
<path d="M71345 74099
L71260 74774
L71288 74849
L71359 74886
L71434 74886
" />
<path d="M71809 74886
L71738 74849
L71710 74774
L71795 74099
" />
<path d="M72413 74849
L72334 74886
L72184 74886
L72113 74849
L72085 74774
L72123 74474
L72169 74399
L72249 74361
L72399 74361
L72469 74399
L72498 74474
L72488 74549
L72104 74624
" />
<path d="M72793 74811
L72826 74849
L72783 74886
L72751 74849
L72793 74811
L72783 74886
" />
<path d="M72844 74399
L72877 74436
L72835 74474
L72802 74436
L72844 74399
L72835 74474
" />
</g>
<g style="fill:#000000; fill-opacity:0.0; 
stroke:#000000; stroke-width:59.0551; stroke-opacity:1; 
stroke-linecap:round; stroke-linejoin:round;">
<path d="M70417 73070
L70220 73070
" />
<path d="M70220 73380
L70220 72789
L70501 72789
" />
<path d="M70726 73380
L70726 72986
" />
<path d="M70726 72789
L70698 72817
L70726 72845
L70754 72817
L70726 72789
L70726 72845
" />
<path d="M71091 73380
L71035 73352
L71007 73295
L71007 72789
" />
<path d="M71541 73352
L71485 73380
L71373 73380
L71316 73352
L71288 73295
L71288 73070
L71316 73014
L71373 72986
L71485 72986
L71541 73014
L71570 73070
L71570 73127
L71288 73183
" />
<path d="M71823 73323
L71851 73352
L71823 73380
L71795 73352
L71823 73323
L71823 73380
" />
<path d="M71823 73014
L71851 73042
L71823 73070
L71795 73042
L71823 73014
L71823 73070
" />
<path d="M72554 73380
L72554 72789
" />
<path d="M72610 73155
L72779 73380
" />
<path d="M72779 72986
L72554 73211
" />
<path d="M73285 73352
L73229 73380
L73116 73380
L73060 73352
L73032 73323
L73004 73267
L73004 73099
L73032 73042
L73060 73014
L73116 72986
L73229 72986
L73285 73014
" />
<path d="M73538 72986
L73538 73380
" />
<path d="M73538 73042
L73566 73014
L73622 72986
L73707 72986
L73763 73014
L73791 73070
L73791 73380
" />
<path d="M74325 73352
L74269 73380
L74157 73380
L74100 73352
L74072 73323
L74044 73267
L74044 73099
L74072 73042
L74100 73014
L74157 72986
L74269 72986
L74325 73014
" />
<path d="M74579 73155
L75028 73155
" />
<path d="M75563 72986
L75563 73464
L75535 73520
L75507 73548
L75450 73577
L75366 73577
L75310 73548
" />
<path d="M75563 73352
L75507 73380
L75394 73380
L75338 73352
L75310 73323
L75282 73267
L75282 73099
L75310 73042
L75338 73014
L75394 72986
L75507 72986
L75563 73014
" />
<path d="M75844 73380
L75844 72986
" />
<path d="M75844 73099
L75872 73042
L75900 73014
L75956 72986
L76013 72986
" />
<path d="M76210 73380
L76210 72789
" />
<path d="M76210 73014
L76266 72986
L76378 72986
L76435 73014
L76463 73042
L76491 73099
L76491 73267
L76463 73323
L76435 73352
L76378 73380
L76266 73380
L76210 73352
" />
<path d="M76828 73380
L76772 73352
L76744 73295
L76744 72789
" />
<path d="M76913 73436
L77363 73436
" />
<path d="M77475 73352
L77531 73380
L77644 73380
L77700 73352
L77728 73295
L77728 73267
L77700 73211
L77644 73183
L77559 73183
L77503 73155
L77475 73099
L77475 73070
L77503 73014
L77559 72986
L77644 72986
L77700 73014
" />
<path d="M77981 73380
L77981 72789
" />
<path d="M78234 73380
L78234 73070
L78206 73014
L78150 72986
L78066 72986
L78009 73014
L77981 73042
" />
<path d="M78516 73380
L78516 72986
" />
<path d="M78516 72789
L78487 72817
L78516 72845
L78544 72817
L78516 72789
L78516 72845
" />
<path d="M79022 73352
L78965 73380
L78853 73380
L78797 73352
L78769 73295
L78769 73070
L78797 73014
L78853 72986
L78965 72986
L79022 73014
L79050 73070
L79050 73127
L78769 73183
" />
<path d="M79387 73380
L79331 73352
L79303 73295
L79303 72789
" />
<path d="M79865 73380
L79865 72789
" />
<path d="M79865 73352
L79809 73380
L79697 73380
L79640 73352
L79612 73323
L79584 73267
L79584 73099
L79612 73042
L79640 73014
L79697 72986
L79809 72986
L79865 73014
" />
<path d="M80147 73155
L80597 73155
" />
<path d="M80878 72986
L80878 73577
" />
<path d="M80878 73014
L80934 72986
L81046 72986
L81103 73014
L81131 73042
L81159 73099
L81159 73267
L81131 73323
L81103 73352
L81046 73380
L80934 73380
L80878 73352
" />
<path d="M81665 73352
L81609 73380
L81496 73380
L81440 73352
L81412 73323
L81384 73267
L81384 73099
L81412 73042
L81440 73014
L81496 72986
L81609 72986
L81665 73014
" />
<path d="M81918 73380
L81918 72789
" />
<path d="M81918 73014
L81974 72986
L82087 72986
L82143 73014
L82171 73042
L82199 73099
L82199 73267
L82171 73323
L82143 73352
L82087 73380
L81974 73380
L81918 73352
" />
<path d="M82453 73323
L82481 73352
L82453 73380
L82424 73352
L82453 73323
L82453 73380
" />
<path d="M82734 73380
L82734 72789
" />
<path d="M82790 73155
L82959 73380
" />
<path d="M82959 72986
L82734 73211
" />
<path d="M83212 73380
L83212 72986
" />
<path d="M83212 72789
L83184 72817
L83212 72845
L83240 72817
L83212 72789
L83212 72845
" />
<path d="M83746 73352
L83690 73380
L83577 73380
L83521 73352
L83493 73323
L83465 73267
L83465 73099
L83493 73042
L83521 73014
L83577 72986
L83690 72986
L83746 73014
" />
<path d="M84252 73380
L84252 73070
L84224 73014
L84168 72986
L84055 72986
L83999 73014
" />
<path d="M84252 73352
L84196 73380
L84055 73380
L83999 73352
L83971 73295
L83971 73239
L83999 73183
L84055 73155
L84196 73155
L84252 73127
" />
<path d="M84787 73380
L84787 72789
" />
<path d="M84787 73352
L84730 73380
L84618 73380
L84562 73352
L84534 73323
L84505 73267
L84505 73099
L84534 73042
L84562 73014
L84618 72986
L84730 72986
L84787 73014
" />
<path d="M84927 73436
L85377 73436
" />
<path d="M85518 72986
L85518 73577
" />
<path d="M85518 73014
L85574 72986
L85687 72986
L85743 73014
L85771 73042
L85799 73099
L85799 73267
L85771 73323
L85743 73352
L85687 73380
L85574 73380
L85518 73352
" />
<path d="M86305 73352
L86249 73380
L86136 73380
L86080 73352
L86052 73323
L86024 73267
L86024 73099
L86052 73042
L86080 73014
L86136 72986
L86249 72986
L86305 73014
" />
<path d="M86558 73380
L86558 72789
" />
<path d="M86558 73014
L86615 72986
L86727 72986
L86783 73014
L86811 73042
L86840 73099
L86840 73267
L86811 73323
L86783 73352
L86727 73380
L86615 73380
L86558 73352
" />
<path d="M69685 71459
L112205 71459
" />
<path d="M70192 72289
L70276 72317
L70417 72317
L70473 72289
L70501 72260
L70529 72204
L70529 72148
L70501 72092
L70473 72064
L70417 72036
L70304 72007
L70248 71979
L70220 71951
L70192 71895
L70192 71839
L70220 71782
L70248 71754
L70304 71726
L70445 71726
L70529 71754
" />
<path d="M70782 72317
L70782 71726
" />
<path d="M71035 72317
L71035 72007
L71007 71951
L70951 71923
L70867 71923
L70810 71951
L70782 71979
" />
<path d="M71541 72289
L71485 72317
L71373 72317
L71316 72289
L71288 72232
L71288 72007
L71316 71951
L71373 71923
L71485 71923
L71541 71951
L71570 72007
L71570 72064
L71288 72120
" />
<path d="M72048 72289
L71991 72317
L71879 72317
L71823 72289
L71795 72232
L71795 72007
L71823 71951
L71879 71923
L71991 71923
L72048 71951
L72076 72007
L72076 72064
L71795 72120
" />
<path d="M72244 71923
L72469 71923
" />
<path d="M72329 71726
L72329 72232
L72357 72289
L72413 72317
L72469 72317
" />
<path d="M72666 72260
L72694 72289
L72666 72317
L72638 72289
L72666 72260
L72666 72317
" />
<path d="M72666 71951
L72694 71979
L72666 72007
L72638 71979
L72666 71951
L72666 72007
" />
<path d="M77559 75396
L77559 76577
" />
<path d="M102756 75396
L102756 77955
" />
<path d="M38188 49212
L38188 27559
" />
<path d="M77952 49212
L38188 49212
" />
<path d="M77952 27559
L77952 49212
" />
<path d="M38188 27559
L77952 27559
" />
</g>
<g style="fill:#000000; fill-opacity:0.0; 
stroke:#000000; stroke-width:78.7402; stroke-opacity:1; 
stroke-linecap:round; stroke-linejoin:round;">
<path d="M64409 42255
L64394 42285
L64394 42330
L64409 42375
L64439 42405
L64469 42420
L64529 42435
L64574 42435
L64634 42420
L64664 42405
L64694 42375
L64709 42330
L64709 42300
L64694 42255
L64679 42240
L64574 42240
L64574 42300
" />
<path d="M64709 42105
L64394 42105
L64709 41925
L64394 41925
" />
<path d="M64709 41775
L64394 41775
L64394 41700
L64409 41655
L64439 41625
L64469 41610
L64529 41595
L64574 41595
L64634 41610
L64664 41625
L64694 41655
L64709 41700
L64709 41775
" />
<path d="M63331 42165
L63331 42315
L63016 42315
" />
<path d="M63166 42060
L63166 41955
" />
<path d="M63331 41910
L63331 42060
L63016 42060
L63016 41910
" />
<path d="M63331 41775
L63016 41775
L63016 41700
L63031 41655
L63061 41625
L63091 41610
L63151 41595
L63196 41595
L63256 41610
L63286 41625
L63316 41655
L63331 41700
L63331 41775
" />
<path d="M67165 42255
L67150 42285
L67150 42330
L67165 42375
L67195 42405
L67225 42420
L67285 42435
L67330 42435
L67390 42420
L67420 42405
L67450 42375
L67465 42330
L67465 42300
L67450 42255
L67435 42240
L67330 42240
L67330 42300
" />
<path d="M67465 42105
L67150 42105
L67465 41925
L67150 41925
" />
<path d="M67465 41775
L67150 41775
L67150 41700
L67165 41655
L67195 41625
L67225 41610
L67285 41595
L67330 41595
L67390 41610
L67420 41625
L67450 41655
L67465 41700
L67465 41775
" />
<path d="M65967 42720
L65967 42480
" />
<path d="M66087 42600
L65847 42600
" />
<path d="M66087 42165
L66087 42345
" />
<path d="M66087 42255
L65772 42255
L65817 42285
L65847 42315
L65862 42345
" />
<path d="M65802 42045
L65787 42030
L65772 42000
L65772 41925
L65787 41895
L65802 41880
L65832 41865
L65862 41865
L65907 41880
L66087 42060
L66087 41865
" />
<path d="M65772 41775
L66087 41670
L65772 41565
" />
<path d="M61653 42255
L61638 42285
L61638 42330
L61653 42375
L61683 42405
L61713 42420
L61773 42435
L61818 42435
L61878 42420
L61908 42405
L61938 42375
L61953 42330
L61953 42300
L61938 42255
L61923 42240
L61818 42240
L61818 42300
" />
<path d="M61953 42105
L61638 42105
L61953 41925
L61638 41925
" />
<path d="M61953 41775
L61638 41775
L61638 41700
L61653 41655
L61683 41625
L61713 41610
L61773 41595
L61818 41595
L61878 41610
L61908 41625
L61938 41655
L61953 41700
L61953 41775
" />
<path d="M60455 42720
L60455 42480
" />
<path d="M60575 42600
L60335 42600
" />
<path d="M60290 42345
L60275 42330
L60260 42300
L60260 42225
L60275 42195
L60290 42180
L60320 42165
L60350 42165
L60395 42180
L60575 42360
L60575 42165
" />
<path d="M60365 41895
L60575 41895
" />
<path d="M60245 41970
L60470 42045
L60470 41850
" />
<path d="M60260 41775
L60575 41670
L60260 41565
" />
<path d="M58897 42255
L58882 42285
L58882 42330
L58897 42375
L58927 42405
L58957 42420
L59017 42435
L59062 42435
L59122 42420
L59152 42405
L59182 42375
L59197 42330
L59197 42300
L59182 42255
L59167 42240
L59062 42240
L59062 42300
" />
<path d="M59197 42105
L58882 42105
L59197 41925
L58882 41925
" />
<path d="M59197 41775
L58882 41775
L58882 41700
L58897 41655
L58927 41625
L58957 41610
L59017 41595
L59062 41595
L59122 41610
L59152 41625
L59182 41655
L59197 41700
L59197 41775
" />
<path d="M57819 43020
L57504 43020
L57504 42900
L57519 42870
L57534 42855
L57564 42840
L57609 42840
L57639 42855
L57654 42870
L57669 42900
L57669 43020
" />
<path d="M57819 42525
L57669 42630
" />
<path d="M57819 42705
L57504 42705
L57504 42585
L57519 42555
L57534 42540
L57564 42525
L57609 42525
L57639 42540
L57654 42555
L57669 42585
L57669 42705
" />
<path d="M57504 42330
L57504 42270
L57519 42240
L57549 42210
L57609 42195
L57714 42195
L57774 42210
L57804 42240
L57819 42270
L57819 42330
L57804 42360
L57774 42390
L57714 42405
L57609 42405
L57549 42390
L57519 42360
L57504 42330
" />
<path d="M57654 41955
L57669 41910
L57684 41895
L57714 41880
L57759 41880
L57789 41895
L57804 41910
L57819 41940
L57819 42060
L57504 42060
L57504 41955
L57519 41925
L57534 41910
L57564 41895
L57594 41895
L57624 41910
L57639 41925
L57654 41955
L57654 42060
" />
<path d="M57654 41745
L57654 41640
" />
<path d="M57819 41595
L57819 41745
L57504 41745
L57504 41595
" />
<path d="M55063 43155
L54913 43260
" />
<path d="M55063 43335
L54748 43335
L54748 43215
L54763 43185
L54778 43170
L54808 43155
L54853 43155
L54883 43170
L54898 43185
L54913 43215
L54913 43335
" />
<path d="M54898 43020
L54898 42915
" />
<path d="M55063 42870
L55063 43020
L54748 43020
L54748 42870
" />
<path d="M55048 42750
L55063 42705
L55063 42630
L55048 42600
L55033 42585
L55003 42570
L54973 42570
L54943 42585
L54928 42600
L54913 42630
L54898 42690
L54883 42720
L54868 42735
L54838 42750
L54808 42750
L54778 42735
L54763 42720
L54748 42690
L54748 42615
L54763 42570
" />
<path d="M54748 42435
L55003 42435
L55033 42420
L55048 42405
L55063 42375
L55063 42315
L55048 42285
L55033 42270
L55003 42255
L54748 42255
" />
<path d="M55063 42105
L54748 42105
L54973 42000
L54748 41895
L55063 41895
" />
<path d="M54898 41745
L54898 41640
" />
<path d="M55063 41595
L55063 41745
L54748 41745
L54748 41595
" />
<path d="M56141 42255
L56126 42285
L56126 42330
L56141 42375
L56171 42405
L56201 42420
L56261 42435
L56306 42435
L56366 42420
L56396 42405
L56426 42375
L56441 42330
L56441 42300
L56426 42255
L56411 42240
L56306 42240
L56306 42300
" />
<path d="M56441 42105
L56126 42105
L56441 41925
L56126 41925
" />
<path d="M56441 41775
L56126 41775
L56126 41700
L56141 41655
L56171 41625
L56201 41610
L56261 41595
L56306 41595
L56366 41610
L56396 41625
L56426 41655
L56441 41700
L56441 41775
" />
<path d="M53385 42255
L53370 42285
L53370 42330
L53385 42375
L53415 42405
L53445 42420
L53505 42435
L53550 42435
L53610 42420
L53640 42405
L53670 42375
L53685 42330
L53685 42300
L53670 42255
L53655 42240
L53550 42240
L53550 42300
" />
<path d="M53685 42105
L53370 42105
L53685 41925
L53370 41925
" />
<path d="M53685 41775
L53370 41775
L53370 41700
L53385 41655
L53415 41625
L53445 41610
L53505 41595
L53550 41595
L53610 41610
L53640 41625
L53670 41655
L53685 41700
L53685 41775
" />
<path d="M52307 42690
L51992 42690
" />
<path d="M52142 42690
L52142 42510
" />
<path d="M52307 42510
L51992 42510
" />
<path d="M51992 42300
L51992 42240
L52007 42210
L52037 42180
L52097 42165
L52202 42165
L52262 42180
L52292 42210
L52307 42240
L52307 42300
L52292 42330
L52262 42360
L52202 42375
L52097 42375
L52037 42360
L52007 42330
L51992 42300
" />
<path d="M52307 41880
L52307 42030
L51992 42030
" />
<path d="M52307 41775
L51992 41775
L51992 41700
L52007 41655
L52037 41625
L52067 41610
L52127 41595
L52172 41595
L52232 41610
L52262 41625
L52292 41655
L52307 41700
L52307 41775
" />
<path d="M50629 42255
L50614 42285
L50614 42330
L50629 42375
L50659 42405
L50689 42420
L50749 42435
L50794 42435
L50854 42420
L50884 42405
L50914 42375
L50929 42330
L50929 42300
L50914 42255
L50899 42240
L50794 42240
L50794 42300
" />
<path d="M50929 42105
L50614 42105
L50929 41925
L50614 41925
" />
<path d="M50929 41775
L50614 41775
L50614 41700
L50629 41655
L50659 41625
L50689 41610
L50749 41595
L50794 41595
L50854 41610
L50884 41625
L50914 41655
L50929 41700
L50929 41775
" />
<path d="M49461 42945
L49461 42795
" />
<path d="M49551 42975
L49236 42870
L49551 42765
" />
<path d="M49386 42555
L49401 42510
L49416 42495
L49446 42480
L49491 42480
L49521 42495
L49536 42510
L49551 42540
L49551 42660
L49236 42660
L49236 42555
L49251 42525
L49266 42510
L49296 42495
L49326 42495
L49356 42510
L49371 42525
L49386 42555
L49386 42660
" />
<path d="M49236 42285
L49236 42225
L49251 42195
L49281 42165
L49341 42150
L49446 42150
L49506 42165
L49536 42195
L49551 42225
L49551 42285
L49536 42315
L49506 42345
L49446 42360
L49341 42360
L49281 42345
L49251 42315
L49236 42285
" />
<path d="M49551 41835
L49401 41940
" />
<path d="M49551 42015
L49236 42015
L49236 41895
L49251 41865
L49266 41850
L49296 41835
L49341 41835
L49371 41850
L49386 41865
L49401 41895
L49401 42015
" />
<path d="M49236 41745
L49236 41565
" />
<path d="M49551 41655
L49236 41655
" />
<path d="M47874 42255
L47859 42285
L47859 42330
L47874 42375
L47904 42405
L47934 42420
L47994 42435
L48038 42435
L48098 42420
L48128 42405
L48158 42375
L48173 42330
L48173 42300
L48158 42255
L48143 42240
L48038 42240
L48038 42300
" />
<path d="M48173 42105
L47859 42105
L48173 41925
L47859 41925
" />
<path d="M48173 41775
L47859 41775
L47859 41700
L47874 41655
L47904 41625
L47934 41610
L47994 41595
L48038 41595
L48098 41610
L48128 41625
L48158 41655
L48173 41700
L48173 41775
" />
<path d="M46796 42615
L46796 42765
L46481 42765
" />
<path d="M46796 42510
L46481 42510
" />
<path d="M46796 42360
L46481 42360
L46706 42255
L46481 42150
L46796 42150
" />
<path d="M46826 42075
L46826 41835
" />
<path d="M46481 41790
L46796 41580
" />
<path d="M46481 41580
L46796 41790
" />
<path d="M45118 42255
L45103 42285
L45103 42330
L45118 42375
L45148 42405
L45178 42420
L45238 42435
L45283 42435
L45343 42420
L45373 42405
L45403 42375
L45418 42330
L45418 42300
L45403 42255
L45388 42240
L45283 42240
L45283 42300
" />
<path d="M45418 42105
L45103 42105
L45418 41925
L45103 41925
" />
<path d="M45418 41775
L45103 41775
L45103 41700
L45118 41655
L45148 41625
L45178 41610
L45238 41595
L45283 41595
L45343 41610
L45373 41625
L45403 41655
L45418 41700
L45418 41775
" />
<path d="M44040 42585
L44040 42735
L43725 42735
" />
<path d="M44040 42480
L43725 42480
" />
<path d="M44040 42330
L43725 42330
L43950 42225
L43725 42120
L44040 42120
" />
<path d="M44070 42045
L44070 41805
" />
<path d="M43890 41670
L44040 41670
" />
<path d="M43725 41775
L43890 41670
L43725 41565
" />
<path d="M42362 42255
L42347 42285
L42347 42330
L42362 42375
L42392 42405
L42422 42420
L42482 42435
L42527 42435
L42587 42420
L42617 42405
L42647 42375
L42662 42330
L42662 42300
L42647 42255
L42632 42240
L42527 42240
L42527 42300
" />
<path d="M42662 42105
L42347 42105
L42662 41925
L42347 41925
" />
<path d="M42662 41775
L42347 41775
L42347 41700
L42362 41655
L42392 41625
L42422 41610
L42482 41595
L42527 41595
L42587 41610
L42617 41625
L42647 41655
L42662 41700
L42662 41775
" />
<path d="M41284 42615
L41284 42765
L40969 42765
" />
<path d="M41284 42510
L40969 42510
" />
<path d="M41284 42360
L40969 42360
L41194 42255
L40969 42150
L41284 42150
" />
<path d="M41314 42075
L41314 41835
" />
<path d="M40969 41790
L41284 41580
" />
<path d="M40969 41580
L41284 41790
" />
<path d="M67992 44881
L67992 41338
" />
<path d="M65236 44881
L65236 41338
" />
<path d="M62480 44881
L62480 41338
" />
<path d="M59724 44881
L59724 41338
" />
<path d="M56968 44881
L56968 41338
" />
<path d="M54212 44881
L54212 41338
" />
<path d="M51456 44881
L51456 41338
" />
<path d="M48700 44881
L48700 41338
" />
<path d="M45944 44881
L45944 41338
" />
<path d="M43188 44881
L43188 41338
" />
<path d="M40393 44881
L40393 41338
" />
</g>
<g style="fill:#000000; fill-opacity:0.0; 
stroke:#000000; stroke-width:118.11; stroke-opacity:1; 
stroke-linecap:round; stroke-linejoin:round;">
<path d="M41096 31588
L41068 31616
L40984 31645
L40928 31645
L40843 31616
L40787 31560
L40759 31504
L40731 31392
L40731 31307
L40759 31195
L40787 31138
L40843 31082
L40928 31054
L40984 31054
L41068 31082
L41096 31110
" />
<path d="M41462 31054
L41574 31054
L41631 31082
L41687 31138
L41715 31251
L41715 31448
L41687 31560
L41631 31616
L41574 31645
L41462 31645
L41406 31616
L41349 31560
L41321 31448
L41321 31251
L41349 31138
L41406 31082
L41462 31054
" />
<path d="M42080 31054
L42193 31054
L42249 31082
L42305 31138
L42334 31251
L42334 31448
L42305 31560
L42249 31616
L42193 31645
L42080 31645
L42024 31616
L41968 31560
L41940 31448
L41940 31251
L41968 31138
L42024 31082
L42080 31054
" />
<path d="M42868 31645
L42587 31645
L42587 31054
" />
<path d="M43520 31616
L43605 31645
L43745 31645
L43802 31616
L43830 31588
L43858 31532
L43858 31476
L43830 31420
L43802 31392
L43745 31363
L43633 31335
L43577 31307
L43548 31279
L43520 31223
L43520 31167
L43548 31110
L43577 31082
L43633 31054
L43773 31054
L43858 31082
" />
<path d="M44111 31645
L44111 31054
L44336 31054
L44392 31082
L44420 31110
L44448 31167
L44448 31251
L44420 31307
L44392 31335
L44336 31363
L44111 31363
" />
<path d="M44701 31645
L44701 31054
" />
<path d="M44983 31645
L44983 31054
L45320 31645
L45320 31054
" />
<path d="M45601 31645
L45601 31054
L45742 31054
L45826 31082
L45883 31138
L45911 31195
L45939 31307
L45939 31392
L45911 31504
L45883 31560
L45826 31616
L45742 31645
L45601 31645
" />
<path d="M46473 31645
L46192 31645
L46192 31054
" />
<path d="M46670 31335
L46867 31335
" />
<path d="M46951 31645
L46670 31645
L46670 31054
L46951 31054
" />
<path d="M63267 31054
L63661 31645
" />
<path d="M63661 31054
L63267 31645
" />
<path d="M64308 31476
L64589 31476
" />
<path d="M64251 31645
L64448 31054
L64645 31645
" />
<path d="M64786 31054
L65179 31645
" />
<path d="M65179 31054
L64786 31645
" />
<path d="M65404 31645
L65404 31054
" />
<path d="M65658 31616
L65742 31645
L65883 31645
L65939 31616
L65967 31588
L65995 31532
L65995 31476
L65967 31420
L65939 31392
L65883 31363
L65770 31335
L65714 31307
L65686 31279
L65658 31223
L65658 31167
L65686 31110
L65714 31082
L65770 31054
L65911 31054
L65995 31082
" />
<path d="M56496 31363
L56496 31645
" />
<path d="M56299 31054
L56496 31363
L56692 31054
" />
<path d="M57311 31476
L57592 31476
" />
<path d="M57255 31645
L57452 31054
L57649 31645
" />
<path d="M57789 31054
L58183 31645
" />
<path d="M58183 31054
L57789 31645
" />
<path d="M58408 31645
L58408 31054
" />
<path d="M58661 31616
L58745 31645
L58886 31645
L58942 31616
L58970 31588
L58998 31532
L58998 31476
L58970 31420
L58942 31392
L58886 31363
L58773 31335
L58717 31307
L58689 31279
L58661 31223
L58661 31167
L58689 31110
L58717 31082
L58773 31054
L58914 31054
L58998 31082
" />
<path d="M49370 31093
L49763 31093
L49370 31684
L49763 31684
" />
<path d="M50410 31515
L50691 31515
" />
<path d="M50354 31684
L50551 31093
L50748 31684
" />
<path d="M50888 31093
L51282 31684
" />
<path d="M51282 31093
L50888 31684
" />
<path d="M51507 31684
L51507 31093
" />
<path d="M51760 31656
L51844 31684
L51985 31684
L52041 31656
L52069 31628
L52097 31571
L52097 31515
L52069 31459
L52041 31431
L51985 31403
L51872 31375
L51816 31347
L51788 31318
L51760 31262
L51760 31206
L51788 31150
L51816 31122
L51872 31093
L52013 31093
L52097 31122
" />
</g>
<g style="fill:#000000; fill-opacity:0.0; 
stroke:#000000; stroke-width:78.7402; stroke-opacity:1; 
stroke-linecap:round; stroke-linejoin:round;">
<path d="M67992 34330
L67992 30787
" />
<path d="M61102 34330
L61102 30787
" />
<path d="M54212 34330
L54212 30787
" />
<path d="M47322 34330
L47322 30787
" />
<path d="M43188 34330
L43188 30787
" />
<path d="M40393 34330
L40393 30787
" />
<path d="M43740 33815
L43725 33845
L43725 33890
L43740 33935
L43770 33965
L43800 33980
L43860 33995
L43905 33995
L43965 33980
L43995 33965
L44025 33935
L44040 33890
L44040 33860
L44025 33815
L44010 33800
L43905 33800
L43905 33860
" />
<path d="M44040 33665
L43725 33665
L44040 33485
L43725 33485
" />
<path d="M44040 33335
L43725 33335
L43725 33260
L43740 33215
L43770 33185
L43800 33170
L43860 33155
L43905 33155
L43965 33170
L43995 33185
L44025 33215
L44040 33260
L44040 33335
" />
<path d="M52007 33815
L51992 33845
L51992 33890
L52007 33935
L52037 33965
L52067 33980
L52127 33995
L52172 33995
L52232 33980
L52262 33965
L52292 33935
L52307 33890
L52307 33860
L52292 33815
L52277 33800
L52172 33800
L52172 33860
" />
<path d="M52307 33665
L51992 33665
L52307 33485
L51992 33485
" />
<path d="M52307 33335
L51992 33335
L51992 33260
L52007 33215
L52037 33185
L52067 33170
L52127 33155
L52172 33155
L52232 33170
L52262 33185
L52292 33215
L52307 33260
L52307 33335
" />
<path d="M58897 33815
L58882 33845
L58882 33890
L58897 33935
L58927 33965
L58957 33980
L59017 33995
L59062 33995
L59122 33980
L59152 33965
L59182 33935
L59197 33890
L59197 33860
L59182 33815
L59167 33800
L59062 33800
L59062 33860
" />
<path d="M59197 33665
L58882 33665
L59197 33485
L58882 33485
" />
<path d="M59197 33335
L58882 33335
L58882 33260
L58897 33215
L58927 33185
L58957 33170
L59017 33155
L59062 33155
L59122 33170
L59152 33185
L59182 33215
L59197 33260
L59197 33335
" />
<path d="M67345 33980
L67345 33740
" />
<path d="M67465 33860
L67225 33860
" />
<path d="M67180 33605
L67165 33590
L67150 33560
L67150 33485
L67165 33455
L67180 33440
L67210 33425
L67240 33425
L67285 33440
L67465 33620
L67465 33425
" />
<path d="M67255 33155
L67465 33155
" />
<path d="M67135 33230
L67360 33305
L67360 33110
" />
<path d="M67150 33035
L67465 32930
L67150 32825
" />
<path d="M65787 33815
L65772 33845
L65772 33890
L65787 33935
L65817 33965
L65847 33980
L65907 33995
L65952 33995
L66012 33980
L66042 33965
L66072 33935
L66087 33890
L66087 33860
L66072 33815
L66057 33800
L65952 33800
L65952 33860
" />
<path d="M66087 33665
L65772 33665
L66087 33485
L65772 33485
" />
<path d="M66087 33335
L65772 33335
L65772 33260
L65787 33215
L65817 33185
L65847 33170
L65907 33155
L65952 33155
L66012 33170
L66042 33185
L66072 33215
L66087 33260
L66087 33335
" />
<path d="M64544 33980
L64544 33875
" />
<path d="M64709 33830
L64709 33980
L64394 33980
L64394 33830
" />
<path d="M64709 33695
L64394 33695
L64709 33515
L64394 33515
" />
<path d="M64739 33440
L64739 33200
" />
<path d="M64394 33155
L64709 32945
" />
<path d="M64394 32945
L64709 33155
" />
<path d="M63316 33995
L63331 33950
L63331 33875
L63316 33845
L63301 33830
L63271 33815
L63241 33815
L63211 33830
L63196 33845
L63181 33875
L63166 33935
L63151 33965
L63136 33980
L63106 33995
L63076 33995
L63046 33980
L63031 33965
L63016 33935
L63016 33860
L63031 33815
" />
<path d="M63016 33725
L63016 33545
" />
<path d="M63331 33635
L63016 33635
" />
<path d="M63166 33440
L63166 33335
" />
<path d="M63331 33290
L63331 33440
L63016 33440
L63016 33290
" />
<path d="M63331 33155
L63016 33155
L63016 33035
L63031 33005
L63046 32990
L63076 32975
L63121 32975
L63151 32990
L63166 33005
L63181 33035
L63181 33155
" />
<path d="M63361 32915
L63361 32675
" />
<path d="M63016 32630
L63331 32420
" />
<path d="M63016 32420
L63331 32630
" />
<path d="M61953 33980
L61638 33980
L61638 33905
L61653 33860
L61683 33830
L61713 33815
L61773 33800
L61818 33800
L61878 33815
L61908 33830
L61938 33860
L61953 33905
L61953 33980
" />
<path d="M61953 33665
L61638 33665
" />
<path d="M61953 33335
L61803 33440
" />
<path d="M61953 33515
L61638 33515
L61638 33395
L61653 33365
L61668 33350
L61698 33335
L61743 33335
L61773 33350
L61788 33365
L61803 33395
L61803 33515
" />
<path d="M61983 33275
L61983 33035
" />
<path d="M61638 32990
L61953 32780
" />
<path d="M61638 32780
L61953 32990
" />
<path d="M60455 33980
L60455 33740
" />
<path d="M60575 33860
L60335 33860
" />
<path d="M60290 33605
L60275 33590
L60260 33560
L60260 33485
L60275 33455
L60290 33440
L60320 33425
L60350 33425
L60395 33440
L60575 33620
L60575 33425
" />
<path d="M60365 33155
L60575 33155
" />
<path d="M60245 33230
L60470 33305
L60470 33110
" />
<path d="M60260 33035
L60575 32930
L60260 32825
" />
<path d="M57654 33980
L57654 33875
" />
<path d="M57819 33830
L57819 33980
L57504 33980
L57504 33830
" />
<path d="M57819 33695
L57504 33695
L57819 33515
L57504 33515
" />
<path d="M57849 33440
L57849 33200
" />
<path d="M57669 33065
L57819 33065
" />
<path d="M57504 33170
L57669 33065
L57504 32960
" />
<path d="M56426 33995
L56441 33950
L56441 33875
L56426 33845
L56411 33830
L56381 33815
L56351 33815
L56321 33830
L56306 33845
L56291 33875
L56276 33935
L56261 33965
L56246 33980
L56216 33995
L56186 33995
L56156 33980
L56141 33965
L56126 33935
L56126 33860
L56141 33815
" />
<path d="M56126 33725
L56126 33545
" />
<path d="M56441 33635
L56126 33635
" />
<path d="M56276 33440
L56276 33335
" />
<path d="M56441 33290
L56441 33440
L56126 33440
L56126 33290
" />
<path d="M56441 33155
L56126 33155
L56126 33035
L56141 33005
L56156 32990
L56186 32975
L56231 32975
L56261 32990
L56276 33005
L56291 33035
L56291 33155
" />
<path d="M56471 32915
L56471 32675
" />
<path d="M56291 32540
L56441 32540
" />
<path d="M56126 32645
L56291 32540
L56126 32435
" />
<path d="M55063 33980
L54748 33980
L54748 33905
L54763 33860
L54793 33830
L54823 33815
L54883 33800
L54928 33800
L54988 33815
L55018 33830
L55048 33860
L55063 33905
L55063 33980
" />
<path d="M55063 33665
L54748 33665
" />
<path d="M55063 33335
L54913 33440
" />
<path d="M55063 33515
L54748 33515
L54748 33395
L54763 33365
L54778 33350
L54808 33335
L54853 33335
L54883 33350
L54898 33365
L54913 33395
L54913 33515
" />
<path d="M55093 33275
L55093 33035
" />
<path d="M54913 32900
L55063 32900
" />
<path d="M54748 33005
L54913 32900
L54748 32795
" />
<path d="M53565 33980
L53565 33740
" />
<path d="M53685 33860
L53445 33860
" />
<path d="M53400 33605
L53385 33590
L53370 33560
L53370 33485
L53385 33455
L53400 33440
L53430 33425
L53460 33425
L53505 33440
L53685 33620
L53685 33425
" />
<path d="M53475 33155
L53685 33155
" />
<path d="M53355 33230
L53580 33305
L53580 33110
" />
<path d="M53370 33035
L53685 32930
L53370 32825
" />
<path d="M50764 33980
L50764 33875
" />
<path d="M50929 33830
L50929 33980
L50614 33980
L50614 33830
" />
<path d="M50929 33695
L50614 33695
L50929 33515
L50614 33515
" />
<path d="M50959 33440
L50959 33200
" />
<path d="M50614 33155
L50614 32945
L50929 33155
L50929 32945
" />
<path d="M49536 33995
L49551 33950
L49551 33875
L49536 33845
L49521 33830
L49491 33815
L49461 33815
L49431 33830
L49416 33845
L49401 33875
L49386 33935
L49371 33965
L49356 33980
L49326 33995
L49296 33995
L49266 33980
L49251 33965
L49236 33935
L49236 33860
L49251 33815
" />
<path d="M49236 33725
L49236 33545
" />
<path d="M49551 33635
L49236 33635
" />
<path d="M49386 33440
L49386 33335
" />
<path d="M49551 33290
L49551 33440
L49236 33440
L49236 33290
" />
<path d="M49551 33155
L49236 33155
L49236 33035
L49251 33005
L49266 32990
L49296 32975
L49341 32975
L49371 32990
L49386 33005
L49401 33035
L49401 33155
" />
<path d="M49581 32915
L49581 32675
" />
<path d="M49236 32630
L49236 32420
L49551 32630
L49551 32420
" />
<path d="M48173 33980
L47859 33980
L47859 33905
L47874 33860
L47904 33830
L47934 33815
L47994 33800
L48038 33800
L48098 33815
L48128 33830
L48158 33860
L48173 33905
L48173 33980
" />
<path d="M48173 33665
L47859 33665
" />
<path d="M48173 33335
L48023 33440
" />
<path d="M48173 33515
L47859 33515
L47859 33395
L47874 33365
L47889 33350
L47919 33335
L47964 33335
L47994 33350
L48008 33365
L48023 33395
L48023 33515
" />
<path d="M48203 33275
L48203 33035
" />
<path d="M47859 32990
L47859 32780
L48173 32990
L48173 32780
" />
<path d="M46781 33995
L46796 33950
L46796 33875
L46781 33845
L46766 33830
L46736 33815
L46706 33815
L46676 33830
L46661 33845
L46646 33875
L46631 33935
L46616 33965
L46601 33980
L46571 33995
L46541 33995
L46511 33980
L46496 33965
L46481 33935
L46481 33860
L46496 33815
" />
<path d="M46796 33680
L46481 33680
L46481 33560
L46496 33530
L46511 33515
L46541 33500
L46586 33500
L46616 33515
L46631 33530
L46646 33560
L46646 33680
" />
<path d="M46826 33440
L46826 33200
" />
<path d="M46796 33125
L46481 33125
L46481 33005
L46496 32975
L46511 32960
L46541 32945
L46586 32945
L46616 32960
L46631 32975
L46646 33005
L46646 33125
" />
<path d="M46481 32840
L46796 32765
L46571 32705
L46796 32645
L46481 32570
" />
<path d="M46796 32450
L46481 32450
L46706 32345
L46481 32240
L46796 32240
" />
<path d="M45403 33995
L45418 33950
L45418 33875
L45403 33845
L45388 33830
L45358 33815
L45328 33815
L45298 33830
L45283 33845
L45268 33875
L45253 33935
L45238 33965
L45223 33980
L45193 33995
L45163 33995
L45133 33980
L45118 33965
L45103 33935
L45103 33860
L45118 33815
" />
<path d="M45418 33680
L45103 33680
L45103 33560
L45118 33530
L45133 33515
L45163 33500
L45208 33500
L45238 33515
L45253 33530
L45268 33560
L45268 33680
" />
<path d="M45448 33440
L45448 33200
" />
<path d="M45418 33125
L45103 33125
L45103 33050
L45118 33005
L45148 32975
L45178 32960
L45238 32945
L45283 32945
L45343 32960
L45373 32975
L45403 33005
L45418 33050
L45418 33125
" />
<path d="M45418 32810
L45103 32810
" />
<path d="M45418 32480
L45268 32585
" />
<path d="M45418 32660
L45103 32660
L45103 32540
L45118 32510
L45133 32495
L45163 32480
L45208 32480
L45238 32495
L45253 32510
L45268 32540
L45268 32660
" />
<path d="M40984 33815
L40969 33845
L40969 33890
L40984 33935
L41014 33965
L41044 33980
L41104 33995
L41149 33995
L41209 33980
L41239 33965
L41269 33935
L41284 33890
L41284 33860
L41269 33815
L41254 33800
L41149 33800
L41149 33860
" />
<path d="M41284 33665
L40969 33665
L41284 33485
L40969 33485
" />
<path d="M41284 33335
L40969 33335
L40969 33260
L40984 33215
L41014 33185
L41044 33170
L41104 33155
L41149 33155
L41209 33170
L41239 33185
L41269 33215
L41284 33260
L41284 33335
" />
<path d="M42497 33980
L42497 33875
" />
<path d="M42662 33830
L42662 33980
L42347 33980
L42347 33830
" />
<path d="M42662 33695
L42347 33695
L42662 33515
L42347 33515
" />
<path d="M42692 33440
L42692 33200
" />
<path d="M42632 32945
L42647 32960
L42662 33005
L42662 33035
L42647 33080
L42617 33110
L42587 33125
L42527 33140
L42482 33140
L42422 33125
L42392 33110
L42362 33080
L42347 33035
L42347 33005
L42362 32960
L42377 32945
" />
<path d="M42347 32750
L42347 32690
L42362 32660
L42392 32630
L42452 32615
L42557 32615
L42617 32630
L42647 32660
L42662 32690
L42662 32750
L42647 32780
L42617 32810
L42557 32825
L42452 32825
L42392 32810
L42362 32780
L42347 32750
" />
<path d="M65112 47420
L65112 46947
" />
<path d="M65382 47420
L65179 47150
" />
<path d="M65382 46947
L65112 47217
" />
<path d="M65854 47375
L65832 47397
L65764 47420
L65719 47420
L65652 47397
L65607 47352
L65584 47307
L65562 47217
L65562 47150
L65584 47060
L65607 47015
L65652 46970
L65719 46947
L65764 46947
L65832 46970
L65854 46992
" />
<path d="M66057 47420
L66057 46947
L66327 47420
L66327 46947
" />
<path d="M66822 47375
L66799 47397
L66732 47420
L66687 47420
L66619 47397
L66574 47352
L66552 47307
L66529 47217
L66529 47150
L66552 47060
L66574 47015
L66619 46970
L66687 46947
L66732 46947
L66799 46970
L66822 46992
" />
<path d="M67362 47397
L67429 47420
L67542 47420
L67587 47397
L67609 47375
L67632 47330
L67632 47285
L67609 47240
L67587 47217
L67542 47195
L67452 47172
L67407 47150
L67384 47127
L67362 47082
L67362 47037
L67384 46992
L67407 46970
L67452 46947
L67564 46947
L67632 46970
" />
<path d="M67834 47420
L67834 46947
" />
<path d="M67834 47172
L68104 47172
" />
<path d="M68104 47420
L68104 46947
" />
<path d="M68329 47420
L68329 46947
" />
<path d="M68554 47172
L68712 47172
" />
<path d="M68779 47420
L68554 47420
L68554 46947
L68779 46947
" />
<path d="M69206 47420
L68982 47420
L68982 46947
" />
<path d="M69364 47420
L69364 46947
L69476 46947
L69544 46970
L69589 47015
L69611 47060
L69634 47150
L69634 47217
L69611 47307
L69589 47352
L69544 47397
L69476 47420
L69364 47420
" />
<path d="M70151 47105
L70264 47420
L70376 47105
" />
<path d="M70534 46992
L70556 46970
L70601 46947
L70714 46947
L70759 46970
L70781 46992
L70804 47037
L70804 47082
L70781 47150
L70511 47420
L70804 47420
" />
<path d="M71006 47375
L71029 47397
L71006 47420
L70984 47397
L71006 47375
L71006 47420
" />
<path d="M71321 46947
L71366 46947
L71411 46970
L71434 46992
L71456 47037
L71479 47127
L71479 47240
L71456 47330
L71434 47375
L71411 47397
L71366 47420
L71321 47420
L71276 47397
L71254 47375
L71231 47330
L71209 47240
L71209 47127
L71231 47037
L71254 46992
L71276 46970
L71321 46947
" />
<path d="M65247 48387
L65224 48364
L65179 48297
L65157 48252
L65134 48184
L65112 48072
L65112 47982
L65134 47869
L65157 47802
L65179 47757
L65224 47689
L65247 47667
" />
<path d="M65629 48184
L65584 48207
L65494 48207
L65449 48184
L65427 48162
L65404 48117
L65404 47982
L65427 47937
L65449 47914
L65494 47892
L65584 47892
L65629 47914
" />
<path d="M65787 48387
L65809 48364
L65854 48297
L65877 48252
L65899 48184
L65922 48072
L65922 47982
L65899 47869
L65877 47802
L65854 47757
L65809 47689
L65787 47667
" />
<path d="M66484 47779
L66507 47757
L66552 47734
L66664 47734
L66709 47757
L66732 47779
L66754 47824
L66754 47869
L66732 47937
L66462 48207
L66754 48207
" />
<path d="M67047 47734
L67092 47734
L67137 47757
L67159 47779
L67182 47824
L67204 47914
L67204 48027
L67182 48117
L67159 48162
L67137 48184
L67092 48207
L67047 48207
L67002 48184
L66979 48162
L66957 48117
L66934 48027
L66934 47914
L66957 47824
L66979 47779
L67002 47757
L67047 47734
" />
<path d="M67654 48207
L67384 48207
" />
<path d="M67519 48207
L67519 47734
L67474 47802
L67429 47847
L67384 47869
" />
<path d="M67812 47734
L68127 47734
L67924 48207
" />
<path d="M68802 47734
L68802 48072
L68779 48139
L68734 48184
L68667 48207
L68622 48207
" />
<path d="M69094 48207
L69049 48184
L69026 48162
L69004 48117
L69004 47982
L69026 47937
L69049 47914
L69094 47892
L69161 47892
L69206 47914
L69229 47937
L69251 47982
L69251 48117
L69229 48162
L69206 48184
L69161 48207
L69094 48207
" />
<path d="M69454 48207
L69454 47734
" />
<path d="M69656 48207
L69656 47959
L69634 47914
L69589 47892
L69521 47892
L69476 47914
L69454 47937
" />
<path d="M70084 48207
L70084 47959
L70061 47914
L70016 47892
L69926 47892
L69881 47914
" />
<path d="M70084 48184
L70039 48207
L69926 48207
L69881 48184
L69859 48139
L69859 48094
L69881 48049
L69926 48027
L70039 48027
L70084 48004
" />
<path d="M70309 47892
L70309 48207
" />
<path d="M70309 47937
L70331 47914
L70376 47892
L70444 47892
L70489 47914
L70511 47959
L70511 48207
" />
<path d="M70736 47892
L70736 48207
" />
<path d="M70736 47937
L70759 47914
L70804 47892
L70871 47892
L70916 47914
L70939 47959
L70939 48207
" />
<path d="M71524 48207
L71524 47734
L71636 47734
L71704 47757
L71749 47802
L71771 47847
L71794 47937
L71794 48004
L71771 48094
L71749 48139
L71704 48184
L71636 48207
L71524 48207
" />
<path d="M72176 48184
L72131 48207
L72041 48207
L71996 48184
L71974 48139
L71974 47959
L71996 47914
L72041 47892
L72131 47892
L72176 47914
L72199 47959
L72199 48004
L71974 48049
" />
<path d="M72469 48207
L72424 48184
L72401 48139
L72401 47734
" />
<path d="M72851 48207
L72851 47959
L72829 47914
L72784 47892
L72694 47892
L72649 47914
" />
<path d="M72851 48184
L72806 48207
L72694 48207
L72649 48184
L72626 48139
L72626 48094
L72649 48049
L72694 48027
L72806 48027
L72851 48004
" />
<path d="M73076 48207
L73076 47734
" />
<path d="M73278 48207
L73278 47959
L73256 47914
L73211 47892
L73143 47892
L73098 47914
L73076 47937
" />
<path d="M73706 48207
L73706 47959
L73683 47914
L73638 47892
L73548 47892
L73503 47914
" />
<path d="M73706 48184
L73661 48207
L73548 48207
L73503 48184
L73481 48139
L73481 48094
L73503 48049
L73548 48027
L73661 48027
L73706 48004
" />
<path d="M73886 47892
L73998 48207
" />
<path d="M74111 47892
L73998 48207
L73953 48319
L73931 48342
L73886 48364
" />
<path d="M74471 48184
L74426 48207
L74336 48207
L74291 48184
L74268 48139
L74268 47959
L74291 47914
L74336 47892
L74426 47892
L74471 47914
L74493 47959
L74493 48004
L74268 48049
" />
<path d="M74673 48184
L74718 48207
L74808 48207
L74853 48184
L74876 48139
L74876 48117
L74853 48072
L74808 48049
L74741 48049
L74696 48027
L74673 47982
L74673 47959
L74696 47914
L74741 47892
L74808 47892
L74853 47914
" />
</g>
<g style="fill:#000000; fill-opacity:0.0; 
stroke:#000000; stroke-width:59.0551; stroke-opacity:1; 
stroke-linecap:round; stroke-linejoin:round;">
<circle cx="34645.7" cy="52755.9" r="656.168" /> 
<path d="M33661 52755
L35629 52755
" />
<path d="M34645 51771
L34645 53740
" />
<circle cx="81496.1" cy="52755.9" r="656.168" /> 
<path d="M80511 52755
L82480 52755
" />
<path d="M81496 51771
L81496 53740
" />
<circle cx="81496.1" cy="24015.7" r="656.168" /> 
<path d="M80511 24015
L82480 24015
" />
<path d="M81496 23031
L81496 25000
" />
<circle cx="34645.7" cy="24015.7" r="656.168" /> 
<path d="M33661 24015
L35629 24015
" />
<path d="M34645 23031
L34645 25000
" />
<path d="M38548 48844
L77548 48844
" />
<path d="M77548 48844
L77548 27844
" />
<path d="M77548 27844
L38548 27844
" />
<path d="M38548 27844
L38548 48844
" />
</g>
<g style="fill:#000000; fill-opacity:0.0; 
stroke:#000000; stroke-width:47.2441; stroke-opacity:1; 
stroke-linecap:round; stroke-linejoin:round;">
<path d="M75494 36292
L72305 36292
" />
<path d="M75494 36307
L72305 36307
" />
<path d="M75494 36323
L72305 36323
" />
<path d="M75494 36339
L72305 36339
" />
<path d="M75493 36355
L72306 36355
" />
<path d="M75492 36370
L72307 36370
" />
<path d="M75491 36386
L72308 36386
" />
<path d="M75490 36402
L74285 36402
" />
<path d="M73514 36402
L72309 36402
" />
<path d="M75489 36418
L74285 36418
" />
<path d="M73514 36418
L72310 36418
" />
<path d="M75488 36433
L74285 36433
" />
<path d="M73514 36433
L72311 36433
" />
<path d="M75487 36449
L74285 36449
" />
<path d="M73514 36449
L72312 36449
" />
<path d="M75485 36465
L74285 36465
" />
<path d="M73514 36465
L72314 36465
" />
<path d="M75483 36481
L74285 36481
" />
<path d="M73514 36481
L72316 36481
" />
<path d="M75481 36496
L74285 36496
" />
<path d="M73514 36496
L72318 36496
" />
<path d="M75479 36512
L74285 36512
" />
<path d="M73514 36512
L72320 36512
" />
<path d="M75477 36528
L74285 36528
" />
<path d="M73514 36528
L72322 36528
" />
<path d="M75474 36544
L74285 36544
" />
<path d="M73514 36544
L72325 36544
" />
<path d="M75472 36559
L74285 36559
" />
<path d="M73514 36559
L72327 36559
" />
<path d="M75469 36575
L74285 36575
" />
<path d="M73514 36575
L72330 36575
" />
<path d="M75466 36591
L74285 36591
" />
<path d="M73514 36591
L72333 36591
" />
<path d="M75463 36607
L74285 36607
" />
<path d="M73514 36607
L72336 36607
" />
<path d="M75460 36623
L74285 36623
" />
<path d="M73514 36623
L72339 36623
" />
<path d="M75457 36638
L74285 36638
" />
<path d="M73514 36638
L72342 36638
" />
<path d="M75453 36654
L74285 36654
" />
<path d="M73514 36654
L72346 36654
" />
<path d="M75449 36670
L74285 36670
" />
<path d="M73514 36670
L72350 36670
" />
<path d="M75445 36686
L74285 36686
" />
<path d="M73514 36686
L72354 36686
" />
<path d="M75441 36701
L74285 36701
" />
<path d="M73514 36701
L72358 36701
" />
<path d="M75437 36717
L74285 36717
" />
<path d="M73514 36717
L72362 36717
" />
<path d="M75433 36733
L74285 36733
" />
<path d="M73514 36733
L72366 36733
" />
<path d="M75428 36749
L74285 36749
" />
<path d="M73514 36749
L72371 36749
" />
<path d="M75423 36764
L74285 36764
" />
<path d="M73514 36764
L72376 36764
" />
<path d="M75418 36780
L74285 36780
" />
<path d="M73514 36780
L72381 36780
" />
<path d="M75413 36796
L74285 36796
" />
<path d="M73514 36796
L72386 36796
" />
<path d="M75408 36812
L74285 36812
" />
<path d="M73514 36812
L72391 36812
" />
<path d="M75403 36827
L74285 36827
" />
<path d="M73514 36827
L72396 36827
" />
<path d="M75397 36843
L74285 36843
" />
<path d="M73514 36843
L72402 36843
" />
<path d="M75391 36859
L74285 36859
" />
<path d="M73514 36859
L72408 36859
" />
<path d="M75385 36875
L74285 36875
" />
<path d="M73514 36875
L72414 36875
" />
<path d="M75379 36890
L74285 36890
" />
<path d="M73514 36890
L72420 36890
" />
<path d="M75372 36906
L74285 36906
" />
<path d="M73514 36906
L72427 36906
" />
<path d="M75366 36922
L74285 36922
" />
<path d="M73514 36922
L72433 36922
" />
<path d="M75359 36938
L74285 36938
" />
<path d="M73514 36938
L72440 36938
" />
<path d="M75352 36953
L74285 36953
" />
<path d="M73514 36953
L72447 36953
" />
<path d="M75345 36969
L74285 36969
" />
<path d="M73514 36969
L72454 36969
" />
<path d="M75337 36985
L74285 36985
" />
<path d="M73514 36985
L72462 36985
" />
<path d="M75330 37001
L74285 37001
" />
<path d="M73514 37001
L72469 37001
" />
<path d="M75322 37016
L74285 37016
" />
<path d="M73514 37016
L72477 37016
" />
<path d="M75314 37032
L74285 37032
" />
<path d="M73514 37032
L72485 37032
" />
<path d="M75306 37048
L74285 37048
" />
<path d="M73514 37048
L72493 37048
" />
<path d="M75297 37064
L74285 37064
" />
<path d="M73514 37064
L72502 37064
" />
<path d="M75288 37079
L74285 37079
" />
<path d="M73514 37079
L72511 37079
" />
<path d="M75279 37095
L74285 37095
" />
<path d="M73514 37095
L72520 37095
" />
<path d="M75270 37111
L74285 37111
" />
<path d="M73514 37111
L72529 37111
" />
<path d="M75261 37127
L74285 37127
" />
<path d="M73514 37127
L72538 37127
" />
<path d="M75251 37142
L74285 37142
" />
<path d="M73514 37142
L72548 37142
" />
<path d="M75241 37158
L74285 37158
" />
<path d="M73514 37158
L72558 37158
" />
<path d="M75231 37174
L72568 37174
" />
<path d="M75221 37190
L72578 37190
" />
<path d="M75210 37205
L72589 37205
" />
<path d="M75199 37221
L72600 37221
" />
<path d="M75188 37237
L72611 37237
" />
<path d="M75176 37253
L72623 37253
" />
<path d="M75164 37268
L72635 37268
" />
<path d="M75152 37284
L72647 37284
" />
<path d="M75140 37300
L72659 37300
" />
<path d="M75127 37316
L72672 37316
" />
<path d="M75114 37331
L72685 37331
" />
<path d="M75100 37347
L72699 37347
" />
<path d="M75087 37363
L72712 37363
" />
<path d="M75072 37379
L72727 37379
" />
<path d="M75058 37394
L72741 37394
" />
<path d="M75043 37410
L72756 37410
" />
<path d="M75027 37426
L72772 37426
" />
<path d="M75011 37442
L72788 37442
" />
<path d="M74995 37457
L72804 37457
" />
<path d="M74978 37473
L72821 37473
" />
<path d="M74961 37489
L72838 37489
" />
<path d="M74944 37505
L72855 37505
" />
<path d="M74925 37520
L72874 37520
" />
<path d="M74906 37536
L72893 37536
" />
<path d="M74887 37552
L72912 37552
" />
<path d="M74867 37568
L72932 37568
" />
<path d="M74846 37583
L72953 37583
" />
<path d="M74824 37599
L72975 37599
" />
<path d="M74802 37615
L72997 37615
" />
<path d="M74779 37631
L73020 37631
" />
<path d="M74755 37646
L73044 37646
" />
<path d="M74730 37662
L73069 37662
" />
<path d="M74704 37678
L73095 37678
" />
<path d="M74677 37694
L73122 37694
" />
<path d="M74648 37709
L73151 37709
" />
<path d="M74618 37725
L73181 37725
" />
<path d="M74587 37741
L73212 37741
" />
<path d="M74553 37757
L73246 37757
" />
<path d="M74518 37772
L73281 37772
" />
<path d="M74479 37788
L73320 37788
" />
<path d="M74438 37804
L73361 37804
" />
<path d="M74393 37820
L73406 37820
" />
<path d="M74343 37835
L73456 37835
" />
<path d="M74287 37851
L73512 37851
" />
<path d="M74220 37867
L73579 37867
" />
<path d="M74135 37883
L73664 37883
" />
<path d="M73996 37898
L73803 37898
" />
<path d="M73900 34933
L73900 35406
" />
<path d="M74155 35170
L73644 35170
" />
<circle cx="73900" cy="36292.1" r="1610.24" /> 
</g>
<g style="fill:#000000; fill-opacity:0.0; 
stroke:#000000; stroke-width:59.0551; stroke-opacity:1; 
stroke-linecap:round; stroke-linejoin:round;">
<path d="M70250 36100
L71600 36100
" />
<path d="M70250 39900
L71600 39900
" />
<path d="M69800 35900
L69800 40100
" />
<path d="M70200 37300
L69700 37300
" />
<path d="M70200 38700
L69700 38700
" />
<path d="M70250 40100
L70250 35900
" />
<path d="M71600 35900
L71600 40100
" />
<path d="M69700 40100
L71600 40100
" />
<path d="M69700 35900
L71600 35900
" />
<path d="M69700 35900
L69700 40100
" />
<path d="M41796 40832
L41796 41206
" />
<path d="M43174 38450
L43174 41206
" />
<path d="M40418 41206
L40418 38450
" />
<path d="M40418 40832
L43174 40832
" />
<path d="M40418 38450
L43174 38450
" />
<path d="M43174 41206
L40418 41206
" />
<path d="M44551 40832
L44551 41206
" />
<path d="M45929 38450
L45929 41206
" />
<path d="M43174 41206
L43174 38450
" />
<path d="M43174 40832
L45929 40832
" />
<path d="M43174 38450
L45929 38450
" />
<path d="M45929 41206
L43174 41206
" />
<path d="M47307 40832
L47307 41206
" />
<path d="M48685 38450
L48685 41206
" />
<path d="M45929 41206
L45929 38450
" />
<path d="M45929 40832
L48685 40832
" />
<path d="M45929 38450
L48685 38450
" />
<path d="M48685 41206
L45929 41206
" />
<path d="M50063 40832
L50063 41206
" />
<path d="M51441 38450
L51441 41206
" />
<path d="M48685 41206
L48685 38450
" />
<path d="M48685 40832
L51441 40832
" />
<path d="M48685 38450
L51441 38450
" />
<path d="M51441 41206
L48685 41206
" />
<path d="M52819 40832
L52819 41206
" />
<path d="M54197 38450
L54197 41206
" />
<path d="M51441 41206
L51441 38450
" />
<path d="M51441 40832
L54197 40832
" />
<path d="M51441 38450
L54197 38450
" />
<path d="M54197 41206
L51441 41206
" />
<path d="M55575 40832
L55575 41206
" />
<path d="M56953 38450
L56953 41206
" />
<path d="M54197 41206
L54197 38450
" />
<path d="M54197 40832
L56953 40832
" />
<path d="M54197 38450
L56953 38450
" />
<path d="M56953 41206
L54197 41206
" />
<path d="M58331 40832
L58331 41206
" />
<path d="M59709 38450
L59709 41206
" />
<path d="M56953 41206
L56953 38450
" />
<path d="M56953 40832
L59709 40832
" />
<path d="M56953 38450
L59709 38450
" />
<path d="M59709 41206
L56953 41206
" />
<path d="M66599 40832
L66599 41206
" />
<path d="M67977 38450
L67977 41206
" />
<path d="M65221 41206
L65221 38450
" />
<path d="M65221 40832
L67977 40832
" />
<path d="M65221 38450
L67977 38450
" />
<path d="M67977 41206
L65221 41206
" />
<path d="M61087 40832
L61087 41206
" />
<path d="M62465 38450
L62465 41206
" />
<path d="M59709 41206
L59709 38450
" />
<path d="M59709 40832
L62465 40832
" />
<path d="M59709 38450
L62465 38450
" />
<path d="M62465 41206
L59709 41206
" />
<path d="M41796 34808
L41796 34434
" />
<path d="M40418 37190
L40418 34434
" />
<path d="M43174 34434
L43174 37190
" />
<path d="M43174 34808
L40418 34808
" />
<path d="M43174 37190
L40418 37190
" />
<path d="M40418 34434
L43174 34434
" />
<path d="M44551 34808
L44551 34434
" />
<path d="M45929 34808
L45929 34434
" />
<path d="M47307 34808
L43174 34808
" />
<path d="M47307 34434
L47307 37190
" />
<path d="M47307 37190
L43174 37190
" />
<path d="M43174 37190
L43174 34434
" />
<path d="M43174 34434
L47307 34434
" />
<path d="M48685 34808
L48685 34434
" />
<path d="M50063 34808
L50063 34434
" />
<path d="M51441 34808
L47307 34808
" />
<path d="M51441 34434
L51441 37190
" />
<path d="M51441 37190
L47307 37190
" />
<path d="M47307 37190
L47307 34434
" />
<path d="M47307 34434
L51441 34434
" />
<path d="M52819 34808
L52819 34434
" />
<path d="M51441 37190
L51441 34434
" />
<path d="M54197 34434
L54197 37190
" />
<path d="M54197 34808
L51441 34808
" />
<path d="M54197 37190
L51441 37190
" />
<path d="M51441 34434
L54197 34434
" />
<path d="M55575 34808
L55575 34434
" />
<path d="M56953 34808
L56953 34434
" />
<path d="M58331 34808
L54197 34808
" />
<path d="M58331 34434
L58331 37190
" />
<path d="M58331 37190
L54197 37190
" />
<path d="M54197 37190
L54197 34434
" />
<path d="M54197 34434
L58331 34434
" />
<path d="M59709 34808
L59709 34434
" />
<path d="M58331 37190
L58331 34434
" />
<path d="M61087 34434
L61087 37190
" />
<path d="M61087 34808
L58331 34808
" />
<path d="M61087 37190
L58331 37190
" />
<path d="M58331 34434
L61087 34434
" />
<path d="M62465 34808
L62465 34434
" />
<path d="M63843 34808
L63843 34434
" />
<path d="M65221 34808
L61087 34808
" />
<path d="M65221 34434
L65221 37190
" />
<path d="M65221 37190
L61087 37190
" />
<path d="M61087 37190
L61087 34434
" />
<path d="M61087 34434
L65221 34434
" />
<path d="M66599 34808
L66599 34434
" />
<path d="M65221 37190
L65221 34434
" />
<path d="M67977 34434
L67977 37190
" />
<path d="M67977 34808
L65221 34808
" />
<path d="M67977 37190
L65221 37190
" />
<path d="M65221 34434
L67977 34434
" />
<path d="M63843 40832
L63843 41206
" />
<path d="M65221 38450
L65221 41206
" />
<path d="M62465 41206
L62465 38450
" />
<path d="M62465 40832
L65221 40832
" />
<path d="M62465 38450
L65221 38450
" />
<path d="M65221 41206
L62465 41206
" />
</g>
<g style="fill:#000000; fill-opacity:0.0; 
stroke:#000000; stroke-width:47.2441; stroke-opacity:1; 
stroke-linecap:round; stroke-linejoin:round;">
<path d="M45900 47276
L44876 47276
" />
<path d="M44876 47276
L44876 48323
" />
<path d="M44876 48323
L45900 48323
" />
<path d="M45900 48323
L45900 47276
" />
<path d="M46400 47276
L46923 47276
" />
<path d="M46923 47276
L46923 47800
" />
<path d="M68500 29323
L71523 29323
" />
<path d="M71523 29323
L71523 28276
" />
<path d="M71523 28276
L68500 28276
" />
<path d="M68500 28276
L68500 29323
" />
<path d="M68000 29323
L67476 29323
" />
<path d="M67476 29323
L67476 28800
" />
<path d="M72305 39807
L75494 39807
" />
<path d="M72305 39792
L75494 39792
" />
<path d="M72305 39776
L75494 39776
" />
<path d="M72305 39760
L75494 39760
" />
<path d="M72306 39744
L75493 39744
" />
<path d="M72307 39729
L75492 39729
" />
<path d="M72308 39713
L75491 39713
" />
<path d="M72309 39697
L73514 39697
" />
<path d="M74285 39697
L75490 39697
" />
<path d="M72310 39681
L73514 39681
" />
<path d="M74285 39681
L75489 39681
" />
<path d="M72311 39666
L73514 39666
" />
<path d="M74285 39666
L75488 39666
" />
<path d="M72312 39650
L73514 39650
" />
<path d="M74285 39650
L75487 39650
" />
<path d="M72314 39634
L73514 39634
" />
<path d="M74285 39634
L75485 39634
" />
<path d="M72316 39618
L73514 39618
" />
<path d="M74285 39618
L75483 39618
" />
<path d="M72318 39603
L73514 39603
" />
<path d="M74285 39603
L75481 39603
" />
<path d="M72320 39587
L73514 39587
" />
<path d="M74285 39587
L75479 39587
" />
<path d="M72322 39571
L73514 39571
" />
<path d="M74285 39571
L75477 39571
" />
<path d="M72325 39555
L73514 39555
" />
<path d="M74285 39555
L75474 39555
" />
<path d="M72327 39540
L73514 39540
" />
<path d="M74285 39540
L75472 39540
" />
<path d="M72330 39524
L73514 39524
" />
<path d="M74285 39524
L75469 39524
" />
<path d="M72333 39508
L73514 39508
" />
<path d="M74285 39508
L75466 39508
" />
<path d="M72336 39492
L73514 39492
" />
<path d="M74285 39492
L75463 39492
" />
<path d="M72339 39476
L73514 39476
" />
<path d="M74285 39476
L75460 39476
" />
<path d="M72342 39461
L73514 39461
" />
<path d="M74285 39461
L75457 39461
" />
<path d="M72346 39445
L73514 39445
" />
<path d="M74285 39445
L75453 39445
" />
<path d="M72350 39429
L73514 39429
" />
<path d="M74285 39429
L75449 39429
" />
<path d="M72354 39413
L73514 39413
" />
<path d="M74285 39413
L75445 39413
" />
<path d="M72358 39398
L73514 39398
" />
<path d="M74285 39398
L75441 39398
" />
<path d="M72362 39382
L73514 39382
" />
<path d="M74285 39382
L75437 39382
" />
<path d="M72366 39366
L73514 39366
" />
<path d="M74285 39366
L75433 39366
" />
<path d="M72371 39350
L73514 39350
" />
<path d="M74285 39350
L75428 39350
" />
<path d="M72376 39335
L73514 39335
" />
<path d="M74285 39335
L75423 39335
" />
<path d="M72381 39319
L73514 39319
" />
<path d="M74285 39319
L75418 39319
" />
<path d="M72386 39303
L73514 39303
" />
<path d="M74285 39303
L75413 39303
" />
<path d="M72391 39287
L73514 39287
" />
<path d="M74285 39287
L75408 39287
" />
<path d="M72396 39272
L73514 39272
" />
<path d="M74285 39272
L75403 39272
" />
<path d="M72402 39256
L73514 39256
" />
<path d="M74285 39256
L75397 39256
" />
<path d="M72408 39240
L73514 39240
" />
<path d="M74285 39240
L75391 39240
" />
<path d="M72414 39224
L73514 39224
" />
<path d="M74285 39224
L75385 39224
" />
<path d="M72420 39209
L73514 39209
" />
<path d="M74285 39209
L75379 39209
" />
<path d="M72427 39193
L73514 39193
" />
<path d="M74285 39193
L75372 39193
" />
<path d="M72433 39177
L73514 39177
" />
<path d="M74285 39177
L75366 39177
" />
<path d="M72440 39161
L73514 39161
" />
<path d="M74285 39161
L75359 39161
" />
<path d="M72447 39146
L73514 39146
" />
<path d="M74285 39146
L75352 39146
" />
<path d="M72454 39130
L73514 39130
" />
<path d="M74285 39130
L75345 39130
" />
<path d="M72462 39114
L73514 39114
" />
<path d="M74285 39114
L75337 39114
" />
<path d="M72469 39098
L73514 39098
" />
<path d="M74285 39098
L75330 39098
" />
<path d="M72477 39083
L73514 39083
" />
<path d="M74285 39083
L75322 39083
" />
<path d="M72485 39067
L73514 39067
" />
<path d="M74285 39067
L75314 39067
" />
<path d="M72493 39051
L73514 39051
" />
<path d="M74285 39051
L75306 39051
" />
<path d="M72502 39035
L73514 39035
" />
<path d="M74285 39035
L75297 39035
" />
<path d="M72511 39020
L73514 39020
" />
<path d="M74285 39020
L75288 39020
" />
<path d="M72520 39004
L73514 39004
" />
<path d="M74285 39004
L75279 39004
" />
<path d="M72529 38988
L73514 38988
" />
<path d="M74285 38988
L75270 38988
" />
<path d="M72538 38972
L73514 38972
" />
<path d="M74285 38972
L75261 38972
" />
<path d="M72548 38957
L73514 38957
" />
<path d="M74285 38957
L75251 38957
" />
<path d="M72558 38941
L73514 38941
" />
<path d="M74285 38941
L75241 38941
" />
<path d="M72568 38925
L75231 38925
" />
<path d="M72578 38909
L75221 38909
" />
<path d="M72589 38894
L75210 38894
" />
<path d="M72600 38878
L75199 38878
" />
<path d="M72611 38862
L75188 38862
" />
<path d="M72623 38846
L75176 38846
" />
<path d="M72635 38831
L75164 38831
" />
<path d="M72647 38815
L75152 38815
" />
<path d="M72659 38799
L75140 38799
" />
<path d="M72672 38783
L75127 38783
" />
<path d="M72685 38768
L75114 38768
" />
<path d="M72699 38752
L75100 38752
" />
<path d="M72712 38736
L75087 38736
" />
<path d="M72727 38720
L75072 38720
" />
<path d="M72741 38705
L75058 38705
" />
<path d="M72756 38689
L75043 38689
" />
<path d="M72772 38673
L75027 38673
" />
<path d="M72788 38657
L75011 38657
" />
<path d="M72804 38642
L74995 38642
" />
<path d="M72821 38626
L74978 38626
" />
<path d="M72838 38610
L74961 38610
" />
<path d="M72855 38594
L74944 38594
" />
<path d="M72874 38579
L74925 38579
" />
<path d="M72893 38563
L74906 38563
" />
<path d="M72912 38547
L74887 38547
" />
<path d="M72932 38531
L74867 38531
" />
<path d="M72953 38516
L74846 38516
" />
<path d="M72975 38500
L74824 38500
" />
<path d="M72997 38484
L74802 38484
" />
<path d="M73020 38468
L74779 38468
" />
<path d="M73044 38453
L74755 38453
" />
<path d="M73069 38437
L74730 38437
" />
<path d="M73095 38421
L74704 38421
" />
<path d="M73122 38405
L74677 38405
" />
<path d="M73151 38390
L74648 38390
" />
<path d="M73181 38374
L74618 38374
" />
<path d="M73212 38358
L74587 38358
" />
<path d="M73246 38342
L74553 38342
" />
<path d="M73281 38327
L74518 38327
" />
<path d="M73320 38311
L74479 38311
" />
<path d="M73361 38295
L74438 38295
" />
<path d="M73406 38279
L74393 38279
" />
<path d="M73456 38264
L74343 38264
" />
<path d="M73512 38248
L74287 38248
" />
<path d="M73579 38232
L74220 38232
" />
<path d="M73664 38216
L74135 38216
" />
<path d="M73803 38201
L73996 38201
" />
<path d="M73900 41166
L73900 40693
" />
<path d="M73644 40929
L74155 40929
" />
<circle cx="73900" cy="39807.9" r="1610.24" /> 
</g>
<g style="fill:#000000; fill-opacity:1.0; 
stroke:#000000; stroke-width:3.93701; stroke-opacity:1; 
stroke-linecap:round; stroke-linejoin:round;">
<polyline style="fill-rule:evenodd;"
points="41377,48196
41399,48207
41418,48227
41424,48235
41430,48244
41433,48255
41435,48269
41436,48289
41437,48316
41436,48353
41432,48380
41426,48401
41416,48417
41401,48430
41400,48431
41386,48438
41369,48442
41347,48443
41311,48443
41311,48478
41311,48497
41309,48509
41303,48515
41293,48521
41291,48522
41279,48528
41271,48531
41264,48531
41259,48527
41256,48518
41255,48502
41254,48478
41254,48446
41255,48403
41255,48390
41255,48347
41256,48318
41311,48318
41311,48342
41313,48358
41316,48369
41321,48377
41325,48381
41340,48392
41354,48393
41368,48384
41368,48383
41374,48376
41377,48366
41379,48351
41379,48327
41379,48322
41378,48289
41374,48267
41366,48253
41354,48247
41348,48246
41332,48249
41321,48259
41314,48276
41311,48303
41311,48318
41256,48318
41256,48313
41257,48287
41258,48268
41259,48255
41262,48246
41265,48239
41268,48233
41270,48230
41291,48209
41319,48196
41350,48193
41377,48196
" /> 
<polyline style="fill-rule:evenodd;"
points="41817,48199
41835,48210
41848,48221
41857,48232
41864,48245
41868,48263
41870,48287
41871,48320
41871,48343
41871,48430
41847,48440
41822,48451
41819,48357
41818,48322
41817,48296
41816,48278
41813,48267
41811,48260
41807,48255
41806,48254
41787,48247
41768,48250
41757,48258
41752,48263
41749,48270
41747,48282
41746,48298
41745,48323
41745,48349
41745,48381
41745,48404
41743,48419
41739,48429
41732,48436
41722,48441
41708,48446
41693,48452
41695,48350
41696,48314
41696,48287
41698,48267
41699,48254
41702,48244
41706,48237
41710,48230
41732,48208
41759,48195
41788,48192
41817,48199
" /> 
<polyline style="fill-rule:evenodd;"
points="41157,48197
41184,48211
41204,48234
41211,48248
41216,48270
41219,48298
41220,48328
41217,48358
41213,48383
41206,48401
41204,48405
41181,48428
41153,48442
41122,48446
41091,48440
41082,48436
41066,48424
41051,48409
41050,48407
41044,48397
41040,48387
41038,48374
41037,48354
41037,48327
41037,48320
41037,48318
41094,48318
41094,48345
41095,48362
41098,48373
41103,48381
41105,48383
41119,48393
41132,48393
41146,48384
41154,48375
41158,48362
41161,48341
41161,48339
41162,48301
41157,48273
41147,48255
41132,48247
41127,48246
41113,48248
41103,48256
41097,48271
41094,48294
41094,48318
41037,48318
41037,48291
41038,48270
41040,48256
41043,48246
41048,48236
41049,48235
41069,48211
41090,48198
41116,48193
41125,48192
41157,48197
" /> 
<polyline style="fill-rule:evenodd;"
points="41601,48201
41624,48216
41641,48238
41652,48266
41654,48286
41653,48295
41651,48301
41646,48307
41635,48314
41617,48322
41591,48334
41591,48334
41567,48345
41547,48355
41533,48363
41528,48367
41528,48367
41533,48376
41543,48386
41555,48393
41561,48395
41578,48390
41592,48377
41599,48364
41606,48353
41619,48342
41634,48332
41648,48326
41651,48326
41654,48331
41654,48344
41652,48360
41647,48378
41641,48394
41641,48395
41623,48420
41599,48438
41572,48446
41544,48445
41518,48434
41516,48433
41495,48414
41482,48389
41474,48357
41473,48348
41471,48304
41473,48284
41528,48284
41529,48297
41533,48300
41542,48298
41558,48291
41575,48283
41575,48283
41590,48275
41596,48270
41594,48265
41588,48258
41573,48247
41556,48247
41541,48254
41531,48268
41528,48284
41473,48284
41475,48270
41484,48242
41498,48223
41522,48203
41548,48194
41575,48193
41601,48201
" /> 
<polyline style="fill-rule:evenodd;"
points="42077,48169
42078,48193
42080,48206
42083,48212
42087,48212
42088,48212
42105,48207
42127,48207
42149,48212
42163,48219
42177,48230
42188,48243
42195,48258
42199,48280
42202,48308
42202,48346
42202,48353
42202,48434
42184,48440
42172,48444
42165,48446
42164,48446
42164,48441
42163,48426
42163,48404
42162,48376
42162,48359
42162,48325
42162,48301
42161,48285
42159,48274
42156,48267
42152,48261
42149,48259
42131,48248
42111,48247
42092,48256
42089,48259
42084,48265
42081,48273
42078,48283
42077,48299
42077,48321
42077,48353
42077,48434
42059,48440
42046,48444
42039,48446
42039,48446
42038,48441
42038,48425
42037,48401
42037,48370
42037,48334
42037,48293
42037,48137
42055,48129
42074,48121
42077,48169
" /> 
<polyline style="fill-rule:evenodd;"
points="42338,48209
42360,48217
42361,48217
42374,48227
42385,48239
42392,48255
42397,48276
42400,48304
42401,48342
42401,48347
42403,48428
42386,48437
42373,48443
42366,48446
42365,48446
42364,48441
42363,48427
42362,48406
42362,48389
42362,48361
42361,48344
42357,48336
42347,48335
42331,48342
42307,48353
42289,48362
42279,48371
42277,48380
42277,48380
42281,48396
42294,48404
42315,48405
42329,48405
42337,48409
42342,48419
42345,48432
42341,48440
42339,48441
42325,48445
42305,48446
42285,48443
42270,48438
42250,48421
42239,48397
42237,48378
42238,48362
42245,48348
42257,48336
42277,48324
42306,48310
42308,48309
42334,48297
42351,48287
42358,48278
42356,48269
42347,48259
42344,48256
42326,48247
42307,48247
42290,48256
42279,48273
42278,48277
42268,48293
42255,48301
42237,48308
42237,48288
42242,48259
42259,48233
42267,48224
42287,48212
42312,48207
42338,48209
" /> 
<polyline style="fill-rule:evenodd;"
points="42531,48208
42557,48218
42578,48235
42586,48247
42595,48268
42595,48284
42586,48295
42582,48297
42567,48302
42559,48301
42557,48291
42557,48286
42552,48267
42539,48253
42522,48247
42503,48249
42487,48257
42482,48262
42478,48268
42476,48277
42474,48291
42473,48311
42472,48341
42472,48351
42471,48383
42470,48406
42469,48421
42467,48430
42464,48435
42459,48438
42456,48440
42443,48445
42436,48446
42433,48441
42432,48425
42431,48398
42432,48359
42432,48353
42433,48318
42434,48293
42435,48275
42437,48262
42440,48253
42445,48245
42447,48242
42460,48227
42475,48216
42477,48215
42503,48207
42531,48208
" /> 
<polyline style="fill-rule:evenodd;"
points="42791,48254
42791,48296
42791,48329
42790,48354
42789,48372
42787,48384
42785,48393
42782,48401
42780,48405
42760,48427
42735,48441
42708,48446
42681,48441
42665,48433
42648,48419
42636,48402
42629,48379
42626,48348
42625,48326
42625,48325
42665,48325
42665,48350
42667,48367
42669,48378
42674,48386
42679,48392
42698,48404
42717,48405
42736,48395
42738,48394
42744,48387
42748,48379
42750,48367
42751,48348
42751,48327
42751,48301
42749,48283
42747,48272
42742,48264
42738,48259
42721,48248
42701,48247
42682,48255
42678,48259
42672,48266
42668,48274
42666,48286
42665,48305
42665,48325
42625,48325
42627,48290
42631,48263
42640,48243
42654,48227
42665,48219
42684,48210
42707,48206
42728,48207
42739,48212
42744,48213
42747,48208
42749,48196
42751,48177
42753,48156
42755,48143
42760,48136
42767,48131
42772,48129
42791,48121
42791,48254
" /> 
<polyline style="fill-rule:evenodd;"
points="43023,48212
43024,48227
43025,48249
43025,48278
43025,48309
43025,48411
43007,48429
42995,48440
42984,48445
42969,48444
42963,48444
42944,48442
42929,48440
42925,48440
42913,48441
42895,48443
42888,48444
42870,48445
42859,48442
42847,48433
42843,48429
42825,48411
42825,48219
42840,48213
42852,48208
42860,48206
42861,48212
42863,48227
42865,48250
42866,48280
42866,48305
42868,48403
42882,48405
42894,48404
42900,48400
42902,48391
42903,48374
42904,48350
42905,48320
42905,48305
42905,48219
42923,48212
42936,48208
42943,48206
42943,48206
42944,48212
42945,48227
42945,48249
42946,48278
42946,48305
42948,48403
42982,48403
42984,48313
42985,48223
43002,48215
43015,48209
43022,48206
43022,48206
43023,48212
" /> 
<polyline style="fill-rule:evenodd;"
points="43167,48211
43183,48218
43196,48227
43206,48237
43212,48250
43216,48268
43219,48293
43219,48326
43219,48348
43219,48433
43205,48440
43193,48444
43188,48446
43187,48441
43186,48427
43185,48406
43185,48389
43185,48365
43183,48346
43182,48334
43180,48332
43170,48334
43154,48341
43136,48350
43118,48359
43104,48368
43098,48373
43098,48373
43098,48384
43103,48394
43112,48403
43125,48406
43135,48405
43151,48405
43159,48409
43163,48418
43164,48420
43166,48433
43161,48441
43146,48445
43130,48446
43102,48441
43087,48433
43069,48415
43060,48393
43059,48370
43067,48348
43079,48335
43091,48327
43111,48318
43133,48308
43136,48306
43161,48295
43175,48286
43180,48277
43175,48266
43168,48258
43151,48247
43132,48247
43115,48254
43102,48270
43101,48274
43091,48289
43077,48300
43059,48309
43059,48284
43061,48268
43065,48255
43075,48242
43084,48232
43099,48218
43110,48210
43123,48207
43136,48206
43167,48211
" /> 
<polyline style="fill-rule:evenodd;"
points="43367,48212
43373,48215
43390,48228
43404,48246
43412,48266
43414,48276
43409,48290
43399,48297
43388,48301
43383,48302
43380,48296
43375,48283
43373,48278
43361,48258
43344,48248
43322,48248
43320,48248
43308,48254
43299,48265
43293,48283
43290,48308
43288,48344
43288,48362
43288,48392
43288,48412
43286,48424
43284,48432
43280,48436
43274,48439
43273,48440
43262,48444
43256,48446
43255,48441
43255,48426
43254,48403
43254,48375
43254,48354
43254,48314
43255,48284
43258,48262
43263,48245
43270,48233
43280,48224
43290,48217
43313,48209
43341,48207
43367,48212
" /> 
<polyline style="fill-rule:evenodd;"
points="43564,48215
43587,48230
43597,48243
43606,48267
43607,48286
43605,48311
43547,48337
43518,48350
43500,48361
43490,48370
43488,48379
43494,48388
43499,48395
43517,48405
43535,48406
43553,48398
43565,48382
43568,48376
43578,48358
43591,48351
43608,48344
43608,48369
43607,48385
43601,48399
43588,48416
43586,48418
43573,48432
43561,48440
43546,48443
43533,48444
43511,48445
43496,48441
43486,48436
43471,48424
43460,48411
43453,48394
43450,48373
43448,48343
43448,48327
43448,48309
43483,48309
43483,48319
43484,48320
43491,48318
43505,48312
43524,48304
43528,48303
43552,48290
43565,48280
43568,48270
43561,48260
43555,48255
43535,48246
43515,48248
43499,48259
43488,48278
43484,48293
43483,48309
43448,48309
43449,48292
43452,48265
43457,48246
43466,48232
43478,48221
43484,48217
43509,48208
43537,48207
43564,48215
" /> 
<polyline style="fill-rule:evenodd;"
points="42363,46355
42394,46355
42417,46355
42432,46356
42441,46358
42447,46360
42449,46363
42451,46367
42451,46368
42453,46377
42457,46396
42461,46422
42467,46453
42474,46488
42474,46489
42480,46523
42486,46553
42492,46577
42496,46593
42498,46601
42498,46601
42505,46604
42520,46610
42539,46617
42539,46617
42564,46626
42592,46638
42619,46650
42620,46650
42664,46670
42761,46604
42791,46584
42818,46566
42841,46551
42858,46540
42867,46535
42868,46534
42874,46536
42887,46545
42906,46561
42931,46585
42957,46610
42982,46635
43005,46658
43023,46677
43036,46691
43043,46699
43043,46699
43044,46704
43041,46713
43034,46726
43023,46745
43006,46771
42984,46805
42964,46834
42946,46861
42931,46882
42921,46898
42915,46906
42915,46907
42916,46914
42920,46930
42929,46949
42932,46955
42944,46983
42958,47015
42969,47042
42977,47062
42983,47077
42987,47086
42987,47086
42994,47087
43010,47090
43033,47094
43060,47099
43091,47105
43122,47111
43152,47117
43178,47122
43199,47126
43212,47129
43215,47129
43218,47131
43221,47136
43223,47144
43224,47157
43225,47177
43225,47205
43225,47242
43225,47258
43225,47382
43195,47388
43179,47392
43154,47396
43124,47402
43091,47408
43082,47409
43053,47415
43027,47421
43007,47426
42995,47430
42993,47431
42988,47439
42981,47455
42974,47476
42972,47480
42962,47508
42950,47539
42938,47567
42938,47567
42917,47611
42984,47709
43050,47806
42965,47892
42939,47918
42916,47940
42896,47958
42881,47971
42872,47977
42871,47978
42863,47974
42848,47966
42827,47953
42801,47936
42773,47918
42745,47899
42720,47882
42700,47869
42686,47861
42679,47858
42672,47860
42657,47867
42638,47876
42636,47877
42611,47890
42594,47896
42583,47896
42578,47891
42578,47890
42575,47884
42568,47868
42558,47843
42546,47812
42531,47776
42514,47735
42497,47695
42479,47652
42463,47611
42448,47575
42436,47545
42427,47521
42421,47506
42419,47501
42424,47494
42435,47484
42451,47472
42494,47436
42528,47395
42553,47349
42566,47299
42569,47247
42567,47223
42555,47173
42534,47129
42506,47092
42471,47061
42432,47037
42389,47020
42343,47012
42297,47012
42251,47021
42207,47039
42165,47067
42148,47083
42114,47124
42091,47168
42078,47215
42075,47263
42081,47311
42097,47357
42122,47401
42156,47441
42194,47472
42210,47484
42221,47494
42225,47501
42223,47507
42217,47523
42208,47547
42195,47578
42180,47615
42164,47656
42147,47695
42129,47739
42113,47780
42098,47816
42085,47846
42075,47870
42069,47885
42067,47890
42061,47896
42051,47896
42034,47890
42009,47878
42008,47877
41989,47868
41974,47861
41966,47858
41965,47858
41959,47861
41945,47869
41924,47882
41899,47899
41871,47918
41843,47937
41817,47953
41796,47966
41781,47975
41774,47978
41768,47974
41754,47963
41736,47946
41713,47925
41688,47900
41680,47892
41594,47806
41659,47711
41679,47682
41696,47655
41710,47634
41720,47618
41724,47610
41724,47609
41722,47601
41716,47586
41707,47565
41701,47552
41690,47525
41679,47498
41670,47476
41668,47469
41661,47451
41655,47436
41652,47431
41644,47428
41627,47423
41603,47418
41575,47412
41562,47409
41530,47404
41499,47398
41472,47393
41453,47389
41449,47388
41419,47382
41419,47258
41420,47216
41420,47185
41420,47163
41421,47148
41423,47138
41425,47132
41428,47130
41429,47129
41437,47128
41453,47125
41477,47120
41505,47115
41535,47109
41566,47103
41596,47097
41622,47092
41642,47089
41655,47087
41657,47086
41660,47081
41665,47068
41673,47049
41676,47042
41687,47013
41701,46982
41713,46955
41722,46935
41728,46918
41730,46908
41730,46907
41726,46900
41716,46886
41702,46865
41685,46840
41665,46811
41661,46805
41638,46771
41622,46745
41610,46726
41603,46713
41601,46705
41602,46699
41602,46699
41607,46692
41620,46679
41638,46660
41660,46637
41685,46613
41688,46610
41719,46579
41743,46557
41761,46542
41772,46535
41777,46534
41784,46538
41799,46548
41821,46562
41847,46579
41876,46599
41883,46604
41980,46670
42024,46650
42051,46639
42079,46627
42104,46618
42105,46617
42124,46610
42139,46604
42147,46601
42147,46601
42149,46594
42153,46578
42158,46555
42164,46525
42170,46492
42171,46489
42177,46454
42183,46423
42188,46397
42192,46378
42194,46368
42194,46368
42195,46363
42197,46360
42202,46358
42212,46356
42226,46355
42248,46355
42277,46355
42317,46355
42322,46355
42363,46355
" /> 
</g> 
</svg>
