<?xml version="1.0" standalone="no"?>
 <!DOCTYPE svg PUBLIC "-//W3C//DTD SVG 1.1//EN" 
 "http://www.w3.org/Graphics/SVG/1.1/DTD/svg11.dtd"> 
<svg xmlns="http://www.w3.org/2000/svg" version="1.1" 
    width="29.7002cm" height="21.0007cm" viewBox="0 0 116930 82680 ">
<title>SVG Picture created as kcnc-grbl_shield-pcb-B.Mask.svg date 2017/06/24 23:27:31 </title>
  <desc>Picture generated by PCBNEW </desc>
<g style="fill:#000000; fill-opacity:1;stroke:#000000; stroke-opacity:1;
stroke-linecap:round; stroke-linejoin:round; "
 transform="translate(0 0) scale(1 1)">
</g>
<g style="fill:#000000; fill-opacity:0.0; 
stroke:#000000; stroke-width:-0.000393701; stroke-opacity:1; 
stroke-linecap:round; stroke-linejoin:round;">
</g>
<g style="fill:#000000; fill-opacity:0.0; 
stroke:#000000; stroke-width:59.0551; stroke-opacity:1; 
stroke-linecap:round; stroke-linejoin:round;">
<rect x="69685.9" y="65357.2" width="42519.7" height="12598.4" rx="0" />
<rect x="3937.01" y="3937.01" width="109056" height="74806" rx="0" />
<rect x="4724.41" y="4724.41" width="107481" height="73231.2" rx="0" />
<path d="M23622 4724
L23622 3937
" />
<path d="M43307 4724
L43307 3937
" />
<path d="M62992 4724
L62992 3937
" />
<path d="M82677 4724
L82677 3937
" />
<path d="M102362 4724
L102362 3937
" />
<path d="M14169 4562
L13877 4562
" />
<path d="M14023 4562
L14023 4050
L13974 4123
L13925 4172
L13877 4196
" />
<path d="M33562 4099
L33586 4074
L33635 4050
L33757 4050
L33805 4074
L33830 4099
L33854 4147
L33854 4196
L33830 4269
L33537 4562
L33854 4562
" />
<path d="M53222 4050
L53539 4050
L53368 4245
L53442 4245
L53490 4269
L53515 4294
L53539 4342
L53539 4464
L53515 4513
L53490 4537
L53442 4562
L53295 4562
L53247 4537
L53222 4513
" />
<path d="M73175 4221
L73175 4562
" />
<path d="M73053 4026
L72932 4391
L73248 4391
" />
<path d="M92885 4050
L92641 4050
L92617 4294
L92641 4269
L92690 4245
L92812 4245
L92860 4269
L92885 4294
L92909 4342
L92909 4464
L92885 4513
L92860 4537
L92812 4562
L92690 4562
L92641 4537
L92617 4513
" />
<path d="M112545 4050
L112448 4050
L112399 4074
L112375 4099
L112326 4172
L112302 4269
L112302 4464
L112326 4513
L112350 4537
L112399 4562
L112497 4562
L112545 4537
L112570 4513
L112594 4464
L112594 4342
L112570 4294
L112545 4269
L112497 4245
L112399 4245
L112350 4269
L112326 4294
L112302 4342
" />
<path d="M23622 77955
L23622 78742
" />
<path d="M43307 77955
L43307 78742
" />
<path d="M62992 77955
L62992 78742
" />
<path d="M82677 77955
L82677 78742
" />
<path d="M102362 77955
L102362 78742
" />
<path d="M14169 78580
L13877 78580
" />
<path d="M14023 78580
L14023 78069
L13974 78142
L13925 78190
L13877 78215
" />
<path d="M33562 78117
L33586 78093
L33635 78069
L33757 78069
L33805 78093
L33830 78117
L33854 78166
L33854 78215
L33830 78288
L33537 78580
L33854 78580
" />
<path d="M53222 78069
L53539 78069
L53368 78263
L53442 78263
L53490 78288
L53515 78312
L53539 78361
L53539 78483
L53515 78532
L53490 78556
L53442 78580
L53295 78580
L53247 78556
L53222 78532
" />
<path d="M73175 78239
L73175 78580
" />
<path d="M73053 78044
L72932 78410
L73248 78410
" />
<path d="M92885 78069
L92641 78069
L92617 78312
L92641 78288
L92690 78263
L92812 78263
L92860 78288
L92885 78312
L92909 78361
L92909 78483
L92885 78532
L92860 78556
L92812 78580
L92690 78580
L92641 78556
L92617 78532
" />
<path d="M112545 78069
L112448 78069
L112399 78093
L112375 78117
L112326 78190
L112302 78288
L112302 78483
L112326 78532
L112350 78556
L112399 78580
L112497 78580
L112545 78556
L112570 78532
L112594 78483
L112594 78361
L112570 78312
L112545 78288
L112497 78263
L112399 78263
L112350 78288
L112326 78312
L112302 78361
" />
<path d="M3937 23622
L4724 23622
" />
<path d="M3937 43307
L4724 43307
" />
<path d="M3937 62992
L4724 62992
" />
<path d="M4208 13864
L4452 13864
" />
<path d="M4160 14011
L4330 13499
L4501 14011
" />
<path d="M4367 33428
L4440 33452
L4464 33476
L4489 33525
L4489 33598
L4464 33647
L4440 33671
L4391 33696
L4196 33696
L4196 33184
L4367 33184
L4416 33208
L4440 33233
L4464 33281
L4464 33330
L4440 33379
L4416 33403
L4367 33428
L4196 33428
" />
<path d="M4489 53332
L4464 53356
L4391 53381
L4342 53381
L4269 53356
L4221 53308
L4196 53259
L4172 53161
L4172 53088
L4196 52991
L4221 52942
L4269 52893
L4342 52869
L4391 52869
L4464 52893
L4489 52918
" />
<path d="M4196 73066
L4196 72554
L4318 72554
L4391 72578
L4440 72627
L4464 72676
L4489 72773
L4489 72846
L4464 72944
L4440 72993
L4391 73041
L4318 73066
L4196 73066
" />
<path d="M112992 23622
L112205 23622
" />
<path d="M112992 43307
L112205 43307
" />
<path d="M112992 62992
L112205 62992
" />
<path d="M112477 13864
L112721 13864
" />
<path d="M112428 14011
L112599 13499
L112769 14011
" />
<path d="M112635 33428
L112708 33452
L112733 33476
L112757 33525
L112757 33598
L112733 33647
L112708 33671
L112660 33696
L112465 33696
L112465 33184
L112635 33184
L112684 33208
L112708 33233
L112733 33281
L112733 33330
L112708 33379
L112684 33403
L112635 33428
L112465 33428
" />
<path d="M112757 53332
L112733 53356
L112660 53381
L112611 53381
L112538 53356
L112489 53308
L112465 53259
L112440 53161
L112440 53088
L112465 52991
L112489 52942
L112538 52893
L112611 52869
L112660 52869
L112733 52893
L112757 52918
" />
<path d="M112465 73066
L112465 72554
L112587 72554
L112660 72578
L112708 72627
L112733 72676
L112757 72773
L112757 72846
L112733 72944
L112708 72993
L112660 73041
L112587 73066
L112465 73066
" />
<path d="M78881 76293
L78881 75703
L79022 75703
L79106 75731
L79162 75787
L79190 75843
L79219 75956
L79219 76040
L79190 76153
L79162 76209
L79106 76265
L79022 76293
L78881 76293
" />
<path d="M79725 76293
L79725 75984
L79697 75928
L79640 75899
L79528 75899
L79472 75928
" />
<path d="M79725 76265
L79669 76293
L79528 76293
L79472 76265
L79444 76209
L79444 76153
L79472 76096
L79528 76068
L79669 76068
L79725 76040
" />
<path d="M79922 75899
L80147 75899
" />
<path d="M80006 75703
L80006 76209
L80034 76265
L80090 76293
L80147 76293
" />
<path d="M80568 76265
L80512 76293
L80400 76293
L80343 76265
L80315 76209
L80315 75984
L80343 75928
L80400 75899
L80512 75899
L80568 75928
L80597 75984
L80597 76040
L80315 76096
" />
<path d="M80850 76237
L80878 76265
L80850 76293
L80822 76265
L80850 76237
L80850 76293
" />
<path d="M80850 75928
L80878 75956
L80850 75984
L80822 75956
L80850 75928
L80850 75984
" />
<path d="M69685 76577
L112205 76577
" />
<path d="M70220 77395
L70220 76805
" />
<path d="M70557 77395
L70304 77058
" />
<path d="M70557 76805
L70220 77142
" />
<path d="M70810 77395
L70810 77002
" />
<path d="M70810 76805
L70782 76833
L70810 76861
L70838 76833
L70810 76805
L70810 76861
" />
<path d="M71429 77339
L71401 77367
L71316 77395
L71260 77395
L71176 77367
L71120 77311
L71091 77255
L71063 77142
L71063 77058
L71091 76946
L71120 76889
L71176 76833
L71260 76805
L71316 76805
L71401 76833
L71429 76861
" />
<path d="M71935 77395
L71935 77086
L71907 77030
L71851 77002
L71738 77002
L71682 77030
" />
<path d="M71935 77367
L71879 77395
L71738 77395
L71682 77367
L71654 77311
L71654 77255
L71682 77199
L71738 77171
L71879 77171
L71935 77142
" />
<path d="M72469 77395
L72469 76805
" />
<path d="M72469 77367
L72413 77395
L72301 77395
L72244 77367
L72216 77339
L72188 77283
L72188 77114
L72216 77058
L72244 77030
L72301 77002
L72413 77002
L72469 77030
" />
<path d="M73201 77086
L73397 77086
" />
<path d="M73482 77395
L73201 77395
L73201 76805
L73482 76805
" />
<path d="M73735 77339
L73763 77367
L73735 77395
L73707 77367
L73735 77339
L73735 77395
" />
<path d="M74016 77395
L74016 76805
L74157 76805
L74241 76833
L74297 76889
L74325 76946
L74354 77058
L74354 77142
L74325 77255
L74297 77311
L74241 77367
L74157 77395
L74016 77395
" />
<path d="M74607 77339
L74635 77367
L74607 77395
L74579 77367
L74607 77339
L74607 77395
" />
<path d="M74860 77227
L75141 77227
" />
<path d="M74804 77395
L75000 76805
L75197 77395
" />
<path d="M75394 77339
L75422 77367
L75394 77395
L75366 77367
L75394 77339
L75394 77395
" />
<path d="M76575 77395
L76575 76805
" />
<path d="M76631 77171
L76800 77395
" />
<path d="M76800 77002
L76575 77227
" />
<path d="M77053 77395
L77053 77002
" />
<path d="M77053 76805
L77025 76833
L77053 76861
L77081 76833
L77053 76805
L77053 76861
" />
<path d="M77588 77367
L77531 77395
L77419 77395
L77363 77367
L77334 77339
L77306 77283
L77306 77114
L77334 77058
L77363 77030
L77419 77002
L77531 77002
L77588 77030
" />
<path d="M78094 77395
L78094 77086
L78066 77030
L78009 77002
L77897 77002
L77841 77030
" />
<path d="M78094 77367
L78037 77395
L77897 77395
L77841 77367
L77813 77311
L77813 77255
L77841 77199
L77897 77171
L78037 77171
L78094 77142
" />
<path d="M78628 77395
L78628 76805
" />
<path d="M78628 77367
L78572 77395
L78459 77395
L78403 77367
L78375 77339
L78347 77283
L78347 77114
L78375 77058
L78403 77030
L78459 77002
L78572 77002
L78628 77030
" />
<path d="M79612 77002
L79612 77395
" />
<path d="M79472 76777
L79331 77199
L79697 77199
" />
<path d="M79922 77339
L79950 77367
L79922 77395
L79894 77367
L79922 77339
L79922 77395
" />
<path d="M80315 76805
L80372 76805
L80428 76833
L80456 76861
L80484 76917
L80512 77030
L80512 77171
L80484 77283
L80456 77339
L80428 77367
L80372 77395
L80315 77395
L80259 77367
L80231 77339
L80203 77283
L80175 77171
L80175 77030
L80203 76917
L80231 76861
L80259 76833
L80315 76805
" />
<path d="M80765 77339
L80793 77367
L80765 77395
L80737 77367
L80765 77339
L80765 77395
" />
<path d="M81300 77002
L81300 77395
" />
<path d="M81159 76777
L81018 77199
L81384 77199
" />
<path d="M81609 77171
L82059 77171
" />
<path d="M82312 77367
L82368 77395
L82481 77395
L82537 77367
L82565 77311
L82565 77283
L82537 77227
L82481 77199
L82396 77199
L82340 77171
L82312 77114
L82312 77086
L82340 77030
L82396 77002
L82481 77002
L82537 77030
" />
<path d="M82734 77002
L82959 77002
" />
<path d="M82818 76805
L82818 77311
L82846 77367
L82903 77395
L82959 77395
" />
<path d="M83409 77395
L83409 77086
L83381 77030
L83324 77002
L83212 77002
L83156 77030
" />
<path d="M83409 77367
L83352 77395
L83212 77395
L83156 77367
L83127 77311
L83127 77255
L83156 77199
L83212 77171
L83352 77171
L83409 77142
" />
<path d="M83690 77395
L83690 76805
" />
<path d="M83690 77030
L83746 77002
L83859 77002
L83915 77030
L83943 77058
L83971 77114
L83971 77283
L83943 77339
L83915 77367
L83859 77395
L83746 77395
L83690 77367
" />
<path d="M84309 77395
L84252 77367
L84224 77311
L84224 76805
" />
<path d="M84759 77367
L84702 77395
L84590 77395
L84534 77367
L84505 77311
L84505 77086
L84534 77030
L84590 77002
L84702 77002
L84759 77030
L84787 77086
L84787 77142
L84505 77199
" />
<path d="M69685 75396
L112205 75396
" />
</g>
<g style="fill:#000000; fill-opacity:0.0; 
stroke:#000000; stroke-width:118.11; stroke-opacity:1; 
stroke-linecap:round; stroke-linejoin:round;">
<path d="M104022 76293
L103825 76012
" />
<path d="M103684 76293
L103684 75703
L103909 75703
L103965 75731
L103994 75759
L104022 75815
L104022 75899
L103994 75956
L103965 75984
L103909 76012
L103684 76012
" />
<path d="M104500 76265
L104444 76293
L104331 76293
L104275 76265
L104247 76209
L104247 75984
L104275 75928
L104331 75899
L104444 75899
L104500 75928
L104528 75984
L104528 76040
L104247 76096
" />
<path d="M104725 75899
L104865 76293
L105006 75899
" />
<path d="M105231 76237
L105259 76265
L105231 76293
L105203 76265
L105231 76237
L105231 76293
" />
<path d="M105231 75928
L105259 75956
L105231 75984
L105203 75956
L105231 75928
L105231 75984
" />
</g>
<g style="fill:#000000; fill-opacity:0.0; 
stroke:#000000; stroke-width:59.0551; stroke-opacity:1; 
stroke-linecap:round; stroke-linejoin:round;">
<path d="M70192 76265
L70276 76293
L70417 76293
L70473 76265
L70501 76237
L70529 76181
L70529 76124
L70501 76068
L70473 76040
L70417 76012
L70304 75984
L70248 75956
L70220 75928
L70192 75871
L70192 75815
L70220 75759
L70248 75731
L70304 75703
L70445 75703
L70529 75731
" />
<path d="M70782 76293
L70782 75899
" />
<path d="M70782 75703
L70754 75731
L70782 75759
L70810 75731
L70782 75703
L70782 75759
" />
<path d="M71007 75899
L71316 75899
L71007 76293
L71316 76293
" />
<path d="M71766 76265
L71710 76293
L71598 76293
L71541 76265
L71513 76209
L71513 75984
L71541 75928
L71598 75899
L71710 75899
L71766 75928
L71795 75984
L71795 76040
L71513 76096
" />
<path d="M72048 76237
L72076 76265
L72048 76293
L72019 76265
L72048 76237
L72048 76293
" />
<path d="M72048 75928
L72076 75956
L72048 75984
L72019 75956
L72048 75928
L72048 75984
" />
<path d="M72751 76124
L73032 76124
" />
<path d="M72694 76293
L72891 75703
L73088 76293
" />
<path d="M73538 75899
L73538 76293
" />
<path d="M73397 75674
L73257 76096
L73622 76096
" />
<path d="M103684 77395
L103684 76805
" />
<path d="M104219 77395
L104219 76805
" />
<path d="M104219 77367
L104162 77395
L104050 77395
L103994 77367
L103965 77339
L103937 77283
L103937 77114
L103965 77058
L103994 77030
L104050 77002
L104162 77002
L104219 77030
" />
<path d="M104500 77339
L104528 77367
L104500 77395
L104472 77367
L104500 77339
L104500 77395
" />
<path d="M104500 77030
L104528 77058
L104500 77086
L104472 77058
L104500 77030
L104500 77086
" />
<path d="M105540 77395
L105203 77395
" />
<path d="M105372 77395
L105372 76805
L105315 76889
L105259 76946
L105203 76974
" />
<path d="M106215 76777
L105709 77536
" />
<path d="M106721 77395
L106384 77395
" />
<path d="M106553 77395
L106553 76805
L106496 76889
L106440 76946
L106384 76974
" />
<path d="M69685 73821
L112205 73821
" />
</g>
<g style="fill:#000000; fill-opacity:0.0; 
stroke:#000000; stroke-width:157.48; stroke-opacity:1; 
stroke-linecap:round; stroke-linejoin:round;">
<path d="M70257 74099
L70707 74099
" />
<path d="M70384 74886
L70482 74099
" />
<path d="M70871 74886
L70937 74361
" />
<path d="M70970 74099
L70927 74136
L70960 74174
L71002 74136
L70970 74099
L70960 74174
" />
<path d="M71199 74361
L71499 74361
" />
<path d="M71345 74099
L71260 74774
L71288 74849
L71359 74886
L71434 74886
" />
<path d="M71809 74886
L71738 74849
L71710 74774
L71795 74099
" />
<path d="M72413 74849
L72334 74886
L72184 74886
L72113 74849
L72085 74774
L72123 74474
L72169 74399
L72249 74361
L72399 74361
L72469 74399
L72498 74474
L72488 74549
L72104 74624
" />
<path d="M72793 74811
L72826 74849
L72783 74886
L72751 74849
L72793 74811
L72783 74886
" />
<path d="M72844 74399
L72877 74436
L72835 74474
L72802 74436
L72844 74399
L72835 74474
" />
</g>
<g style="fill:#000000; fill-opacity:0.0; 
stroke:#000000; stroke-width:59.0551; stroke-opacity:1; 
stroke-linecap:round; stroke-linejoin:round;">
<path d="M70417 73070
L70220 73070
" />
<path d="M70220 73380
L70220 72789
L70501 72789
" />
<path d="M70726 73380
L70726 72986
" />
<path d="M70726 72789
L70698 72817
L70726 72845
L70754 72817
L70726 72789
L70726 72845
" />
<path d="M71091 73380
L71035 73352
L71007 73295
L71007 72789
" />
<path d="M71541 73352
L71485 73380
L71373 73380
L71316 73352
L71288 73295
L71288 73070
L71316 73014
L71373 72986
L71485 72986
L71541 73014
L71570 73070
L71570 73127
L71288 73183
" />
<path d="M71823 73323
L71851 73352
L71823 73380
L71795 73352
L71823 73323
L71823 73380
" />
<path d="M71823 73014
L71851 73042
L71823 73070
L71795 73042
L71823 73014
L71823 73070
" />
<path d="M72554 73380
L72554 72789
" />
<path d="M72610 73155
L72779 73380
" />
<path d="M72779 72986
L72554 73211
" />
<path d="M73285 73352
L73229 73380
L73116 73380
L73060 73352
L73032 73323
L73004 73267
L73004 73099
L73032 73042
L73060 73014
L73116 72986
L73229 72986
L73285 73014
" />
<path d="M73538 72986
L73538 73380
" />
<path d="M73538 73042
L73566 73014
L73622 72986
L73707 72986
L73763 73014
L73791 73070
L73791 73380
" />
<path d="M74325 73352
L74269 73380
L74157 73380
L74100 73352
L74072 73323
L74044 73267
L74044 73099
L74072 73042
L74100 73014
L74157 72986
L74269 72986
L74325 73014
" />
<path d="M74579 73155
L75028 73155
" />
<path d="M75563 72986
L75563 73464
L75535 73520
L75507 73548
L75450 73577
L75366 73577
L75310 73548
" />
<path d="M75563 73352
L75507 73380
L75394 73380
L75338 73352
L75310 73323
L75282 73267
L75282 73099
L75310 73042
L75338 73014
L75394 72986
L75507 72986
L75563 73014
" />
<path d="M75844 73380
L75844 72986
" />
<path d="M75844 73099
L75872 73042
L75900 73014
L75956 72986
L76013 72986
" />
<path d="M76210 73380
L76210 72789
" />
<path d="M76210 73014
L76266 72986
L76378 72986
L76435 73014
L76463 73042
L76491 73099
L76491 73267
L76463 73323
L76435 73352
L76378 73380
L76266 73380
L76210 73352
" />
<path d="M76828 73380
L76772 73352
L76744 73295
L76744 72789
" />
<path d="M76913 73436
L77363 73436
" />
<path d="M77475 73352
L77531 73380
L77644 73380
L77700 73352
L77728 73295
L77728 73267
L77700 73211
L77644 73183
L77559 73183
L77503 73155
L77475 73099
L77475 73070
L77503 73014
L77559 72986
L77644 72986
L77700 73014
" />
<path d="M77981 73380
L77981 72789
" />
<path d="M78234 73380
L78234 73070
L78206 73014
L78150 72986
L78066 72986
L78009 73014
L77981 73042
" />
<path d="M78516 73380
L78516 72986
" />
<path d="M78516 72789
L78487 72817
L78516 72845
L78544 72817
L78516 72789
L78516 72845
" />
<path d="M79022 73352
L78965 73380
L78853 73380
L78797 73352
L78769 73295
L78769 73070
L78797 73014
L78853 72986
L78965 72986
L79022 73014
L79050 73070
L79050 73127
L78769 73183
" />
<path d="M79387 73380
L79331 73352
L79303 73295
L79303 72789
" />
<path d="M79865 73380
L79865 72789
" />
<path d="M79865 73352
L79809 73380
L79697 73380
L79640 73352
L79612 73323
L79584 73267
L79584 73099
L79612 73042
L79640 73014
L79697 72986
L79809 72986
L79865 73014
" />
<path d="M80147 73155
L80597 73155
" />
<path d="M80878 72986
L80878 73577
" />
<path d="M80878 73014
L80934 72986
L81046 72986
L81103 73014
L81131 73042
L81159 73099
L81159 73267
L81131 73323
L81103 73352
L81046 73380
L80934 73380
L80878 73352
" />
<path d="M81665 73352
L81609 73380
L81496 73380
L81440 73352
L81412 73323
L81384 73267
L81384 73099
L81412 73042
L81440 73014
L81496 72986
L81609 72986
L81665 73014
" />
<path d="M81918 73380
L81918 72789
" />
<path d="M81918 73014
L81974 72986
L82087 72986
L82143 73014
L82171 73042
L82199 73099
L82199 73267
L82171 73323
L82143 73352
L82087 73380
L81974 73380
L81918 73352
" />
<path d="M82453 73323
L82481 73352
L82453 73380
L82424 73352
L82453 73323
L82453 73380
" />
<path d="M82734 73380
L82734 72789
" />
<path d="M82790 73155
L82959 73380
" />
<path d="M82959 72986
L82734 73211
" />
<path d="M83212 73380
L83212 72986
" />
<path d="M83212 72789
L83184 72817
L83212 72845
L83240 72817
L83212 72789
L83212 72845
" />
<path d="M83746 73352
L83690 73380
L83577 73380
L83521 73352
L83493 73323
L83465 73267
L83465 73099
L83493 73042
L83521 73014
L83577 72986
L83690 72986
L83746 73014
" />
<path d="M84252 73380
L84252 73070
L84224 73014
L84168 72986
L84055 72986
L83999 73014
" />
<path d="M84252 73352
L84196 73380
L84055 73380
L83999 73352
L83971 73295
L83971 73239
L83999 73183
L84055 73155
L84196 73155
L84252 73127
" />
<path d="M84787 73380
L84787 72789
" />
<path d="M84787 73352
L84730 73380
L84618 73380
L84562 73352
L84534 73323
L84505 73267
L84505 73099
L84534 73042
L84562 73014
L84618 72986
L84730 72986
L84787 73014
" />
<path d="M84927 73436
L85377 73436
" />
<path d="M85518 72986
L85518 73577
" />
<path d="M85518 73014
L85574 72986
L85687 72986
L85743 73014
L85771 73042
L85799 73099
L85799 73267
L85771 73323
L85743 73352
L85687 73380
L85574 73380
L85518 73352
" />
<path d="M86305 73352
L86249 73380
L86136 73380
L86080 73352
L86052 73323
L86024 73267
L86024 73099
L86052 73042
L86080 73014
L86136 72986
L86249 72986
L86305 73014
" />
<path d="M86558 73380
L86558 72789
" />
<path d="M86558 73014
L86615 72986
L86727 72986
L86783 73014
L86811 73042
L86840 73099
L86840 73267
L86811 73323
L86783 73352
L86727 73380
L86615 73380
L86558 73352
" />
<path d="M69685 71459
L112205 71459
" />
<path d="M70192 72289
L70276 72317
L70417 72317
L70473 72289
L70501 72260
L70529 72204
L70529 72148
L70501 72092
L70473 72064
L70417 72036
L70304 72007
L70248 71979
L70220 71951
L70192 71895
L70192 71839
L70220 71782
L70248 71754
L70304 71726
L70445 71726
L70529 71754
" />
<path d="M70782 72317
L70782 71726
" />
<path d="M71035 72317
L71035 72007
L71007 71951
L70951 71923
L70867 71923
L70810 71951
L70782 71979
" />
<path d="M71541 72289
L71485 72317
L71373 72317
L71316 72289
L71288 72232
L71288 72007
L71316 71951
L71373 71923
L71485 71923
L71541 71951
L71570 72007
L71570 72064
L71288 72120
" />
<path d="M72048 72289
L71991 72317
L71879 72317
L71823 72289
L71795 72232
L71795 72007
L71823 71951
L71879 71923
L71991 71923
L72048 71951
L72076 72007
L72076 72064
L71795 72120
" />
<path d="M72244 71923
L72469 71923
" />
<path d="M72329 71726
L72329 72232
L72357 72289
L72413 72317
L72469 72317
" />
<path d="M72666 72260
L72694 72289
L72666 72317
L72638 72289
L72666 72260
L72666 72317
" />
<path d="M72666 71951
L72694 71979
L72666 72007
L72638 71979
L72666 71951
L72666 72007
" />
<path d="M77559 75396
L77559 76577
" />
<path d="M102756 75396
L102756 77955
" />
<path d="M38188 49212
L38188 27559
" />
<path d="M77952 49212
L38188 49212
" />
<path d="M77952 27559
L77952 49212
" />
<path d="M38188 27559
L77952 27559
" />
<circle cx="34645.7" cy="52755.9" r="656.168" /> 
<path d="M33661 52755
L35629 52755
" />
<path d="M34645 51771
L34645 53740
" />
<circle cx="81496.1" cy="52755.9" r="656.168" /> 
<path d="M80511 52755
L82480 52755
" />
<path d="M81496 51771
L81496 53740
" />
<circle cx="81496.1" cy="24015.7" r="656.168" /> 
<path d="M80511 24015
L82480 24015
" />
<path d="M81496 23031
L81496 25000
" />
<circle cx="34645.7" cy="24015.7" r="656.168" /> 
<path d="M33661 24015
L35629 24015
" />
<path d="M34645 23031
L34645 25000
" />
</g>
<g style="fill:#000000; fill-opacity:0.0; 
stroke:#000000; stroke-width:757.48; stroke-opacity:1; 
stroke-linecap:round; stroke-linejoin:round;">
<path d="M63548 48044
L63548 47644
" />
<path d="M62548 48044
L62548 47644
" />
<path d="M61548 48044
L61548 47644
" />
<path d="M58548 48044
L58548 47644
" />
<path d="M59548 48044
L59548 47644
" />
<path d="M60548 48044
L60548 47644
" />
<path d="M56548 48044
L56548 47644
" />
<path d="M55548 48044
L55548 47644
" />
<path d="M54548 48044
L54548 47644
" />
<path d="M52548 48044
L52548 47644
" />
<path d="M51548 48044
L51548 47644
" />
<path d="M63548 29044
L63548 28644
" />
<path d="M62548 29044
L62548 28644
" />
<path d="M61548 29044
L61548 28644
" />
<path d="M60548 29044
L60548 28644
" />
<path d="M59548 29044
L59548 28644
" />
<path d="M58548 29044
L58548 28644
" />
<path d="M57548 29044
L57548 28644
" />
<path d="M56548 29044
L56548 28644
" />
<path d="M54948 29044
L54948 28644
" />
<path d="M53948 29044
L53948 28644
" />
<path d="M52948 29044
L52948 28644
" />
<path d="M51948 29044
L51948 28644
" />
<path d="M50948 29044
L50948 28644
" />
<path d="M49948 29044
L49948 28644
" />
<path d="M48948 29044
L48948 28644
" />
<path d="M47948 29044
L47948 28644
" />
<path d="M53548 48044
L53548 47644
" />
</g>
<g style="fill:#000000; fill-opacity:1.0; 
stroke:#000000; stroke-width:0; stroke-opacity:1; 
stroke-linecap:round; stroke-linejoin:round;">
<circle cx="76540.2" cy="47859.8" r="703.74" /> 
</g>
<g style="fill:#000000; fill-opacity:1.0; 
stroke:#000000; stroke-width:59.0551; stroke-opacity:1; 
stroke-linecap:round; stroke-linejoin:round;">
</g>
<g style="fill:#000000; fill-opacity:1.0; 
stroke:#000000; stroke-width:0; stroke-opacity:1; 
stroke-linecap:round; stroke-linejoin:round;">
<circle cx="76540.2" cy="28765.4" r="703.74" /> 
</g>
<g style="fill:#000000; fill-opacity:1.0; 
stroke:#000000; stroke-width:59.0551; stroke-opacity:1; 
stroke-linecap:round; stroke-linejoin:round;">
</g>
<g style="fill:#000000; fill-opacity:1.0; 
stroke:#000000; stroke-width:0; stroke-opacity:1; 
stroke-linecap:round; stroke-linejoin:round;">
<circle cx="39532.3" cy="28765.4" r="703.74" /> 
</g>
<g style="fill:#000000; fill-opacity:1.0; 
stroke:#000000; stroke-width:59.0551; stroke-opacity:1; 
stroke-linecap:round; stroke-linejoin:round;">
</g>
<g style="fill:#000000; fill-opacity:1.0; 
stroke:#000000; stroke-width:0; stroke-opacity:1; 
stroke-linecap:round; stroke-linejoin:round;">
<circle cx="39532.3" cy="47859.8" r="703.74" /> 
</g>
<g style="fill:#000000; fill-opacity:1.0; 
stroke:#000000; stroke-width:59.0551; stroke-opacity:1; 
stroke-linecap:round; stroke-linejoin:round;">
</g>
<g style="fill:#000000; fill-opacity:1.0; 
stroke:#000000; stroke-width:757.48; stroke-opacity:1; 
stroke-linecap:round; stroke-linejoin:round;">
</g>
<g style="fill:#000000; fill-opacity:0.0; 
stroke:#000000; stroke-width:757.48; stroke-opacity:1; 
stroke-linecap:round; stroke-linejoin:round;">
<path d="M46948 29044
L46948 28644
" />
<path d="M45948 29044
L45948 28644
" />
<path d="M50548 48044
L50548 47644
" />
<path d="M49548 48044
L49548 47644
" />
</g>
<g style="fill:#000000; fill-opacity:0.0; 
stroke:#000000; stroke-width:0; stroke-opacity:1; 
stroke-linecap:round; stroke-linejoin:round;">
</g>
<g style="fill:#000000; fill-opacity:1.0; 
stroke:#000000; stroke-width:0; stroke-opacity:1; 
stroke-linecap:round; stroke-linejoin:round;">
<polyline style="fill-rule:evenodd;"
points="73427,35327
74372,35327
74372,36272
73427,36272
73427,35327
" /> 
<circle cx="73900" cy="36784.3" r="472.441" /> 
</g>
<g style="fill:#000000; fill-opacity:1.0; 
stroke:#000000; stroke-width:59.0551; stroke-opacity:1; 
stroke-linecap:round; stroke-linejoin:round;">
</g>
<g style="fill:#000000; fill-opacity:1.0; 
stroke:#000000; stroke-width:957.48; stroke-opacity:1; 
stroke-linecap:round; stroke-linejoin:round;">
</g>
<g style="fill:#000000; fill-opacity:0.0; 
stroke:#000000; stroke-width:957.48; stroke-opacity:1; 
stroke-linecap:round; stroke-linejoin:round;">
<path d="M70800 38000
L71000 38000
" />
<path d="M70800 37000
L71000 37000
" />
<path d="M70800 39000
L71000 39000
" />
</g>
<g style="fill:#000000; fill-opacity:0.0; 
stroke:#000000; stroke-width:0; stroke-opacity:1; 
stroke-linecap:round; stroke-linejoin:round;">
</g>
<g style="fill:#000000; fill-opacity:1.0; 
stroke:#000000; stroke-width:0; stroke-opacity:1; 
stroke-linecap:round; stroke-linejoin:round;">
<polyline style="fill-rule:evenodd;"
points="73630,42424
73630,41775
74181,41775
74181,42424
73630,42424
" /> 
<polyline style="fill-rule:evenodd;"
points="74418,42424
74418,41775
74969,41775
74969,42424
74418,42424
" /> 
<polyline style="fill-rule:evenodd;"
points="41018,45576
41018,45123
41490,45123
41490,45576
41018,45576
" /> 
<polyline style="fill-rule:evenodd;"
points="41609,45576
41609,45123
42081,45123
42081,45576
41609,45576
" /> 
<polyline style="fill-rule:evenodd;"
points="43768,45576
43768,45123
44240,45123
44240,45576
43768,45576
" /> 
<polyline style="fill-rule:evenodd;"
points="44359,45576
44359,45123
44831,45123
44831,45576
44359,45576
" /> 
<polyline style="fill-rule:evenodd;"
points="69675,33830
70324,33830
70324,34381
69675,34381
69675,33830
" /> 
<polyline style="fill-rule:evenodd;"
points="69675,34618
70324,34618
70324,35169
69675,35169
69675,34618
" /> 
<polyline style="fill-rule:evenodd;"
points="46518,45576
46518,45123
46990,45123
46990,45576
46518,45576
" /> 
<polyline style="fill-rule:evenodd;"
points="47109,45576
47109,45123
47581,45123
47581,45576
47109,45576
" /> 
<polyline style="fill-rule:evenodd;"
points="49268,45576
49268,45123
49740,45123
49740,45576
49268,45576
" /> 
<polyline style="fill-rule:evenodd;"
points="49859,45576
49859,45123
50331,45123
50331,45576
49859,45576
" /> 
<polyline style="fill-rule:evenodd;"
points="70673,33868
71126,33868
71126,34340
70673,34340
70673,33868
" /> 
<polyline style="fill-rule:evenodd;"
points="70673,34459
71126,34459
71126,34931
70673,34931
70673,34459
" /> 
<polyline style="fill-rule:evenodd;"
points="52018,45576
52018,45123
52490,45123
52490,45576
52018,45576
" /> 
<polyline style="fill-rule:evenodd;"
points="52609,45576
52609,45123
53081,45123
53081,45576
52609,45576
" /> 
<polyline style="fill-rule:evenodd;"
points="71473,33868
71926,33868
71926,34340
71473,34340
71473,33868
" /> 
<polyline style="fill-rule:evenodd;"
points="71473,34459
71926,34459
71926,34931
71473,34931
71473,34459
" /> 
<polyline style="fill-rule:evenodd;"
points="54768,45576
54768,45123
55240,45123
55240,45576
54768,45576
" /> 
<polyline style="fill-rule:evenodd;"
points="55359,45576
55359,45123
55831,45123
55831,45576
55359,45576
" /> 
<polyline style="fill-rule:evenodd;"
points="57768,45576
57768,45123
58240,45123
58240,45576
57768,45576
" /> 
<polyline style="fill-rule:evenodd;"
points="58359,45576
58359,45123
58831,45123
58831,45576
58359,45576
" /> 
</g>
<g style="fill:#000000; fill-opacity:1.0; 
stroke:#000000; stroke-width:878.74; stroke-opacity:1; 
stroke-linecap:round; stroke-linejoin:round;">
</g>
<g style="fill:#000000; fill-opacity:0.0; 
stroke:#000000; stroke-width:878.74; stroke-opacity:1; 
stroke-linecap:round; stroke-linejoin:round;">
<path d="M42485 39688
L42485 39888
" />
<path d="M41107 39688
L41107 39888
" />
<path d="M45240 39688
L45240 39888
" />
<path d="M43862 39688
L43862 39888
" />
<path d="M47996 39688
L47996 39888
" />
<path d="M46618 39688
L46618 39888
" />
<path d="M50752 39688
L50752 39888
" />
<path d="M49374 39688
L49374 39888
" />
<path d="M53508 39688
L53508 39888
" />
<path d="M52130 39688
L52130 39888
" />
<path d="M56264 39688
L56264 39888
" />
<path d="M54886 39688
L54886 39888
" />
<path d="M59020 39688
L59020 39888
" />
<path d="M57642 39688
L57642 39888
" />
<path d="M67288 39688
L67288 39888
" />
<path d="M65910 39688
L65910 39888
" />
<path d="M61776 39688
L61776 39888
" />
<path d="M60398 39688
L60398 39888
" />
<path d="M41107 35951
L41107 35751
" />
<path d="M42485 35951
L42485 35751
" />
<path d="M43862 35951
L43862 35751
" />
<path d="M45240 35951
L45240 35751
" />
<path d="M46618 35951
L46618 35751
" />
<path d="M47996 35951
L47996 35751
" />
<path d="M49374 35951
L49374 35751
" />
<path d="M50752 35951
L50752 35751
" />
<path d="M52130 35951
L52130 35751
" />
<path d="M53508 35951
L53508 35751
" />
<path d="M54886 35951
L54886 35751
" />
<path d="M56264 35951
L56264 35751
" />
<path d="M57642 35951
L57642 35751
" />
<path d="M59020 35951
L59020 35751
" />
<path d="M60398 35951
L60398 35751
" />
<path d="M61776 35951
L61776 35751
" />
<path d="M63154 35951
L63154 35751
" />
<path d="M64532 35951
L64532 35751
" />
<path d="M65910 35951
L65910 35751
" />
<path d="M67288 35951
L67288 35751
" />
<path d="M64532 39688
L64532 39888
" />
<path d="M63154 39688
L63154 39888
" />
</g>
<g style="fill:#000000; fill-opacity:0.0; 
stroke:#000000; stroke-width:0; stroke-opacity:1; 
stroke-linecap:round; stroke-linejoin:round;">
</g>
<g style="fill:#000000; fill-opacity:1.0; 
stroke:#000000; stroke-width:0; stroke-opacity:1; 
stroke-linecap:round; stroke-linejoin:round;">
<polyline style="fill-rule:evenodd;"
points="45986,47386
46813,47386
46813,48213
45986,48213
45986,47386
" /> 
</g>
<g style="fill:#000000; fill-opacity:1.0; 
stroke:#000000; stroke-width:826.772; stroke-opacity:1; 
stroke-linecap:round; stroke-linejoin:round;">
</g>
<g style="fill:#000000; fill-opacity:0.0; 
stroke:#000000; stroke-width:826.772; stroke-opacity:1; 
stroke-linecap:round; stroke-linejoin:round;">
<path d="M45400 47800
L45400 47800
" />
</g>
<g style="fill:#000000; fill-opacity:0.0; 
stroke:#000000; stroke-width:0; stroke-opacity:1; 
stroke-linecap:round; stroke-linejoin:round;">
</g>
<g style="fill:#000000; fill-opacity:1.0; 
stroke:#000000; stroke-width:0; stroke-opacity:1; 
stroke-linecap:round; stroke-linejoin:round;">
<polyline style="fill-rule:evenodd;"
points="68413,29213
67586,29213
67586,28386
68413,28386
68413,29213
" /> 
</g>
<g style="fill:#000000; fill-opacity:1.0; 
stroke:#000000; stroke-width:826.772; stroke-opacity:1; 
stroke-linecap:round; stroke-linejoin:round;">
</g>
<g style="fill:#000000; fill-opacity:0.0; 
stroke:#000000; stroke-width:826.772; stroke-opacity:1; 
stroke-linecap:round; stroke-linejoin:round;">
<path d="M69000 28800
L69000 28800
" />
<path d="M70000 28800
L70000 28800
" />
<path d="M71000 28800
L71000 28800
" />
</g>
<g style="fill:#000000; fill-opacity:0.0; 
stroke:#000000; stroke-width:0; stroke-opacity:1; 
stroke-linecap:round; stroke-linejoin:round;">
</g>
<g style="fill:#000000; fill-opacity:1.0; 
stroke:#000000; stroke-width:0; stroke-opacity:1; 
stroke-linecap:round; stroke-linejoin:round;">
<polyline style="fill-rule:evenodd;"
points="40044,41627
40555,41627
40555,41981
40044,41981
40044,41627
" /> 
<polyline style="fill-rule:evenodd;"
points="40044,42218
40555,42218
40555,42572
40044,42572
40044,42218
" /> 
<polyline style="fill-rule:evenodd;"
points="43044,41627
43555,41627
43555,41981
43044,41981
43044,41627
" /> 
<polyline style="fill-rule:evenodd;"
points="43044,42218
43555,42218
43555,42572
43044,42572
43044,42218
" /> 
<polyline style="fill-rule:evenodd;"
points="45794,41627
46305,41627
46305,41981
45794,41981
45794,41627
" /> 
<polyline style="fill-rule:evenodd;"
points="45794,42218
46305,42218
46305,42572
45794,42572
45794,42218
" /> 
<polyline style="fill-rule:evenodd;"
points="48544,41627
49055,41627
49055,41981
48544,41981
48544,41627
" /> 
<polyline style="fill-rule:evenodd;"
points="48544,42218
49055,42218
49055,42572
48544,42572
48544,42218
" /> 
<polyline style="fill-rule:evenodd;"
points="51294,41627
51805,41627
51805,41981
51294,41981
51294,41627
" /> 
<polyline style="fill-rule:evenodd;"
points="51294,42218
51805,42218
51805,42572
51294,42572
51294,42218
" /> 
<polyline style="fill-rule:evenodd;"
points="54044,41627
54555,41627
54555,41981
54044,41981
54044,41627
" /> 
<polyline style="fill-rule:evenodd;"
points="54044,42218
54555,42218
54555,42572
54044,42572
54044,42218
" /> 
<polyline style="fill-rule:evenodd;"
points="56794,41627
57305,41627
57305,41981
56794,41981
56794,41627
" /> 
<polyline style="fill-rule:evenodd;"
points="56794,42218
57305,42218
57305,42572
56794,42572
56794,42218
" /> 
<polyline style="fill-rule:evenodd;"
points="40044,43627
40555,43627
40555,43981
40044,43981
40044,43627
" /> 
<polyline style="fill-rule:evenodd;"
points="40044,44218
40555,44218
40555,44572
40044,44572
40044,44218
" /> 
<polyline style="fill-rule:evenodd;"
points="43044,43627
43555,43627
43555,43981
43044,43981
43044,43627
" /> 
<polyline style="fill-rule:evenodd;"
points="43044,44218
43555,44218
43555,44572
43044,44572
43044,44218
" /> 
<polyline style="fill-rule:evenodd;"
points="45794,43627
46305,43627
46305,43981
45794,43981
45794,43627
" /> 
<polyline style="fill-rule:evenodd;"
points="45794,44218
46305,44218
46305,44572
45794,44572
45794,44218
" /> 
<polyline style="fill-rule:evenodd;"
points="48544,43627
49055,43627
49055,43981
48544,43981
48544,43627
" /> 
<polyline style="fill-rule:evenodd;"
points="48544,44218
49055,44218
49055,44572
48544,44572
48544,44218
" /> 
<polyline style="fill-rule:evenodd;"
points="51294,43627
51805,43627
51805,43981
51294,43981
51294,43627
" /> 
<polyline style="fill-rule:evenodd;"
points="51294,44218
51805,44218
51805,44572
51294,44572
51294,44218
" /> 
<polyline style="fill-rule:evenodd;"
points="54044,43627
54555,43627
54555,43981
54044,43981
54044,43627
" /> 
<polyline style="fill-rule:evenodd;"
points="54044,44218
54555,44218
54555,44572
54044,44572
54044,44218
" /> 
<polyline style="fill-rule:evenodd;"
points="56794,43627
57305,43627
57305,43981
56794,43981
56794,43627
" /> 
<polyline style="fill-rule:evenodd;"
points="56794,44218
57305,44218
57305,44572
56794,44572
56794,44218
" /> 
<polyline style="fill-rule:evenodd;"
points="47644,47027
48155,47027
48155,47381
47644,47381
47644,47027
" /> 
<polyline style="fill-rule:evenodd;"
points="47644,47618
48155,47618
48155,47972
47644,47972
47644,47618
" /> 
<polyline style="fill-rule:evenodd;"
points="41083,44044
41516,44044
41516,44753
41083,44753
41083,44044
" /> 
<polyline style="fill-rule:evenodd;"
points="42083,41446
42516,41446
42516,42155
42083,42155
42083,41446
" /> 
<polyline style="fill-rule:evenodd;"
points="42083,44044
42516,44044
42516,44753
42083,44753
42083,44044
" /> 
<polyline style="fill-rule:evenodd;"
points="41083,41446
41516,41446
41516,42155
41083,42155
41083,41446
" /> 
<polyline style="fill-rule:evenodd;"
points="43833,44044
44266,44044
44266,44753
43833,44753
43833,44044
" /> 
<polyline style="fill-rule:evenodd;"
points="44833,41446
45266,41446
45266,42155
44833,42155
44833,41446
" /> 
<polyline style="fill-rule:evenodd;"
points="44833,44044
45266,44044
45266,44753
44833,44753
44833,44044
" /> 
<polyline style="fill-rule:evenodd;"
points="43833,41446
44266,41446
44266,42155
43833,42155
43833,41446
" /> 
<polyline style="fill-rule:evenodd;"
points="46583,44044
47016,44044
47016,44753
46583,44753
46583,44044
" /> 
<polyline style="fill-rule:evenodd;"
points="47583,41446
48016,41446
48016,42155
47583,42155
47583,41446
" /> 
<polyline style="fill-rule:evenodd;"
points="47583,44044
48016,44044
48016,44753
47583,44753
47583,44044
" /> 
<polyline style="fill-rule:evenodd;"
points="46583,41446
47016,41446
47016,42155
46583,42155
46583,41446
" /> 
<polyline style="fill-rule:evenodd;"
points="49333,44044
49766,44044
49766,44753
49333,44753
49333,44044
" /> 
<polyline style="fill-rule:evenodd;"
points="50333,41446
50766,41446
50766,42155
50333,42155
50333,41446
" /> 
<polyline style="fill-rule:evenodd;"
points="50333,44044
50766,44044
50766,44753
50333,44753
50333,44044
" /> 
<polyline style="fill-rule:evenodd;"
points="49333,41446
49766,41446
49766,42155
49333,42155
49333,41446
" /> 
<polyline style="fill-rule:evenodd;"
points="52083,44044
52516,44044
52516,44753
52083,44753
52083,44044
" /> 
<polyline style="fill-rule:evenodd;"
points="53083,41446
53516,41446
53516,42155
53083,42155
53083,41446
" /> 
<polyline style="fill-rule:evenodd;"
points="53083,44044
53516,44044
53516,44753
53083,44753
53083,44044
" /> 
<polyline style="fill-rule:evenodd;"
points="52083,41446
52516,41446
52516,42155
52083,42155
52083,41446
" /> 
<polyline style="fill-rule:evenodd;"
points="54833,44044
55266,44044
55266,44753
54833,44753
54833,44044
" /> 
<polyline style="fill-rule:evenodd;"
points="55833,41446
56266,41446
56266,42155
55833,42155
55833,41446
" /> 
<polyline style="fill-rule:evenodd;"
points="55833,44044
56266,44044
56266,44753
55833,44753
55833,44044
" /> 
<polyline style="fill-rule:evenodd;"
points="54833,41446
55266,41446
55266,42155
54833,42155
54833,41446
" /> 
<polyline style="fill-rule:evenodd;"
points="57833,44044
58266,44044
58266,44753
57833,44753
57833,44044
" /> 
<polyline style="fill-rule:evenodd;"
points="58833,41446
59266,41446
59266,42155
58833,42155
58833,41446
" /> 
<polyline style="fill-rule:evenodd;"
points="58833,44044
59266,44044
59266,44753
58833,44753
58833,44044
" /> 
<polyline style="fill-rule:evenodd;"
points="57833,41446
58266,41446
58266,42155
57833,42155
57833,41446
" /> 
<polyline style="fill-rule:evenodd;"
points="56141,31278
56141,30621
56458,30621
56458,31278
56141,31278
" /> 
<polyline style="fill-rule:evenodd;"
points="56391,31278
56391,30621
56708,30621
56708,31278
56391,31278
" /> 
<polyline style="fill-rule:evenodd;"
points="56651,31278
56651,30621
56968,30621
56968,31278
56651,31278
" /> 
<polyline style="fill-rule:evenodd;"
points="56911,31278
56911,30621
57228,30621
57228,31278
56911,31278
" /> 
<polyline style="fill-rule:evenodd;"
points="57161,31278
57161,30621
57478,30621
57478,31278
57161,31278
" /> 
<polyline style="fill-rule:evenodd;"
points="57421,31278
57421,30621
57738,30621
57738,31278
57421,31278
" /> 
<polyline style="fill-rule:evenodd;"
points="57681,31278
57681,30621
57998,30621
57998,31278
57681,31278
" /> 
<polyline style="fill-rule:evenodd;"
points="57931,31278
57931,30621
58248,30621
58248,31278
57931,31278
" /> 
<polyline style="fill-rule:evenodd;"
points="58191,31278
58191,30621
58508,30621
58508,31278
58191,31278
" /> 
<polyline style="fill-rule:evenodd;"
points="58441,31278
58441,30621
58758,30621
58758,31278
58441,31278
" /> 
<polyline style="fill-rule:evenodd;"
points="58441,33378
58441,32721
58758,32721
58758,33378
58441,33378
" /> 
<polyline style="fill-rule:evenodd;"
points="58191,33378
58191,32721
58508,32721
58508,33378
58191,33378
" /> 
<polyline style="fill-rule:evenodd;"
points="57931,33378
57931,32721
58248,32721
58248,33378
57931,33378
" /> 
<polyline style="fill-rule:evenodd;"
points="57681,33378
57681,32721
57998,32721
57998,33378
57681,33378
" /> 
<polyline style="fill-rule:evenodd;"
points="57421,33378
57421,32721
57738,32721
57738,33378
57421,33378
" /> 
<polyline style="fill-rule:evenodd;"
points="57161,33378
57161,32721
57478,32721
57478,33378
57161,33378
" /> 
<polyline style="fill-rule:evenodd;"
points="56911,33378
56911,32721
57228,32721
57228,33378
56911,33378
" /> 
<polyline style="fill-rule:evenodd;"
points="56651,33378
56651,32721
56968,32721
56968,33378
56651,33378
" /> 
<polyline style="fill-rule:evenodd;"
points="56391,33378
56391,32721
56708,32721
56708,33378
56391,33378
" /> 
<polyline style="fill-rule:evenodd;"
points="56141,33378
56141,32721
56458,32721
56458,33378
56141,33378
" /> 
<polyline style="fill-rule:evenodd;"
points="41603,33278
40996,33278
40996,32921
41603,32921
41603,33278
" /> 
<polyline style="fill-rule:evenodd;"
points="41603,32778
40996,32778
40996,32421
41603,32421
41603,32778
" /> 
<polyline style="fill-rule:evenodd;"
points="41603,32278
40996,32278
40996,31921
41603,31921
41603,32278
" /> 
<polyline style="fill-rule:evenodd;"
points="41603,31778
40996,31778
40996,31421
41603,31421
41603,31778
" /> 
<polyline style="fill-rule:evenodd;"
points="41603,31278
40996,31278
40996,30921
41603,30921
41603,31278
" /> 
<polyline style="fill-rule:evenodd;"
points="41603,30778
40996,30778
40996,30421
41603,30421
41603,30778
" /> 
<polyline style="fill-rule:evenodd;"
points="41603,30278
40996,30278
40996,29921
41603,29921
41603,30278
" /> 
<polyline style="fill-rule:evenodd;"
points="44103,30278
43496,30278
43496,29921
44103,29921
44103,30278
" /> 
<polyline style="fill-rule:evenodd;"
points="44103,30778
43496,30778
43496,30421
44103,30421
44103,30778
" /> 
<polyline style="fill-rule:evenodd;"
points="44103,31778
43496,31778
43496,31421
44103,31421
44103,31778
" /> 
<polyline style="fill-rule:evenodd;"
points="44103,32278
43496,32278
43496,31921
44103,31921
44103,32278
" /> 
<polyline style="fill-rule:evenodd;"
points="44103,32778
43496,32778
43496,32421
44103,32421
44103,32778
" /> 
<polyline style="fill-rule:evenodd;"
points="44103,33278
43496,33278
43496,32921
44103,32921
44103,33278
" /> 
<polyline style="fill-rule:evenodd;"
points="44103,31278
43496,31278
43496,30921
44103,30921
44103,31278
" /> 
<polyline style="fill-rule:evenodd;"
points="74372,40772
73427,40772
73427,39827
74372,39827
74372,40772
" /> 
<circle cx="73900" cy="39315.7" r="472.441" /> 
</g>
<g style="fill:#000000; fill-opacity:1.0; 
stroke:#000000; stroke-width:59.0551; stroke-opacity:1; 
stroke-linecap:round; stroke-linejoin:round;">
</g>
<g style="fill:#000000; fill-opacity:1.0; 
stroke:#000000; stroke-width:0; stroke-opacity:1; 
stroke-linecap:round; stroke-linejoin:round;">
<circle cx="42600" cy="46900" r="314.961" /> 
</g>
<g style="fill:#000000; fill-opacity:1.0; 
stroke:#000000; stroke-width:59.0551; stroke-opacity:1; 
stroke-linecap:round; stroke-linejoin:round;">
</g>
<g style="fill:#000000; fill-opacity:1.0; 
stroke:#000000; stroke-width:0; stroke-opacity:1; 
stroke-linecap:round; stroke-linejoin:round;">
<circle cx="45900" cy="46250" r="314.961" /> 
</g>
<g style="fill:#000000; fill-opacity:1.0; 
stroke:#000000; stroke-width:59.0551; stroke-opacity:1; 
stroke-linecap:round; stroke-linejoin:round;">
</g>
<g style="fill:#000000; fill-opacity:1.0; 
stroke:#000000; stroke-width:0; stroke-opacity:1; 
stroke-linecap:round; stroke-linejoin:round;">
<circle cx="44700" cy="32400" r="314.961" /> 
</g>
<g style="fill:#000000; fill-opacity:1.0; 
stroke:#000000; stroke-width:59.0551; stroke-opacity:1; 
stroke-linecap:round; stroke-linejoin:round;">
</g> 
</svg>
